<svg width="49" height="49" viewBox="0 0 49 49" fill="none" xmlns="http://www.w3.org/2000/svg">
<path d="M0.146561 37.9599L3.20934 35.9181C-0.81431 28.9518 -1.05453 20.5441 2.48869 13.3977L6.6925 13.1574C2.66885 19.5232 2.48869 27.4504 6.15201 33.9363L9.03463 32.0146L9.69523 42.6442L0.146561 37.9599ZM47.95 10.0947L38.4013 5.35035L39.0619 15.98L41.9445 14.0583C45.6078 20.5441 45.4277 28.5314 41.404 34.8371L45.6078 34.5969C49.151 27.4504 48.8508 19.0428 44.8872 12.0765L47.95 10.0947ZM16.001 9.01368L14.0792 6.13106C20.5651 2.46774 28.5523 2.6479 34.8581 6.67155L34.6179 2.46774C27.4714 -1.07548 19.0637 -0.775206 12.0974 3.18839L10.0556 0.125612L5.31125 9.67428L16.001 9.01368ZM13.1784 41.3831L13.4186 45.5869C16.7216 47.2684 20.3849 48.1092 23.9882 48.1092C28.0719 48.1092 32.2157 47.0282 35.9391 44.9263L37.9208 47.929L42.6652 38.3803L32.0355 39.0409L33.9573 41.9235C27.5314 45.5268 19.5442 45.3467 13.1784 41.3831Z" fill="url(#paint0_linear_376_198)"/>
<path d="M14.6877 27.8831C15.0975 28.9046 14.7075 30.1776 13.5592 31.7476C14.3234 32.7692 15.2301 33.6759 16.2536 34.4401C17.8611 33.2641 19.1439 32.8959 20.1594 33.3294C21.175 33.765 21.8006 34.941 22.0975 36.8614V36.8634C23.3586 37.0455 24.6414 37.0455 25.9025 36.8634C26.2073 34.8955 26.8567 33.7294 27.8841 33.3136C28.9056 32.9038 30.1786 33.2938 31.7485 34.4421L31.7465 34.4402C32.2592 34.06 32.7422 33.6443 33.1917 33.1929C33.641 32.7415 34.0587 32.2584 34.4408 31.7476C33.2688 30.14 32.8966 28.8572 33.3322 27.8415C33.7638 26.8259 34.9397 26.2003 36.8619 25.9033V25.9014C37.046 24.6402 37.046 23.3593 36.8619 22.0982C34.8941 21.7933 33.7281 21.1439 33.3143 20.1164C32.9026 19.0948 33.2926 17.8219 34.4388 16.2519H34.4408C33.6786 15.2283 32.77 14.3216 31.7465 13.5593C30.139 14.7353 28.8601 15.1036 27.8406 14.668C26.825 14.2364 26.2014 13.0604 25.9025 11.1381C24.6415 10.954 23.3586 10.954 22.0976 11.1381C21.7927 13.106 21.1473 14.2721 20.1159 14.6839C19.0944 15.0957 17.8215 14.7057 16.2516 13.5593H16.2536C15.2281 14.3216 14.3214 15.2283 13.5592 16.2519C14.7352 17.8595 15.1034 19.1384 14.6698 20.158C14.2343 21.1736 13.0584 21.7972 11.1381 22.0962V22.0981C10.954 23.3593 10.954 24.6402 11.1381 25.9013C13.1039 26.2082 14.272 26.8535 14.6877 27.8831ZM18.845 18.8453C20.4485 17.2397 22.7073 16.4716 24.9564 16.7665C27.2053 17.0595 29.189 18.384 30.3254 20.348C31.4598 22.3119 31.6182 24.6936 30.751 26.7882C29.884 28.8848 28.0904 30.4587 25.8989 31.0467C23.7074 31.6347 21.3694 31.1695 19.568 29.7875C17.7685 28.4076 16.7133 26.2675 16.7133 24.0006C16.7113 22.0664 17.479 20.2114 18.845 18.8453ZM19.8566 28.1446C17.8789 26.1668 17.576 23.0702 19.1281 20.7459C20.6821 18.4217 23.6615 17.5189 26.243 18.588C28.8245 19.659 30.2914 22.403 29.747 25.1453C29.2006 27.8873 26.7953 29.8611 23.9999 29.8611C22.4459 29.8631 20.9533 29.2453 19.8566 28.1446Z" fill="url(#paint1_linear_376_198)"/>
<defs>
<linearGradient id="paint0_linear_376_198" x1="24.0378" y1="0" x2="24.0378" y2="48.1092" gradientUnits="userSpaceOnUse">
<stop stop-color="#5078BB"/>
<stop offset="1" stop-color="#4CBC94"/>
</linearGradient>
<linearGradient id="paint1_linear_376_198" x1="24" y1="11" x2="24" y2="37" gradientUnits="userSpaceOnUse">
<stop stop-color="#5078BB"/>
<stop offset="1" stop-color="#4CBC94"/>
</linearGradient>
</defs>
</svg>
