<svg width="59" height="63" viewBox="0 0 59 63" fill="none" xmlns="http://www.w3.org/2000/svg">
<path d="M59 43.8941H0V46.2882H59V43.8941ZM42.8339 31.3248H48.6734L46.6049 28.8834H41.4973L42.8339 31.3248ZM36.2624 31.3248H41.4018L40.0812 28.8834H35.801L36.2624 31.3248ZM30.1365 31.3248H34.9736L34.5121 28.8834H30.1524V31.3248H30.1365ZM24.0423 31.3248H28.8635V28.8834H24.5038L24.0423 31.3248ZM17.6141 31.3248H22.7376L23.199 28.8834H18.9188L17.6141 31.3248ZM10.3266 31.3248H16.182L17.5027 28.8834H12.411L10.3266 31.3248ZM21.5601 37.5149H14.2567L11.4881 42.6497H20.5895L21.5601 37.5149ZM28.8635 37.5149H22.8649L21.8784 42.6497H28.8635V37.5149ZM36.151 37.5149H30.1365V42.6497H37.1216L36.151 37.5149ZM44.7433 37.5149H37.4399L38.4264 42.6497H47.5278L44.7433 37.5149ZM53.8924 37.4834C53.8288 37.4992 53.7651 37.5149 53.7015 37.5149H46.1753L48.9439 42.6497H58.2681L53.8924 37.4834ZM45.4911 36.2548H52.8582L49.7395 32.5848H43.5022L45.4911 36.2548ZM37.2012 36.2548H44.0591L42.0701 32.5848H36.5011L37.2012 36.2548ZM30.1365 36.2548H35.9124L35.2122 32.5848H30.1365V36.2548ZM23.1036 36.2548H28.8635V32.5848H23.8037L23.1036 36.2548ZM14.9569 36.2548H21.8147L22.5148 32.5848H16.9458L14.9569 36.2548ZM6.14186 36.2548H13.5089L15.4978 32.5848H9.26052L6.14186 36.2548ZM5.29854 37.5149C5.2349 37.5149 5.15534 37.4992 5.10761 37.4834L0.716019 42.6497H10.0402L12.8247 37.5149H5.29854ZM26.795 56.6523H32.1891V47.564H26.795V56.6523ZM19.1734 63H39.8425C42.086 63 43.2794 60.2751 41.6564 58.6685C41.195 58.2117 40.5426 57.9124 39.8425 57.9124H19.1734C16.914 57.9124 15.7206 60.6373 17.3595 62.2439C17.8209 62.7007 18.4574 63 19.1734 63ZM34.0984 8.54885C31.5526 6.02869 27.4315 6.02869 24.9016 8.54885C22.3557 11.069 22.3557 15.1485 24.9016 17.6687C27.4474 20.1888 31.5685 20.1888 34.0984 17.6687C36.6443 15.1485 36.6443 11.069 34.0984 8.54885ZM35.26 1.98069C35.6737 1.27189 36.7716 1.90193 36.3579 2.61073L35.2122 4.59535C34.7985 5.30414 33.6847 4.6741 34.1143 3.96531L35.26 1.98069ZM40.113 6.31221C40.829 5.90268 41.4655 6.9895 40.7495 7.39902L38.7446 8.54885C38.0286 8.95837 37.3921 7.87155 38.1082 7.46203L40.113 6.31221ZM42.1179 12.4708C42.9612 12.4708 42.9612 13.7309 42.1179 13.7309H39.8107C38.9674 13.7309 38.9674 12.4708 39.8107 12.4708H42.1179ZM16.8821 13.7309C16.0547 13.7309 16.0547 12.4708 16.8821 12.4708H19.1893C20.0167 12.4708 20.0167 13.7309 19.1893 13.7309H16.8821ZM18.2505 7.39902C17.5345 6.9895 18.171 5.90268 18.887 6.31221L20.8759 7.46203C21.6079 7.87155 20.9714 8.97412 20.2395 8.54885L18.2505 7.39902ZM22.6421 2.61073C22.2284 1.90193 23.3263 1.27189 23.74 1.98069L24.8857 3.96531C25.2994 4.6741 24.2015 5.30414 23.7878 4.59535L22.6421 2.61073ZM40.7495 18.8027C41.4655 19.2123 40.829 20.3148 40.113 19.8896L38.1082 18.7397C37.3921 18.3302 38.0286 17.2434 38.7446 17.6529L40.7495 18.8027ZM36.3579 23.6068C36.7716 24.3313 35.6737 24.9614 35.26 24.2368L34.0984 22.268C33.6847 21.5434 34.7826 20.9134 35.1963 21.6379L36.3579 23.6068ZM30.1365 25.5914C30.1365 26.4105 28.8635 26.4105 28.8635 25.5914V23.3075C28.8635 22.4885 30.1365 22.4885 30.1365 23.3075V25.5914ZM23.74 24.2368C23.3263 24.9614 22.2125 24.3313 22.6421 23.6068L23.8037 21.6379C24.2174 20.9134 25.3153 21.5434 24.9016 22.268L23.74 24.2368ZM18.9029 19.8896C18.171 20.2991 17.5345 19.2123 18.2665 18.8027L20.2713 17.6687C21.0032 17.2591 21.6397 18.346 20.9078 18.7555L18.9029 19.8896ZM28.8635 0.626102C28.8635 -0.208701 30.1365 -0.208701 30.1365 0.626102V2.90999C30.1365 3.7448 28.8635 3.7448 28.8635 2.90999V0.626102Z" fill="url(#paint0_linear_376_186)"/>
<defs>
<linearGradient id="paint0_linear_376_186" x1="29.5" y1="0" x2="29.5" y2="63" gradientUnits="userSpaceOnUse">
<stop stop-color="#5078BB"/>
<stop offset="1" stop-color="#4CBC94"/>
</linearGradient>
</defs>
</svg>
