<svg width="53" height="53" viewBox="0 0 53 53" fill="none" xmlns="http://www.w3.org/2000/svg">
<path fill-rule="evenodd" clip-rule="evenodd" d="M16.1394 3.68189C15.5363 0.980568 18.9294 -0.807912 20.8064 1.25534C23.275 -1.76737 28.1097 1.17151 26.5424 4.75545C31.4493 6.4904 27.7697 13.7932 23.473 10.9967C22.3156 12.6827 20.3314 12.2961 18.3751 11.7349C16.9918 11.3343 15.9438 12.5685 15.5852 13.9891H10.2847V13.3813C10.2847 12.3077 8.66854 12.1238 8.66854 10.7521C8.66854 9.38046 9.93776 7.85978 11.519 7.80624C8.83619 4.78353 13.4147 0.682607 16.1394 3.68189ZM32.8791 36.9762V52.9885L1.59135 52.9908V36.9762L32.8791 36.9762ZM23.7754 40.6207V43.364H29.1341V40.6207H23.7754ZM14.553 40.6207V43.364H19.9117V40.6207H14.553ZM5.33539 40.6207V43.364H10.6941V40.6207H5.33539ZM0.530974 32.3931H33.9358C34.2269 32.3931 34.4668 32.6307 34.4668 32.9241V35.1294C34.4668 35.4205 34.2292 35.6604 33.9358 35.6604H0.530974C0.239869 35.6604 0 35.4228 0 35.1294V32.9241C0.00465799 32.6307 0.237544 32.3931 0.530974 32.3931ZM39.5507 26.6528L53 20.619V52.9911H39.5507V26.6528ZM23.4537 27.2489V31.0704H33.9334C34.9534 31.0704 35.7872 31.8995 35.7872 32.9241V35.1294C35.7872 36.0586 35.0955 36.8341 34.2012 36.9645V53H38.2255V20.6279L23.4537 27.2489ZM17.9273 22.3889L19.2035 31.0636H6.53461L7.81081 22.3889H17.9273ZM7.1054 15.319H18.6237L17.7294 21.0663H7.99968L7.1054 15.319Z" fill="url(#paint0_linear_518_22)"/>
<defs>
<linearGradient id="paint0_linear_518_22" x1="26.5" y1="0" x2="26.5" y2="53" gradientUnits="userSpaceOnUse">
<stop stop-color="#5078BB"/>
<stop offset="1" stop-color="#4CBC94"/>
</linearGradient>
</defs>
</svg>
