<svg width="58" height="48" viewBox="0 0 58 48" fill="none" xmlns="http://www.w3.org/2000/svg">
<path d="M35.6877 16.8831C36.0975 17.9046 35.7075 19.1776 34.5592 20.7476C35.3234 21.7692 36.2301 22.6759 37.2536 23.4401C38.8611 22.2641 40.1439 21.8959 41.1594 22.3294C42.175 22.765 42.8006 23.941 43.0975 25.8614V25.8634C44.3586 26.0455 45.6414 26.0455 46.9025 25.8634C47.2073 23.8955 47.8567 22.7294 48.8841 22.3136C49.9056 21.9038 51.1786 22.2938 52.7485 23.4421L52.7465 23.4402C53.2592 23.06 53.7422 22.6443 54.1917 22.1929C54.641 21.7415 55.0587 21.2584 55.4408 20.7476C54.2688 19.14 53.8966 17.8572 54.3322 16.8415C54.7638 15.8259 55.9397 15.2003 57.8619 14.9033V14.9014C58.046 13.6402 58.046 12.3593 57.8619 11.0982C55.8941 10.7933 54.7281 10.1439 54.3143 9.1164C53.9026 8.09484 54.2926 6.82185 55.4388 5.25186H55.4408C54.6786 4.22832 53.77 3.32156 52.7465 2.55935C51.139 3.73533 49.8601 4.10359 48.8406 3.66803C47.825 3.23644 47.2014 2.06043 46.9025 0.13809C45.6415 -0.0460299 44.3586 -0.0460299 43.0976 0.13809C42.7927 2.10599 42.1473 3.2721 41.1159 3.68389C40.0944 4.09569 38.8215 3.70567 37.2516 2.55935H37.2536C36.2281 3.32156 35.3214 4.22832 34.5592 5.25186C35.7352 6.85946 36.1034 8.13838 35.6698 9.15796C35.2343 10.1736 34.0584 10.7972 32.1381 11.0962V11.0981C31.954 12.3593 31.954 13.6402 32.1381 14.9013C34.1039 15.2082 35.272 15.8535 35.6877 16.8831ZM39.845 7.84534C41.4485 6.23972 43.7073 5.47157 45.9564 5.76654C48.2053 6.05955 50.189 7.38403 51.3254 9.34797C52.4598 11.3119 52.6182 13.6936 51.751 15.7882C50.884 17.8848 49.0904 19.4587 46.8989 20.0467C44.7074 20.6347 42.3694 20.1695 40.568 18.7875C38.7685 17.4076 37.7133 15.2675 37.7133 13.0006C37.7113 11.0664 38.479 9.21144 39.845 7.84534ZM40.8566 17.1446C38.8789 15.1668 38.576 12.0702 40.1281 9.74593C41.6821 7.42168 44.6615 6.51887 47.243 7.58797C49.8245 8.65905 51.2914 11.403 50.747 14.1453C50.2006 16.8873 47.7953 18.8611 44.9999 18.8611C43.4459 18.8631 41.9533 18.2453 40.8566 17.1446Z" fill="url(#paint0_linear_376_189)"/>
<path d="M20.2415 24.8019C18.3686 24.8019 15.1035 26.2267 12.9273 27.3413C13.3025 28.0285 13.5352 28.8043 13.5352 29.639V42.6701C14.7663 42.4557 16.0151 42.2587 17.4057 42.2056C18.6007 42.2056 20.8345 43.8992 22.2862 44.9244C24.355 46.3847 26.5833 48 29 48C29.7275 48 30.4582 47.7607 31.4205 47.4015C36.7089 45.4244 47.8638 39.1138 54.3618 35.3125C56.0061 34.4031 56.5462 32.2976 55.6173 30.6887C54.7261 29.1451 52.9169 28.7691 51.1578 29.369L39.0197 33.5717C39.1067 34.3614 38.9653 35.1802 38.5402 35.9167C37.4775 37.7573 35.1 38.3935 33.2594 37.3308L27.3933 33.9475C26.1807 33.3284 27.226 31.5308 28.3637 32.2785L34.2223 35.6599C35.1643 36.2038 36.3198 35.8959 36.8636 34.9538C37.4075 34.0117 37.0978 32.8582 36.1556 32.3143C31.8417 29.8237 24.191 24.8019 20.2415 24.8019ZM2.90566 26.7352C1.27841 26.7352 0 28.051 0 29.6409V43.1685C0 44.7521 1.27932 46.0618 2.88681 46.0723H8.70566C10.4708 46.0723 11.6019 44.5727 11.6019 43.1667V29.639C11.6019 28.0145 10.2878 26.7352 8.70756 26.7352H2.90566ZM4.83711 40.2704C5.371 40.2704 5.8038 40.7032 5.8038 41.2371C5.8038 41.771 5.371 42.2038 4.83711 42.2038C4.30325 42.2038 3.87045 41.771 3.87045 41.2371C3.87045 40.7032 4.30325 40.2704 4.83711 40.2704Z" fill="url(#paint1_linear_376_189)"/>
<defs>
<linearGradient id="paint0_linear_376_189" x1="45" y1="0" x2="45" y2="26" gradientUnits="userSpaceOnUse">
<stop stop-color="#5078BB"/>
<stop offset="1" stop-color="#4CBC94"/>
</linearGradient>
<linearGradient id="paint1_linear_376_189" x1="29" y1="-10" x2="29" y2="48" gradientUnits="userSpaceOnUse">
<stop stop-color="#5078BB"/>
<stop offset="1" stop-color="#4CBC94"/>
</linearGradient>
</defs>
</svg>
