<svg width="61" height="61" viewBox="0 0 61 61" fill="none" xmlns="http://www.w3.org/2000/svg">
<path d="M51.0814 30.1251C51.0814 18.5673 41.6824 9.16833 30.1247 9.16833C18.567 9.16833 9.16797 18.5673 9.16797 30.1251C9.16797 41.6828 18.567 51.0818 30.1247 51.0818C41.6824 51.0818 51.0814 41.6828 51.0814 30.1251ZM37.1638 28.6991L29.7834 40.8597C29.6027 41.171 29.2713 41.3417 28.9299 41.3417C28.8395 41.3417 28.7492 41.3316 28.6588 41.3115C28.227 41.191 27.9258 40.7894 27.9258 40.3375V33.4687H24.1601C23.8689 33.4687 23.5978 33.3482 23.407 33.1273C23.2162 32.9063 23.1258 32.6151 23.166 32.3239L24.7927 20.8465C24.863 20.3545 25.2847 19.9829 25.7868 19.9829H34.0811C34.4225 19.9829 34.7338 20.1637 34.9246 20.4448C35.1053 20.736 35.1355 21.0975 34.9848 21.4088L32.3539 27.1728H36.3103C36.6718 27.1728 37.0031 27.3736 37.1839 27.6849C37.3647 28.0063 37.3546 28.3879 37.1638 28.6991Z" fill="url(#paint0_linear_376_167)"/>
<path d="M29.1211 1.00417V5.54802C29.1211 6.10282 29.5705 6.55218 30.1253 6.55218C30.6801 6.55218 31.1294 6.10282 31.1294 5.54802V1.00417C31.1294 0.449366 30.6801 0 30.1253 0C29.5705 0 29.1211 0.449366 29.1211 1.00417Z" fill="url(#paint1_linear_376_167)"/>
<path d="M30.1253 53.698C29.5705 53.698 29.1211 54.1474 29.1211 54.7022V59.246C29.1211 59.8008 29.5705 60.2502 30.1253 60.2502C30.6801 60.2502 31.1294 59.8008 31.1294 59.246V54.7022C31.1294 54.1474 30.6801 53.698 30.1253 53.698Z" fill="url(#paint2_linear_376_167)"/>
<path d="M50.008 8.82387L46.7947 12.0372C46.4031 12.4288 46.4031 13.064 46.7947 13.4581C46.9905 13.6539 47.2466 13.7518 47.5052 13.7518C47.7612 13.7518 48.0198 13.6539 48.2156 13.4581L51.429 10.2447C51.8206 9.85312 51.8206 9.21796 51.429 8.82387C51.0373 8.43224 50.4021 8.43224 50.008 8.82387Z" fill="url(#paint3_linear_376_167)"/>
<path d="M8.82393 51.4262C9.01974 51.622 9.2758 51.7199 9.5344 51.7199C9.79046 51.7199 10.049 51.622 10.2449 51.4262L13.4582 48.2129C13.8498 47.8213 13.8498 47.1861 13.4582 46.792C13.0666 46.4004 12.4314 46.4004 12.0373 46.792L8.82399 50.0053C8.43237 50.397 8.4323 51.0321 8.82393 51.4262Z" fill="url(#paint4_linear_376_167)"/>
<path d="M60.2504 30.125C60.2504 29.5702 59.8011 29.1208 59.2463 29.1208H54.7024C54.1476 29.1208 53.6982 29.5702 53.6982 30.125C53.6982 30.6798 54.1476 31.1292 54.7024 31.1292H59.2463C59.8011 31.1292 60.2504 30.6798 60.2504 30.125Z" fill="url(#paint5_linear_376_167)"/>
<path d="M5.54802 31.1289C6.10282 31.1289 6.55218 30.6796 6.55218 30.1248C6.55218 29.57 6.10282 29.1206 5.54802 29.1206H1.00417C0.449365 29.1206 0 29.57 0 30.1248C0 30.6796 0.449365 31.1289 1.00417 31.1289H5.54802Z" fill="url(#paint6_linear_376_167)"/>
<path d="M50.008 51.4262C50.2038 51.622 50.4598 51.7199 50.7184 51.7199C50.9745 51.7199 51.2331 51.622 51.4289 51.4262C51.8205 51.0346 51.8205 50.3994 51.4289 50.0053L48.2156 46.792C47.8239 46.4004 47.1888 46.4004 46.7947 46.792C46.4031 47.1836 46.4031 47.8188 46.7947 48.2129L50.008 51.4262Z" fill="url(#paint7_linear_376_167)"/>
<path d="M12.7477 13.7518C13.0038 13.7518 13.2624 13.6539 13.4582 13.4581C13.8498 13.0665 13.8498 12.4288 13.4582 12.0372L10.2449 8.82387C9.85324 8.43224 9.21808 8.43224 8.82399 8.82387C8.43237 9.2155 8.43237 9.85317 8.82399 10.2447L12.0373 13.4581C12.2331 13.6539 12.4891 13.7518 12.7477 13.7518Z" fill="url(#paint8_linear_376_167)"/>
<path d="M40.0163 2.71631L38.3268 6.93381C38.121 7.44845 38.372 8.03335 38.8866 8.2392C39.0097 8.2894 39.1352 8.312 39.2582 8.312C39.6573 8.312 40.0339 8.07351 40.1921 7.67937L41.8816 3.46187C42.0874 2.94723 41.8364 2.36233 41.3217 2.15648C40.8071 1.94812 40.2222 2.20168 40.0163 2.71631Z" fill="url(#paint9_linear_376_167)"/>
<path d="M19.3002 58.1639C19.6993 58.1639 20.0759 57.9254 20.234 57.5313L21.9235 53.3138C22.1294 52.7991 21.8783 52.2142 21.3637 52.0084C20.8491 51.8 20.2642 52.051 20.0583 52.5682L18.3688 56.7857C18.163 57.3003 18.414 57.8852 18.9286 58.0911C19.0517 58.1413 19.1772 58.1639 19.3002 58.1639Z" fill="url(#paint10_linear_376_167)"/>
<path d="M52.7182 21.4541C52.8487 21.4541 52.9843 21.429 53.1123 21.3738L57.2897 19.5839C57.7993 19.3654 58.0353 18.7755 57.8168 18.2659C57.5984 17.7562 57.0085 17.5202 56.4989 17.7387L52.3215 19.5286C51.8119 19.747 51.5759 20.337 51.7943 20.8466C51.9575 21.2282 52.3291 21.4567 52.7182 21.4567L52.7182 21.4541Z" fill="url(#paint11_linear_376_167)"/>
<path d="M2.43205 41.9841C2.59523 42.3657 2.96677 42.5942 3.35589 42.5942C3.48643 42.5942 3.62199 42.5691 3.75002 42.5138L7.92736 40.7239C8.43697 40.5055 8.67298 39.9155 8.45454 39.4059C8.23614 38.8963 7.6462 38.6603 7.13656 38.8787L2.95923 40.6687C2.44961 40.8871 2.21361 41.477 2.43204 41.9866L2.43205 41.9841Z" fill="url(#paint12_linear_376_167)"/>
<path d="M52.5683 40.1918L56.7858 41.8813C56.9088 41.9315 57.0343 41.9541 57.1573 41.9541C57.5565 41.9541 57.933 41.7156 58.0912 41.3215C58.297 40.8069 58.046 40.222 57.5314 40.0161L53.3139 38.3266C52.7967 38.1182 52.2143 38.3693 52.0085 38.8864C51.8026 39.4011 52.0536 39.986 52.5683 40.1918Z" fill="url(#paint13_linear_376_167)"/>
<path d="M2.71573 20.2337L6.93323 21.9232C7.05625 21.9735 7.18177 21.996 7.30478 21.996C7.70393 21.996 8.08048 21.7576 8.23864 21.3634C8.44449 20.8488 8.19345 20.2639 7.67882 20.058L3.46131 18.3685C2.94668 18.1627 2.36178 18.4112 2.15593 18.9284C1.95008 19.443 2.2011 20.0279 2.71573 20.2337Z" fill="url(#paint14_linear_376_167)"/>
<path d="M39.4036 51.7951C38.8939 52.0135 38.6579 52.6035 38.8764 53.1131L40.6663 57.2904C40.8295 57.672 41.2011 57.9005 41.5902 57.9005C41.7207 57.9005 41.8563 57.8754 41.9843 57.8201C42.4939 57.6017 42.7299 57.0118 42.5115 56.5022L40.7215 52.3248C40.5031 51.8152 39.9132 51.5792 39.4036 51.7976L39.4036 51.7951Z" fill="url(#paint15_linear_376_167)"/>
<path d="M18.2659 2.4327C17.7563 2.65111 17.5202 3.24105 17.7387 3.75068L19.5286 7.92802C19.6918 8.3096 20.0634 8.53805 20.4525 8.53805C20.583 8.53805 20.7186 8.51295 20.8466 8.45772C21.3562 8.23931 21.5922 7.64937 21.3738 7.13974L19.5838 2.9624C19.3654 2.45279 18.7755 2.21678 18.2659 2.43522L18.2659 2.4327Z" fill="url(#paint16_linear_376_167)"/>
<defs>
<linearGradient id="paint0_linear_376_167" x1="30.1247" y1="9.16833" x2="30.1247" y2="51.0818" gradientUnits="userSpaceOnUse">
<stop stop-color="#5078BB"/>
<stop offset="1" stop-color="#4CBC94"/>
</linearGradient>
<linearGradient id="paint1_linear_376_167" x1="30.1253" y1="0" x2="30.1253" y2="6.55218" gradientUnits="userSpaceOnUse">
<stop stop-color="#5078BB"/>
<stop offset="1" stop-color="#4CBC94"/>
</linearGradient>
<linearGradient id="paint2_linear_376_167" x1="30.1253" y1="53.698" x2="30.1253" y2="60.2502" gradientUnits="userSpaceOnUse">
<stop stop-color="#5078BB"/>
<stop offset="1" stop-color="#4CBC94"/>
</linearGradient>
<linearGradient id="paint3_linear_376_167" x1="49.1118" y1="8.53015" x2="49.1118" y2="13.7518" gradientUnits="userSpaceOnUse">
<stop stop-color="#5078BB"/>
<stop offset="1" stop-color="#4CBC94"/>
</linearGradient>
<linearGradient id="paint4_linear_376_167" x1="11.1411" y1="46.4983" x2="11.1411" y2="51.7199" gradientUnits="userSpaceOnUse">
<stop stop-color="#5078BB"/>
<stop offset="1" stop-color="#4CBC94"/>
</linearGradient>
<linearGradient id="paint5_linear_376_167" x1="56.9743" y1="29.1208" x2="56.9743" y2="31.1292" gradientUnits="userSpaceOnUse">
<stop stop-color="#5078BB"/>
<stop offset="1" stop-color="#4CBC94"/>
</linearGradient>
<linearGradient id="paint6_linear_376_167" x1="3.27609" y1="29.1206" x2="3.27609" y2="31.1289" gradientUnits="userSpaceOnUse">
<stop stop-color="#5078BB"/>
<stop offset="1" stop-color="#4CBC94"/>
</linearGradient>
<linearGradient id="paint7_linear_376_167" x1="49.1118" y1="46.4983" x2="49.1118" y2="51.7199" gradientUnits="userSpaceOnUse">
<stop stop-color="#5078BB"/>
<stop offset="1" stop-color="#4CBC94"/>
</linearGradient>
<linearGradient id="paint8_linear_376_167" x1="11.1411" y1="8.53015" x2="11.1411" y2="13.7518" gradientUnits="userSpaceOnUse">
<stop stop-color="#5078BB"/>
<stop offset="1" stop-color="#4CBC94"/>
</linearGradient>
<linearGradient id="paint9_linear_376_167" x1="40.1042" y1="2.0835" x2="40.1042" y2="8.312" gradientUnits="userSpaceOnUse">
<stop stop-color="#5078BB"/>
<stop offset="1" stop-color="#4CBC94"/>
</linearGradient>
<linearGradient id="paint10_linear_376_167" x1="20.1462" y1="51.9351" x2="20.1462" y2="58.1639" gradientUnits="userSpaceOnUse">
<stop stop-color="#5078BB"/>
<stop offset="1" stop-color="#4CBC94"/>
</linearGradient>
<linearGradient id="paint11_linear_376_167" x1="54.8056" y1="17.6572" x2="54.8056" y2="21.4567" gradientUnits="userSpaceOnUse">
<stop stop-color="#5078BB"/>
<stop offset="1" stop-color="#4CBC94"/>
</linearGradient>
<linearGradient id="paint12_linear_376_167" x1="5.44329" y1="38.7972" x2="5.44329" y2="42.5942" gradientUnits="userSpaceOnUse">
<stop stop-color="#5078BB"/>
<stop offset="1" stop-color="#4CBC94"/>
</linearGradient>
<linearGradient id="paint13_linear_376_167" x1="55.0498" y1="38.2533" x2="55.0498" y2="41.9541" gradientUnits="userSpaceOnUse">
<stop stop-color="#5078BB"/>
<stop offset="1" stop-color="#4CBC94"/>
</linearGradient>
<linearGradient id="paint14_linear_376_167" x1="5.19728" y1="18.2963" x2="5.19728" y2="21.996" gradientUnits="userSpaceOnUse">
<stop stop-color="#5078BB"/>
<stop offset="1" stop-color="#4CBC94"/>
</linearGradient>
<linearGradient id="paint15_linear_376_167" x1="40.6939" y1="51.7162" x2="40.6939" y2="57.9005" gradientUnits="userSpaceOnUse">
<stop stop-color="#5078BB"/>
<stop offset="1" stop-color="#4CBC94"/>
</linearGradient>
<linearGradient id="paint16_linear_376_167" x1="19.5562" y1="2.35376" x2="19.5562" y2="8.53805" gradientUnits="userSpaceOnUse">
<stop stop-color="#5078BB"/>
<stop offset="1" stop-color="#4CBC94"/>
</linearGradient>
</defs>
</svg>
