<?xml version="1.0" encoding="UTF-8"?>
<svg id="OBJECTS" xmlns="http://www.w3.org/2000/svg" viewBox="0 0 622.98 544.71">
  <defs>
    <style>
      .cls-1 {
        fill: #fff;
        fill-rule: evenodd;
      }
    </style>
  </defs>
  <path class="cls-1" d="M442.08,349.81c-13.94,0-27.68-4.25-40.81-12.63-15.54-9.91-39.08-33.72-50.83-47.47l-15-17.42,2.4-2.56c28.01-29.82,55.58-58.38,67.55-65.34,10.14-5.9,22.54-9.02,35.85-9.02,15.96,0,31.52,4.6,42.7,12.63,29.35,21.08,40.59,53.2,30.05,85.91-10.6,32.92-40.17,55.91-71.9,55.91h-.01Z"/>
  <path class="cls-1" d="M340.68,272.4l12.72,14.78c11.14,13.03,34.63,36.94,49.96,46.71,77.74,49.57,156.38-66.65,78.3-122.73-19.32-13.87-52-16.38-74.31-3.4-12.08,7.03-42.3,38.69-66.67,64.64h0Z"/>
  <path class="cls-1" d="M184.57,413.02c-10.47,0-21.5-1.3-32.78-3.85-29.15-6.6-55.86-23.35-75.21-47.15-20.58-25.31-31.46-56.36-31.46-89.81,0-38.78,14.64-74.65,41.21-100.99,25.33-25.12,60.02-39.53,95.17-39.53,24.59,0,49.28,7.01,71.39,20.28,12.16,7.3,24.68,19.36,33.03,28.19,2.86,3.02,5.83,6.33,8.71,9.53,5.39,6,10.93,12.17,16.34,17.17l27.81-26.83c2.25-2.21,4.29-4.28,6.26-6.29,7.48-7.62,13.95-14.19,26.44-21.95,20.91-12.97,46.08-20.11,70.87-20.11,9.81,0,19.6,1.11,29.11,3.29,33.49,7.69,61.22,25.91,80.21,52.68,17.14,24.16,26.44,54.66,26.2,85.87-.24,31.11-9.97,61.32-27.4,85.07-19.32,26.33-47.26,44.03-80.8,51.18-8.51,1.81-17.43,2.73-26.52,2.73-26.05,0-52.59-7.51-72.8-20.61-13.25-8.58-17.01-12.47-22.21-17.86-2.61-2.7-5.57-5.76-10.39-10.1-5-4.49-8.1-7.93-12.04-12.28-.76-.84-1.55-1.71-2.39-2.64l-11.99-11.47c-5.05,4.56-10.41,10.19-16.04,16.1-23.89,25.06-56.61,59.38-110.69,59.38h-.01ZM182.81,159.68c-1.44,0-2.91.03-4.38.08-55.99,2.03-91.37,43.25-101.6,83.19-9.14,35.69-2.19,70.78,19.56,98.8,20.88,26.9,52.83,42.96,85.47,42.96h0c29.19,0,56.73-12.48,79.62-36.08,1.81-1.86,3.59-3.69,5.36-5.5,6.2-6.34,12.06-12.33,17.86-18.86,4.89-5.5,9.67-10.01,14.72-14.79,3.05-2.89,6.21-5.87,9.42-9.11,4.83-4.88,12.36-12.91,21.07-22.21,2.54-2.71,5.19-5.54,7.92-8.44l2.97-3.16.48-.51,5.68,5.35-1.04,1.11,12.16,14.13-1.24,2.35c-2.68,5.09-9.56,11.95-16.21,18.59-3.32,3.31-6.49,6.48-8.91,9.19,7.5,9.17,37.65,39.71,44.65,44.96,13.79,10.34,36.56,22.66,66.72,22.66,1.02,0,2.05-.01,3.08-.04,55.22-1.51,90.98-44.39,100.85-83.59,8.95-35.57,2.07-70.31-19.37-97.82-21.21-27.2-53.78-43.44-87.15-43.44-20.83,0-51.35,6.38-78.47,36.78-4.75,5.32-9.6,9.9-14.28,14.33-3.2,3.02-6.5,6.15-9.83,9.55l-56.11,58.07-21.42-22.34,4.7-2.38c3.88-1.97,20.89-18.71,26.78-25.66-4.54-4.54-9.08-9.59-13.83-14.88-22.42-24.98-47.84-53.29-95.23-53.29Z"/>
  <path class="cls-1" d="M326.79,316.58c6.49-8.12,22.58-21.76,26.61-29.4l-12.72-14.78c-12.11,12.89-22.77,24.37-29.05,30.72-8.42,8.51-16.21,15-24,23.75-7.55,8.49-15.26,16.15-23.34,24.48-87.04,89.73-220.08,3.25-191.24-109.37,11.6-45.3,51.16-84.16,105.24-86.13,64.62-2.34,91.69,45.79,118.75,71.59-2.67,4.58-25.02,26.92-30.19,29.54l14.97,15.61,53.31-55.17c8.32-8.51,16.17-15,23.99-23.75,79.67-89.27,221.04-8.61,191.69,108.03-11.21,44.55-51.36,85.09-104.52,86.54-29.79.81-54.22-9.88-72.25-23.4-7.57-5.67-44.07-42.52-47.26-48.28h0ZM344.13,268.74c-1.02,1.09-2.03,2.16-3.04,3.23,1.01-1.07,2.02-2.15,3.04-3.23h0ZM311.43,332.26l14.67,14.03c5.21,5.72,8.42,9.51,14.25,14.75,14.54,13.07,12.64,14.97,32.11,27.58,24.75,16.03,61.9,24.69,96.39,17.34,139.38-29.71,140.34-235.34,1.72-267.17-36.32-8.34-71.63.57-97.04,16.34-15.26,9.47-20.98,16.87-32.05,27.72l-30.41,29.34c-9.38-8.02-19.01-19.85-27.99-29.34-8-8.45-20.28-20.37-32.21-27.52-91.14-54.7-201.84,10.84-201.86,116.89,0,68.21,47.01,120.32,103.63,133.15,89.42,20.26,127.61-46.8,158.78-73.1h0Z"/>
  <path class="cls-1" d="M181.99,349.43c-14.95,0-29.68-4.61-42.6-13.34-21.4-14.45-33.61-39.33-32.67-66.57.94-27.24,14.79-51.2,37.05-64.09,12.14-7.03,24.91-10.59,37.98-10.59,13.77,0,27.68,4.13,40.22,11.95,9.43,5.88,42.6,38.99,48.02,47.82l17.25,17.99-19.73,20.42c-4.01,4.1-7.84,8.37-11.9,12.9-11.24,12.54-22.86,25.52-38.25,34.15-11.05,6.2-22.95,9.35-35.37,9.35h0Z"/>
  <path class="cls-1" d="M264.7,290.32l17.12-17.72-14.97-15.61c-3.92-7.17-37.54-41.02-46.95-46.88-22.73-14.17-49.45-15.63-74.19-1.3-44.77,25.92-47.45,94.8-4.15,124.04,21.43,14.48,49.31,17.61,73.87,3.82,20.17-11.33,33.96-30.75,49.25-46.36h0Z"/>
  <path class="cls-1" d="M242.84,285.04l12.15-12.57-10.62-11.07c-2.78-5.09-26.63-29.09-33.3-33.25-16.13-10.05-35.07-11.08-52.62-.92-31.75,18.39-33.66,67.24-2.94,87.99,15.2,10.27,34.97,12.49,52.4,2.71,14.31-8.03,24.09-21.81,34.94-32.89h0Z"/>
  <path class="cls-1" d="M380.85,259.24l-12.15,12.57,10.62,11.07c2.78,5.09,26.63,29.09,33.3,33.25,16.13,10.05,35.07,11.08,52.62.92,31.75-18.39,33.66-67.24,2.94-87.99-15.2-10.27-34.97-12.49-52.4-2.71-14.31,8.03-24.09,21.81-34.94,32.89h0Z"/>
</svg>