<?xml version="1.0" encoding="UTF-8"?>
<svg id="OBJECTS" xmlns="http://www.w3.org/2000/svg" viewBox="0 0 622.98 544.71">
  <defs>
    <style>
      .cls-1 {
        fill: #fff;
        fill-rule: evenodd;
      }
    </style>
  </defs>
  <path class="cls-1" d="M190.03,59.44c20.63,0,37.35,16.72,37.35,37.35s-16.72,37.35-37.35,37.35-37.34-16.72-37.34-37.35,16.72-37.35,37.34-37.35h0ZM187.49,359.37h7.11v125.89h35.4V207.96h14.33v119h23.65v-138.46s-.62-28.72-25.21-29.21h-110.57c-24.59.49-25.21,29.21-25.21,29.21v138.46h23.65v-119h14.34v277.3h35.39v-125.89h7.12Z"/>
  <path class="cls-1" d="M310.07,248.4s93.7-40.77,203.22-1.22c0,0,28.2,173.6-97.61,212.73,0,0-128.89-18.41-105.6-211.51h0ZM360.77,324.08c-2.95-3.21-2.74-8.2.47-11.16,3.2-2.95,8.2-2.74,11.16.46l36.68,39.73,57.39-68.96c2.78-3.34,7.75-3.8,11.1-1.02,3.34,2.78,3.8,7.75,1.02,11.09l-62.8,75.47c-.31.43-.66.83-1.06,1.2-3.2,2.95-8.2,2.74-11.16-.46l-42.78-46.35h0Z"/>
</svg>