<svg width="2063" height="558" viewBox="0 0 2063 558" fill="none" xmlns="http://www.w3.org/2000/svg">
<path d="M0 0V558H2063V0H0Z" fill="#151821"/>
<path d="M285.198 125V143.572C260.357 132.367 244 128.941 216.666 129.266C130.939 130.255 59.819 195.478 59.0069 279.53C58.185 364.372 130.568 426.892 216.666 432.62C259.716 435.474 307.962 422.501 346.496 385.378V363.92C318.401 392.173 295.934 405.45 257.492 405.392C191.837 405.292 144.42 348.176 143.661 283.798C142.888 218.605 190.995 159.944 257.492 159.319C296.444 158.955 323.288 171.23 347.968 200.791V180.778L285.198 125ZM641.646 130.711L561.407 205.122V216.543H577.405V353.884H561.407V371.075H657.707V353.884H641.646V216.543H657.707V200.795H641.646V130.711ZM1415.23 130.711L1334.99 205.122V216.543H1350.99V353.884H1334.99V371.075H1431.29V353.884H1415.23V216.543H1431.29V200.795H1415.23V130.711ZM1879.07 131.972C1810.07 131.972 1754.15 186.812 1754.15 254.469C1754.15 322.125 1810.07 376.965 1879.07 376.965C1948.07 376.965 2004 322.125 2004 254.469C2004 186.812 1948.07 131.972 1879.07 131.972ZM711.343 132.874C691.1 132.874 674.81 148.025 674.81 162.868C674.81 177.716 691.1 192.92 711.343 192.92C731.404 192.92 747.816 177.716 747.816 162.868C747.814 148.025 731.402 132.874 711.343 132.874ZM1879.07 135.338C1946.17 135.338 2000.57 188.675 2000.57 254.469C2000.57 320.262 1946.17 373.599 1879.07 373.599C1811.98 373.599 1757.58 320.264 1757.58 254.469C1757.58 188.675 1811.98 135.338 1879.07 135.338ZM1617.88 137.862V154.991H1632.47V353.88H1616.41V371.072H1709.83V353.88H1693.77V137.862H1617.88ZM1869.63 140.327V164.31H1873.5V146.278L1885.08 164.31H1889.25V140.327H1885.39V158.3L1873.99 140.327H1869.63ZM1903.04 141.949L1896.3 165.029L1913.89 169.957L1914.87 166.591L1901.08 162.744L1903.1 155.953L1915.61 159.438L1916.59 156.072L1904.08 152.587L1905.86 146.396L1919.41 150.183L1920.39 146.817L1903.04 141.949ZM1856.21 142.37L1852.35 143.151L1857.44 166.653L1861.3 165.872L1856.21 142.37ZM1843.95 145.496L1825.38 152.889L1826.73 156.136L1834.14 153.191L1841.99 172.184L1845.67 170.742L1837.82 151.748L1845.3 148.804L1843.95 145.496ZM1931.54 151.987L1918.55 172.423L1921.86 174.406L1931.61 159.078L1931.67 180.416L1935.22 182.58L1948.22 162.204L1944.91 160.221L1935.22 175.489L1935.28 154.272L1931.54 151.987ZM1817.9 157.576L1814.83 159.8L1825.87 174.225L1805.76 166.532L1802.21 169.117L1816.98 188.291L1820.04 186.067L1809.01 171.642L1829.3 179.216L1832.61 176.752L1817.9 157.576ZM1954.29 166.593L1951.71 169.117L1957.41 174.646L1942.64 189.191L1945.4 191.895L1960.23 177.41L1965.87 183L1968.44 180.476L1954.29 166.593ZM1879.07 168.395C1830.58 168.395 1791.29 206.923 1791.29 254.467C1791.29 302.013 1830.58 340.538 1879.07 340.538C1927.56 340.538 1966.85 302.013 1966.85 254.467C1966.85 206.925 1927.56 168.395 1879.07 168.395ZM1879.07 171.761C1925.66 171.761 1963.42 208.79 1963.42 254.467C1963.42 300.135 1925.66 337.172 1879.07 337.172C1832.5 337.172 1794.73 300.135 1794.73 254.467C1794.73 208.79 1832.5 171.761 1879.07 171.761ZM1794.3 179.695C1791.51 179.926 1788.62 181.297 1786.21 184.444C1780.68 191.63 1785.11 198.317 1789.27 201.393C1793.44 204.478 1801.27 206.778 1806.8 199.589C1812.33 192.399 1807.84 185.723 1803.68 182.64C1801.33 180.911 1797.89 179.397 1794.3 179.695ZM1871.66 182.04V190.274L1861.11 192.918L1860.07 193.821L1847.26 197.967H1845.24L1843.89 198.689V200.312L1843.21 201.333L1842.36 202.657L1842.42 204.159L1844.38 205.301L1850.94 203.259L1852.78 204.401L1852.59 206.384L1846.22 207.707L1844.93 208.188L1844.75 209.631L1845.67 210.773L1847.14 211.916L1849.1 211.494L1850.82 210.533L1852.59 209.571L1858.85 208.55L1859.64 209.392L1863.57 210.054L1862.89 215.643C1862.89 215.643 1862.71 217.967 1860.13 220.511C1857.64 223.042 1854.79 224.883 1853.33 226.703C1850.93 229.432 1848.9 230.901 1847.14 233.434C1845.38 235.969 1842.72 243.894 1842.72 243.894L1835.98 240.828L1834.14 238.724L1829.05 237.1C1825.98 238.916 1818.63 240.936 1812.38 242.571C1810 246.34 1806.1 248.546 1806 248.46L1803.92 259.579L1812.99 256.754L1813.67 254.23C1813.22 254.032 1809.88 252.849 1810.85 250.983C1812.21 248.4 1815.44 251.705 1815.44 251.705L1817.1 250.683L1818.39 248.879L1826.6 244.611L1832.12 245.935L1841.13 254.649L1833.1 252.126L1832 250.864L1824.76 253.149C1822.37 258.029 1815.81 265.411 1815.81 265.411C1814.59 271.39 1815.33 269.579 1813.48 275.087C1813.48 275.372 1815.08 285.066 1815.08 285.066L1823.29 278.034L1822.86 276.23C1822.86 276.23 1819.05 275.705 1819.43 273.404C1819.73 271.823 1823.29 273.043 1823.29 273.043L1823.72 271.962C1823.72 271.962 1822.78 269.517 1822.98 268.175C1823.18 266.692 1829.48 259.098 1829.48 259.098L1832.91 259.039L1852.71 268.955L1855.35 268.053L1856.45 266.37L1869.81 271.239L1875.09 272.141C1876.85 272.373 1894.09 270.398 1894.09 270.398L1892.19 276.409C1892.19 276.409 1891.81 278.24 1892.44 280.255C1893.07 282.308 1896.93 286.264 1897.03 286.687C1897.13 287.168 1902.27 291.365 1903.1 294.381C1903.88 297.445 1900.94 299.387 1898.93 300.812C1896.88 302.257 1891.12 304.142 1890.84 304.478C1889.37 306.392 1887.32 308.289 1885.75 309.527C1885.62 309.604 1884.18 313.414 1883.42 315.417H1830.4L1834.02 319.504H1924L1927.62 315.417H1916.04L1916.28 314.515C1912.77 314.178 1913.95 311.81 1913.95 311.81C1914.89 309.897 1920.27 310.789 1920.27 310.789L1920.63 308.685C1920.63 308.685 1921.64 306.229 1922.41 304.719C1925.2 299.22 1929.19 294.842 1932.4 292.398L1932.71 289.934C1932.71 289.934 1929.91 288.035 1928.54 286.687C1927.08 285.354 1925.45 281.971 1924.86 279.534C1924.62 278.005 1922.97 275.212 1926.64 269.617C1928.24 267.276 1931.24 264.799 1928.11 255.853L1933.26 253.93C1933.26 253.93 1935.39 253.145 1936.51 254.592C1937.69 256.015 1940.18 255.859 1937.98 264.089C1935.69 272.369 1934.55 269.725 1934.55 276.953C1934.55 284.269 1944.5 291.39 1951.34 287.412C1951.34 287.412 1948.27 285.985 1947.97 283.265C1946.95 274.604 1954.97 255.563 1952.81 250.387C1950.53 244.7 1946.81 243.628 1944.11 243.715C1940.16 244.007 1935.58 246.802 1933.44 248.523C1931.44 250.153 1927.96 250.001 1926.21 249.185C1925.82 248.987 1920.57 242.49 1915.3 241.191C1908.17 239.52 1897.27 241.251 1897.27 241.251L1888.63 240.77L1883.12 239.028C1881.3 237.064 1880.79 233.498 1880.79 233.498C1880.79 233.498 1884.21 233.736 1884.4 232.115C1884.94 229.336 1882.01 229.815 1882.44 228.149C1882.81 226.714 1883.81 228.749 1885.75 226.226C1887.23 224.398 1884.43 224.021 1884.65 222.56C1884.89 220.867 1887.32 222.487 1887.71 219.434C1888.06 216.455 1885.38 217.276 1885.69 215.647C1885.99 214.054 1888.67 215.451 1888.76 212.822C1888.87 210.088 1886.38 210.854 1886.24 209.156C1886.11 207.3 1889.55 208.211 1888.63 205.009C1887.95 202.955 1885.34 205.017 1884.77 203.507C1884.17 201.914 1887.34 202.268 1886.61 199.541C1885.69 196.571 1882.87 198.935 1882.14 197.136C1881.51 195.594 1884.43 195.432 1883.12 192.99C1882.68 192.082 1881.73 191.687 1879.44 192.209L1871.66 182.04ZM1794.67 183.542C1796.8 183.44 1799.11 184.215 1801.29 185.827C1805.64 189.049 1806.86 193.655 1803.92 197.486C1800.98 201.326 1796.08 201.429 1791.72 198.208C1787.36 194.986 1786.14 190.387 1789.09 186.548C1790.56 184.633 1792.53 183.642 1794.67 183.542ZM1975.49 190.635L1949.93 196.165L1952.14 199.531L1959.31 197.848L1964.22 205.301L1959.68 210.891L1962.01 214.437L1977.76 194.061L1975.49 190.635ZM272.08 192.197C226.115 192.197 188.714 231.753 188.714 283.798C188.714 335.849 224.644 378.225 270.608 378.225C316.571 378.225 352.687 335.851 352.687 283.798C352.687 231.755 318.042 192.197 272.08 192.197ZM1517.35 193.64C1491.63 193.64 1467.73 200.599 1448.02 214.016V235.835C1459.33 228.143 1466.27 222.629 1479.59 217.082C1489.08 213.331 1495.68 212.46 1506.07 212.273C1513.74 212.273 1519.54 212.431 1525.38 216.72C1531.39 221.011 1530.66 223.543 1530.66 235.173V253.386C1530.66 253.386 1523.23 246.44 1514.47 242.326C1510.1 240.889 1503.52 239.26 1497.49 239.26C1461.01 239.622 1435.65 270.525 1436.01 309.164C1436.01 344.039 1456.84 376.782 1492.41 376.963C1500.14 376.943 1507.82 375.684 1515.15 373.235C1526.29 369.473 1530.84 365.723 1530.84 365.723V371.072H1606.36V353.88H1591.1V250.018C1588.9 217.459 1580.86 214.77 1566.27 204.397C1558.98 199.212 1543.67 195.8 1537.09 195.261C1530.57 194.192 1523.97 193.649 1517.35 193.64ZM1972.43 194.842L1966.42 202.174L1962.99 197.004L1972.43 194.842ZM481.29 195.082C462.679 195.082 448.112 201.185 438.257 212.273V200.793H359.427V216.541H375.488V353.882H359.427V371.074H454.317V353.882H438.255V235.173C438.255 225.691 446.121 217.982 455.788 217.982C465.452 217.982 473.257 225.691 473.257 235.173V371.072H552.088V353.88H536.027V236.554C536.031 207.938 511.378 195.082 481.29 195.082ZM893.337 195.082C874.74 195.082 860.15 201.185 850.305 212.273V200.793H771.537V216.541H787.598V353.882H771.537V371.074H866.366V353.882H850.305V235.173C850.305 225.691 858.171 217.982 867.837 217.982C877.512 217.982 885.307 225.691 885.307 235.173V371.072H964.137V353.88H948.076V236.554C948.076 207.938 923.616 195.082 893.337 195.082ZM1254.87 195.082C1236.45 195.082 1221.88 201.185 1211.84 212.273V200.793H1133.01V216.541H1149.07V353.882H1133.01V371.074H1227.9V353.882H1211.84V235.173C1211.84 225.691 1219.89 217.982 1229.37 217.982C1239.05 217.982 1246.84 225.691 1246.84 235.173V371.072H1325.67V353.88H1309.61V236.554C1309.61 207.938 1285.15 195.082 1254.87 195.082ZM1046.77 196.886C1000.79 196.886 964.688 232.117 964.688 284.16C964.688 336.387 1000.79 377.144 1046.77 377.144C1084.17 377.144 1122.27 351.026 1127.93 310.968H1109.72C1109.72 310.968 1103.33 358.933 1055.53 358.572C1041.12 358.572 1030.16 347.478 1030.71 321.366V291.313H1128.48C1128.48 290.594 1128.66 290.045 1128.66 289.33V284.16C1128.66 232.117 1092.73 196.886 1046.77 196.886ZM667.209 200.793V216.541H683.207V353.882H667.209V371.074H762.038V353.882H745.976V200.793H667.209ZM1777.99 204.94C1774.43 205.288 1771.57 207.675 1770.03 211.431C1767.34 217.942 1770.65 223.775 1777.57 226.518C1786.23 229.953 1791.71 226.387 1793.81 221.288C1796.03 215.895 1794.09 210.935 1788.48 207.705L1787 211.191C1790.08 213.162 1792.11 216.009 1790.68 219.484C1788.6 224.552 1784.15 224.875 1779.03 222.85C1773.38 220.611 1771.88 216.445 1773.4 212.752C1774.62 209.777 1776.79 208.184 1780.32 208.786L1781.73 205.301C1780.4 204.941 1779.18 204.824 1777.99 204.94ZM272.08 209.388C280.834 209.388 288.141 216.553 288.141 225.137V345.348C288.141 353.923 280.834 361.097 272.08 361.097C263.325 361.097 256.018 353.925 256.018 345.348V225.137C256.02 216.553 263.325 209.388 272.08 209.388ZM1046.77 211.191C1055.52 211.191 1062.83 218.351 1062.83 226.939V277.007H1030.71V226.939C1030.71 218.351 1038 211.191 1046.77 211.191ZM1987.75 211.493L1964.28 218.524L1969 233.49L1972.43 232.469L1968.87 221.169L1988.92 215.218L1987.75 211.493ZM1770.02 254.047V261.141H1777.19V254.047H1770.02ZM1979.54 254.047V261.141H1986.71V254.047H1979.54ZM1514.47 259.456C1523.05 259.994 1529.8 267.346 1529.8 275.564V339.938C1529.8 348.532 1523.23 355.325 1514.47 355.325C1505.72 355.325 1499.15 348.532 1499.15 339.938V275.564C1499.15 267.346 1506.08 259.996 1514.47 259.456ZM1789.33 275.624L1785.9 276.705L1789.45 288.005L1769.41 293.956L1770.57 297.683L1793.99 290.651L1789.33 275.624ZM1908.99 276.407C1908.75 280.375 1911.89 283.962 1913.65 285.543C1915.4 287.066 1921.66 290.153 1922.04 292.875C1922.39 295.556 1921.37 296.1 1919.96 298.164C1918.5 300.366 1912.06 305.977 1910.95 306.879L1907.09 310.906L1905.19 315.415H1894.03L1894.27 314.272C1890.77 313.928 1891.94 311.568 1891.94 311.568C1892.88 309.652 1898.26 310.547 1898.26 310.547L1899.3 308.804C1899.3 308.804 1898.74 307.194 1900.22 305.859C1902.21 304.042 1912.29 296.904 1912.29 296.904L1913.83 295.823L1914.01 294.261C1913.87 294.073 1913.4 293.677 1912.91 293C1910.97 290.476 1906.25 284.694 1906.59 280.678C1906.99 276.793 1907.73 277.79 1908.99 276.407ZM1973.66 281.275C1969.09 281.569 1966.02 284.389 1964.58 287.887C1962.36 293.288 1964.31 298.187 1969.92 301.411L1971.39 297.925C1968.32 295.962 1966.34 293.105 1967.77 289.632C1969.86 284.573 1974.29 284.294 1979.42 286.326C1985.07 288.555 1986.52 292.728 1985 296.423C1983.78 299.385 1981.6 300.939 1978.07 300.33L1976.6 303.815C1981.93 305.252 1986.31 302.68 1988.37 297.683C1991.05 291.171 1987.76 285.345 1980.83 282.596C1978.12 281.525 1975.73 281.14 1973.66 281.275ZM1796.32 294.617L1780.57 314.994L1782.84 318.419L1808.4 312.949L1806.19 309.583L1799.02 311.206L1794.11 303.813L1798.65 298.162L1796.32 294.617ZM1959.68 304.596C1956.89 304.825 1954 306.144 1951.59 309.285C1946.06 316.476 1950.55 323.21 1954.72 326.295C1958.88 329.367 1966.66 331.681 1972.19 324.491C1977.7 317.313 1973.23 310.616 1969.06 307.542C1966.72 305.811 1963.27 304.3 1959.68 304.596ZM1791.91 306.879L1795.34 312.108L1785.96 314.213L1791.91 306.879ZM1960.05 308.443C1962.18 308.342 1964.48 309.116 1966.67 310.727C1971.01 313.947 1972.26 318.546 1969.3 322.387C1966.36 326.216 1961.46 326.318 1957.11 323.108C1952.75 319.887 1951.51 315.288 1954.47 311.449C1955.94 309.525 1957.92 308.543 1960.05 308.443ZM1812.87 317.217L1798.1 331.702L1792.4 326.113L1789.89 328.636L1804.05 342.521L1806.56 339.997L1800.86 334.408L1815.69 319.923L1812.87 317.217ZM1941.48 320.764L1938.41 323.049L1949.45 337.414L1929.16 329.84L1925.78 332.304L1940.56 351.538L1943.62 349.253L1932.59 334.827L1952.69 342.521L1956.19 339.936L1941.48 320.764ZM1823.05 326.534L1810.05 346.91L1813.36 348.893L1823.11 333.625L1822.99 354.842L1826.73 357.127L1839.72 336.751L1836.41 334.708L1826.66 350.036L1826.6 328.698L1823.05 326.534ZM1916.47 336.812L1912.85 338.255L1920.63 357.308L1913.22 360.253L1914.57 363.499L1933.14 356.167L1931.79 352.861L1924.31 355.806L1916.47 336.812ZM1844.38 339.157L1843.4 342.523L1857.13 346.37L1855.17 353.221L1842.66 349.674L1841.68 353.04L1854.19 356.587L1852.41 362.718L1838.8 358.931L1837.82 362.297L1855.17 367.165L1861.91 344.085L1844.38 339.157ZM1901.02 342.402L1897.1 343.183L1902.24 366.684L1906.11 365.904L1901.02 342.402ZM1869.2 344.746V368.729H1873.07V350.697L1884.47 368.729H1888.82V344.746H1884.96V362.778L1873.37 344.746H1869.2Z" fill="#F8960F"/>
</svg>
