<?xml version="1.0" encoding="UTF-8"?>
<svg id="OBJECTS" xmlns="http://www.w3.org/2000/svg" viewBox="0 0 622.98 544.71">
  <defs>
    <style>
      .cls-1 {
        fill: #fff;
        fill-rule: evenodd;
      }
    </style>
  </defs>
  <path class="cls-1" d="M312.02,351.93c-.79-3.81,1.98-6.96,5.43-7.1,6.43-.26,15.21,15.8,17.7,21.12,5.33,11.42,9.63,28.5,8.41,43.97-.81,10.27-11.99,8.99-11.73.55,1.27-42.43-18.88-54.1-19.8-58.54h0ZM287,309.91c.94,1.76-.09.1.88,1.2.42.47.5.47.94.88,2.38,2.24,2.94,4.94,1.23,7.56-4.64,7.15-11.75-3.1-26.91-7.52-13.28-3.86-14.17-3.58-20.61.73-2.57,1.72-4.94,3.41-7.61,5.21-7.5,5.05-14.42-4.06-6.65-9.47,29.13-20.27,17.77-15.38,46.23-11.83,7.63.95,15.61,2.05,23.37,2.54,25.18,1.58,53.6-21.13,31.87-31.45l-53.01-24.49c-12.47-5.79-24.38-13.84-39.4-5.45-9.32,5.2-54.55,36.25-61.56,42.68-13.34,12.23-9.6,25.32-5.59,38.78,12.06,40.48,46.54,101.47,70.11,137.02,3.15,4.75,2.65,4.31,2.64,10.96-.02,9.07-.51,31.96.12,38.28l161.81-.09-.08-31.94c-2.86.77-15.54,10.8-27.8,10.63-7.53-.1-9.17-7.55-4.41-10.72,2.2-1.46,5.36-.71,8.22-1.33,18.13-3.94,36.72-24.2,45.63-40.71,9.95-18.45,12.74-38.91,16.09-60.9.98-6.43,8.31-61.38,7.76-67.91-6.57,16.99-8.04,42.99-24.09,53.01-20.94,13.08-37.79,6.85-45.3-19.2-2.96.89-4.22,3.25-11.67,4.81-21.4,4.5-30.69-14.86-32.32-16.24-5.42,3.6-8.03,7.01-16.57,8.76-15.98,3.26-13.55-7.32-10.19-9.7,3.73-2.64,10.04.46,18.08-6.97,3.34-3.09,7.74-10.66,6.72-17.2-21.51,12.94-24.22,10.88-47.93,10.05h0Z"/>
  <path class="cls-1" d="M375.63,189.41c-7.53,1.55-11.63,4.3-15.55,9.09-4.68,5.72-5.2,11.02-5.76,19.16-2.05,30.01-5.97,62.25-7.6,91.92-1.11,20.2,16.59,24.34,26.7,17.56,5.47-3.67,6.4-7.74,8.44-16.12l14.7-59.87c2.19-8.95,9.33-32.54,8.06-41.15-1.84-12.47-14.47-23.57-28.98-20.59h0Z"/>
  <path class="cls-1" d="M432.09,322.56c5.71-17.71,11.73-38.89,17.06-56.13,3.47-11.21,9.97-24.9,3.03-35.9-6.5-10.28-21.4-13.46-31.85-4.67-4.75,4-6.18,8.03-7.81,15.08-1.46,6.34-2.93,11.94-4.39,18.31-2.97,12.94-5.91,25.2-8.89,37.54-1.91,7.9-8.85,31.32-6.69,38.51,1.86,6.2,5.3,9.67,8.66,10.86,16.12,5.72,26.63-10.47,30.87-23.61h0Z"/>
  <path class="cls-1" d="M295.99,239.17c2.17,1.73,40.86,19.62,43.23,19.88.22-8.09,1.48-16.34,1.84-24.1.38-8.01.98-17.38,1.86-25.36.76-6.83,2.1-17.32-.04-23.56-7.73-22.6-39.45-21.29-46.01,1.01-1.75,5.94-1.3,43.36-.88,52.13h0Z"/>
  <path class="cls-1" d="M236.95,225.11c9.53-2.9,15.99-3.77,25.74-.72,5.05,1.58,18.6,9.07,21.62,9.26l.05-32.72c0-30.24-42.38-31.88-45.57-3.25-.54,4.85-2.41,23.88-1.84,27.44h0Z"/>
  <g>
    <path class="cls-1" d="M498.77,226.65c-4.32,0-8.22-2.26-10.18-5.89-1.92-3.56-1.67-7.8.66-11.35,1.76-2.68,5.53-5.28,40.58-16.46,1.46-.47,2.58-.82,3.22-1.04,1.43-.47,2.87-.71,4.28-.71,4.23,0,8.04,2.22,9.94,5.79,1.94,3.63,1.66,7.93-.73,11.52-1.02,1.53-3.14,4.69-43.74,17.5-1.34.42-2.69.64-4.03.64h0Z"/>
    <path class="cls-1" d="M534.72,196.94c-5.02,1.66-38.88,12.08-41.04,15.38-3.27,4.98,1.43,10.58,7.54,8.65,4.67-1.47,38.95-12.45,40.93-15.39,3.24-4.84-1.01-10.75-7.43-8.63h0Z"/>
    <path class="cls-1" d="M424.26,128.37c-4.02,0-7.7-2.23-9.59-5.82-2.06-3.9-1.67-8.58,1.02-12.52,1.59-2.33,3.69-5.09,5.71-7.76,1-1.32,2-2.64,2.93-3.9.51-.69,1.32-1.84,2.33-3.27,8.62-12.21,13.65-18.76,17.18-20.68,1.68-.91,3.45-1.37,5.28-1.37,3.91,0,7.52,2.19,9.4,5.71,2.05,3.84,1.71,8.48-.92,12.43-1.78,2.66-7.96,11.12-13.79,18.86-11.99,15.91-12.95,16.39-14.27,17.04-1.71.85-3.49,1.28-5.29,1.28h0Z"/>
    <path class="cls-1" d="M446.38,79.08c-3.83,2.08-15.07,18.8-17.78,22.45-2.84,3.83-6.24,8.16-8.53,11.5-4,5.84,1.26,12.24,7.13,9.32,1.72-.85,22.67-29.09,26.02-34.1,3.98-5.96-1.55-12.04-6.83-9.18h0Z"/>
    <path class="cls-1" d="M546.55,344.87c-4.63,0-9.65-.08-13.31-.13-2.29-.03-4.14-.06-5.22-.06-.82,0-1.79.04-2.84.08-1.33.05-2.84.11-4.34.11-3.93,0-8.35-.34-11.3-2.86-2.94-2.5-4.32-6.1-3.78-9.89.56-3.92,3.14-7.36,6.75-8.98,1.21-.55,2.17-.98,16.68-.98,4.78,0,9.75.05,13.24.08,1.84.02,3.25.03,4,.03.85,0,1.86-.04,2.94-.09,1.36-.06,2.91-.12,4.45-.12,5.09,0,8.25.72,10.56,2.4,3.32,2.42,5,6.29,4.5,10.34-.51,4.07-3.13,7.52-6.85,9-1.44.58-3.6,1.06-15.45,1.06Z"/>
    <path class="cls-1" d="M514.67,327.97c-3.76,1.69-5.28,6.97-1.71,10.01,2.77,2.36,10.79,1.4,15.06,1.4,5.3,0,29.12.68,32.01-.48,3.91-1.56,5.13-7.29,1.2-10.15-2.89-2.11-10.62-1.18-14.83-1.18-4.22,0-29.89-.44-31.74.4h0Z"/>
    <path class="cls-1" d="M124.42,226.4c-5.53,0-15.52-3.59-25.28-7.26-1.39-.52-2.54-.96-3.32-1.23-1.72-.61-3.57-1.16-5.35-1.7-7.76-2.34-15.78-4.76-16.84-12.42-.95-6.96,3.28-9.61,5.32-10.88l.24-.15c1.58-1,3.47-1.5,5.62-1.5,3.82,0,7.9,1.61,11.18,2.9.84.33,1.61.63,2.28.87,2.23.77,11.76,4.08,14.07,4.87,1.3.45,2.7.92,4.16,1.4,3.22,1.07,6.87,2.29,10.08,3.53,4.77,1.84,7.75,5.64,7.98,10.16.22,4.38-2.19,8.62-6.01,10.56-1.16.59-2.5.87-4.11.87h0Z"/>
    <path class="cls-1" d="M82.01,197.23c-1.83,1.15-3.65,2.09-3.13,5.83.76,5.5,10.34,6.91,18.71,9.85,5.02,1.76,24.73,9.84,28.56,7.9,3.64-1.85,5.2-8.48-1.48-11.06-4.5-1.73-9.84-3.41-14.06-4.87-4.49-1.55-9.48-3.29-14.07-4.87-3.89-1.34-11.04-4.98-14.53-2.78h0Z"/>
    <path class="cls-1" d="M197.63,128.35c-6.46,0-10.32-5.79-12.39-8.9-.3-.45-.57-.86-.81-1.19l-17.08-23.03-.76-1.03c-2.54-3.44-5.43-7.34-4.53-12.04.56-2.94,2.49-5.46,5.75-7.5,1.76-1.1,3.62-1.66,5.52-1.66,6.07,0,9.82,5.47,12.07,8.74.31.45.6.88.87,1.24,1.27,1.71,2.59,3.51,3.97,5.4,1.45,1.98,2.96,4.04,4.54,6.17.97,1.31,2.12,2.75,3.33,4.27,5.71,7.17,11.62,14.58,10.16,21.4-.44,2.06-1.74,4.91-5.44,6.82-1.69.88-3.44,1.32-5.2,1.32h0Z"/>
    <path class="cls-1" d="M170.61,79.15c-6.3,3.94-2.69,7.9.98,12.93l17.09,23.04c2.09,2.82,5.78,10.29,11.72,7.21,8.23-4.25-3.7-16.3-9.87-24.63-3.08-4.16-5.91-8.06-8.51-11.56-2.3-3.1-6.1-10.3-11.4-6.98h0Z"/>
    <path class="cls-1" d="M84.06,344.86c-21.52,0-23.14-.65-24.11-1.03-4.86-1.94-7.79-7.29-6.8-12.45.84-4.4,4.69-9.1,12.95-9.1h36.77c10.85,0,12.98,6.83,13.38,8.93.96,5.1-2.06,10.75-6.75,12.59-.89.35-2.74,1.07-25.44,1.07h0Z"/>
    <path class="cls-1" d="M102.87,327.57h-36.77c-9.97,0-9.34,9.29-4.19,11.34,2.24.89,43.31.87,45.67-.05,4.28-1.68,6.72-11.29-4.7-11.29h0Z"/>
    <path class="cls-1" d="M310.57,89.25c-2.81,0-5.28-1-7.16-2.88-2.41-2.42-3.61-6.06-3.59-10.83.04-8.6.03-17.36.02-25.84v-6.47c0-.48-.01-.95-.01-1.42-.04-5.26-.11-13.21,8.1-15.54,1.21-.34,2.4-.52,3.52-.52,4.93,0,10.68,3.55,10.68,13.57v10.77c0,7.18,0,14.36,0,21.54,0,.63.01,1.26.02,1.88.08,4.9.22,13.11-8.12,15.26-1.2.31-2.37.47-3.47.47Z"/>
    <path class="cls-1" d="M316.84,39.34c0-4.89-1.86-9.55-7.47-7.96-4.74,1.34-4.25,6.21-4.24,11.86,0,10.77.04,21.56-.02,32.33-.02,5.18,1.77,9.6,7.6,8.09,4.89-1.26,4.13-6.56,4.13-12.01,0-10.77,0-21.55,0-32.32h0Z"/>
  </g>
</svg>