<svg width="123" height="123" viewBox="0 0 123 123" fill="none" xmlns="http://www.w3.org/2000/svg">
<circle cx="61.5" cy="61.5" r="61.5" fill="#FAFBFB"/>
<path d="M66.4937 49.16V46.96L73.0337 37.6H76.2937V46.72H78.0537V49.16H76.2937V52H73.4937V49.16H66.4937ZM73.6737 40.6L69.5737 46.72H73.6737V40.6ZM79.8364 44.52C79.8364 42.2133 80.2497 40.4067 81.0764 39.1C81.9164 37.7933 83.303 37.14 85.2364 37.14C87.1697 37.14 88.5497 37.7933 89.3764 39.1C90.2164 40.4067 90.6364 42.2133 90.6364 44.52C90.6364 46.84 90.2164 48.66 89.3764 49.98C88.5497 51.3 87.1697 51.96 85.2364 51.96C83.303 51.96 81.9164 51.3 81.0764 49.98C80.2497 48.66 79.8364 46.84 79.8364 44.52ZM87.8764 44.52C87.8764 43.5333 87.8097 42.7067 87.6764 42.04C87.5564 41.36 87.303 40.8067 86.9164 40.38C86.543 39.9533 85.983 39.74 85.2364 39.74C84.4897 39.74 83.923 39.9533 83.5364 40.38C83.163 40.8067 82.9097 41.36 82.7764 42.04C82.6564 42.7067 82.5964 43.5333 82.5964 44.52C82.5964 45.5333 82.6564 46.3867 82.7764 47.08C82.8964 47.76 83.1497 48.3133 83.5364 48.74C83.923 49.1533 84.4897 49.36 85.2364 49.36C85.983 49.36 86.5497 49.1533 86.9364 48.74C87.323 48.3133 87.5764 47.76 87.6964 47.08C87.8164 46.3867 87.8764 45.5333 87.8764 44.52ZM92.4461 41C92.4461 39.9867 92.7394 39.1933 93.3261 38.62C93.9261 38.0467 94.6927 37.76 95.6261 37.76C96.5594 37.76 97.3194 38.0467 97.9061 38.62C98.5061 39.1933 98.8061 39.9867 98.8061 41C98.8061 42.0267 98.5061 42.8267 97.9061 43.4C97.3194 43.9733 96.5594 44.26 95.6261 44.26C94.6927 44.26 93.9261 43.9733 93.3261 43.4C92.7394 42.8267 92.4461 42.0267 92.4461 41ZM105.286 38L97.4261 52H94.7061L102.546 38H105.286ZM95.6061 39.44C94.8727 39.44 94.5061 39.96 94.5061 41C94.5061 42.0533 94.8727 42.58 95.6061 42.58C95.9661 42.58 96.2461 42.4533 96.4461 42.2C96.6461 41.9333 96.7461 41.5333 96.7461 41C96.7461 39.96 96.3661 39.44 95.6061 39.44ZM101.226 48.98C101.226 47.9533 101.519 47.16 102.106 46.6C102.706 46.0267 103.473 45.74 104.406 45.74C105.339 45.74 106.093 46.0267 106.666 46.6C107.253 47.16 107.546 47.9533 107.546 48.98C107.546 50.0067 107.253 50.8067 106.666 51.38C106.093 51.9533 105.339 52.24 104.406 52.24C103.459 52.24 102.693 51.9533 102.106 51.38C101.519 50.8067 101.226 50.0067 101.226 48.98ZM104.386 47.42C103.626 47.42 103.246 47.94 103.246 48.98C103.246 50.0333 103.626 50.56 104.386 50.56C105.133 50.56 105.506 50.0333 105.506 48.98C105.506 47.94 105.133 47.42 104.386 47.42Z" fill="url(#paint0_linear_511_7)"/>
<path d="M47.1255 54.9268C44.0604 54.9268 38.7172 57.2398 35.1557 59.0493C35.7698 60.1649 36.1506 61.4244 36.1506 62.7794V83.9345C38.1653 83.5863 40.209 83.2666 42.4846 83.1804C44.4403 83.1804 48.0959 85.9298 50.4717 87.5941C53.8573 89.9648 57.504 92.5871 61.4589 92.5871C62.6494 92.5871 63.8453 92.1986 65.4201 91.6155C74.0747 88.4059 92.3299 78.1611 102.964 71.99C105.655 70.5137 106.539 67.0955 105.019 64.4836C103.56 61.9776 100.599 61.3673 97.7206 62.3411L77.8564 69.164C77.9987 70.446 77.7673 71.7751 77.0716 72.9707C75.3324 75.9589 71.4417 76.9917 68.4295 75.2665L58.8296 69.7739C56.8451 68.769 58.5557 65.8506 60.4177 67.0644L70.0053 72.5539C71.547 73.4369 73.4378 72.9371 74.3279 71.4076C75.218 69.8783 74.7112 68.0056 73.1692 67.1227C66.1095 63.0793 53.5889 54.9268 47.1255 54.9268ZM18.7552 58.0654C16.0921 58.0654 14 60.2015 14 62.7825V84.7436C14 87.3143 16.0936 89.4407 18.7243 89.4577H28.247C31.1356 89.4577 32.9867 87.0231 32.9867 84.7406V62.7794C32.9867 60.1422 30.8362 58.0654 28.2501 58.0654H18.7552ZM21.916 80.0388C22.7897 80.0388 23.498 80.7414 23.498 81.6081C23.498 82.4748 22.7897 83.1774 21.916 83.1774C21.0423 83.1774 20.3341 82.4748 20.3341 81.6081C20.3341 80.7414 21.0423 80.0388 21.916 80.0388Z" fill="url(#paint1_linear_511_7)"/>
<defs>
<linearGradient id="paint0_linear_511_7" x1="86.9209" y1="30" x2="86.9209" y2="60" gradientUnits="userSpaceOnUse">
<stop stop-color="#5078BB"/>
<stop offset="1" stop-color="#4CBC94"/>
</linearGradient>
<linearGradient id="paint1_linear_511_7" x1="61.4589" y1="-1.5718" x2="61.4589" y2="92.5868" gradientUnits="userSpaceOnUse">
<stop stop-color="#5078BB"/>
<stop offset="1" stop-color="#4CBC94"/>
</linearGradient>
</defs>
</svg>
