<svg width="123" height="123" viewBox="0 0 123 123" fill="none" xmlns="http://www.w3.org/2000/svg">
<circle cx="61.5" cy="61.5" r="61.5" fill="#FAFBFB"/>
<path d="M77.9706 44.991C68.8401 35.855 54.0601 35.855 44.9866 44.991C35.8561 54.127 35.8561 68.9159 44.9866 78.0518C54.1171 87.1878 68.8971 87.1878 77.9706 78.0518C87.1011 68.9159 87.1011 54.127 77.9706 44.991ZM82.1363 21.1803C83.62 18.6108 87.5576 20.8948 86.0739 23.4643L81.9652 30.6589C80.4815 33.2284 76.4869 30.9444 78.0276 28.3749L82.1363 21.1803ZM99.5414 36.8828C102.109 35.3982 104.392 39.3381 101.824 40.8227L94.6337 44.991C92.0658 46.4756 89.7831 42.5357 92.3511 41.0511L99.5414 36.8828ZM106.732 59.2089C109.756 59.2089 109.756 63.7769 106.732 63.7769H98.4571C95.4326 63.7769 95.4326 59.2089 98.4571 59.2089H106.732ZM16.2256 63.7769C13.2581 63.7769 13.2581 59.2089 16.2256 59.2089H24.5001C27.4675 59.2089 27.4675 63.7769 24.5001 63.7769H16.2256ZM21.1332 40.8227C18.5652 39.3381 20.8479 35.3982 23.4158 36.8828L30.549 41.0511C33.174 42.5357 30.8914 46.5327 28.2664 44.991L21.1332 40.8227ZM36.8833 23.4643C35.3996 20.8948 39.3371 18.6108 40.8208 21.1803L44.9296 28.3749C46.4133 30.9444 42.4757 33.2284 40.992 30.6589L36.8833 23.4643ZM101.824 82.163C104.392 83.6476 102.109 87.6446 99.5414 86.1029L92.3511 81.9346C89.7831 80.45 92.0658 76.5101 94.6337 77.9947L101.824 82.163ZM86.0739 99.5785C87.5576 102.205 83.62 104.489 82.1363 101.863L77.9706 94.725C76.4869 92.0984 80.4244 89.8144 81.9081 92.441L86.0739 99.5785ZM63.7612 106.773C63.7612 109.742 59.196 109.742 59.196 106.773V98.4936C59.196 95.5244 63.7612 95.5244 63.7612 98.4936V106.773ZM40.8208 101.863C39.3371 104.489 35.3425 102.205 36.8833 99.5785L41.0491 92.441C42.5328 89.8144 46.4703 92.0984 44.9866 94.725L40.8208 101.863ZM23.4729 86.1029C20.8479 87.5875 18.5653 83.6476 21.1903 82.163L28.3805 78.0518C31.0056 76.5672 33.2882 80.5071 30.6632 81.9917L23.4729 86.1029ZM59.196 16.2697C59.196 13.2434 63.7612 13.2434 63.7612 16.2697V24.5492C63.7612 27.5755 59.196 27.5755 59.196 24.5492V16.2697Z" fill="url(#paint0_linear_511_6)"/>
<path d="M52.5137 52.5135C52.5137 51.8044 53.0961 51.2297 53.8148 51.2297H70.4693C71.188 51.2297 71.7704 51.8044 71.7704 52.5135C71.7704 53.2226 71.188 53.7973 70.4693 53.7973H65.3938C66.14 54.7401 66.636 55.8845 66.7814 57.1352H70.4693C71.188 57.1352 71.7704 57.7099 71.7704 58.4189C71.7704 59.128 71.188 59.7027 70.4693 59.7027H66.7814C66.3941 63.0264 63.5327 65.6081 60.0602 65.6081H56.5737L64.2861 72.0761C64.834 72.5355 64.9 73.3448 64.4345 73.8855C63.9689 74.4261 63.1486 74.4912 62.6007 74.0319L53.2703 66.2067C51.9793 65.1245 52.7559 63.0404 54.4504 63.0404H60.0607C62.0937 63.0404 63.7861 61.6031 64.1512 59.7025H53.8152C53.0966 59.7025 52.5141 59.1278 52.5141 58.4187C52.5141 57.7096 53.0966 57.1349 53.8152 57.1349H64.1512C63.7862 55.2344 62.0938 53.7971 60.0607 53.7971H53.8152C53.0966 53.7971 52.5141 53.2224 52.5141 52.5133L52.5137 52.5135Z" fill="white"/>
<defs>
<linearGradient id="paint0_linear_511_6" x1="61.4784" y1="14" x2="61.4784" y2="109" gradientUnits="userSpaceOnUse">
<stop stop-color="#5078BB"/>
<stop offset="1" stop-color="#4CBC94"/>
</linearGradient>
</defs>
</svg>
