<svg width="123" height="123" viewBox="0 0 123 123" fill="none" xmlns="http://www.w3.org/2000/svg">
<circle cx="61.5" cy="61.5" r="61.5" fill="#FAFBFB"/>
<path d="M46.5 46.2222C46.5 44.9948 47.483 44 48.6959 44H76.8041C78.017 44 79 44.9948 79 46.2222C79 47.4497 78.017 48.4445 76.8041 48.4445H68.2381C69.4974 50.0764 70.3345 52.0573 70.5799 54.2222H76.8041C78.017 54.2222 79 55.217 79 56.4445C79 57.6719 78.017 58.6667 76.8041 58.6667H70.5799C69.9262 64.42 65.097 68.8889 59.2365 68.8889H53.3522L66.3685 80.0849C67.2932 80.8801 67.4047 82.2811 66.619 83.2169C65.8332 84.1527 64.4487 84.2655 63.524 83.4704L47.7769 69.925C45.5981 68.0518 46.9088 64.4441 49.7687 64.4441H59.2372C62.6684 64.4441 65.5246 61.9563 66.1408 58.6663H48.6967C47.4837 58.6663 46.5007 57.6715 46.5007 56.4441C46.5007 55.2167 47.4837 54.2219 48.6967 54.2219H66.1408C65.5249 50.932 62.6685 48.4441 59.2372 48.4441H48.6967C47.4837 48.4441 46.5007 47.4493 46.5007 46.2219L46.5 46.2222Z" fill="url(#paint0_linear_511_9)"/>
<path fill-rule="evenodd" clip-rule="evenodd" d="M26.6641 73.4942C25.3256 69.6073 24.6692 65.6103 24.6692 61.4999C24.6692 41.1554 41.1592 24.6691 61.4998 24.6691C70.2162 24.6691 78.584 27.7127 85.2396 33.3305H81.4223C79.8565 33.3305 78.5878 34.5993 78.5878 36.1651C78.5878 37.7308 79.8566 38.9996 81.4223 38.9996L92.2545 38.9886C93.813 38.9886 95.078 37.7235 95.078 36.1651V25.3254C95.078 23.7669 93.8129 22.5018 92.2545 22.5018C90.696 22.5018 89.4309 23.767 89.4309 25.3254V29.4764C81.6936 22.7145 71.7892 19 61.4996 19C38.0273 19 19 38.0284 19 61.4999C19 66.1789 19.7811 70.9061 21.3065 75.3313C21.8125 76.8091 23.426 77.5976 24.9037 77.0915C26.3815 76.5818 27.1701 74.972 26.6641 73.4942ZM33.5653 97.6707V93.5123C41.3209 100.278 51.2071 104 61.5004 104C84.9727 104 104 84.9716 104 61.5002C104 56.8211 103.219 52.0939 101.697 47.6687C101.191 46.1909 99.5777 45.4024 98.0999 45.9085C96.6222 46.4146 95.8337 48.028 96.3398 49.5058C97.6782 53.3928 98.3346 57.3898 98.3346 61.5002C98.3346 81.8447 81.8447 98.3309 61.504 98.3309C52.773 98.3309 44.434 95.3093 37.7605 89.6695H41.5814C43.1472 89.6695 44.4159 88.4007 44.4159 86.8349C44.4159 85.2692 43.1471 84.0004 41.5814 84.0004L30.7493 84.0114C29.1908 84.0114 27.9257 85.2765 27.9257 86.835V97.6671C27.9257 99.2257 29.1872 100.491 30.7493 100.491C32.304 100.494 33.5653 99.2329 33.5653 97.6707Z" fill="url(#paint1_linear_511_9)"/>
<defs>
<linearGradient id="paint0_linear_511_9" x1="62.75" y1="44" x2="62.75" y2="84" gradientUnits="userSpaceOnUse">
<stop stop-color="#5078BB"/>
<stop offset="1" stop-color="#4CBC94"/>
</linearGradient>
<linearGradient id="paint1_linear_511_9" x1="61.5" y1="19" x2="61.5" y2="104" gradientUnits="userSpaceOnUse">
<stop stop-color="#5078BB"/>
<stop offset="1" stop-color="#4CBC94"/>
</linearGradient>
</defs>
</svg>
