<svg width="123" height="123" viewBox="0 0 123 123" fill="none" xmlns="http://www.w3.org/2000/svg">
<circle cx="61.5" cy="61.5" r="61.5" fill="#FAFBFB"/>
<path fill-rule="evenodd" clip-rule="evenodd" d="M60.2178 94.2448V110.259C60.2178 111.22 61.0162 112 62 112C62.9838 112 63.7822 111.22 63.7822 110.259V94.2448C74.6679 93.9279 81.3547 90.6994 85.4039 85.8339C89.642 80.7317 91 73.7104 91 65.9334C91 29.8832 63.0016 11.3026 63.0016 11.3026C62.3956 10.8986 61.5937 10.8986 60.9877 11.3061C60.9877 11.3061 33 30.127 33 65.9334C33 73.7104 34.358 80.7317 38.5961 85.8339C42.6453 90.6994 49.3321 93.9279 60.2178 94.2448ZM66.8797 50.8146L70.2124 36.1591C70.33 35.6437 70.2017 35.1038 69.8631 34.6929C69.5245 34.2784 69.0147 34.0381 68.473 34.0381H56.2114C55.3773 34.0381 54.6538 34.6058 54.472 35.4034L49.5674 56.9687C49.4497 57.4841 49.578 58.024 49.9167 58.4384C50.2553 58.8494 50.765 59.0897 51.3068 59.0897H58.9952L54.4755 78.5271C54.2831 79.3525 54.725 80.1953 55.527 80.5192C56.3255 80.8466 57.2486 80.5645 57.7156 79.847L74.8818 53.4894C75.2311 52.9531 75.2525 52.2739 74.9424 51.7167C74.6287 51.1594 74.0299 50.8146 73.3776 50.8146H66.8797ZM62.9196 52.1764C62.802 52.6918 62.9303 53.2317 63.2689 53.6426C63.6075 54.0571 64.1173 54.2974 64.659 54.2974H70.1304L60.2285 69.5032L62.966 57.7349C63.0871 57.216 62.9588 56.6761 62.6202 56.2617C62.2816 55.8472 61.7683 55.6069 61.2265 55.6069H53.5274L57.6407 37.5209H66.2523L62.9196 52.1764Z" fill="url(#paint0_linear_511_8)"/>
<defs>
<linearGradient id="paint0_linear_511_8" x1="62" y1="11" x2="62" y2="112" gradientUnits="userSpaceOnUse">
<stop stop-color="#5078BB"/>
<stop offset="1" stop-color="#4CBC94"/>
</linearGradient>
</defs>
</svg>
