<?xml version="1.0" encoding="UTF-8"?>
<svg id="OBJECTS" xmlns="http://www.w3.org/2000/svg" viewBox="0 0 622.98 544.71">
  <defs>
    <style>
      .cls-1, .cls-2 {
        fill: #fff;
      }

      .cls-2 {
        fill-rule: evenodd;
      }
    </style>
  </defs>
  <path class="cls-2" d="M238.37,456.31c-5.35-6.3-3.69-34.83-.02-37.75,4.03-3.22,88.89-1.47,106.01-1.59,18.06-.13,15.92,2.57,15.86,19.55-.08,25.48,5.85,21.58-50.16,21.58-13.42,0-63.77,2.95-71.69-1.79h0ZM241.61,178.35c18.22,6.17,6.94,14.71,30.25,6.46,2-8.94,2.03-15.33,5.1-22.2,13.59-3.13,27.95-3.05,41.55.08,7.45,16.69-1.1,20.45,10.99,24.85,11.61,4.22,13.87-5.81,24.58-9.12,9.19,3.18,25.69,19.71,29.45,28.31-1.23,9.1-5.16,9.06-9.09,15.58-3.57,5.93-.14,8.98,3.19,16.24l20.8,3.63c3.5,9.08,4,23.16,2.51,34.46-1.75,13.26-11.16,11.3-24.06,13.14-2.02,7.48-5.82,10.15-2.69,15.65,8.28,14.51,16.3,11.25-1.44,30.81-29.18,32.21-29.44-9.7-48.01,6.98-4.61,7.62-.96,14.17-6.52,21.64-9.95,5.83-32.08,4.04-42.04-.3l-4.06-20.68c-7.77-3.65-10.84-6.49-17.35-1.93-4.8,3.37-9.47,9.89-16.66,6.95-7.22-2.96-23.41-19.79-26.09-28.09,2.05-7.91,5.02-8.85,8.83-14.43,4.37-6.4.54-7.65-2.12-16.46-7.11-1.15-16.39-1.25-20.79-5.22-7.53-8.27-4.05-33.11-.82-42.47,21.3-5.1,19.52.76,23.73-9.23,4.63-11-2.35-11.64-6.86-20-6.76-12.54,21.99-32.74,27.64-34.66h0ZM234.95,404.18c-13.61,5.23-13.71,14.79-13.7,32.36.01,27.24-.6,23.21,12.15,34.36,8.2,7.17,3.3,16.46,20.25,25.4,11.92,6.29,76.28,5.38,86.17,1.03,5.92-2.6,9.65-5.64,13.02-9.89,4.25-5.36,5.42-12.72,8.46-15.94,8.39-8.91,13.22-.49,13.17-33.32-.03-18.61.24-28.14-13.82-33.91.24-28.61,29.54-22.85,55.5-67.01,16.53-28.13,25.45-60.68,18.05-99.87-11.48-60.76-65.59-111.89-135.53-112.21-71.15-.33-125.43,51.07-137.12,110.79-10.7,54.71,8.85,99.92,45.82,133.76,11.22,10.28,27.71,12.64,27.59,34.47h0Z"/>
  <path class="cls-2" d="M290.78,232.34c19.79-4.87,35.51,9.28,39.01,24.65,4.4,19.28-9.32,35.22-23.49,38.9-42.37,10.99-59.51-52.73-15.52-63.55h0ZM227.4,208.36c16.2,26.26,10.46,10.29,1.74,41.54l-21.67,4.26.65,20.34c25.09,5.04,16.05-1.97,25.65,18.35,9.21,19.51-1.74,13.46-6.65,28.48,6.28,5.12,7.02,8.16,14.49,13.14,18.19-9.23,7.38-14.09,29.46-5.6,20.98,8.07,10.03,5.57,17.02,25.56l19.5-.21c7.06-22.5-4.18-16.26,18.16-25.84,19.55-8.38,12.26-1.44,28.33,6.14,4.3-2.76,10.44-8.4,13.98-13.71-1.78-5.97-5.78-8.08-8.76-13.54-4.02-7.35,7.55-27.8,10.57-29.33,14.19-7.19,20.34,7.38,17.86-23.91l-21.13-4.34c-7.87-27.93-15.49-17.26,1.62-41.33-3.09-5.72-8.41-10.99-14.14-14.54-6.31,2.89-13.37,11.55-19.98,10.01-25.39-5.92-24.05-14.06-25.75-29.88l-21.1.22c-3,23.85.1,18.27-18.02,25.95-20.61,8.73-11.65.28-27.6-6.27-6.31,3.27-11.29,8.24-14.21,14.51h0Z"/>
  <path class="cls-1" d="M294.99,58.36c.11-4.1,1.84-7.75,4.59-10.35,2.67-2.56,6.36-4.1,10.34-4.06v-.04c.34,0,.68.04,1.02.08,3.73.3,7.07,1.99,9.48,4.52,2.56,2.67,4.1,6.32,4.07,10.35h.04c0,.26,0,.53-.04.75l-.79,31.49h.03c0,.34-.03.68-.07,1.02-.31,3.76-2,7.07-4.51,9.48-2.71,2.56-6.36,4.1-10.34,4.06v.04c-.34,0-.68-.04-1.02-.08-3.77-.3-7.08-1.99-9.49-4.52-2.56-2.71-4.1-6.36-4.07-10.35h-.04c0-.26,0-.53.04-.75l.75-31.64h0ZM135.07,113.52c-2.97-2.78-4.55-6.51-4.7-10.27-.15-3.76,1.17-7.6,3.91-10.57,2.79-2.97,6.51-4.55,10.27-4.7,3.76-.15,7.6,1.17,10.57,3.91l23.63,22.01c2.97,2.78,4.55,6.51,4.7,10.27.15,3.8-1.17,7.6-3.91,10.57-2.79,2.97-6.51,4.55-10.27,4.7-3.81.15-7.6-1.17-10.57-3.91l-23.63-22.01h0ZM96.44,275.91c-3.99.08-7.64-1.47-10.35-3.99-2.75-2.6-4.51-6.21-4.67-10.31-.15-4.06,1.4-7.83,3.99-10.57,2.6-2.75,6.21-4.52,10.31-4.63l32.25-1.09c4.07-.15,7.83,1.39,10.57,3.99,2.74,2.6,4.52,6.21,4.63,10.31v.23h.03s-.03.52-.03.52c-.08,3.8-1.58,7.22-3.99,9.82-2.6,2.75-6.21,4.48-10.31,4.63h-.23v.04h-.34l-31.87,1.05h0ZM497.9,230.2l.49-.04c3.84-.23,7.42,1.02,10.2,3.27,2.94,2.37,4.93,5.91,5.38,9.93v.15s.04.41.04.49c.22,3.84-1.02,7.41-3.28,10.2-2.37,2.93-5.91,4.93-9.93,5.38l-32.1,3.39c-4.07.41-7.9-.87-10.8-3.24-2.94-2.37-4.97-5.91-5.38-9.93-.41-4.03.87-7.9,3.23-10.8,2.37-2.94,5.91-4.97,9.93-5.38,10.73-1.17,21.49-2.41,32.21-3.42h0ZM434.35,101.78c2.3-3.39,5.68-5.49,9.37-6.25,3.69-.72,7.64-.04,11.06,2.22l.03.04c3.38,2.26,5.53,5.68,6.25,9.37.71,3.69.04,7.64-2.22,11.06l-17.95,26.83c-2.26,3.39-5.68,5.53-9.4,6.28-3.69.72-7.64.04-11.06-2.22-3.38-2.26-5.53-5.72-6.29-9.41-.71-3.69-.03-7.64,2.22-11.06l17.99-26.86h0Z"/>
</svg>