<?xml version="1.0" encoding="UTF-8"?>
<svg id="OBJECTS" xmlns="http://www.w3.org/2000/svg" viewBox="0 0 622.98 544.71">
  <defs>
    <style>
      .cls-1 {
        fill: #fff;
        fill-rule: evenodd;
      }
    </style>
  </defs>
  <path class="cls-1" d="M227.78,431.09c67.31,10.23,101.31,10.19,168.7-.01,2.83-69.74-13.78-102.84-84.36-102.71-70.61.13-87.17,32.72-84.34,102.72h0Z"/>
  <path class="cls-1" d="M468.83,436.72c-9.22-12.1-27.85-18.46-45.38-20.84,9.55,9.83,24.3,12.53,7.06,24.27-20.62,14.05-72.59,20.7-123.56,20.24-50.97.46-102.94-6.19-123.56-20.24-17.24-11.74-2.49-14.44,7.06-24.27-17.53,2.38-36.17,8.73-45.38,20.84-24.91,32.71,55.47,48.17,73.47,50.95,29.14,4.51,61.41,5.81,88.42,5.54,27.01.27,59.28-1.03,88.42-5.54,18-2.79,98.38-18.24,73.47-50.95h0Z"/>
  <path class="cls-1" d="M311.52,219.29h.11c27.07,0,49.22,22.15,49.22,49.22h0c0,27.07-22.15,49.22-49.22,49.22h-.11c-27.08,0-49.22-22.15-49.22-49.22h0c0-27.07,22.14-49.22,49.22-49.22h0Z"/>
  <polygon class="cls-1" points="31.34 319.15 107 319.15 107 295.08 164.77 331.04 107 368.81 107 344.74 31.34 344.74 31.34 319.15 31.34 319.15"/>
  <polygon class="cls-1" points="124.29 127.98 177.78 181.47 194.8 164.45 210.24 230.73 142.68 216.58 159.7 199.56 106.2 146.07 124.29 127.98 124.29 127.98"/>
  <polygon class="cls-1" points="500.15 127.98 446.66 181.47 429.64 164.45 414.21 230.73 481.77 216.58 464.76 199.56 518.24 146.07 500.15 127.98 500.15 127.98"/>
  <polygon class="cls-1" points="591.63 319.15 515.98 319.15 515.98 295.08 458.21 331.04 515.98 368.81 515.98 344.74 591.63 344.74 591.63 319.15 591.63 319.15"/>
  <polygon class="cls-1" points="324.89 51.47 324.89 127.12 348.95 127.12 313 184.9 275.23 127.12 299.3 127.12 299.3 51.47 324.89 51.47 324.89 51.47"/>
</svg>