<?xml version="1.0" encoding="UTF-8"?>
<svg id="OBJECTS" xmlns="http://www.w3.org/2000/svg" viewBox="0 0 622.98 544.71">
  <defs>
    <style>
      .cls-1 {
        fill: #fff;
        fill-rule: evenodd;
      }
    </style>
  </defs>
  <path class="cls-1" d="M163.41,62.13c18.43,0,33.37,14.94,33.37,33.36s-14.94,33.36-33.37,33.36-33.36-14.94-33.36-33.36,14.93-33.36,33.36-33.36h0Z"/>
  <path class="cls-1" d="M161.14,330.09h6.36v112.47h31.62v-247.74h12.81v106.31h7.98v-84.78c-.15-12.51,6.37-21.12,13.15-26.67v-12.24s-.55-25.66-22.53-26.1h-98.78c-21.96.43-22.52,26.1-22.52,26.1v123.69h21.13v-106.31h12.8v247.74h31.63v-112.47h6.36ZM232.51,301.13h.54v-.81l-.54.81h0Z"/>
  <path class="cls-1" d="M313.21,102.15c18.43,0,33.36,14.94,33.36,33.36s-14.93,33.36-33.36,33.36-33.37-14.94-33.37-33.36,14.94-33.36,33.37-33.36h0Z"/>
  <path class="cls-1" d="M310.93,370.1h6.36v112.47h31.63v-247.74h12.8v106.31h21.13v-123.69s-.55-25.66-22.53-26.1h-98.78c-21.97.44-22.53,26.1-22.53,26.1v123.69h21.13v-106.31h12.8v247.74h31.63v-112.47h6.36Z"/>
  <path class="cls-1" d="M459.57,62.13c-18.43,0-33.37,14.94-33.37,33.36s14.93,33.36,33.37,33.36,33.36-14.94,33.36-33.36-14.94-33.36-33.36-33.36h0Z"/>
  <path class="cls-1" d="M461.84,330.09h-6.35v112.47h-31.63v-247.74h-12.8v106.31h-7.98v-84.78c.15-12.51-6.38-21.12-13.15-26.67v-12.24s.56-25.66,22.52-26.1h98.78c21.96.43,22.52,26.1,22.52,26.1v123.69h-21.13v-106.31h-12.8v247.74h-31.63v-112.47h-6.36ZM390.47,301.13h-.54v-.81l.54.81h0Z"/>
</svg>