<svg width="123" height="123" viewBox="0 0 123 123" fill="none" xmlns="http://www.w3.org/2000/svg">
<path d="M18.199 86.6829L23.7458 82.9851C16.4589 70.3689 16.0238 55.1424 22.4407 42.1999L30.0539 41.7648C22.767 53.2934 22.4407 67.6498 29.0751 79.396L34.2956 75.9156L35.492 95.1663L18.199 86.6829ZM104.772 36.218L87.4795 27.6259L88.6759 46.8766L93.8964 43.3962C100.531 55.1424 100.205 69.6075 92.9176 81.0274L100.531 80.5923C106.948 67.6498 106.404 52.4234 99.2257 39.8071L104.772 36.218ZM46.9118 34.2603L43.4315 29.0398C55.1776 22.4054 69.6428 22.7317 81.0627 30.0187L80.6276 22.4054C67.6851 15.9886 52.4586 16.5324 39.8424 23.7106L36.1445 18.1638L27.5524 35.4567L46.9118 34.2603ZM41.8001 92.8823L42.2351 100.496C48.2169 103.541 54.8513 105.063 61.377 105.063C68.7727 105.063 76.2772 103.106 83.0203 99.2992L86.6094 104.737L95.2015 87.4443L75.9509 88.6406L79.4312 93.8611C67.7939 100.387 53.3287 100.06 41.8001 92.8823Z" fill="url(#paint0_linear_503_26)"/>
<path d="M84.2721 47.0394C84.2169 45.8687 83.6649 44.8095 82.8368 44.0291C82.0088 43.2486 80.9047 42.8584 79.7455 42.9699C78.5862 43.0257 77.5374 43.5831 76.8197 44.4193L54.7387 69.5052L44.6366 60.2513C43.8085 59.4708 42.7045 59.0806 41.5452 59.1364C40.386 59.1921 39.3371 59.6938 38.6195 60.53C37.8467 61.3662 37.4602 62.4811 37.5154 63.6518C37.5706 64.8225 38.0675 65.8817 38.8955 66.6064L52.1994 78.8148C52.9722 79.5395 54.021 79.9298 55.0699 79.9298H55.2907H55.3459C56.45 79.874 57.4988 79.3723 58.3268 78.4804L83.2785 50.1054C83.9409 49.2693 84.3273 48.1543 84.2721 47.0394Z" fill="url(#paint1_linear_503_26)"/>
<defs>
<linearGradient id="paint0_linear_503_26" x1="61.4668" y1="17.9363" x2="61.4668" y2="105.063" gradientUnits="userSpaceOnUse">
<stop stop-color="#5078BB"/>
<stop offset="1" stop-color="#4CBC94"/>
</linearGradient>
<linearGradient id="paint1_linear_503_26" x1="60.8938" y1="42.9512" x2="60.8938" y2="79.9298" gradientUnits="userSpaceOnUse">
<stop stop-color="#5078BB"/>
<stop offset="1" stop-color="#4CBC94"/>
</linearGradient>
</defs>
</svg>
