<svg width="123" height="123" viewBox="0 0 123 123" fill="none" xmlns="http://www.w3.org/2000/svg">
<path fill-rule="evenodd" clip-rule="evenodd" d="M68.1587 101.204C68.1541 101.265 68.1541 101.32 68.1495 101.381V101.385L68.1402 101.51V101.603L68.1356 101.631V101.728L68.131 101.742L68.1264 101.779V101.784L68.1218 101.816L68.1125 101.844V101.858L68.0941 101.914V101.928L68.0756 101.983V101.997L68.0571 102.053L68.0525 102.062L68.0479 102.076L68.034 102.146L68.0294 102.173L68.0202 102.201L68.0017 102.294L67.9925 102.34V102.345L67.9878 102.368L67.9786 102.391L67.974 102.41L67.9694 102.419L67.9509 102.465V102.47L67.9463 102.489L67.937 102.512L67.9324 102.53L67.9278 102.535L67.9093 102.581L67.9047 102.591L67.9001 102.609L67.8908 102.632L67.877 102.683L67.8678 102.706L67.8631 102.716L67.8585 102.73L67.8216 102.822L67.817 102.832L67.8123 102.845L67.7754 102.938L67.7708 102.952L67.7662 102.961L67.7384 103.031L67.7338 103.036L67.7246 103.059L67.72 103.073L67.7154 103.082L67.6969 103.128V103.133L67.6876 103.151L67.6784 103.175L67.6692 103.193L67.6646 103.198L67.6461 103.244L67.6322 103.272L67.6184 103.295L67.6091 103.314L67.6045 103.318L67.5768 103.365L67.5722 103.374L67.5629 103.388L67.5491 103.411L67.526 103.457L67.4706 103.55L66.196 105.831C66.2883 105.914 66.3899 105.988 66.5008 106.058L68.265 107.198C68.8423 107.569 69.5212 107.671 70.1493 107.537C70.7728 107.402 71.3408 107.031 71.7103 106.461L71.7149 106.452C71.7288 106.429 71.7426 106.406 71.7611 106.387C72.0982 105.822 72.1906 105.168 72.0567 104.556C71.9504 104.065 71.701 103.606 71.327 103.253L71.2808 103.226C71.1884 103.165 71.1053 103.1 71.036 103.022L70.9944 102.994L70.9852 102.989C70.9575 102.975 70.9344 102.957 70.9067 102.938L68.1587 101.204ZM42.3422 33.7291C42.3422 44.6228 51.1447 53.4582 61.9978 53.4582C72.8555 53.4582 81.6534 44.6228 81.6534 33.7291C81.6534 22.8354 72.8509 14 61.9978 14C51.1447 14 42.3422 22.8354 42.3422 33.7291ZM61.7852 41.4104C61.6559 41.568 61.5127 41.707 61.3557 41.8229C60.3258 42.662 58.7925 42.5044 57.952 41.4706L52.2068 34.3735C51.3709 33.3397 51.5279 31.8007 52.5578 30.9571C53.5877 30.118 55.121 30.2756 55.9615 31.3094L59.8456 36.1072L62.2886 33.0894L63.7757 31.2537L63.785 31.2444L68.0339 25.9923C68.8698 24.9585 70.4077 24.7963 71.4376 25.64C72.4675 26.479 72.6291 28.0226 71.7886 29.0564L67.5304 34.3178L66.0434 36.1535L61.7852 41.4104ZM99.8077 80.8223L89.6843 59.5861C88.1003 60.5364 86.3776 61.1993 84.5164 61.5655C82.2488 62.0152 79.7688 62.0291 77.0809 61.6119C76.9839 61.598 76.8961 61.5702 76.8084 61.5331C74.7486 60.7126 72.7535 60.3371 70.8323 60.4066C68.9249 60.4762 67.0683 60.9953 65.2626 61.9549L62.5378 63.6052L62.5239 63.6144L62.4962 63.6283L48.1101 72.3386L48.1009 72.3664L48.0962 72.3757L48.087 72.4128L48.0824 72.422L48.0732 72.4498L48.0685 72.4777L48.0639 72.4869L48.0547 72.524L48.0501 72.5333L48.0408 72.5889V72.5982L48.0316 72.6353L48.0224 72.6677L48.0177 72.6909V72.7002L48.0039 72.7697C47.9577 73.0432 47.9531 73.3074 47.9762 73.5578V73.5624L47.9854 73.6273L47.99 73.6505V73.6597L47.9993 73.6875L48.0039 73.6968L48.0131 73.7432V73.7524C48.0224 73.8127 48.0362 73.8683 48.0547 73.9286C48.2117 74.5127 48.595 75.069 49.2046 75.5927C49.2277 75.6113 49.2462 75.6298 49.2647 75.6484C49.6203 75.945 50.0452 76.2324 50.5439 76.5106C51.7124 76.7887 52.8438 76.849 53.9338 76.6914C55.0607 76.5291 56.1598 76.1258 57.2359 75.4861L57.2821 75.4583C63.2258 72.0001 68.7125 71.532 73.7467 74.0491C73.8114 74.0815 73.8714 74.1186 73.9222 74.1604L90.2295 84.8038L90.2388 84.8084L90.285 84.8408L90.2942 84.8455L90.3404 84.8733L99.8077 80.8223ZM91.116 57.4215L90.4832 56.0911L99.2443 51.8819L112 78.6388L103.239 82.8479L102.343 80.9706L102.338 80.9566C102.325 80.9196 102.306 80.8825 102.288 80.85L91.1667 57.524C91.1529 57.4869 91.1344 57.454 91.116 57.4215ZM77.7419 79.2974L72.731 76.0293C68.4175 73.8876 63.6375 74.3373 58.4004 77.3921L58.3773 77.406C57.0519 78.1941 55.6803 78.6947 54.2532 78.8987C52.8354 79.1073 51.3759 79.0192 49.8842 78.6437V78.6391C49.7965 78.6159 49.7134 78.5835 49.6302 78.5417C48.9283 78.1663 48.3232 77.7583 47.8106 77.3273L47.7598 77.2855C46.7992 76.4558 46.1803 75.5286 45.9032 74.4995L45.8709 74.3651L45.8663 74.3558L45.857 74.3094V74.3048L45.8478 74.2631L45.8432 74.2445L45.8386 74.2167L45.8339 74.1843L45.8293 74.1704L45.8201 74.124V74.1101L45.8109 74.0638C45.7139 73.4982 45.7231 72.9095 45.8339 72.3068L45.8386 72.2883L45.8432 72.2558L45.8524 72.2234L45.857 72.2048L45.8755 72.1029L45.8801 72.0889L45.8894 72.0519L45.8986 72.0194L45.9125 71.9499V71.9452L45.9263 71.8943L45.9309 71.885L45.9402 71.8433L45.9725 71.7459L45.9771 71.7366L45.991 71.6856L45.9864 71.6717L46.0002 71.6254L46.0048 71.6022L46.0141 71.5698L46.0279 71.5327L46.0325 71.5188L46.051 71.4678L46.0741 71.3982L46.088 71.3612L46.1018 71.3287L46.1295 71.2545L46.1341 71.2453V71.2406L46.1388 71.2314V71.2267L46.1434 71.2175V71.2128L46.148 71.2035V71.1989L46.1526 71.1896V71.185L46.1572 71.1757V71.1711L46.1618 71.1618V71.1572L46.1665 71.1479V71.1433L46.1711 71.134V71.1294L46.1803 71.1108V71.1062L46.1849 71.0969V71.0923L46.1896 71.083V71.0784L46.1942 71.0691V71.0645L46.1988 71.0552V71.0506L46.2034 71.0413V71.0367L46.208 71.0274V71.0228L46.2126 71.0135V71.0089L46.2173 70.9996V70.9949L46.2219 70.9857V70.981L46.2265 70.9718V70.9671L46.2311 70.9579V70.9532L46.2357 70.944V70.9393L46.2404 70.93V70.9254L46.245 70.9161V70.9115L46.2542 70.893V70.8883L46.2681 70.8605V70.8559L46.2865 70.8188L46.3235 70.7817L46.3558 70.8466L46.5867 70.6148L46.596 70.6102L59.7631 62.6369L58.5993 61.9323C56.7936 60.9727 54.9369 60.4581 53.0297 60.384C51.1038 60.3144 49.1133 60.6853 47.0489 61.5104C46.9658 61.5475 46.8734 61.5753 46.7764 61.5892C44.1117 62.0064 41.6548 61.9925 39.401 61.5568C37.549 61.1952 35.8356 60.5509 34.2653 59.6191L24.0773 80.9895L27.7165 82.8066L31.6651 84.7814C31.7667 84.8324 31.8591 84.8973 31.9422 84.9761L34.9396 87.8641L35.5676 88.4667L36.8515 86.1628L36.87 86.1257L36.8838 86.1025L36.8884 86.0933L36.9115 86.0608L36.9208 86.0469L36.9346 86.0237L36.9808 85.9588L36.9947 85.9356L36.9993 85.9264L37.0224 85.8939L37.0316 85.88L37.0455 85.8615L37.0686 85.829V85.8244L37.0917 85.7919L37.1101 85.7641L37.1147 85.7549L37.1378 85.7224L37.1471 85.7085L37.1609 85.69L37.184 85.6575L37.1886 85.6529L37.2117 85.6251L37.2302 85.5973L37.2348 85.5926L37.2579 85.5602L37.2671 85.5463L37.281 85.5323L37.3041 85.4999L37.3087 85.4953L37.3318 85.4675L37.4057 85.3747L37.4611 85.3191L37.4842 85.2913L37.4888 85.2867L37.5396 85.2264L37.7059 85.0595C38.3663 84.3827 39.1884 83.9006 40.0751 83.6503C40.1397 83.6318 40.209 83.6132 40.2737 83.5993L40.3106 83.59L40.3245 83.5854L40.3522 83.5808L40.3891 83.5715H40.3937L40.4307 83.5622C40.4815 83.5529 40.5323 83.539 40.5877 83.5344L40.6247 83.5251L40.6385 83.5205L40.6616 83.5159L40.7032 83.5112L40.7401 83.5066L40.8602 83.4927L40.8925 83.4881H40.8971L40.9387 83.4834C42.0055 83.3629 43.1186 83.5622 44.1253 84.1278H44.1299C45.4092 84.8463 46.2775 86.0284 46.6469 87.3448C46.707 87.5627 46.7578 87.7852 46.7901 88.0124C46.9979 87.9243 47.215 87.8501 47.432 87.7852C48.7252 87.419 50.1569 87.5395 51.4177 88.2302C51.4592 88.2488 51.5008 88.2719 51.5377 88.2998C52.7847 89.0229 53.6298 90.1864 53.9946 91.4844C54.0501 91.6791 54.0916 91.8831 54.1286 92.0824C54.3133 92.0036 54.5027 91.9387 54.6966 91.8831C55.8928 91.5447 57.2182 91.6559 58.3913 92.2957C58.4329 92.3188 58.4744 92.3374 58.5114 92.3652C59.6659 93.0374 60.4464 94.1129 60.7882 95.3181C60.8483 95.536 60.8944 95.7631 60.9268 95.9903C61.0838 95.93 61.2408 95.8744 61.4025 95.8326C62.7049 95.4664 64.1503 95.587 65.425 96.2962L65.4527 96.3101C66.1916 96.7273 66.7966 97.2975 67.2446 97.9604L72.1307 101.099L72.1861 101.131L72.1954 101.136L72.2092 101.145C72.3847 101.256 72.551 101.381 72.7034 101.511L74.1997 102.48C74.777 102.851 75.4559 102.953 76.084 102.818C76.7121 102.679 77.2848 102.309 77.6542 101.729C78.0237 101.15 78.1253 100.468 77.9914 99.8377C77.8575 99.2072 77.4834 98.6325 76.9061 98.2616L75.4052 97.2928L73.2899 95.9346C73.2576 95.9114 73.2299 95.8928 73.1976 95.8697C72.2739 95.2763 71.2809 94.6412 70.2835 94.0062C70.0849 93.881 69.8817 93.7512 67.7342 92.3744C67.2169 92.0453 67.0645 91.3546 67.3924 90.8354C67.7203 90.3162 68.4085 90.1632 68.9258 90.4924C69.3783 90.7844 69.9741 91.1599 71.475 92.1148C72.9529 93.0559 74.4353 94.0015 76.2596 95.1882L76.3428 95.2438L76.606 95.4153L78.652 96.7319L78.7028 96.7643C79.4047 97.1954 80.2268 97.3067 80.9888 97.1398C81.7647 96.9683 82.4759 96.5047 82.9331 95.7909C83.3903 95.0724 83.515 94.2241 83.3441 93.4406C83.1779 92.6757 82.7253 91.9711 82.0325 91.5122L79.2384 89.7182L79.2338 89.7136L78.3194 89.1249C78.2224 89.0646 78.1485 89.0136 78.0931 88.9719L78.0884 88.9672C78.0099 88.9116 77.9453 88.8653 77.8991 88.8282L75.1973 87.0945C74.6801 86.7654 74.5276 86.0747 74.8556 85.5555C75.1835 85.0362 75.8716 84.8833 76.3889 85.2124L79.1552 86.9925L79.169 87.0064H79.1737L79.1875 87.0203L80.0881 87.5998C80.1851 87.66 80.259 87.711 80.319 87.7527L80.3236 87.7574C80.3744 87.7945 80.4298 87.8362 80.4899 87.8825L83.2009 89.6256L83.2471 89.658L84.2492 90.3024C84.9651 90.7613 85.8102 90.8865 86.5908 90.715C87.3666 90.5434 88.0779 90.0799 88.535 89.3568L88.5674 89.3058C88.8445 88.8515 88.9876 88.3508 89.0154 87.8501C89.0384 87.4005 88.9646 86.9462 88.7983 86.529L77.7836 79.3391L77.7419 79.2974ZM36.8193 90.854L36.8239 90.8447L38.8144 87.2799L38.8236 87.2568L38.8328 87.2429L38.8375 87.2382L38.8513 87.215L38.8559 87.2058L38.8652 87.1919L38.879 87.1687L38.8929 87.1501L38.9021 87.1362L38.9067 87.1316L38.9206 87.1131L38.9252 87.1038L38.9345 87.0899L38.9622 87.0528L38.9714 87.0389L38.976 87.0342L38.9899 87.0157L38.9945 87.0064L39.0037 86.9972C39.0314 86.9601 39.0591 86.923 39.0869 86.8859L39.0915 86.8813L39.1377 86.821L39.1469 86.8117L39.1608 86.7932L39.1654 86.7886L39.1885 86.7607L39.1931 86.7561L39.2393 86.7051L39.2439 86.7005L39.2947 86.6449L39.2993 86.6356C39.5348 86.3899 39.8027 86.1906 40.0983 86.0376L40.1075 86.033L40.1398 86.0144L40.1722 86.0005L40.1814 85.9959L40.2045 85.9866L40.2091 85.982L40.223 85.9727L40.2738 85.9495L40.283 85.9449L40.3061 85.9356H40.3107L40.3292 85.9263L40.343 85.9217L40.3477 85.9171L40.3708 85.9078L40.3754 85.9032L40.3892 85.8985L40.4077 85.8892L40.4308 85.88L40.4446 85.8753L40.4539 85.8707L40.477 85.8614H40.4816L40.5185 85.8522H40.5232L40.5278 85.8475L40.5509 85.8383L40.5647 85.8336L40.6109 85.8151L40.6248 85.8104L40.634 85.8058L40.6571 85.8012H40.6617L40.6987 85.7919H40.7033L40.7264 85.7873L40.7356 85.7826L40.7495 85.778L40.7956 85.7687L40.8095 85.7641L40.8187 85.7595L40.8141 85.778H40.8187L40.8326 85.7734L40.8511 85.7687H40.8557L40.8788 85.7641L40.8926 85.7595L40.9019 85.7548L40.9249 85.7502H40.9296L40.9665 85.7409H40.9711L40.9942 85.7363H41.0035L41.0173 85.7316L41.0635 85.7224L41.0774 85.7177H41.0866L41.1097 85.7131H41.1143L41.1328 85.7085L41.179 85.6992H41.1928C41.8117 85.6343 42.4536 85.7502 43.0309 86.0747C43.7745 86.4919 44.2779 87.1779 44.4949 87.9428C44.712 88.7123 44.6335 89.5607 44.2225 90.307L42.6477 93.1301C42.5553 93.2645 42.4722 93.4036 42.3937 93.5426L41.2806 95.5359C40.8604 96.1108 40.2692 96.5048 39.6181 96.6902C38.8514 96.9081 38.0063 96.8339 37.2627 96.4167C36.5192 95.9995 36.0158 95.3134 35.7987 94.5486C35.5816 93.7791 35.6602 92.9307 36.0712 92.1844L36.8193 90.854ZM44.555 94.3028L44.5735 94.2843L46.1761 91.4194C46.5917 90.6731 47.2752 90.1678 48.0372 89.9499C48.7854 89.7367 49.6166 89.8062 50.3463 90.2002C50.3741 90.2188 50.4064 90.2373 50.4387 90.2512C51.1546 90.6684 51.6441 91.3406 51.8565 92.0962C52.069 92.8472 51.9997 93.6815 51.6071 94.414C51.5886 94.4464 51.5702 94.4789 51.5517 94.516L50.0646 97.1768L48.8361 99.3741L48.813 99.3973C48.7945 99.4298 48.7714 99.4715 48.7437 99.5132H48.7484L48.7437 99.5178C48.7253 99.5456 48.7022 99.5827 48.6698 99.6245C48.6421 99.6615 48.6144 99.7033 48.5913 99.745L46.9887 102.61C46.5731 103.356 45.8896 103.861 45.1276 104.079C44.3794 104.293 43.5481 104.223 42.8184 103.829C42.7907 103.81 42.7584 103.792 42.7307 103.778C42.0148 103.361 41.5253 102.684 41.3129 101.933C41.0958 101.164 41.1697 100.315 41.5854 99.5689L43.1602 96.7504C43.2525 96.616 43.3403 96.4769 43.4188 96.3332L44.555 94.3028ZM21.5831 81.1243L20.761 82.8534L12 78.6442L24.7557 51.8874L33.5167 56.0965L32.8656 57.464C32.8379 57.5104 32.8194 57.5567 32.8009 57.6031L21.6615 80.9576C21.6476 80.9808 21.6384 80.9993 21.6245 81.0225C21.6107 81.0596 21.5923 81.0919 21.5831 81.1243ZM52.0365 98.1976L52.0458 98.1883L52.0688 98.1512C52.0827 98.1281 52.1012 98.1003 52.1289 98.0632C52.1566 98.0261 52.1843 97.9844 52.2074 97.9426L53.6622 95.3375C54.0271 94.6838 54.6274 94.2388 55.2925 94.0534C55.9621 93.8634 56.6964 93.9283 57.3476 94.2898L57.3569 94.2945C58.0081 94.6607 58.4514 95.2633 58.6361 95.9308C58.8255 96.603 58.7608 97.3493 58.396 97.9983L58.1928 98.3599L58.1881 98.3645L55.8975 102.467L55.8513 102.513L55.8097 102.588C55.7958 102.606 55.7774 102.639 55.7497 102.676C55.722 102.713 55.6942 102.754 55.6712 102.796L54.221 105.397L54.2163 105.401C53.8515 106.055 53.2557 106.5 52.5861 106.685C51.9303 106.871 51.2098 106.811 50.5679 106.467C50.5402 106.449 50.5079 106.43 50.4755 106.417C49.8521 106.05 49.4272 105.462 49.2424 104.808C49.0531 104.136 49.1177 103.389 49.4826 102.74L50.7295 100.511L50.7757 100.464L52.0042 98.267L52.0365 98.1976ZM60.1371 99.4585V99.4538C60.5528 98.7122 61.2363 98.2068 61.9983 97.989C62.7464 97.7757 63.5777 97.8453 64.3074 98.2393C64.3351 98.2578 64.3674 98.2764 64.3998 98.2903C65.1156 98.7121 65.6051 99.3843 65.813 100.135C65.8499 100.274 65.8822 100.413 65.9007 100.557L65.9053 100.608C65.9469 100.933 65.933 101.262 65.873 101.586C65.8545 101.684 65.8314 101.781 65.8037 101.878L65.7991 101.888L65.7945 101.892L65.7852 101.92L65.7899 101.925L65.7806 101.952L65.776 101.962L65.7714 101.966L65.7529 102.022L65.7483 102.031V102.036L65.716 102.133L65.7114 102.138L65.7067 102.147L65.6975 102.175L65.679 102.212L65.6744 102.217L65.6559 102.272L65.6421 102.3L65.6375 102.314V102.319L65.6236 102.342L65.619 102.351L65.6144 102.356L65.6098 102.37L65.6005 102.384L65.5959 102.388L65.5913 102.397L65.582 102.411L65.5774 102.425L65.5682 102.439L65.5543 102.467L65.5359 102.495L63.8825 105.452L63.8687 105.475L62.788 107.413C62.3724 108.16 61.6888 108.665 60.9268 108.883C60.1648 109.096 59.3196 109.026 58.5807 108.609L58.5715 108.605C57.8279 108.187 57.3245 107.501 57.1074 106.736C56.895 105.967 56.9643 105.119 57.3799 104.377L57.3845 104.372L57.8187 103.589V103.538L60.1371 99.4585Z" fill="url(#paint0_linear_503_25)"/>
<defs>
<linearGradient id="paint0_linear_503_25" x1="62" y1="14" x2="62" y2="109" gradientUnits="userSpaceOnUse">
<stop stop-color="#5078BB"/>
<stop offset="1" stop-color="#4CBC94"/>
</linearGradient>
</defs>
</svg>
