<svg width="123" height="123" viewBox="0 0 123 123" fill="none" xmlns="http://www.w3.org/2000/svg">
<path d="M20.8115 55.8155C20.8042 65.5861 24.671 74.961 31.5644 81.8853C38.4577 88.8096 47.8153 92.7184 57.5858 92.7547H57.6683C66.9444 92.7589 75.8783 89.2521 82.6748 82.9391L83.4584 82.1967C82.8695 81.7053 82.3349 81.1523 81.8637 80.5471C76.3381 86.0173 69.1129 89.4408 61.3801 90.2527V86.8434C68.5416 85.9519 75.1778 82.6216 80.1727 77.4127C79.8818 76.5252 79.7333 75.5972 79.7328 74.6632V73.8796C77.0636 77.1624 73.695 79.8077 69.8729 81.6224C66.0509 83.4371 61.8718 84.3754 57.6408 84.3688C50.0862 84.3688 42.841 81.3678 37.4991 76.0259C32.1572 70.684 29.1562 63.4388 29.1562 55.8843C29.1562 48.3297 32.1572 41.0845 37.4991 35.7426C42.841 30.4007 50.0862 27.3997 57.6408 27.3997C61.3879 27.396 65.0989 28.1314 68.5614 29.5637C72.024 30.996 75.1701 33.097 77.8196 35.7466C80.4692 38.3962 82.5703 41.5423 84.0026 45.0049C85.4348 48.4674 86.1702 52.1784 86.1666 55.9255C86.1666 56.7641 86.1666 57.5889 86.0566 58.4138H94.47C94.525 57.5981 94.5525 56.7778 94.5525 55.953C94.584 48.1706 92.1328 40.5809 87.5551 34.2871C87.0327 33.5585 86.469 32.8436 85.8779 32.1425C82.4309 28.0341 78.1273 24.729 73.2686 22.4588C68.4099 20.1886 63.1137 19.0081 57.7508 19C47.973 18.9927 38.5919 22.8652 31.6664 29.7674C24.7409 36.6697 20.837 46.0378 20.8115 55.8155ZM26.7367 52.5711H23.3273C24.1142 44.5799 27.6547 37.1107 33.3428 31.4428C39.0308 25.7748 46.5124 22.2606 54.5064 21.502V24.9114C47.4139 25.6549 40.79 28.8052 35.7374 33.8378C30.6848 38.8704 27.5083 45.4817 26.7367 52.5711Z" fill="url(#paint0_linear_503_28)"/>
<path d="M46.4782 63.9816L52.417 58.0702C52.1208 57.375 51.9711 56.6262 51.9771 55.8706C51.9779 54.6314 52.3801 53.4258 53.1237 52.4344C53.8672 51.4431 54.9119 50.7193 56.1013 50.3716V40.4185H53.8193L57.9435 33.3386L62.0677 40.4323H59.7444V50.5229C60.4655 50.8167 61.119 51.2546 61.6648 51.8099C62.2107 52.3651 62.6374 53.026 62.9188 53.752C63.2002 54.478 63.3304 55.2538 63.3015 56.0319C63.2725 56.81 63.0849 57.5739 62.7503 58.277C62.4156 58.98 61.9409 59.6073 61.3553 60.1205C60.7697 60.6336 60.0854 61.0217 59.3445 61.2611C58.6036 61.5004 57.8215 61.5859 57.0464 61.5124C56.2713 61.4389 55.5193 61.2078 54.8366 60.8334L49.0627 66.5798L50.7124 68.1608L42.8076 70.2779L44.9385 62.3731L46.4782 63.9816Z" fill="url(#paint1_linear_503_28)"/>
<path d="M79.5818 63.734H102.609C102.609 62.9501 102.297 62.1983 101.743 61.644C101.189 61.0897 100.437 60.7783 99.653 60.7783H82.5375C81.7536 60.7783 81.0018 61.0897 80.4475 61.644C79.8932 62.1983 79.5818 62.9501 79.5818 63.734Z" fill="url(#paint2_linear_503_28)"/>
<path d="M100.175 104H81.9876C81.3422 104 80.7233 103.744 80.267 103.287C79.8106 102.831 79.5543 102.212 79.5543 101.567V100.989H102.609V101.567C102.609 101.886 102.546 102.203 102.423 102.498C102.301 102.793 102.122 103.061 101.896 103.287C101.67 103.513 101.402 103.692 101.107 103.815C100.811 103.937 100.495 104 100.175 104Z" fill="url(#paint3_linear_503_28)"/>
<path d="M82.1388 65.3286V74.6906C82.1388 74.8556 82.1388 75.0205 82.1388 75.1855C82.2629 76.4925 82.7379 77.7417 83.5136 78.8011C83.9585 79.4278 84.4856 79.9919 85.0808 80.4782C85.8965 81.1151 86.8313 81.5825 87.8302 81.853C87.9357 81.8839 88.0282 81.9482 88.0941 82.0362C88.1599 82.1242 88.1955 82.2311 88.1955 82.341C88.1955 82.4509 88.1599 82.5578 88.0941 82.6458C88.0282 82.7338 87.9357 82.7981 87.8302 82.829C86.2476 83.2929 84.8478 84.2361 83.8236 85.5287C82.7994 86.8213 82.2011 88.3997 82.1113 90.0464V99.4084H99.9829V90.1014C99.8931 88.4547 99.2949 86.8763 98.2707 85.5837C97.2465 84.2911 95.8466 83.3479 94.264 82.884C94.1586 82.8531 94.066 82.7888 94.0002 82.7008C93.9343 82.6128 93.8987 82.5059 93.8987 82.396C93.8987 82.2861 93.9343 82.1792 94.0002 82.0912C94.066 82.0032 94.1586 81.9389 94.264 81.908C95.8456 81.4423 97.2443 80.4986 98.2683 79.2064C99.2922 77.9142 99.8911 76.3367 99.9829 74.6906V65.3286H82.1388Z" fill="url(#paint4_linear_503_28)"/>
<defs>
<linearGradient id="paint0_linear_503_28" x1="57.6822" y1="19" x2="57.6822" y2="92.7547" gradientUnits="userSpaceOnUse">
<stop stop-color="#5078BB"/>
<stop offset="1" stop-color="#4CBC94"/>
</linearGradient>
<linearGradient id="paint1_linear_503_28" x1="53.0565" y1="33.3386" x2="53.0565" y2="70.2779" gradientUnits="userSpaceOnUse">
<stop stop-color="#5078BB"/>
<stop offset="1" stop-color="#4CBC94"/>
</linearGradient>
<linearGradient id="paint2_linear_503_28" x1="91.0952" y1="60.7783" x2="91.0952" y2="63.734" gradientUnits="userSpaceOnUse">
<stop stop-color="#5078BB"/>
<stop offset="1" stop-color="#4CBC94"/>
</linearGradient>
<linearGradient id="paint3_linear_503_28" x1="91.0815" y1="104" x2="91.0815" y2="100.989" gradientUnits="userSpaceOnUse">
<stop stop-color="#5078BB"/>
<stop offset="1" stop-color="#4CBC94"/>
</linearGradient>
<linearGradient id="paint4_linear_503_28" x1="91.0471" y1="65.3286" x2="91.0471" y2="99.4084" gradientUnits="userSpaceOnUse">
<stop stop-color="#5078BB"/>
<stop offset="1" stop-color="#4CBC94"/>
</linearGradient>
</defs>
</svg>
