<svg width="123" height="123" viewBox="0 0 123 123" fill="none" xmlns="http://www.w3.org/2000/svg">
<path d="M106 80.1894H17V83.7997H106V80.1894ZM81.6138 61.2358H90.4226L87.3023 57.5543H79.5976L81.6138 61.2358ZM71.7009 61.2358H79.4536L77.4614 57.5543H71.0049L71.7009 61.2358ZM62.4601 61.2358H69.7567L69.0607 57.5543H62.4841V61.2358H62.4601ZM53.2673 61.2358H60.5399V57.5543H53.9633L53.2673 61.2358ZM43.5704 61.2358H51.2991L51.9951 57.5543H45.5386L43.5704 61.2358ZM32.5774 61.2358H41.4102L43.4024 57.5543H35.7217L32.5774 61.2358ZM49.5229 70.5701H38.5059L34.3296 78.3131H48.0588L49.5229 70.5701ZM60.5399 70.5701H51.4911L50.003 78.3131H60.5399V70.5701ZM71.5329 70.5701H62.4601V78.3131H72.997L71.5329 70.5701ZM84.4941 70.5701H73.4771L74.9652 78.3131H88.6945L84.4941 70.5701ZM98.2953 70.5226C98.1993 70.5463 98.1033 70.5701 98.0073 70.5701H86.6543L90.8306 78.3131H104.896L98.2953 70.5226ZM85.6222 68.67H96.7352L92.0307 63.1359H82.6219L85.6222 68.67ZM73.117 68.67H83.462L80.4617 63.1359H72.061L73.117 68.67ZM62.4601 68.67H71.1729L70.1168 63.1359H62.4601V68.67ZM51.8511 68.67H60.5399V63.1359H52.9072L51.8511 68.67ZM39.562 68.67H49.907L50.9631 63.1359H42.5623L39.562 68.67ZM26.2648 68.67H37.3778L40.3781 63.1359H30.9693L26.2648 68.67ZM24.9927 70.5701C24.8967 70.5701 24.7767 70.5463 24.7047 70.5226L18.0801 78.3131H32.1454L36.3457 70.5701H24.9927ZM57.4196 99.4281H65.5564V85.7235H57.4196V99.4281ZM45.9226 109H77.1014C80.4857 109 82.2859 104.891 79.8377 102.468C79.1416 101.78 78.1575 101.328 77.1014 101.328H45.9226C42.5143 101.328 40.7141 105.437 43.1864 107.86C43.8824 108.549 44.8425 109 45.9226 109ZM68.4366 26.8911C64.5963 23.0909 58.3797 23.0909 54.5634 26.8911C50.723 30.6914 50.723 36.843 54.5634 40.6432C58.4037 44.4435 64.6203 44.4435 68.4366 40.6432C72.277 36.843 72.277 30.6914 68.4366 26.8911ZM70.1888 16.9867C70.8128 15.9179 72.469 16.868 71.8449 17.9368L70.1168 20.9295C69.4927 21.9983 67.8126 21.0483 68.4606 19.9794L70.1888 16.9867ZM77.5094 23.5184C78.5895 22.9009 79.5496 24.5397 78.4695 25.1573L75.4453 26.8911C74.3652 27.5087 73.4051 25.8698 74.4852 25.2523L77.5094 23.5184ZM80.5337 32.8052C81.8058 32.8052 81.8058 34.7054 80.5337 34.7054H77.0534C75.7813 34.7054 75.7813 32.8052 77.0534 32.8052H80.5337ZM42.4663 34.7054C41.2182 34.7054 41.2182 32.8052 42.4663 32.8052H45.9466C47.1947 32.8052 47.1947 34.7054 45.9466 34.7054H42.4663ZM44.5305 25.1573C43.4504 24.5397 44.4105 22.9009 45.4906 23.5184L48.4908 25.2523C49.5949 25.8698 48.6348 27.5324 47.5307 26.8911L44.5305 25.1573ZM51.1551 17.9368C50.531 16.868 52.1872 15.9179 52.8112 16.9867L54.5394 19.9794C55.1634 21.0483 53.5073 21.9983 52.8832 20.9295L51.1551 17.9368ZM78.4695 42.3533C79.5496 42.9709 78.5895 44.6335 77.5094 43.9922L74.4852 42.2583C73.4051 41.6408 74.3652 40.0019 75.4453 40.6195L78.4695 42.3533ZM71.8449 49.5975C72.469 50.6901 70.8128 51.6402 70.1888 50.5476L68.4366 47.5787C67.8126 46.4861 69.4687 45.536 70.0928 46.6286L71.8449 49.5975ZM62.4601 52.5902C62.4601 53.8253 60.5399 53.8253 60.5399 52.5902V49.1463C60.5399 47.9112 62.4601 47.9112 62.4601 49.1463V52.5902ZM52.8112 50.5476C52.1872 51.6402 50.507 50.6901 51.1551 49.5975L52.9072 46.6286C53.5313 45.536 55.1874 46.4861 54.5634 47.5787L52.8112 50.5476ZM45.5146 43.9922C44.4105 44.6097 43.4504 42.9709 44.5545 42.3533L47.5788 40.6432C48.6829 40.0257 49.6429 41.6645 48.5388 42.2821L45.5146 43.9922ZM60.5399 14.9441C60.5399 13.6853 62.4601 13.6853 62.4601 14.9441V18.3881C62.4601 19.6469 60.5399 19.6469 60.5399 18.3881V14.9441Z" fill="url(#paint0_linear_503_23)"/>
<defs>
<linearGradient id="paint0_linear_503_23" x1="61.5" y1="14" x2="61.5" y2="109" gradientUnits="userSpaceOnUse">
<stop stop-color="#5078BB"/>
<stop offset="1" stop-color="#4CBC94"/>
</linearGradient>
</defs>
</svg>
