<svg width="123" height="123" viewBox="0 0 123 123" fill="none" xmlns="http://www.w3.org/2000/svg">
<path d="M51.8229 22C49.3578 22 47.9616 24.0978 47.3359 26.4541V28.5833H102V26.4541C102 24.0182 99.9886 22 97.5234 22H51.8229ZM47.3359 31.2167V35.1667H102V31.2167H47.3359ZM47.3359 37.8V53.1088C47.3359 55.5447 49.3578 57.55 51.8229 57.55H97.5234C99.9886 57.55 102 55.5447 102 53.1088V37.8H47.3359ZM56.862 43.1438H64.4818C66.0697 43.1438 67.3359 44.4494 67.3359 46.0215V49.4751C67.3359 51.0575 66.0697 52.3605 64.4818 52.3605H56.862C55.2741 52.3605 54.0078 51.0579 54.0078 49.4751V46.0215C54.0078 44.4391 55.2741 43.1438 56.862 43.1438ZM56.862 45.7772C56.7617 45.7772 56.677 45.8867 56.677 46.0215V49.4752C56.677 49.6359 56.7617 49.727 56.862 49.727H64.4818C64.5821 49.727 64.6667 49.6304 64.6667 49.4752V46.0215C64.6667 45.8712 64.5821 45.7772 64.4818 45.7772H56.862ZM49.9193 69.4026C47.3359 69.4026 42.8325 71.3433 39.8308 72.8614C40.3483 73.7975 40.6693 74.8542 40.6693 75.9911V93.7404C42.3673 93.4482 44.0898 93.18 46.0078 93.1077C47.6561 93.1077 50.7372 95.4144 52.7396 96.8108C55.593 98.7998 58.6667 101 62 101C63.0034 101 64.0113 100.674 65.3386 100.185C72.633 97.4919 88.0191 88.8964 96.9818 83.7188C99.2497 82.4802 99.9948 79.6123 98.7136 77.4209C97.4843 75.3183 94.9888 74.8062 92.5625 75.6233L75.8203 81.3477C75.9403 82.4234 75.7452 83.5385 75.1589 84.5417C73.6931 87.0488 70.4138 87.9153 67.875 86.4678L59.7839 81.8595C58.1113 81.0164 59.5531 78.5678 61.1224 79.5862L69.2031 84.1919C70.5025 84.9328 72.0962 84.5134 72.8464 83.2301C73.5966 81.947 73.1694 80.3758 71.8698 79.6351C65.9196 76.2426 55.3668 69.4026 49.9193 69.4026ZM26.0078 72.0359C23.7633 72.0359 22 73.8281 22 75.9936V94.4192C22 96.5761 23.7646 98.3601 25.9818 98.3744H34.0078C36.4425 98.3744 38.0026 96.3318 38.0026 94.4167V75.9911C38.0026 73.7784 36.1901 72.0359 34.0104 72.0359H26.0078ZM28.6719 90.4718C29.4083 90.4718 30.0052 91.0613 30.0052 91.7885C30.0052 92.5157 29.4083 93.1052 28.6719 93.1052C27.9355 93.1052 27.3386 92.5157 27.3386 91.7885C27.3386 91.0613 27.9355 90.4718 28.6719 90.4718Z" fill="url(#paint0_linear_503_27)"/>
<defs>
<linearGradient id="paint0_linear_503_27" x1="62" y1="22" x2="62" y2="101" gradientUnits="userSpaceOnUse">
<stop stop-color="#5078BB"/>
<stop offset="1" stop-color="#4CBC94"/>
</linearGradient>
</defs>
</svg>
