<svg width="123" height="123" viewBox="0 0 123 123" fill="none" xmlns="http://www.w3.org/2000/svg">
<path d="M78.4477 19.6483C78.3209 19.2123 77.9223 18.9078 77.4754 18.8361L71.6596 18.018L69.0567 12.8046C68.8454 12.3806 68.4407 12.1238 67.9757 12.1238C67.5107 12.1238 67.1 12.3806 66.8826 12.7926L64.2797 18.006L58.4639 18.8242C58.017 18.8958 57.6426 19.2064 57.4916 19.6363C57.3467 20.0723 57.4674 20.556 57.7996 20.8665L61.9969 24.9154L61.0004 30.6424C60.9279 31.1023 61.1091 31.5621 61.4896 31.8189C61.87 32.0757 62.3592 32.1235 62.7578 31.9085L67.9697 29.1973L73.1694 31.9085C73.3385 31.9921 73.5378 32.0339 73.7251 32.0339C73.9727 32.0339 74.2323 31.9622 74.4377 31.8069C74.8182 31.5502 74.9933 31.0903 74.9269 30.6305L73.9304 24.9035L78.1277 20.8546C78.4598 20.5381 78.5806 20.0544 78.4357 19.6363L78.4477 19.6483Z" fill="url(#paint0_linear_503_24)"/>
<path d="M34.4884 37.6478C34.6937 38.0598 35.0984 38.3047 35.5815 38.3047L41.4577 38.221L44.8517 42.9627C45.0812 43.2911 45.4617 43.4822 45.8482 43.4822C45.9086 43.4822 45.969 43.4703 46.0233 43.4583C46.4884 43.3867 46.8507 43.0761 46.9956 42.6402L48.741 37.1043L54.3394 35.3785C54.7863 35.253 55.1003 34.8768 55.1667 34.417C55.2392 33.9751 55.0459 33.5152 54.6655 33.2585L49.8824 29.9023L49.9549 24.0917C49.9549 23.6319 49.7073 23.2258 49.2906 23.0108C48.8738 22.8077 48.3786 22.8436 48.0223 23.1183L43.3117 26.5939L37.7556 24.7307C37.3148 24.5874 36.8256 24.6948 36.5115 25.0114C36.1794 25.3398 36.0707 25.8116 36.2277 26.2415L38.1119 31.7356L34.5971 36.3937C34.3072 36.7639 34.271 37.2596 34.4884 37.6597V37.6478Z" fill="url(#paint1_linear_503_24)"/>
<path d="M97.8395 31.7353L99.7238 26.2413C99.8687 25.8053 99.76 25.3216 99.4399 25.0111C99.1078 24.6826 98.6307 24.5751 98.1958 24.7304L92.6397 26.5936L87.9291 23.118C87.5607 22.8493 87.0776 22.8015 86.6609 23.0105C86.2442 23.2135 85.9966 23.6316 85.9966 24.0914L86.0811 29.902L81.2679 33.2462C80.8874 33.503 80.7002 33.9628 80.7666 34.4048C80.8391 34.8646 81.1712 35.2229 81.594 35.3662L87.1923 37.0921L88.9558 42.6339C89.0826 43.0759 89.4631 43.3864 89.9281 43.4521C89.9885 43.464 90.0489 43.476 90.1033 43.476C90.4898 43.476 90.8642 43.2908 91.0997 42.9564L94.4938 38.2148L100.37 38.2984H100.382C100.847 38.2984 101.252 38.0535 101.463 37.6415C101.668 37.2294 101.632 36.7397 101.354 36.3874L97.8335 31.7294L97.8395 31.7353Z" fill="url(#paint2_linear_503_24)"/>
<path d="M25.2964 78.5426C26.9028 90.0683 29.6748 99.6829 33.5641 107.124L49.8459 102.496C48.7286 92.5884 45.9445 82.9916 41.554 73.9324L25.2964 78.5426Z" fill="url(#paint3_linear_503_24)"/>
<path d="M78.5808 91.6747C77.0589 91.6747 75.5732 91.4119 74.1661 90.8864L73.532 90.6535C72.3724 90.2235 71.7021 89.0769 71.8772 87.793C71.8651 87.0047 72.9824 85.8282 73.6286 85.3147C75.2169 85.9357 76.8777 86.2522 78.5808 86.2522C79.9154 86.2522 81.238 86.0552 82.5123 85.667L90.1942 83.3201C91.0941 83.0394 91.9275 82.5796 92.6703 81.9585C93.1232 83.0095 93.3648 84.1382 93.2742 84.8608C93.1655 85.8581 92.7488 86.7897 92.0845 87.5541C91.4262 88.3006 90.5505 88.85 89.5661 89.1247L81.8963 91.2268C80.8274 91.5194 79.7101 91.6687 78.5868 91.6687L78.5808 91.6747Z" fill="url(#paint4_linear_503_24)"/>
<path d="M78.5505 84.0666C77.0709 84.0666 75.6094 83.768 74.2023 83.1768L73.5681 82.92C72.4086 82.4303 71.6839 81.0568 71.8651 79.6594C71.9617 78.9009 72.2939 78.2381 72.8615 77.6946C73.1756 77.3841 73.5198 77.0676 73.8339 76.9123L74.317 77.0974C75.857 77.6767 77.4574 77.9634 79.0759 77.9634C80.3019 77.9634 81.5158 77.8021 82.6753 77.4796L89.6748 75.5687C90.7739 75.276 91.7583 74.7147 92.5555 73.9324C93.0265 74.7087 93.3527 75.4612 93.2681 76.3211C93.1594 77.4916 92.7367 78.5665 92.0542 79.4384C91.3899 80.2983 90.5203 80.9075 89.5419 81.2061L81.866 83.553C80.779 83.8874 79.6617 84.0606 78.5565 84.0606L78.5505 84.0666Z" fill="url(#paint5_linear_503_24)"/>
<path d="M62.1178 101.648C58.7419 101.648 55.3297 101.027 51.984 99.7965C50.8486 91.0478 48.4208 82.5141 44.7671 74.4103C46.7842 74.1177 48.5175 72.9412 49.4958 71.1676C53.2824 64.3238 57.2441 58.5312 61.6166 53.473C63.8933 50.0273 65.2039 46.1277 65.5421 41.8339C65.7534 41.2785 66.1882 40.6933 66.7801 40.2633C67.384 39.8274 68.1087 39.5945 68.8757 39.5945C70.7298 39.5945 72.2516 40.974 72.4207 42.8014L72.8133 47.3638C73.1998 51.6456 72.4872 55.9991 70.7539 59.9704C70.7358 60.0002 68.9965 63.9596 68.9965 63.9596C68.8817 64.2343 68.8757 64.5388 68.9905 64.8076C69.1052 65.0763 69.3105 65.2793 69.5823 65.3928C69.7152 65.4466 69.8601 65.4764 70.005 65.4764C70.458 65.4764 70.8566 65.2196 71.0257 64.8195L72.4389 61.6007L86.1902 63.4878C89.3608 63.9178 93.0326 65.345 92.5314 69.6985C92.314 71.5259 91.0216 73.0248 89.234 73.5085L82.2345 75.4195C81.2501 75.6942 80.2355 75.8316 79.227 75.8316C77.8742 75.8316 76.5395 75.5867 75.2531 75.103L74.6794 74.882C73.6709 74.5118 73.079 73.5205 73.2179 72.4694C73.3629 71.3766 74.3171 70.5166 75.392 70.5047C76.9743 70.7376 78.6593 70.857 80.3201 70.857C81.9808 70.857 83.6537 70.7376 85.2964 70.5047C85.5863 70.4629 85.846 70.3136 86.0211 70.0807C86.1902 69.8478 86.2627 69.5671 86.2204 69.2805C86.1479 68.755 85.6769 68.3548 85.1212 68.3548C83.4484 68.5818 81.8903 68.6893 80.3382 68.6893C78.7861 68.6893 77.1374 68.5758 75.537 68.3489H75.5249C73.236 68.3489 71.3337 69.9911 71.0257 72.1649C70.8505 73.413 71.225 74.673 72.0523 75.6345C71.8591 75.8017 71.6719 75.9749 71.4907 76.1481C70.5365 77.0618 69.9809 78.1904 69.8239 79.4266C69.5823 81.3018 70.307 83.1232 71.69 84.2459C70.6996 85.1835 69.7937 86.4734 69.8118 87.6737C69.6004 89.1189 70.1258 90.6059 71.231 91.6569C70.6996 92.9707 70.615 94.392 70.9834 95.6999C71.4001 97.1749 72.3664 98.435 73.7131 99.2531C69.8661 100.848 65.9708 101.66 62.1178 101.66V101.648Z" fill="url(#paint6_linear_503_24)"/>
<path d="M77.4693 98.1542C77.1492 98.1542 76.8472 98.1243 76.6057 98.0646C75.9293 97.8914 75.3435 97.6705 74.818 97.3838C73.9242 96.9001 73.272 96.0879 72.9882 95.0966C72.7707 94.3561 72.7889 93.5439 73.0304 92.7736L73.3988 92.9109C75.0536 93.532 76.7929 93.8425 78.5805 93.8425C79.9152 93.8425 81.2257 93.6693 82.4758 93.323L89.7772 91.3284L90.3208 93.4066C90.7193 95.001 90.1335 96.6552 88.8593 97.5092C88.2191 97.9392 87.4582 98.1661 86.6791 98.1661H77.4693V98.1542Z" fill="url(#paint7_linear_503_24)"/>
<defs>
<linearGradient id="paint0_linear_503_24" x1="67.9636" y1="12.1238" x2="67.9636" y2="32.0443" gradientUnits="userSpaceOnUse">
<stop stop-color="#5078BB"/>
<stop offset="1" stop-color="#4CBC94"/>
</linearGradient>
<linearGradient id="paint1_linear_503_24" x1="44.7652" y1="22.8813" x2="44.7652" y2="43.4822" gradientUnits="userSpaceOnUse">
<stop stop-color="#5078BB"/>
<stop offset="1" stop-color="#4CBC94"/>
</linearGradient>
<linearGradient id="paint2_linear_503_24" x1="91.1737" y1="22.8804" x2="91.1737" y2="43.476" gradientUnits="userSpaceOnUse">
<stop stop-color="#5078BB"/>
<stop offset="1" stop-color="#4CBC94"/>
</linearGradient>
<linearGradient id="paint3_linear_503_24" x1="37.5711" y1="73.9324" x2="37.5711" y2="107.124" gradientUnits="userSpaceOnUse">
<stop stop-color="#5078BB"/>
<stop offset="1" stop-color="#4CBC94"/>
</linearGradient>
<linearGradient id="paint4_linear_503_24" x1="82.5713" y1="81.9585" x2="82.5713" y2="91.6747" gradientUnits="userSpaceOnUse">
<stop stop-color="#5078BB"/>
<stop offset="1" stop-color="#4CBC94"/>
</linearGradient>
<linearGradient id="paint5_linear_503_24" x1="82.5594" y1="73.9324" x2="82.5594" y2="84.0666" gradientUnits="userSpaceOnUse">
<stop stop-color="#5078BB"/>
<stop offset="1" stop-color="#4CBC94"/>
</linearGradient>
<linearGradient id="paint6_linear_503_24" x1="68.6723" y1="39.5945" x2="68.6723" y2="101.66" gradientUnits="userSpaceOnUse">
<stop stop-color="#5078BB"/>
<stop offset="1" stop-color="#4CBC94"/>
</linearGradient>
<linearGradient id="paint7_linear_503_24" x1="81.6404" y1="91.3284" x2="81.6404" y2="98.1661" gradientUnits="userSpaceOnUse">
<stop stop-color="#5078BB"/>
<stop offset="1" stop-color="#4CBC94"/>
</linearGradient>
</defs>
</svg>
