<?xml version="1.0" encoding="UTF-8"?>
<svg id="OBJECTS" xmlns="http://www.w3.org/2000/svg" viewBox="0 0 622.98 544.71">
  <defs>
    <style>
      .cls-1 {
        fill: #fff;
        fill-rule: evenodd;
      }
    </style>
  </defs>
  <path class="cls-1" d="M229.85,454.65h181.4v-14.11c0-7.76-4.73-14.11-10.51-14.11h-160.37c-5.78,0-10.51,6.35-10.51,14.11v14.11h0Z"/>
  <path class="cls-1" d="M150.36,117.23c2.42-.02,56.77,86.06,64.45,113.28H84.82s62.85-113.25,65.54-113.28Z"/>
  <path class="cls-1" d="M217.28,247.2c-5.32,33.26-33.14,58.63-66.67,58.63s-61.36-25.37-66.67-58.63h133.34Z"/>
  <path class="cls-1" d="M489.75,117.23c2.42-.02,56.77,86.06,64.45,113.28h-129.99s62.85-113.25,65.54-113.28Z"/>
  <path class="cls-1" d="M556.67,247.2c-5.32,33.26-33.14,58.63-66.67,58.63s-61.36-25.37-66.67-58.63h133.34Z"/>
  <path class="cls-1" d="M157.29,91.09c5.13,0,9.28,4.15,9.28,9.28s-4.15,9.28-9.28,9.28-9.28-4.15-9.28-9.28,4.15-9.28,9.28-9.28h0Z"/>
  <path class="cls-1" d="M483.93,91.09c5.13,0,9.28,4.15,9.28,9.28s-4.15,9.28-9.28,9.28-9.28-4.15-9.28-9.28,4.15-9.28,9.28-9.28h0Z"/>
  <path class="cls-1" d="M321.2,76.67c14.01,0,25.37,11.36,25.37,25.37s-11.36,25.37-25.37,25.37-25.37-11.36-25.37-25.37,11.36-25.37,25.37-25.37h0Z"/>
  <polygon class="cls-1" points="157.13 91.09 279.5 91.09 279.5 109.64 157.13 109.64 157.13 91.09 157.13 91.09"/>
  <polygon class="cls-1" points="362.81 91.09 483.84 91.09 483.84 109.64 362.81 109.64 362.81 91.09 362.81 91.09"/>
  <polygon class="cls-1" points="335.08 143.54 335.08 379.6 307.33 379.6 307.33 143.54 335.08 143.54 335.08 143.54"/>
  <path class="cls-1" d="M268.12,432.04h103.4v-17.76c0-9.77-4.73-17.76-10.51-17.76h-82.37c-5.79,0-10.52,7.99-10.52,17.76v17.76h0Z"/>
</svg>