<svg width="1108" height="285" viewBox="0 0 1108 285" fill="none" xmlns="http://www.w3.org/2000/svg">
<path d="M39.926 168.228V178H37.966V168.228H39.926ZM46.1605 170.132C47.0845 170.132 47.8312 170.426 48.4005 171.014C48.9698 171.593 49.2545 172.405 49.2545 173.45V178H47.2945V173.716C47.2945 173.1 47.1405 172.629 46.8325 172.302C46.5245 171.966 46.1045 171.798 45.5725 171.798C45.0312 171.798 44.6018 171.966 44.2845 172.302C43.9765 172.629 43.8225 173.1 43.8225 173.716V178H41.8625V170.244H43.8225V171.21C44.0838 170.874 44.4152 170.613 44.8165 170.426C45.2272 170.23 45.6752 170.132 46.1605 170.132ZM54.3523 176.194L56.3123 170.244H58.3983L55.5283 178H53.1483L50.2923 170.244H52.3923L54.3523 176.194ZM66.7092 173.954C66.7092 174.234 66.6905 174.486 66.6532 174.71H60.9832C61.0299 175.27 61.2259 175.709 61.5712 176.026C61.9165 176.343 62.3412 176.502 62.8452 176.502C63.5732 176.502 64.0912 176.189 64.3992 175.564H66.5132C66.2892 176.311 65.8599 176.927 65.2252 177.412C64.5905 177.888 63.8112 178.126 62.8872 178.126C62.1405 178.126 61.4685 177.963 60.8712 177.636C60.2832 177.3 59.8212 176.829 59.4852 176.222C59.1585 175.615 58.9952 174.915 58.9952 174.122C58.9952 173.319 59.1585 172.615 59.4852 172.008C59.8119 171.401 60.2692 170.935 60.8572 170.608C61.4452 170.281 62.1219 170.118 62.8872 170.118C63.6245 170.118 64.2825 170.277 64.8612 170.594C65.4492 170.911 65.9019 171.364 66.2192 171.952C66.5459 172.531 66.7092 173.198 66.7092 173.954ZM64.6792 173.394C64.6699 172.89 64.4879 172.489 64.1332 172.19C63.7785 171.882 63.3445 171.728 62.8312 171.728C62.3459 171.728 61.9352 171.877 61.5992 172.176C61.2725 172.465 61.0719 172.871 60.9972 173.394H64.6792ZM71.1078 178.126C70.4732 178.126 69.9038 178.014 69.3998 177.79C68.8958 177.557 68.4945 177.244 68.1958 176.852C67.9065 176.46 67.7478 176.026 67.7198 175.55H69.6938C69.7312 175.849 69.8758 176.096 70.1278 176.292C70.3892 176.488 70.7112 176.586 71.0938 176.586C71.4672 176.586 71.7565 176.511 71.9618 176.362C72.1765 176.213 72.2838 176.021 72.2838 175.788C72.2838 175.536 72.1532 175.349 71.8918 175.228C71.6398 175.097 71.2338 174.957 70.6738 174.808C70.0952 174.668 69.6192 174.523 69.2458 174.374C68.8818 174.225 68.5645 173.996 68.2938 173.688C68.0325 173.38 67.9018 172.965 67.9018 172.442C67.9018 172.013 68.0232 171.621 68.2658 171.266C68.5178 170.911 68.8725 170.631 69.3298 170.426C69.7965 170.221 70.3425 170.118 70.9678 170.118C71.8918 170.118 72.6292 170.351 73.1798 170.818C73.7305 171.275 74.0338 171.896 74.0898 172.68H72.2138C72.1858 172.372 72.0552 172.129 71.8218 171.952C71.5978 171.765 71.2945 171.672 70.9118 171.672C70.5572 171.672 70.2818 171.737 70.0858 171.868C69.8992 171.999 69.8058 172.181 69.8058 172.414C69.8058 172.675 69.9365 172.876 70.1978 173.016C70.4592 173.147 70.8652 173.282 71.4158 173.422C71.9758 173.562 72.4378 173.707 72.8018 173.856C73.1658 174.005 73.4785 174.239 73.7398 174.556C74.0105 174.864 74.1505 175.275 74.1598 175.788C74.1598 176.236 74.0338 176.637 73.7818 176.992C73.5392 177.347 73.1845 177.627 72.7178 177.832C72.2605 178.028 71.7238 178.126 71.1078 178.126ZM78.0507 171.854V175.606C78.0507 175.867 78.1114 176.059 78.2327 176.18C78.3634 176.292 78.5781 176.348 78.8767 176.348H79.7867V178H78.5547C76.9027 178 76.0767 177.197 76.0767 175.592V171.854H75.1527V170.244H76.0767V168.326H78.0507V170.244H79.7867V171.854H78.0507ZM84.6405 178.126C83.8938 178.126 83.2218 177.963 82.6245 177.636C82.0271 177.3 81.5558 176.829 81.2105 176.222C80.8745 175.615 80.7065 174.915 80.7065 174.122C80.7065 173.329 80.8791 172.629 81.2245 172.022C81.5791 171.415 82.0598 170.949 82.6665 170.622C83.2731 170.286 83.9498 170.118 84.6965 170.118C85.4431 170.118 86.1198 170.286 86.7265 170.622C87.3331 170.949 87.8091 171.415 88.1545 172.022C88.5091 172.629 88.6865 173.329 88.6865 174.122C88.6865 174.915 88.5045 175.615 88.1405 176.222C87.7858 176.829 87.3005 177.3 86.6845 177.636C86.0778 177.963 85.3965 178.126 84.6405 178.126ZM84.6405 176.418C84.9951 176.418 85.3265 176.334 85.6345 176.166C85.9518 175.989 86.2038 175.727 86.3905 175.382C86.5771 175.037 86.6705 174.617 86.6705 174.122C86.6705 173.385 86.4745 172.82 86.0825 172.428C85.6998 172.027 85.2285 171.826 84.6685 171.826C84.1085 171.826 83.6371 172.027 83.2545 172.428C82.8811 172.82 82.6945 173.385 82.6945 174.122C82.6945 174.859 82.8765 175.429 83.2405 175.83C83.6138 176.222 84.0805 176.418 84.6405 176.418ZM92.0842 171.448C92.3362 171.037 92.6629 170.715 93.0642 170.482C93.4749 170.249 93.9415 170.132 94.4642 170.132V172.19H93.9462C93.3302 172.19 92.8635 172.335 92.5462 172.624C92.2382 172.913 92.0842 173.417 92.0842 174.136V178H90.1242V170.244H92.0842V171.448ZM101.034 164.742L97.2544 180.534H95.3364L99.1164 164.742H101.034ZM111.473 172.988C112.024 173.091 112.476 173.366 112.831 173.814C113.186 174.262 113.363 174.775 113.363 175.354C113.363 175.877 113.232 176.339 112.971 176.74C112.719 177.132 112.35 177.44 111.865 177.664C111.38 177.888 110.806 178 110.143 178H105.929V168.228H109.961C110.624 168.228 111.193 168.335 111.669 168.55C112.154 168.765 112.518 169.063 112.761 169.446C113.013 169.829 113.139 170.263 113.139 170.748C113.139 171.317 112.985 171.793 112.677 172.176C112.378 172.559 111.977 172.829 111.473 172.988ZM107.889 172.26H109.681C110.148 172.26 110.507 172.157 110.759 171.952C111.011 171.737 111.137 171.434 111.137 171.042C111.137 170.65 111.011 170.347 110.759 170.132C110.507 169.917 110.148 169.81 109.681 169.81H107.889V172.26ZM109.863 176.404C110.339 176.404 110.708 176.292 110.969 176.068C111.24 175.844 111.375 175.527 111.375 175.116C111.375 174.696 111.235 174.369 110.955 174.136C110.675 173.893 110.297 173.772 109.821 173.772H107.889V176.404H109.863ZM114.421 174.094C114.421 173.31 114.575 172.615 114.883 172.008C115.2 171.401 115.625 170.935 116.157 170.608C116.698 170.281 117.3 170.118 117.963 170.118C118.542 170.118 119.046 170.235 119.475 170.468C119.914 170.701 120.264 170.995 120.525 171.35V170.244H122.499V178H120.525V176.866C120.273 177.23 119.923 177.533 119.475 177.776C119.036 178.009 118.528 178.126 117.949 178.126C117.296 178.126 116.698 177.958 116.157 177.622C115.625 177.286 115.2 176.815 114.883 176.208C114.575 175.592 114.421 174.887 114.421 174.094ZM120.525 174.122C120.525 173.646 120.432 173.24 120.245 172.904C120.058 172.559 119.806 172.297 119.489 172.12C119.172 171.933 118.831 171.84 118.467 171.84C118.103 171.84 117.767 171.929 117.459 172.106C117.151 172.283 116.899 172.545 116.703 172.89C116.516 173.226 116.423 173.627 116.423 174.094C116.423 174.561 116.516 174.971 116.703 175.326C116.899 175.671 117.151 175.937 117.459 176.124C117.776 176.311 118.112 176.404 118.467 176.404C118.831 176.404 119.172 176.315 119.489 176.138C119.806 175.951 120.058 175.69 120.245 175.354C120.432 175.009 120.525 174.598 120.525 174.122ZM128.711 170.132C129.635 170.132 130.382 170.426 130.951 171.014C131.521 171.593 131.805 172.405 131.805 173.45V178H129.845V173.716C129.845 173.1 129.691 172.629 129.383 172.302C129.075 171.966 128.655 171.798 128.123 171.798C127.582 171.798 127.153 171.966 126.835 172.302C126.527 172.629 126.373 173.1 126.373 173.716V178H124.413V170.244H126.373V171.21C126.635 170.874 126.966 170.613 127.367 170.426C127.778 170.23 128.226 170.132 128.711 170.132ZM138.261 178L135.629 174.696V178H133.669V167.64H135.629V173.534L138.233 170.244H140.781L137.365 174.136L140.809 178H138.261Z" fill="#231F20"/>
<path d="M559.418 171.252C559.418 171.775 559.292 172.265 559.04 172.722C558.798 173.179 558.41 173.548 557.878 173.828C557.356 174.108 556.693 174.248 555.89 174.248H554.252V178H552.292V168.228H555.89C556.646 168.228 557.29 168.359 557.822 168.62C558.354 168.881 558.751 169.241 559.012 169.698C559.283 170.155 559.418 170.673 559.418 171.252ZM555.806 172.666C556.348 172.666 556.749 172.545 557.01 172.302C557.272 172.05 557.402 171.7 557.402 171.252C557.402 170.3 556.87 169.824 555.806 169.824H554.252V172.666H555.806ZM562.77 167.64V178H560.81V167.64H562.77ZM564.202 174.094C564.202 173.31 564.356 172.615 564.664 172.008C564.982 171.401 565.406 170.935 565.938 170.608C566.48 170.281 567.082 170.118 567.744 170.118C568.323 170.118 568.827 170.235 569.256 170.468C569.695 170.701 570.045 170.995 570.306 171.35V170.244H572.28V178H570.306V176.866C570.054 177.23 569.704 177.533 569.256 177.776C568.818 178.009 568.309 178.126 567.73 178.126C567.077 178.126 566.48 177.958 565.938 177.622C565.406 177.286 564.982 176.815 564.664 176.208C564.356 175.592 564.202 174.887 564.202 174.094ZM570.306 174.122C570.306 173.646 570.213 173.24 570.026 172.904C569.84 172.559 569.588 172.297 569.27 172.12C568.953 171.933 568.612 171.84 568.248 171.84C567.884 171.84 567.548 171.929 567.24 172.106C566.932 172.283 566.68 172.545 566.484 172.89C566.298 173.226 566.204 173.627 566.204 174.094C566.204 174.561 566.298 174.971 566.484 175.326C566.68 175.671 566.932 175.937 567.24 176.124C567.558 176.311 567.894 176.404 568.248 176.404C568.612 176.404 568.953 176.315 569.27 176.138C569.588 175.951 569.84 175.69 570.026 175.354C570.213 175.009 570.306 174.598 570.306 174.122ZM578.493 170.132C579.417 170.132 580.163 170.426 580.733 171.014C581.302 171.593 581.587 172.405 581.587 173.45V178H579.627V173.716C579.627 173.1 579.473 172.629 579.165 172.302C578.857 171.966 578.437 171.798 577.905 171.798C577.363 171.798 576.934 171.966 576.617 172.302C576.309 172.629 576.155 173.1 576.155 173.716V178H574.195V170.244H576.155V171.21C576.416 170.874 576.747 170.613 577.149 170.426C577.559 170.23 578.007 170.132 578.493 170.132ZM585.732 171.854V175.606C585.732 175.867 585.793 176.059 585.914 176.18C586.045 176.292 586.26 176.348 586.558 176.348H587.468V178H586.236C584.584 178 583.758 177.197 583.758 175.592V171.854H582.834V170.244H583.758V168.326H585.732V170.244H587.468V171.854H585.732ZM595.658 178.126C594.911 178.126 594.239 177.963 593.642 177.636C593.045 177.3 592.573 176.829 592.228 176.222C591.892 175.615 591.724 174.915 591.724 174.122C591.724 173.329 591.897 172.629 592.242 172.022C592.597 171.415 593.077 170.949 593.684 170.622C594.291 170.286 594.967 170.118 595.714 170.118C596.461 170.118 597.137 170.286 597.744 170.622C598.351 170.949 598.827 171.415 599.172 172.022C599.527 172.629 599.704 173.329 599.704 174.122C599.704 174.915 599.522 175.615 599.158 176.222C598.803 176.829 598.318 177.3 597.702 177.636C597.095 177.963 596.414 178.126 595.658 178.126ZM595.658 176.418C596.013 176.418 596.344 176.334 596.652 176.166C596.969 175.989 597.221 175.727 597.408 175.382C597.595 175.037 597.688 174.617 597.688 174.122C597.688 173.385 597.492 172.82 597.1 172.428C596.717 172.027 596.246 171.826 595.686 171.826C595.126 171.826 594.655 172.027 594.272 172.428C593.899 172.82 593.712 173.385 593.712 174.122C593.712 174.859 593.894 175.429 594.258 175.83C594.631 176.222 595.098 176.418 595.658 176.418ZM611.894 170.244L609.626 178H607.512L606.098 172.582L604.684 178H602.556L600.274 170.244H602.262L603.634 176.152L605.118 170.244H607.19L608.646 176.138L610.018 170.244H611.894ZM617.252 170.132C618.176 170.132 618.923 170.426 619.492 171.014C620.062 171.593 620.346 172.405 620.346 173.45V178H618.386V173.716C618.386 173.1 618.232 172.629 617.924 172.302C617.616 171.966 617.196 171.798 616.664 171.798C616.123 171.798 615.694 171.966 615.376 172.302C615.068 172.629 614.914 173.1 614.914 173.716V178H612.954V170.244H614.914V171.21C615.176 170.874 615.507 170.613 615.908 170.426C616.319 170.23 616.767 170.132 617.252 170.132ZM629.42 173.954C629.42 174.234 629.401 174.486 629.364 174.71H623.694C623.741 175.27 623.937 175.709 624.282 176.026C624.627 176.343 625.052 176.502 625.556 176.502C626.284 176.502 626.802 176.189 627.11 175.564H629.224C629 176.311 628.571 176.927 627.936 177.412C627.301 177.888 626.522 178.126 625.598 178.126C624.851 178.126 624.179 177.963 623.582 177.636C622.994 177.3 622.532 176.829 622.196 176.222C621.869 175.615 621.706 174.915 621.706 174.122C621.706 173.319 621.869 172.615 622.196 172.008C622.523 171.401 622.98 170.935 623.568 170.608C624.156 170.281 624.833 170.118 625.598 170.118C626.335 170.118 626.993 170.277 627.572 170.594C628.16 170.911 628.613 171.364 628.93 171.952C629.257 172.531 629.42 173.198 629.42 173.954ZM627.39 173.394C627.381 172.89 627.199 172.489 626.844 172.19C626.489 171.882 626.055 171.728 625.542 171.728C625.057 171.728 624.646 171.877 624.31 172.176C623.983 172.465 623.783 172.871 623.708 173.394H627.39ZM630.347 174.094C630.347 173.31 630.501 172.615 630.809 172.008C631.126 171.401 631.555 170.935 632.097 170.608C632.638 170.281 633.24 170.118 633.903 170.118C634.407 170.118 634.887 170.23 635.345 170.454C635.802 170.669 636.166 170.958 636.437 171.322V167.64H638.425V178H636.437V176.852C636.194 177.235 635.853 177.543 635.415 177.776C634.976 178.009 634.467 178.126 633.889 178.126C633.235 178.126 632.638 177.958 632.097 177.622C631.555 177.286 631.126 176.815 630.809 176.208C630.501 175.592 630.347 174.887 630.347 174.094ZM636.451 174.122C636.451 173.646 636.357 173.24 636.171 172.904C635.984 172.559 635.732 172.297 635.415 172.12C635.097 171.933 634.757 171.84 634.393 171.84C634.029 171.84 633.693 171.929 633.385 172.106C633.077 172.283 632.825 172.545 632.629 172.89C632.442 173.226 632.349 173.627 632.349 174.094C632.349 174.561 632.442 174.971 632.629 175.326C632.825 175.671 633.077 175.937 633.385 176.124C633.702 176.311 634.038 176.404 634.393 176.404C634.757 176.404 635.097 176.315 635.415 176.138C635.732 175.951 635.984 175.69 636.171 175.354C636.357 175.009 636.451 174.598 636.451 174.122ZM645.635 171.378C645.887 171.005 646.232 170.701 646.671 170.468C647.119 170.235 647.628 170.118 648.197 170.118C648.86 170.118 649.457 170.281 649.989 170.608C650.53 170.935 650.955 171.401 651.263 172.008C651.58 172.605 651.739 173.301 651.739 174.094C651.739 174.887 651.58 175.592 651.263 176.208C650.955 176.815 650.53 177.286 649.989 177.622C649.457 177.958 648.86 178.126 648.197 178.126C647.618 178.126 647.11 178.014 646.671 177.79C646.242 177.557 645.896 177.258 645.635 176.894V178H643.675V167.64H645.635V171.378ZM649.737 174.094C649.737 173.627 649.639 173.226 649.443 172.89C649.256 172.545 649.004 172.283 648.687 172.106C648.379 171.929 648.043 171.84 647.679 171.84C647.324 171.84 646.988 171.933 646.671 172.12C646.363 172.297 646.111 172.559 645.915 172.904C645.728 173.249 645.635 173.655 645.635 174.122C645.635 174.589 645.728 174.995 645.915 175.34C646.111 175.685 646.363 175.951 646.671 176.138C646.988 176.315 647.324 176.404 647.679 176.404C648.043 176.404 648.379 176.311 648.687 176.124C649.004 175.937 649.256 175.671 649.443 175.326C649.639 174.981 649.737 174.57 649.737 174.094ZM660.583 170.244L655.781 181.668H653.695L655.375 177.804L652.267 170.244H654.465L656.467 175.662L658.497 170.244H660.583ZM580.017 189.228V199H578.057V189.228H580.017ZM586.251 191.132C587.175 191.132 587.922 191.426 588.491 192.014C589.061 192.593 589.345 193.405 589.345 194.45V199H587.385V194.716C587.385 194.1 587.231 193.629 586.923 193.302C586.615 192.966 586.195 192.798 585.663 192.798C585.122 192.798 584.693 192.966 584.375 193.302C584.067 193.629 583.913 194.1 583.913 194.716V199H581.953V191.244H583.913V192.21C584.175 191.874 584.506 191.613 584.907 191.426C585.318 191.23 585.766 191.132 586.251 191.132ZM594.443 197.194L596.403 191.244H598.489L595.619 199H593.239L590.383 191.244H592.483L594.443 197.194ZM606.8 194.954C606.8 195.234 606.781 195.486 606.744 195.71H601.074C601.121 196.27 601.317 196.709 601.662 197.026C602.007 197.343 602.432 197.502 602.936 197.502C603.664 197.502 604.182 197.189 604.49 196.564H606.604C606.38 197.311 605.951 197.927 605.316 198.412C604.681 198.888 603.902 199.126 602.978 199.126C602.231 199.126 601.559 198.963 600.962 198.636C600.374 198.3 599.912 197.829 599.576 197.222C599.249 196.615 599.086 195.915 599.086 195.122C599.086 194.319 599.249 193.615 599.576 193.008C599.903 192.401 600.36 191.935 600.948 191.608C601.536 191.281 602.213 191.118 602.978 191.118C603.715 191.118 604.373 191.277 604.952 191.594C605.54 191.911 605.993 192.364 606.31 192.952C606.637 193.531 606.8 194.198 606.8 194.954ZM604.77 194.394C604.761 193.89 604.579 193.489 604.224 193.19C603.869 192.882 603.435 192.728 602.922 192.728C602.437 192.728 602.026 192.877 601.69 193.176C601.363 193.465 601.163 193.871 601.088 194.394H604.77ZM611.199 199.126C610.564 199.126 609.995 199.014 609.491 198.79C608.987 198.557 608.585 198.244 608.287 197.852C607.997 197.46 607.839 197.026 607.811 196.55H609.785C609.822 196.849 609.967 197.096 610.219 197.292C610.48 197.488 610.802 197.586 611.185 197.586C611.558 197.586 611.847 197.511 612.053 197.362C612.267 197.213 612.375 197.021 612.375 196.788C612.375 196.536 612.244 196.349 611.983 196.228C611.731 196.097 611.325 195.957 610.765 195.808C610.186 195.668 609.71 195.523 609.337 195.374C608.973 195.225 608.655 194.996 608.385 194.688C608.123 194.38 607.993 193.965 607.993 193.442C607.993 193.013 608.114 192.621 608.357 192.266C608.609 191.911 608.963 191.631 609.421 191.426C609.887 191.221 610.433 191.118 611.059 191.118C611.983 191.118 612.72 191.351 613.271 191.818C613.821 192.275 614.125 192.896 614.181 193.68H612.305C612.277 193.372 612.146 193.129 611.913 192.952C611.689 192.765 611.385 192.672 611.003 192.672C610.648 192.672 610.373 192.737 610.177 192.868C609.99 192.999 609.897 193.181 609.897 193.414C609.897 193.675 610.027 193.876 610.289 194.016C610.55 194.147 610.956 194.282 611.507 194.422C612.067 194.562 612.529 194.707 612.893 194.856C613.257 195.005 613.569 195.239 613.831 195.556C614.101 195.864 614.241 196.275 614.251 196.788C614.251 197.236 614.125 197.637 613.873 197.992C613.63 198.347 613.275 198.627 612.809 198.832C612.351 199.028 611.815 199.126 611.199 199.126ZM618.142 192.854V196.606C618.142 196.867 618.202 197.059 618.324 197.18C618.454 197.292 618.669 197.348 618.968 197.348H619.878V199H618.646C616.994 199 616.168 198.197 616.168 196.592V192.854H615.244V191.244H616.168V189.326H618.142V191.244H619.878V192.854H618.142ZM624.731 199.126C623.985 199.126 623.313 198.963 622.715 198.636C622.118 198.3 621.647 197.829 621.301 197.222C620.965 196.615 620.797 195.915 620.797 195.122C620.797 194.329 620.97 193.629 621.315 193.022C621.67 192.415 622.151 191.949 622.757 191.622C623.364 191.286 624.041 191.118 624.787 191.118C625.534 191.118 626.211 191.286 626.817 191.622C627.424 191.949 627.9 192.415 628.245 193.022C628.6 193.629 628.777 194.329 628.777 195.122C628.777 195.915 628.595 196.615 628.231 197.222C627.877 197.829 627.391 198.3 626.775 198.636C626.169 198.963 625.487 199.126 624.731 199.126ZM624.731 197.418C625.086 197.418 625.417 197.334 625.725 197.166C626.043 196.989 626.295 196.727 626.481 196.382C626.668 196.037 626.761 195.617 626.761 195.122C626.761 194.385 626.565 193.82 626.173 193.428C625.791 193.027 625.319 192.826 624.759 192.826C624.199 192.826 623.728 193.027 623.345 193.428C622.972 193.82 622.785 194.385 622.785 195.122C622.785 195.859 622.967 196.429 623.331 196.83C623.705 197.222 624.171 197.418 624.731 197.418ZM632.175 192.448C632.427 192.037 632.754 191.715 633.155 191.482C633.566 191.249 634.032 191.132 634.555 191.132V193.19H634.037C633.421 193.19 632.954 193.335 632.637 193.624C632.329 193.913 632.175 194.417 632.175 195.136V199H630.215V191.244H632.175V192.448Z" fill="#231F20"/>
<path d="M802.926 169.81V172.26H806.216V173.814H802.926V176.404H806.636V178H800.966V168.214H806.636V169.81H802.926ZM810.377 167.64V178H808.417V167.64H810.377ZM819.524 173.954C819.524 174.234 819.505 174.486 819.468 174.71H813.798C813.844 175.27 814.04 175.709 814.386 176.026C814.731 176.343 815.156 176.502 815.66 176.502C816.388 176.502 816.906 176.189 817.214 175.564H819.328C819.104 176.311 818.674 176.927 818.04 177.412C817.405 177.888 816.626 178.126 815.702 178.126C814.955 178.126 814.283 177.963 813.686 177.636C813.098 177.3 812.636 176.829 812.3 176.222C811.973 175.615 811.81 174.915 811.81 174.122C811.81 173.319 811.973 172.615 812.3 172.008C812.626 171.401 813.084 170.935 813.672 170.608C814.26 170.281 814.936 170.118 815.702 170.118C816.439 170.118 817.097 170.277 817.676 170.594C818.264 170.911 818.716 171.364 819.034 171.952C819.36 172.531 819.524 173.198 819.524 173.954ZM817.494 173.394C817.484 172.89 817.302 172.489 816.948 172.19C816.593 171.882 816.159 171.728 815.646 171.728C815.16 171.728 814.75 171.877 814.414 172.176C814.087 172.465 813.886 172.871 813.812 173.394H817.494ZM820.45 174.122C820.45 173.319 820.614 172.619 820.94 172.022C821.267 171.415 821.72 170.949 822.298 170.622C822.877 170.286 823.54 170.118 824.286 170.118C825.248 170.118 826.041 170.361 826.666 170.846C827.301 171.322 827.726 171.994 827.94 172.862H825.826C825.714 172.526 825.523 172.265 825.252 172.078C824.991 171.882 824.664 171.784 824.272 171.784C823.712 171.784 823.269 171.989 822.942 172.4C822.616 172.801 822.452 173.375 822.452 174.122C822.452 174.859 822.616 175.433 822.942 175.844C823.269 176.245 823.712 176.446 824.272 176.446C825.066 176.446 825.584 176.091 825.826 175.382H827.94C827.726 176.222 827.301 176.889 826.666 177.384C826.032 177.879 825.238 178.126 824.286 178.126C823.54 178.126 822.877 177.963 822.298 177.636C821.72 177.3 821.267 176.833 820.94 176.236C820.614 175.629 820.45 174.925 820.45 174.122ZM831.658 171.854V175.606C831.658 175.867 831.719 176.059 831.84 176.18C831.971 176.292 832.185 176.348 832.484 176.348H833.394V178H832.162C830.51 178 829.684 177.197 829.684 175.592V171.854H828.76V170.244H829.684V168.326H831.658V170.244H833.394V171.854H831.658ZM836.764 171.448C837.016 171.037 837.343 170.715 837.744 170.482C838.155 170.249 838.621 170.132 839.144 170.132V172.19H838.626C838.01 172.19 837.543 172.335 837.226 172.624C836.918 172.913 836.764 173.417 836.764 174.136V178H834.804V170.244H836.764V171.448ZM841.458 169.32C841.113 169.32 840.823 169.213 840.59 168.998C840.366 168.774 840.254 168.499 840.254 168.172C840.254 167.845 840.366 167.575 840.59 167.36C840.823 167.136 841.113 167.024 841.458 167.024C841.803 167.024 842.088 167.136 842.312 167.36C842.545 167.575 842.662 167.845 842.662 168.172C842.662 168.499 842.545 168.774 842.312 168.998C842.088 169.213 841.803 169.32 841.458 169.32ZM842.424 170.244V178H840.464V170.244H842.424ZM843.857 174.122C843.857 173.319 844.02 172.619 844.347 172.022C844.673 171.415 845.126 170.949 845.705 170.622C846.283 170.286 846.946 170.118 847.693 170.118C848.654 170.118 849.447 170.361 850.073 170.846C850.707 171.322 851.132 171.994 851.347 172.862H849.233C849.121 172.526 848.929 172.265 848.659 172.078C848.397 171.882 848.071 171.784 847.679 171.784C847.119 171.784 846.675 171.989 846.349 172.4C846.022 172.801 845.859 173.375 845.859 174.122C845.859 174.859 846.022 175.433 846.349 175.844C846.675 176.245 847.119 176.446 847.679 176.446C848.472 176.446 848.99 176.091 849.233 175.382H851.347C851.132 176.222 850.707 176.889 850.073 177.384C849.438 177.879 848.645 178.126 847.693 178.126C846.946 178.126 846.283 177.963 845.705 177.636C845.126 177.3 844.673 176.833 844.347 176.236C844.02 175.629 843.857 174.925 843.857 174.122ZM853.776 169.32C853.431 169.32 853.142 169.213 852.908 168.998C852.684 168.774 852.572 168.499 852.572 168.172C852.572 167.845 852.684 167.575 852.908 167.36C853.142 167.136 853.431 167.024 853.776 167.024C854.122 167.024 854.406 167.136 854.63 167.36C854.864 167.575 854.98 167.845 854.98 168.172C854.98 168.499 854.864 168.774 854.63 168.998C854.406 169.213 854.122 169.32 853.776 169.32ZM854.742 170.244V178H852.782V170.244H854.742ZM858.961 171.854V175.606C858.961 175.867 859.022 176.059 859.143 176.18C859.274 176.292 859.488 176.348 859.787 176.348H860.697V178H859.465C857.813 178 856.987 177.197 856.987 175.592V171.854H856.063V170.244H856.987V168.326H858.961V170.244H860.697V171.854H858.961ZM869.527 170.244L864.725 181.668H862.639L864.319 177.804L861.211 170.244H863.409L865.411 175.662L867.441 170.244H869.527Z" fill="#231F20"/>
<path d="M1043.34 178.098C1042.66 178.098 1042.04 177.981 1041.49 177.748C1040.95 177.515 1040.52 177.179 1040.2 176.74C1039.89 176.301 1039.72 175.783 1039.71 175.186H1041.81C1041.84 175.587 1041.98 175.905 1042.23 176.138C1042.5 176.371 1042.85 176.488 1043.3 176.488C1043.76 176.488 1044.11 176.381 1044.38 176.166C1044.64 175.942 1044.77 175.653 1044.77 175.298C1044.77 175.009 1044.68 174.771 1044.5 174.584C1044.32 174.397 1044.1 174.253 1043.83 174.15C1043.57 174.038 1043.2 173.917 1042.74 173.786C1042.1 173.599 1041.59 173.417 1041.18 173.24C1040.79 173.053 1040.45 172.778 1040.16 172.414C1039.88 172.041 1039.74 171.546 1039.74 170.93C1039.74 170.351 1039.89 169.847 1040.18 169.418C1040.47 168.989 1040.87 168.662 1041.39 168.438C1041.92 168.205 1042.51 168.088 1043.19 168.088C1044.19 168.088 1045.01 168.335 1045.64 168.83C1046.27 169.315 1046.62 169.997 1046.69 170.874H1044.53C1044.51 170.538 1044.37 170.263 1044.1 170.048C1043.83 169.824 1043.48 169.712 1043.05 169.712C1042.66 169.712 1042.36 169.81 1042.12 170.006C1041.9 170.202 1041.79 170.487 1041.79 170.86C1041.79 171.121 1041.87 171.341 1042.04 171.518C1042.22 171.686 1042.43 171.826 1042.68 171.938C1042.94 172.041 1043.31 172.162 1043.77 172.302C1044.41 172.489 1044.93 172.675 1045.33 172.862C1045.73 173.049 1046.07 173.329 1046.36 173.702C1046.65 174.075 1046.8 174.565 1046.8 175.172C1046.8 175.695 1046.66 176.18 1046.39 176.628C1046.12 177.076 1045.72 177.435 1045.2 177.706C1044.68 177.967 1044.06 178.098 1043.34 178.098ZM1047.99 174.094C1047.99 173.31 1048.15 172.615 1048.46 172.008C1048.77 171.401 1049.2 170.935 1049.73 170.608C1050.27 170.281 1050.87 170.118 1051.54 170.118C1052.11 170.118 1052.62 170.235 1053.05 170.468C1053.49 170.701 1053.84 170.995 1054.1 171.35V170.244H1056.07V178H1054.1V176.866C1053.85 177.23 1053.5 177.533 1053.05 177.776C1052.61 178.009 1052.1 178.126 1051.52 178.126C1050.87 178.126 1050.27 177.958 1049.73 177.622C1049.2 177.286 1048.77 176.815 1048.46 176.208C1048.15 175.592 1047.99 174.887 1047.99 174.094ZM1054.1 174.122C1054.1 173.646 1054 173.24 1053.82 172.904C1053.63 172.559 1053.38 172.297 1053.06 172.12C1052.74 171.933 1052.4 171.84 1052.04 171.84C1051.68 171.84 1051.34 171.929 1051.03 172.106C1050.72 172.283 1050.47 172.545 1050.28 172.89C1050.09 173.226 1050 173.627 1050 174.094C1050 174.561 1050.09 174.971 1050.28 175.326C1050.47 175.671 1050.72 175.937 1051.03 176.124C1051.35 176.311 1051.68 176.404 1052.04 176.404C1052.4 176.404 1052.74 176.315 1053.06 176.138C1053.38 175.951 1053.63 175.69 1053.82 175.354C1054 175.009 1054.1 174.598 1054.1 174.122ZM1061.22 176.194L1063.18 170.244H1065.27L1062.4 178H1060.02L1057.16 170.244H1059.26L1061.22 176.194ZM1067.36 169.32C1067.02 169.32 1066.73 169.213 1066.49 168.998C1066.27 168.774 1066.16 168.499 1066.16 168.172C1066.16 167.845 1066.27 167.575 1066.49 167.36C1066.73 167.136 1067.02 167.024 1067.36 167.024C1067.71 167.024 1067.99 167.136 1068.21 167.36C1068.45 167.575 1068.56 167.845 1068.56 168.172C1068.56 168.499 1068.45 168.774 1068.21 168.998C1067.99 169.213 1067.71 169.32 1067.36 169.32ZM1068.33 170.244V178H1066.37V170.244H1068.33ZM1074.56 170.132C1075.48 170.132 1076.23 170.426 1076.8 171.014C1077.37 171.593 1077.65 172.405 1077.65 173.45V178H1075.69V173.716C1075.69 173.1 1075.54 172.629 1075.23 172.302C1074.92 171.966 1074.5 171.798 1073.97 171.798C1073.43 171.798 1073 171.966 1072.68 172.302C1072.38 172.629 1072.22 173.1 1072.22 173.716V178H1070.26V170.244H1072.22V171.21C1072.48 170.874 1072.82 170.613 1073.22 170.426C1073.63 170.23 1074.08 170.132 1074.56 170.132ZM1082.56 170.118C1083.14 170.118 1083.64 170.235 1084.08 170.468C1084.52 170.692 1084.87 170.986 1085.12 171.35V170.244H1087.09V178.056C1087.09 178.775 1086.95 179.414 1086.66 179.974C1086.37 180.543 1085.94 180.991 1085.36 181.318C1084.78 181.654 1084.08 181.822 1083.26 181.822C1082.16 181.822 1081.25 181.565 1080.54 181.052C1079.84 180.539 1079.44 179.839 1079.35 178.952H1081.3C1081.4 179.307 1081.62 179.587 1081.95 179.792C1082.3 180.007 1082.72 180.114 1083.2 180.114C1083.77 180.114 1084.23 179.941 1084.59 179.596C1084.94 179.26 1085.12 178.747 1085.12 178.056V176.852C1084.87 177.216 1084.52 177.519 1084.07 177.762C1083.63 178.005 1083.13 178.126 1082.56 178.126C1081.9 178.126 1081.31 177.958 1080.76 177.622C1080.22 177.286 1079.79 176.815 1079.48 176.208C1079.17 175.592 1079.01 174.887 1079.01 174.094C1079.01 173.31 1079.17 172.615 1079.48 172.008C1079.79 171.401 1080.22 170.935 1080.75 170.608C1081.29 170.281 1081.89 170.118 1082.56 170.118ZM1085.12 174.122C1085.12 173.646 1085.03 173.24 1084.84 172.904C1084.65 172.559 1084.4 172.297 1084.08 172.12C1083.77 171.933 1083.42 171.84 1083.06 171.84C1082.7 171.84 1082.36 171.929 1082.05 172.106C1081.74 172.283 1081.49 172.545 1081.3 172.89C1081.11 173.226 1081.02 173.627 1081.02 174.094C1081.02 174.561 1081.11 174.971 1081.3 175.326C1081.49 175.671 1081.74 175.937 1082.05 176.124C1082.37 176.311 1082.71 176.404 1083.06 176.404C1083.42 176.404 1083.77 176.315 1084.08 176.138C1084.4 175.951 1084.65 175.69 1084.84 175.354C1085.03 175.009 1085.12 174.598 1085.12 174.122Z" fill="#231F20"/>
<path d="M1104 100.7H1096.9" stroke="url(#paint0_linear_545_26)" stroke-miterlimit="10"/>
<path d="M1082.64 100.7H92.2207" stroke="url(#paint1_linear_545_26)" stroke-miterlimit="10" stroke-dasharray="6.02 6.02"/>
<path d="M85.0984 100.7H78" stroke="url(#paint2_linear_545_26)" stroke-miterlimit="10"/>
<path d="M346 175C387.421 175 421 141.421 421 100C421 58.5786 387.421 25 346 25C304.579 25 271 58.5786 271 100C271 141.421 304.579 175 346 175Z" fill="url(#paint3_linear_545_26)"/>
<path fill-rule="evenodd" clip-rule="evenodd" d="M323.442 92.0074C322.934 91.1375 322.196 90.4764 321.212 90.0415C320.228 89.6066 319.031 89.3978 317.588 89.3978C316.145 89.3978 314.784 89.6936 313.669 90.3025C312.554 90.894 311.636 91.7465 310.931 92.8251C310.226 93.9037 309.734 95.2084 309.488 96.7219C309.39 97.1742 309.341 97.6439 309.291 98.1137C309.259 98.5834 309.242 99.0705 309.242 99.5576C309.242 101.002 309.505 102.185 310.046 103.124C310.587 104.063 311.374 104.759 312.407 105.212C313.44 105.664 314.702 105.89 316.195 105.89C317.228 105.89 318.179 105.768 319.015 105.507C319.851 105.246 320.605 104.864 321.245 104.359C321.884 103.855 322.409 103.228 322.803 102.48C323.213 101.732 323.475 100.88 323.623 99.9229H319.31C319.261 100.323 319.146 100.688 318.966 101.001C318.802 101.315 318.589 101.593 318.326 101.819C318.08 102.045 317.769 102.219 317.408 102.324C317.047 102.428 316.637 102.48 316.162 102.48C315.555 102.48 315.047 102.376 314.653 102.185C314.26 101.993 313.965 101.68 313.784 101.28C313.604 100.88 313.522 100.375 313.522 99.8011C313.522 99.6271 313.522 99.4358 313.555 99.2271C313.571 99.0183 313.604 98.8269 313.637 98.6355H323.819C323.967 97.8701 324.049 97.2438 324.098 96.7393C324.147 96.2348 324.164 95.7825 324.164 95.3998C324.164 94.0254 323.918 92.8946 323.409 92.0248L323.442 92.0074ZM319.818 95.4693C319.818 95.6259 319.786 95.765 319.753 95.9042H314.096C314.293 95.2431 314.538 94.6865 314.85 94.2342C315.162 93.7819 315.539 93.4165 316.014 93.1729C316.473 92.9294 317.031 92.8076 317.654 92.8076C318.097 92.8076 318.49 92.8946 318.818 93.0685C319.146 93.2425 319.408 93.4861 319.572 93.834C319.736 94.1645 319.835 94.5995 319.835 95.1214C319.835 95.2258 319.835 95.3475 319.835 95.4867L319.818 95.4693Z" fill="white"/>
<path fill-rule="evenodd" clip-rule="evenodd" d="M303.098 85.4714L304.373 86.7669L302.928 95.3047C302.894 95.5871 302.843 95.9027 302.792 96.2515C302.741 96.6003 302.69 96.9325 302.656 97.2814L302.52 97.3312C302.384 97.0821 302.248 96.7997 302.095 96.5007C301.942 96.2017 301.772 95.886 301.585 95.5871C301.415 95.2881 301.245 95.0057 301.092 94.7565L295.871 85.4714H291.467L288.066 105.105H294.545L292.998 103.527L294.341 95.5705C294.375 95.3048 294.426 94.9559 294.511 94.5241C294.579 94.0922 294.647 93.6935 294.681 93.3447L294.817 93.3114C295.004 93.6603 295.225 94.059 295.463 94.5074C295.701 94.9725 295.905 95.3379 296.075 95.6203L301.5 105.105H305.887L309.271 85.4714H303.149H303.098Z" fill="white"/>
<path fill-rule="evenodd" clip-rule="evenodd" d="M342.237 90.1832C342.237 90.1832 332.337 102.01 330.007 104.899L330.891 105.89H324.174C324.174 105.89 334.796 93.3621 337.207 90.2002H337.223L342.237 90.1832Z" fill="white"/>
<path fill-rule="evenodd" clip-rule="evenodd" d="M331.62 90.1832H326.518L334.932 105.89H340.654L339.299 104.439L331.62 90.1832Z" fill="white"/>
<path d="M398.008 112.958H364.238V115.314H398.008V112.958Z" fill="white"/>
<path fill-rule="evenodd" clip-rule="evenodd" d="M362.031 88.8271C361.605 88.0758 361.016 87.4581 360.262 86.9572C359.493 86.4563 358.608 86.0891 357.593 85.8386C356.578 85.5882 355.464 85.4714 354.253 85.4714C352.451 85.4714 350.83 85.7885 349.389 86.4397C347.932 87.0908 346.72 88.0425 345.721 89.2947C344.723 90.5468 344.002 92.0995 343.56 93.936C343.38 94.5705 343.249 95.255 343.151 95.973C343.052 96.7076 343.02 97.4589 343.02 98.2436C343.02 100.815 343.707 102.718 345.083 103.987C346.458 105.256 348.407 105.89 350.912 105.89C351.829 105.89 352.664 105.807 353.434 105.623C354.204 105.439 354.924 105.172 355.595 104.805C356.283 104.438 356.905 103.987 357.511 103.453L357.675 105.556H360.475L362.244 94.7208H352.615L351.993 98.3437H356.971L356.938 98.494C356.856 99.1619 356.562 99.7462 356.07 100.264C355.579 100.765 354.99 101.165 354.253 101.449C353.532 101.733 352.746 101.883 351.895 101.883C351.043 101.883 350.29 101.733 349.7 101.432C349.111 101.132 348.669 100.698 348.374 100.113C348.063 99.5291 347.916 98.8112 347.916 97.943C347.916 97.7928 347.916 97.6425 347.948 97.4755C347.965 97.3252 347.981 97.125 348.014 96.9079C348.047 96.6742 348.079 96.4071 348.128 96.0898C348.178 95.7726 348.243 95.3719 348.325 94.9044C348.456 94.0362 348.685 93.2849 349.013 92.6171C349.34 91.9493 349.766 91.3983 350.257 90.9141C350.765 90.4466 351.354 90.0961 352.026 89.8456C352.713 89.6119 353.467 89.4783 354.285 89.4783C354.793 89.4783 355.252 89.545 355.677 89.6619C356.103 89.7788 356.48 89.9625 356.824 90.1962C357.151 90.4299 357.413 90.7138 357.577 91.0644C357.741 91.415 357.839 91.7991 357.839 92.2498V92.5002C357.839 92.5837 357.839 92.6839 357.806 92.7674H362.538C362.571 92.5337 362.604 92.3166 362.62 92.0995C362.637 91.8825 362.653 91.6821 362.653 91.4651C362.653 90.4466 362.44 89.5617 362.014 88.8271H362.031Z" fill="white"/>
<path fill-rule="evenodd" clip-rule="evenodd" d="M379.943 92.6685C379.408 91.84 378.632 91.2104 377.598 90.7962C376.563 90.382 375.305 90.1832 373.788 90.1832C372.27 90.1832 370.857 90.4648 369.667 91.0447C368.494 91.608 367.529 92.4199 366.788 93.4471C366.046 94.4744 365.529 95.717 365.27 97.1584C365.167 97.5892 365.115 98.0366 365.063 98.484C365.029 98.9313 365.012 99.3952 365.012 99.8591C365.012 101.234 365.288 102.361 365.857 103.256C366.426 104.15 367.253 104.813 368.339 105.244C369.426 105.675 370.753 105.89 372.322 105.89C373.425 105.89 374.408 105.774 375.288 105.526C376.167 105.277 376.96 104.912 377.632 104.432C378.305 103.951 378.856 103.355 379.27 102.643C379.701 101.93 379.977 101.118 380.132 100.207H375.598C375.546 100.588 375.425 100.936 375.236 101.234C375.063 101.533 374.839 101.798 374.563 102.013C374.305 102.228 373.977 102.394 373.598 102.494C373.219 102.593 372.788 102.643 372.288 102.643C371.65 102.643 371.115 102.543 370.701 102.361C370.288 102.179 369.977 101.88 369.805 101.499C369.615 101.118 369.529 100.638 369.529 100.091C369.529 99.9254 369.529 99.7431 369.563 99.5443C369.563 99.3455 369.615 99.1633 369.65 98.981H380.356C380.512 98.252 380.598 97.6555 380.65 97.175C380.701 96.6945 380.719 96.2637 380.719 95.8992C380.719 94.5903 380.46 93.5135 379.925 92.685L379.943 92.6685ZM376.132 95.9656C376.132 96.1147 376.098 96.2472 376.063 96.3798H370.115C370.322 95.7502 370.581 95.2199 370.908 94.7892C371.236 94.3584 371.632 94.0105 372.132 93.7785C372.615 93.5466 373.201 93.4305 373.856 93.4305C374.322 93.4305 374.736 93.5134 375.081 93.6791C375.425 93.8448 375.701 94.0768 375.874 94.4081C376.046 94.7229 376.15 95.1371 376.15 95.6342C376.15 95.7336 376.15 95.8496 376.15 95.9821L376.132 95.9656Z" fill="white"/>
<path fill-rule="evenodd" clip-rule="evenodd" d="M397.509 91.9773C397.158 91.3849 396.674 90.9448 396.022 90.6401C395.387 90.3355 394.602 90.1832 393.683 90.1832C393.065 90.1832 392.446 90.2847 391.828 90.4878C391.21 90.6909 390.642 90.9786 390.107 91.3679C389.572 91.7403 389.105 92.2142 388.704 92.7558H388.52V90.5386H383.189L384.593 92.045L382.287 105.89H388.186L386.999 104.638L388.236 97.2411C388.302 96.7333 388.453 96.2764 388.653 95.8701C388.871 95.4639 389.121 95.1085 389.405 94.8208C389.706 94.533 390.04 94.313 390.425 94.1606C390.809 94.0083 391.21 93.9406 391.611 93.9406C391.979 93.9406 392.279 94.0083 392.547 94.1268C392.797 94.2452 392.998 94.4484 393.131 94.7023C393.265 94.9562 393.332 95.2947 393.332 95.684C393.332 95.8194 393.332 95.9716 393.299 96.1409C393.265 96.3102 393.248 96.4795 393.232 96.6488L391.694 105.873H397.61L396.407 104.604L397.81 96.1409C397.86 95.7855 397.91 95.4639 397.944 95.1424C397.977 94.8208 397.994 94.516 397.994 94.2283C397.994 93.3143 397.827 92.5697 397.476 91.9773H397.509Z" fill="white"/>
<path d="M294.555 119.241H289.986C287.743 119.241 285.916 117.348 285.916 115.025V110.602C286.913 110.602 287.727 111.445 287.727 112.478V115.231C287.727 116.522 288.724 117.554 289.97 117.554H292.927C293.824 117.554 294.555 118.312 294.555 119.241Z" fill="white"/>
<path d="M289.051 109.817H290.574C292.338 109.817 293.763 111.678 293.763 113.981V116.1H291.209C290.024 116.1 289.051 114.847 289.051 113.281V112.949L289.319 113.41C289.784 114.202 290.504 114.662 291.266 114.662H292.55C292.55 112.838 291.421 111.364 290.024 111.364H289.051V109.817Z" fill="white"/>
<path fill-rule="evenodd" clip-rule="evenodd" d="M400.526 79.974L398.993 86.168L404.93 86.3191L406.626 80.0076H400.526V79.974ZM404.603 87.0745H404.261L397.916 87.0409L399.661 80.4609L399.759 80.1083H399.417L385.422 80.0244L394.246 83.6669C395.453 84.1705 396.22 85.4294 396.154 86.8227V87.0409L390.266 87.0073L397.622 88.9377C398.878 89.2566 399.792 90.4149 399.89 91.8081L400.656 101.964L404.506 87.4605L404.603 87.108V87.0745Z" fill="white"/>
<path d="M303.98 113.599C303.98 113.465 303.98 113.348 303.947 113.264C303.93 113.181 303.897 113.114 303.83 113.064C303.779 113.013 303.696 112.98 303.595 112.963C303.495 112.946 303.361 112.93 303.194 112.93H302.391C302.04 112.93 301.772 112.997 301.622 113.147C301.471 113.298 301.404 113.515 301.404 113.816V117.095C301.404 117.228 301.337 117.295 301.187 117.295H300.049C299.899 117.295 299.832 117.228 299.832 117.095V111.859C299.832 111.725 299.916 111.658 300.049 111.658H301.003C301.153 111.658 301.22 111.725 301.22 111.859V112.629C301.404 111.976 301.923 111.658 302.776 111.658H303.947C304.499 111.658 304.917 111.776 305.168 112.027C305.419 112.277 305.552 112.662 305.552 113.197V117.095C305.552 117.228 305.486 117.295 305.335 117.295H304.198C304.047 117.295 303.98 117.228 303.98 117.095V113.599Z" fill="white"/>
<path d="M311.6 117.296C311.048 117.296 310.63 117.179 310.379 116.928C310.128 116.677 309.994 116.292 309.994 115.757V113.181C309.994 112.646 310.128 112.261 310.379 112.01C310.63 111.759 311.031 111.642 311.6 111.642H314.36C314.895 111.642 315.28 111.759 315.514 111.993C315.748 112.228 315.865 112.579 315.865 113.081V114.753C315.865 114.887 315.781 114.954 315.648 114.954H311.566V115.355C311.566 115.506 311.566 115.606 311.6 115.707C311.633 115.807 311.65 115.857 311.717 115.907C311.767 115.957 311.851 115.991 311.951 116.008C312.051 116.024 312.185 116.041 312.353 116.041H313.958C314.092 116.041 314.176 116.024 314.243 115.974C314.31 115.924 314.343 115.84 314.343 115.723C314.343 115.59 314.41 115.523 314.56 115.523H315.648C315.798 115.523 315.865 115.59 315.865 115.723V115.874C315.865 116.376 315.748 116.744 315.514 116.978C315.28 117.195 314.895 117.312 314.36 117.312H311.583L311.6 117.296ZM311.583 113.934H314.326V113.315C314.326 113.164 314.293 113.064 314.209 113.014C314.126 112.963 314.025 112.93 313.875 112.93H312.353C312.185 112.93 312.051 112.93 311.951 112.964C311.851 112.98 311.767 113.014 311.717 113.064C311.667 113.114 311.617 113.181 311.6 113.265C311.583 113.348 311.566 113.465 311.566 113.599V113.95L311.583 113.934Z" fill="white"/>
<path d="M323.324 112.93C322.839 112.93 322.504 113.047 322.287 113.281C322.069 113.515 321.969 113.833 321.969 114.234V117.095C321.969 117.228 321.902 117.295 321.751 117.295H320.614C320.463 117.295 320.396 117.228 320.396 117.095V111.859C320.396 111.725 320.48 111.658 320.614 111.658H321.567C321.718 111.658 321.785 111.725 321.785 111.859V112.712C321.885 112.361 322.052 112.093 322.32 111.926C322.588 111.759 322.956 111.658 323.424 111.658H323.809C323.959 111.658 324.026 111.725 324.026 111.859V112.729C324.026 112.863 323.959 112.93 323.809 112.93H323.324Z" fill="white"/>
<path d="M329.588 117.296C329.036 117.296 328.618 117.179 328.367 116.928C328.116 116.677 327.982 116.292 327.982 115.757V113.181C327.982 112.646 328.116 112.261 328.367 112.01C328.618 111.759 329.019 111.642 329.588 111.642H330.91C331.746 111.642 332.264 111.96 332.465 112.612V111.843C332.465 111.709 332.532 111.642 332.683 111.642H333.653C333.803 111.642 333.87 111.709 333.87 111.843V117.764C333.87 118.901 333.285 119.47 332.097 119.47H329.605C329.07 119.47 328.702 119.353 328.467 119.136C328.233 118.918 328.116 118.55 328.116 118.048V117.948C328.116 117.797 328.183 117.73 328.334 117.73H329.421C329.571 117.73 329.638 117.797 329.638 117.948V117.998C329.638 118.199 329.755 118.299 329.99 118.299H331.495C331.813 118.299 332.03 118.249 332.131 118.149C332.231 118.048 332.281 117.864 332.281 117.597V116.576C332.03 117.045 331.545 117.279 330.826 117.279H329.588V117.296ZM330.341 112.93C330.174 112.93 330.04 112.93 329.939 112.964C329.839 112.98 329.755 113.014 329.705 113.064C329.655 113.114 329.605 113.181 329.588 113.265C329.571 113.348 329.555 113.465 329.555 113.599V115.355C329.555 115.506 329.555 115.606 329.588 115.707C329.622 115.807 329.638 115.857 329.705 115.907C329.772 115.957 329.839 115.991 329.939 116.008C330.04 116.024 330.174 116.041 330.341 116.041H331.294C331.645 116.041 331.896 115.974 332.047 115.824C332.197 115.673 332.264 115.456 332.264 115.155V113.833C332.264 113.532 332.197 113.315 332.047 113.164C331.896 113.014 331.645 112.947 331.294 112.947H330.341V112.93Z" fill="white"/>
<path d="M338.529 109.702C338.529 109.568 338.596 109.501 338.747 109.501H339.884C340.035 109.501 340.102 109.568 340.102 109.702V110.588C340.102 110.722 340.035 110.789 339.884 110.789H338.747C338.596 110.789 338.529 110.722 338.529 110.588V109.702ZM338.529 111.859C338.529 111.725 338.596 111.659 338.747 111.659H339.884C340.035 111.659 340.102 111.725 340.102 111.859V117.095C340.102 117.228 340.035 117.295 339.884 117.295H338.747C338.596 117.295 338.529 117.228 338.529 117.095V111.859Z" fill="white"/>
<path d="M346.242 117.296C345.69 117.296 345.272 117.179 345.021 116.928C344.771 116.677 344.637 116.292 344.637 115.757V113.181C344.637 112.646 344.771 112.261 345.021 112.01C345.272 111.759 345.674 111.642 346.242 111.642H349.002C349.538 111.642 349.922 111.759 350.156 111.993C350.391 112.228 350.508 112.579 350.508 113.081V114.753C350.508 114.887 350.424 114.954 350.29 114.954H346.209V115.355C346.209 115.506 346.209 115.606 346.242 115.707C346.259 115.79 346.293 115.857 346.36 115.907C346.41 115.957 346.493 115.991 346.594 116.008C346.694 116.024 346.828 116.041 346.995 116.041H348.601C348.735 116.041 348.818 116.024 348.885 115.974C348.952 115.924 348.986 115.84 348.986 115.723C348.986 115.59 349.052 115.523 349.203 115.523H350.29C350.441 115.523 350.508 115.59 350.508 115.723V115.874C350.508 116.376 350.391 116.744 350.156 116.978C349.922 117.195 349.538 117.312 349.002 117.312H346.226L346.242 117.296ZM346.226 113.934H348.969V113.315C348.969 113.164 348.935 113.064 348.852 113.014C348.785 112.963 348.668 112.93 348.517 112.93H346.995C346.828 112.93 346.694 112.93 346.594 112.964C346.493 112.997 346.41 113.014 346.36 113.064C346.309 113.114 346.259 113.181 346.242 113.265C346.226 113.348 346.209 113.465 346.209 113.599V113.95L346.226 113.934Z" fill="white"/>
<path d="M356.379 113.565C356.379 113.816 356.529 113.933 356.814 113.933H359.122C359.39 113.933 359.607 113.95 359.808 114C360.008 114.05 360.159 114.117 360.276 114.234C360.393 114.351 360.477 114.485 360.544 114.669C360.594 114.853 360.627 115.087 360.627 115.355V115.857C360.627 116.375 360.51 116.743 360.293 116.961C360.059 117.178 359.674 117.278 359.139 117.278H356.195C355.66 117.278 355.275 117.161 355.041 116.944C354.807 116.726 354.689 116.358 354.689 115.84V115.673C354.689 115.522 354.756 115.455 354.907 115.455H356.011C356.161 115.455 356.228 115.522 356.228 115.673C356.228 115.79 356.262 115.873 356.312 115.924C356.379 115.974 356.462 115.991 356.613 115.991H358.587C358.737 115.991 358.854 115.957 358.921 115.907C358.988 115.857 359.038 115.756 359.038 115.606V115.355C359.038 115.071 358.888 114.937 358.587 114.937H356.278C356.011 114.937 355.793 114.92 355.609 114.87C355.425 114.82 355.275 114.753 355.158 114.636C355.041 114.519 354.957 114.385 354.89 114.201C354.84 114.017 354.807 113.783 354.807 113.515V113.047C354.807 112.528 354.924 112.16 355.158 111.943C355.392 111.725 355.76 111.625 356.295 111.625H358.988C359.523 111.625 359.891 111.742 360.126 111.959C360.36 112.177 360.477 112.545 360.477 113.063V113.231C360.477 113.381 360.41 113.448 360.259 113.448H359.172C359.022 113.448 358.955 113.381 358.955 113.231C358.955 113.114 358.921 113.03 358.871 112.98C358.804 112.93 358.721 112.913 358.587 112.913H356.847C356.697 112.913 356.58 112.946 356.513 112.996C356.446 113.047 356.412 113.147 356.412 113.298V113.548L356.379 113.565Z" fill="white"/>
<path d="M606 143C630.301 143 650 123.301 650 99C650 74.6995 630.301 55 606 55C581.699 55 562 74.6995 562 99C562 123.301 581.699 143 606 143Z" fill="url(#paint4_linear_545_26)"/>
<path d="M632.783 110.484H579.855V112.641H632.783V110.484ZM618.281 99.161H623.519L621.664 96.9616H617.082L618.281 99.161ZM612.386 99.161H616.996L615.811 96.9616H611.972L612.386 99.161ZM606.89 99.161H611.229L610.816 96.9616H606.904V99.161H606.89ZM601.423 99.161H605.748V96.9616H601.837L601.423 99.161ZM595.657 99.161H600.253L600.667 96.9616H596.827L595.657 99.161ZM589.119 99.161H594.372L595.557 96.9616H590.989L589.119 99.161ZM599.197 104.737H592.645L590.161 109.363H598.326L599.197 104.737ZM605.748 104.737H600.367L599.482 109.363H605.748V104.737ZM612.286 104.737H606.89V109.363H613.156L612.286 104.737ZM619.994 104.737H613.442L614.327 109.363H622.492L619.994 104.737ZM628.201 104.709C628.144 104.723 628.087 104.737 628.03 104.737H621.278L623.762 109.363H632.126L628.201 104.709ZM620.664 103.602H627.273L624.476 100.296H618.88L620.664 103.602ZM613.228 103.602H619.38L617.596 100.296H612.6L613.228 103.602ZM606.89 103.602H612.072L611.444 100.296H606.89V103.602ZM600.581 103.602H605.748V100.296H601.209L600.581 103.602ZM593.273 103.602H599.425L600.053 100.296H595.057L593.273 103.602ZM585.365 103.602H591.974L593.758 100.296H588.163L585.365 103.602ZM584.609 104.737C584.552 104.737 584.48 104.723 584.437 104.709L580.498 109.363H588.862L591.36 104.737H584.609ZM603.893 121.977H608.732V113.79H603.893V121.977ZM597.055 127.696H615.597C617.61 127.696 618.68 125.241 617.224 123.794C616.811 123.382 616.225 123.112 615.597 123.112H597.055C595.029 123.112 593.958 125.567 595.428 127.015C595.842 127.426 596.413 127.696 597.055 127.696ZM610.444 78.6433C608.161 76.373 604.464 76.373 602.194 78.6433C599.91 80.9135 599.91 84.5886 602.194 86.8589C604.478 89.1291 608.175 89.1291 610.444 86.8589C612.728 84.5886 612.728 80.9135 610.444 78.6433ZM611.486 72.7263C611.858 72.0878 612.842 72.6554 612.471 73.2939L611.444 75.0817C611.072 75.7203 610.073 75.1527 610.459 74.5142L611.486 72.7263ZM615.84 76.6284C616.482 76.2595 617.053 77.2385 616.411 77.6074L614.612 78.6433C613.97 79.0122 613.399 78.0331 614.041 77.6642L615.84 76.6284ZM617.638 82.1764C618.395 82.1764 618.395 83.3115 617.638 83.3115H615.569C614.812 83.3115 614.812 82.1764 615.569 82.1764H617.638ZM595 83.3115C594.258 83.3115 594.258 82.1764 595 82.1764H597.07C597.812 82.1764 597.812 83.3115 597.07 83.3115H595ZM596.228 77.6074C595.585 77.2385 596.156 76.2595 596.799 76.6284L598.583 77.6642C599.239 78.0331 598.668 79.0264 598.012 78.6433L596.228 77.6074ZM600.167 73.2939C599.796 72.6554 600.781 72.0878 601.152 72.7263L602.18 74.5142C602.551 75.1527 601.566 75.7203 601.195 75.0817L600.167 73.2939ZM616.411 87.8805C617.053 88.2494 616.482 89.2427 615.84 88.8595L614.041 87.8237C613.399 87.4548 613.97 86.4757 614.612 86.8447L616.411 87.8805ZM612.471 92.2082C612.842 92.8609 611.858 93.4285 611.486 92.7758L610.444 91.0021C610.073 90.3494 611.058 89.7818 611.429 90.4346L612.471 92.2082ZM606.89 93.9961C606.89 94.7339 605.748 94.7339 605.748 93.9961V91.9386C605.748 91.2008 606.89 91.2008 606.89 91.9386V93.9961ZM601.152 92.7758C600.781 93.4285 599.782 92.8609 600.167 92.2082L601.209 90.4346C601.58 89.7818 602.565 90.3494 602.194 91.0021L601.152 92.7758ZM596.813 88.8595C596.156 89.2285 595.585 88.2494 596.242 87.8805L598.04 86.8589C598.697 86.4899 599.268 87.469 598.611 87.8379L596.813 88.8595ZM605.748 71.506C605.748 70.754 606.89 70.754 606.89 71.506V73.5635C606.89 74.3155 605.748 74.3155 605.748 73.5635V71.506Z" fill="white"/>
<path d="M835 143C859.301 143 879 123.301 879 99C879 74.6995 859.301 55 835 55C810.699 55 791 74.6995 791 99C791 123.301 810.699 143 835 143Z" fill="url(#paint5_linear_545_26)"/>
<path d="M844.376 80.1215L838.762 92.6113C838.613 92.9467 838.642 93.3356 838.842 93.6452C839.042 93.9529 839.384 94.1391 839.752 94.1391H847.307C847.739 94.1391 848.13 94.3953 848.301 94.7896C848.474 95.1859 848.395 95.6448 848.102 95.9618L826.613 119.061C826.279 119.419 825.747 119.509 825.313 119.28C824.88 119.052 824.653 118.562 824.762 118.084L828.462 101.695C828.534 101.375 828.457 101.037 828.252 100.779C828.046 100.523 827.734 100.372 827.406 100.372H822.694C822.343 100.372 822.013 100.204 821.81 99.9187C821.608 99.633 821.554 99.2681 821.669 98.9364L828.435 79.324C828.584 78.8872 828.997 78.5942 829.458 78.5942H843.388C843.757 78.5942 844.098 78.7803 844.299 79.0881C844.498 79.3977 844.528 79.7866 844.376 80.122L844.376 80.1215Z" fill="white"/>
<path d="M1064 146C1088.3 146 1108 126.3 1108 102C1108 77.6994 1088.3 58 1064 58C1039.7 58 1020 77.6994 1020 102C1020 126.3 1039.7 146 1064 146Z" fill="url(#paint6_linear_545_26)"/>
<path d="M1042.25 105.104C1043 105.175 1043.7 104.701 1043.92 103.972C1044.35 102.307 1045.08 100.733 1046.08 99.3301C1045.55 97.8865 1044.9 96.4902 1044.14 95.1583C1043.79 94.5633 1043.81 93.8286 1044.16 93.2443C1044.52 92.6578 1045.17 92.3163 1045.86 92.3549C1047.79 92.4881 1049.61 93.2744 1051.03 94.5847C1052.06 93.9123 1053.16 93.341 1054.3 92.8791C1056.44 104.718 1072.18 107.85 1078.77 98.4169C1080.5 100.526 1081.57 103.089 1081.86 105.796C1082.54 105.905 1083.22 105.719 1083.74 105.285C1084.27 104.853 1084.58 104.215 1084.6 103.534C1084.6 102.608 1085.35 101.856 1086.27 101.848C1087.2 101.837 1087.96 102.576 1087.98 103.5C1087.96 105.087 1087.29 106.595 1086.12 107.671C1084.95 108.747 1083.4 109.297 1081.81 109.192C1081.08 114.365 1077.83 118.84 1073.13 121.13L1072.68 125.942V125.944C1072.62 126.425 1072.22 126.788 1071.73 126.788H1067.19C1066.02 126.805 1066.24 125.235 1066.11 124.474C1065.81 122.921 1063.85 123.866 1062.75 123.682V123.68C1061.01 123.682 1059.29 123.488 1057.6 123.106C1055.28 122.751 1057.16 126.788 1055.23 126.788H1050.67C1050.19 126.781 1049.8 126.418 1049.75 125.944L1049.07 118.902H1049.07C1047.66 117.733 1046.46 116.335 1045.52 114.764C1045.21 114.193 1044.6 113.839 1043.95 113.834H1042.23C1041.23 113.834 1040.42 113.029 1040.41 112.028V106.928C1040.41 106.442 1040.6 105.976 1040.95 105.635C1041.29 105.293 1041.76 105.102 1042.25 105.104ZM1049.83 104.817C1050.74 104.786 1051.46 104.041 1051.46 103.128C1051.46 102.217 1050.74 101.47 1049.83 101.44C1048.92 101.47 1048.19 102.217 1048.19 103.128C1048.19 104.041 1048.92 104.786 1049.83 104.817Z" fill="white"/>
<path fill-rule="evenodd" clip-rule="evenodd" d="M1068.46 99.4493C1074.45 99.4493 1079.3 94.5956 1079.3 88.6087C1079.3 82.6218 1074.45 77.7681 1068.46 77.7681C1062.48 77.7681 1057.62 82.6218 1057.62 88.6087C1057.62 94.5956 1062.48 99.4493 1068.46 99.4493ZM1069.55 83.4267V82.1046H1067.38V83.4267C1065.83 83.7306 1064.81 84.7306 1064.81 86.4348C1064.81 88.4266 1065.84 89.0445 1068.28 89.5344L1068.69 89.6208C1069.96 89.9002 1070.23 90.1218 1070.23 90.7763C1070.23 91.6279 1069.68 91.9998 1068.46 91.9998C1067.25 91.9998 1066.7 91.6248 1066.7 90.7763H1064.81L1064.81 90.9876C1064.9 92.5669 1065.89 93.4988 1067.38 93.7904V95.1126H1069.55V93.7904C1071.1 93.4875 1072.12 92.4875 1072.12 90.7761C1072.12 88.7873 1071.09 88.1703 1068.65 87.6815L1068.24 87.5951C1066.97 87.3156 1066.7 87.092 1066.7 86.4345C1066.7 85.591 1067.25 85.217 1068.46 85.217C1069.68 85.217 1070.23 85.59 1070.23 86.4345H1072.12L1072.11 86.2241C1072.03 84.6459 1071.03 83.717 1069.55 83.4263L1069.55 83.4267Z" fill="white"/>
<path d="M86 143C110.301 143 130 123.301 130 99C130 74.6995 110.301 55 86 55C61.6995 55 42 74.6995 42 99C42 123.301 61.6995 143 86 143Z" fill="url(#paint7_linear_545_26)"/>
<path d="M79.051 100.145C77.3929 100.145 74.5023 101.407 72.5756 102.393C72.9078 103.002 73.1139 103.689 73.1139 104.428V115.964C74.2038 115.774 75.3094 115.6 76.5404 115.553C77.5984 115.553 79.576 117.052 80.8613 117.96C82.6928 119.253 84.6656 120.683 86.8051 120.683C87.4492 120.683 88.0961 120.471 88.948 120.153C93.63 118.403 103.506 112.816 109.258 109.45C110.714 108.645 111.192 106.781 110.37 105.357C109.581 103.99 107.979 103.657 106.422 104.188L95.6758 107.909C95.7528 108.608 95.6276 109.333 95.2512 109.985C94.3104 111.615 92.2056 112.178 90.576 111.237L85.3827 108.242C84.3091 107.694 85.2346 106.102 86.2418 106.764L91.4285 109.758C92.2625 110.239 93.2854 109.967 93.7669 109.133C94.2485 108.299 93.9743 107.278 93.1401 106.796C89.321 104.591 82.5476 100.145 79.051 100.145ZM63.7033 101.857C62.2627 101.857 61.1309 103.022 61.1309 104.429V116.405C61.1309 117.807 62.2635 118.967 63.6866 118.976H68.8382C70.4009 118.976 71.4022 117.649 71.4022 116.404V104.428C71.4022 102.989 70.2389 101.857 68.8398 101.857H63.7033ZM65.4132 113.84C65.8859 113.84 66.2691 114.223 66.2691 114.696C66.2691 115.168 65.8859 115.551 65.4132 115.551C64.9406 115.551 64.5574 115.168 64.5574 114.696C64.5574 114.223 64.9406 113.84 65.4132 113.84Z" fill="white"/>
<path fill-rule="evenodd" clip-rule="evenodd" d="M98.5549 100.275C105.07 100.275 110.352 94.9934 110.352 88.4783C110.352 81.9631 105.07 76.6812 98.5549 76.6812C92.0397 76.6812 86.7578 81.9631 86.7578 88.4783C86.7578 94.9934 92.0397 100.275 98.5549 100.275ZM99.735 82.839V81.4002H97.3749V82.839C95.6894 83.1697 94.5769 84.258 94.5769 86.1125C94.5769 88.2801 95.6961 88.9525 98.3548 89.4856L98.8016 89.5796C100.181 89.8837 100.476 90.1248 100.476 90.8371C100.476 91.7638 99.8821 92.1686 98.555 92.1686C97.2312 92.1686 96.634 91.7605 96.634 90.8371H94.5769L94.5836 91.0671C94.672 92.7857 95.7592 93.7999 97.375 94.1172V95.556H99.735V94.1172C101.423 93.7876 102.533 92.6993 102.533 90.8369C102.533 88.6726 101.416 88.0012 98.7574 87.4692L98.3095 87.3752C96.9303 87.0711 96.6339 86.8277 96.6339 86.1122C96.6339 85.1943 97.2334 84.7873 98.555 84.7873C99.8777 84.7873 100.476 85.1932 100.476 86.1122H102.533L102.526 85.8833C102.438 84.1658 101.35 83.1549 99.735 82.8386L99.735 82.839Z" fill="white"/>
<path d="M194.37 88L206 100.727L194 112" stroke="#4CBC94" stroke-width="4" stroke-miterlimit="10"/>
<path d="M486.37 88L498 100.727L486 112" stroke="#4CBC94" stroke-width="4" stroke-miterlimit="10"/>
<path d="M713.37 88L725 100.727L713 112" stroke="#4CBC94" stroke-width="4" stroke-miterlimit="10"/>
<path d="M939.37 88L951 100.727L939 112" stroke="#4CBC94" stroke-width="4" stroke-miterlimit="10"/>
<defs>
<linearGradient id="paint0_linear_545_26" x1="-nan" y1="-nan" x2="-nan" y2="-nan" gradientUnits="userSpaceOnUse">
<stop stop-color="#5179BC"/>
<stop offset="1" stop-color="#4DBD95"/>
</linearGradient>
<linearGradient id="paint1_linear_545_26" x1="-nan" y1="-nan" x2="-nan" y2="-nan" gradientUnits="userSpaceOnUse">
<stop stop-color="#5179BC"/>
<stop offset="1" stop-color="#4DBD95"/>
</linearGradient>
<linearGradient id="paint2_linear_545_26" x1="-nan" y1="-nan" x2="-nan" y2="-nan" gradientUnits="userSpaceOnUse">
<stop stop-color="#5179BC"/>
<stop offset="1" stop-color="#4DBD95"/>
</linearGradient>
<linearGradient id="paint3_linear_545_26" x1="271" y1="100" x2="421" y2="100" gradientUnits="userSpaceOnUse">
<stop stop-color="#5179BC"/>
<stop offset="1" stop-color="#4DBD95"/>
</linearGradient>
<linearGradient id="paint4_linear_545_26" x1="562" y1="99" x2="649.986" y2="99" gradientUnits="userSpaceOnUse">
<stop stop-color="#5179BC"/>
<stop offset="1" stop-color="#4DBD95"/>
</linearGradient>
<linearGradient id="paint5_linear_545_26" x1="791" y1="99" x2="879" y2="99" gradientUnits="userSpaceOnUse">
<stop stop-color="#5179BC"/>
<stop offset="1" stop-color="#4DBD95"/>
</linearGradient>
<linearGradient id="paint6_linear_545_26" x1="1020.01" y1="102" x2="1108" y2="102" gradientUnits="userSpaceOnUse">
<stop stop-color="#5179BC"/>
<stop offset="1" stop-color="#4DBD95"/>
</linearGradient>
<linearGradient id="paint7_linear_545_26" x1="42.0136" y1="99" x2="130" y2="99" gradientUnits="userSpaceOnUse">
<stop stop-color="#5179BC"/>
<stop offset="1" stop-color="#4DBD95"/>
</linearGradient>
</defs>
</svg>
