<svg width="1071" height="180" viewBox="0 0 1071 180" fill="none" xmlns="http://www.w3.org/2000/svg">
<path d="M2.926 143.228V153H0.966V143.228H2.926ZM9.16048 145.132C10.0845 145.132 10.8312 145.426 11.4005 146.014C11.9698 146.593 12.2545 147.405 12.2545 148.45V153H10.2945V148.716C10.2945 148.1 10.1405 147.629 9.83248 147.302C9.52448 146.966 9.10448 146.798 8.57248 146.798C8.03115 146.798 7.60182 146.966 7.28448 147.302C6.97648 147.629 6.82248 148.1 6.82248 148.716V153H4.86248V145.244H6.82248V146.21C7.08382 145.874 7.41515 145.613 7.81648 145.426C8.22715 145.23 8.67515 145.132 9.16048 145.132ZM17.3523 151.194L19.3123 145.244H21.3983L18.5283 153H16.1483L13.2923 145.244H15.3923L17.3523 151.194ZM29.7092 148.954C29.7092 149.234 29.6905 149.486 29.6532 149.71H23.9832C24.0299 150.27 24.2259 150.709 24.5712 151.026C24.9165 151.343 25.3412 151.502 25.8452 151.502C26.5732 151.502 27.0912 151.189 27.3992 150.564H29.5132C29.2892 151.311 28.8599 151.927 28.2252 152.412C27.5905 152.888 26.8112 153.126 25.8872 153.126C25.1405 153.126 24.4685 152.963 23.8712 152.636C23.2832 152.3 22.8212 151.829 22.4852 151.222C22.1585 150.615 21.9952 149.915 21.9952 149.122C21.9952 148.319 22.1585 147.615 22.4852 147.008C22.8119 146.401 23.2692 145.935 23.8572 145.608C24.4452 145.281 25.1219 145.118 25.8872 145.118C26.6245 145.118 27.2825 145.277 27.8612 145.594C28.4492 145.911 28.9019 146.364 29.2192 146.952C29.5459 147.531 29.7092 148.198 29.7092 148.954ZM27.6792 148.394C27.6699 147.89 27.4879 147.489 27.1332 147.19C26.7785 146.882 26.3445 146.728 25.8312 146.728C25.3459 146.728 24.9352 146.877 24.5992 147.176C24.2725 147.465 24.0719 147.871 23.9972 148.394H27.6792ZM34.1078 153.126C33.4732 153.126 32.9038 153.014 32.3998 152.79C31.8958 152.557 31.4945 152.244 31.1958 151.852C30.9065 151.46 30.7478 151.026 30.7198 150.55H32.6938C32.7312 150.849 32.8758 151.096 33.1278 151.292C33.3892 151.488 33.7112 151.586 34.0938 151.586C34.4672 151.586 34.7565 151.511 34.9618 151.362C35.1765 151.213 35.2838 151.021 35.2838 150.788C35.2838 150.536 35.1532 150.349 34.8918 150.228C34.6398 150.097 34.2338 149.957 33.6738 149.808C33.0952 149.668 32.6192 149.523 32.2458 149.374C31.8818 149.225 31.5645 148.996 31.2938 148.688C31.0325 148.38 30.9018 147.965 30.9018 147.442C30.9018 147.013 31.0232 146.621 31.2658 146.266C31.5178 145.911 31.8725 145.631 32.3298 145.426C32.7965 145.221 33.3425 145.118 33.9678 145.118C34.8918 145.118 35.6292 145.351 36.1798 145.818C36.7305 146.275 37.0338 146.896 37.0898 147.68H35.2138C35.1858 147.372 35.0552 147.129 34.8218 146.952C34.5978 146.765 34.2945 146.672 33.9118 146.672C33.5572 146.672 33.2818 146.737 33.0858 146.868C32.8992 146.999 32.8058 147.181 32.8058 147.414C32.8058 147.675 32.9365 147.876 33.1978 148.016C33.4592 148.147 33.8652 148.282 34.4158 148.422C34.9758 148.562 35.4378 148.707 35.8018 148.856C36.1658 149.005 36.4785 149.239 36.7398 149.556C37.0105 149.864 37.1505 150.275 37.1598 150.788C37.1598 151.236 37.0338 151.637 36.7818 151.992C36.5392 152.347 36.1845 152.627 35.7178 152.832C35.2605 153.028 34.7238 153.126 34.1078 153.126ZM41.0507 146.854V150.606C41.0507 150.867 41.1114 151.059 41.2327 151.18C41.3634 151.292 41.5781 151.348 41.8767 151.348H42.7867V153H41.5547C39.9027 153 39.0767 152.197 39.0767 150.592V146.854H38.1527V145.244H39.0767V143.326H41.0507V145.244H42.7867V146.854H41.0507ZM47.6405 153.126C46.8938 153.126 46.2218 152.963 45.6245 152.636C45.0271 152.3 44.5558 151.829 44.2105 151.222C43.8745 150.615 43.7065 149.915 43.7065 149.122C43.7065 148.329 43.8791 147.629 44.2245 147.022C44.5791 146.415 45.0598 145.949 45.6665 145.622C46.2731 145.286 46.9498 145.118 47.6965 145.118C48.4431 145.118 49.1198 145.286 49.7265 145.622C50.3331 145.949 50.8091 146.415 51.1545 147.022C51.5091 147.629 51.6865 148.329 51.6865 149.122C51.6865 149.915 51.5045 150.615 51.1405 151.222C50.7858 151.829 50.3005 152.3 49.6845 152.636C49.0778 152.963 48.3965 153.126 47.6405 153.126ZM47.6405 151.418C47.9951 151.418 48.3265 151.334 48.6345 151.166C48.9518 150.989 49.2038 150.727 49.3905 150.382C49.5771 150.037 49.6705 149.617 49.6705 149.122C49.6705 148.385 49.4745 147.82 49.0825 147.428C48.6998 147.027 48.2285 146.826 47.6685 146.826C47.1085 146.826 46.6371 147.027 46.2545 147.428C45.8811 147.82 45.6945 148.385 45.6945 149.122C45.6945 149.859 45.8765 150.429 46.2405 150.83C46.6138 151.222 47.0805 151.418 47.6405 151.418ZM55.0842 146.448C55.3362 146.037 55.6629 145.715 56.0642 145.482C56.4749 145.249 56.9415 145.132 57.4642 145.132V147.19H56.9462C56.3302 147.19 55.8635 147.335 55.5462 147.624C55.2382 147.913 55.0842 148.417 55.0842 149.136V153H53.1242V145.244H55.0842V146.448ZM64.0344 139.742L60.2544 155.534H58.3364L62.1164 139.742H64.0344ZM74.4729 147.988C75.0236 148.091 75.4762 148.366 75.8309 148.814C76.1856 149.262 76.3629 149.775 76.3629 150.354C76.3629 150.877 76.2322 151.339 75.9709 151.74C75.7189 152.132 75.3502 152.44 74.8649 152.664C74.3796 152.888 73.8056 153 73.1429 153H68.9289V143.228H72.9609C73.6236 143.228 74.1929 143.335 74.6689 143.55C75.1542 143.765 75.5182 144.063 75.7609 144.446C76.0129 144.829 76.1389 145.263 76.1389 145.748C76.1389 146.317 75.9849 146.793 75.6769 147.176C75.3782 147.559 74.9769 147.829 74.4729 147.988ZM70.8889 147.26H72.6809C73.1476 147.26 73.5069 147.157 73.7589 146.952C74.0109 146.737 74.1369 146.434 74.1369 146.042C74.1369 145.65 74.0109 145.347 73.7589 145.132C73.5069 144.917 73.1476 144.81 72.6809 144.81H70.8889V147.26ZM72.8629 151.404C73.3389 151.404 73.7076 151.292 73.9689 151.068C74.2396 150.844 74.3749 150.527 74.3749 150.116C74.3749 149.696 74.2349 149.369 73.9549 149.136C73.6749 148.893 73.2969 148.772 72.8209 148.772H70.8889V151.404H72.8629ZM77.421 149.094C77.421 148.31 77.575 147.615 77.883 147.008C78.2003 146.401 78.625 145.935 79.157 145.608C79.6983 145.281 80.3003 145.118 80.963 145.118C81.5417 145.118 82.0457 145.235 82.475 145.468C82.9137 145.701 83.2637 145.995 83.525 146.35V145.244H85.499V153H83.525V151.866C83.273 152.23 82.923 152.533 82.475 152.776C82.0363 153.009 81.5277 153.126 80.949 153.126C80.2957 153.126 79.6983 152.958 79.157 152.622C78.625 152.286 78.2003 151.815 77.883 151.208C77.575 150.592 77.421 149.887 77.421 149.094ZM83.525 149.122C83.525 148.646 83.4317 148.24 83.245 147.904C83.0583 147.559 82.8063 147.297 82.489 147.12C82.1717 146.933 81.831 146.84 81.467 146.84C81.103 146.84 80.767 146.929 80.459 147.106C80.151 147.283 79.899 147.545 79.703 147.89C79.5163 148.226 79.423 148.627 79.423 149.094C79.423 149.561 79.5163 149.971 79.703 150.326C79.899 150.671 80.151 150.937 80.459 151.124C80.7763 151.311 81.1123 151.404 81.467 151.404C81.831 151.404 82.1717 151.315 82.489 151.138C82.8063 150.951 83.0583 150.69 83.245 150.354C83.4317 150.009 83.525 149.598 83.525 149.122ZM91.7113 145.132C92.6353 145.132 93.3819 145.426 93.9513 146.014C94.5206 146.593 94.8053 147.405 94.8053 148.45V153H92.8453V148.716C92.8453 148.1 92.6913 147.629 92.3833 147.302C92.0753 146.966 91.6553 146.798 91.1233 146.798C90.5819 146.798 90.1526 146.966 89.8353 147.302C89.5273 147.629 89.3733 148.1 89.3733 148.716V153H87.4133V145.244H89.3733V146.21C89.6346 145.874 89.9659 145.613 90.3673 145.426C90.7779 145.23 91.2259 145.132 91.7113 145.132ZM101.261 153L98.6291 149.696V153H96.6691V142.64H98.6291V148.534L101.233 145.244H103.781L100.365 149.136L103.809 153H101.261Z" fill="#231F20"/>
<path d="M522.418 146.252C522.418 146.775 522.292 147.265 522.04 147.722C521.798 148.179 521.41 148.548 520.878 148.828C520.356 149.108 519.693 149.248 518.89 149.248H517.252V153H515.292V143.228H518.89C519.646 143.228 520.29 143.359 520.822 143.62C521.354 143.881 521.751 144.241 522.012 144.698C522.283 145.155 522.418 145.673 522.418 146.252ZM518.806 147.666C519.348 147.666 519.749 147.545 520.01 147.302C520.272 147.05 520.402 146.7 520.402 146.252C520.402 145.3 519.87 144.824 518.806 144.824H517.252V147.666H518.806ZM525.77 142.64V153H523.81V142.64H525.77ZM527.202 149.094C527.202 148.31 527.356 147.615 527.664 147.008C527.982 146.401 528.406 145.935 528.938 145.608C529.48 145.281 530.082 145.118 530.744 145.118C531.323 145.118 531.827 145.235 532.256 145.468C532.695 145.701 533.045 145.995 533.306 146.35V145.244H535.28V153H533.306V151.866C533.054 152.23 532.704 152.533 532.256 152.776C531.818 153.009 531.309 153.126 530.73 153.126C530.077 153.126 529.48 152.958 528.938 152.622C528.406 152.286 527.982 151.815 527.664 151.208C527.356 150.592 527.202 149.887 527.202 149.094ZM533.306 149.122C533.306 148.646 533.213 148.24 533.026 147.904C532.84 147.559 532.588 147.297 532.27 147.12C531.953 146.933 531.612 146.84 531.248 146.84C530.884 146.84 530.548 146.929 530.24 147.106C529.932 147.283 529.68 147.545 529.484 147.89C529.298 148.226 529.204 148.627 529.204 149.094C529.204 149.561 529.298 149.971 529.484 150.326C529.68 150.671 529.932 150.937 530.24 151.124C530.558 151.311 530.894 151.404 531.248 151.404C531.612 151.404 531.953 151.315 532.27 151.138C532.588 150.951 532.84 150.69 533.026 150.354C533.213 150.009 533.306 149.598 533.306 149.122ZM541.493 145.132C542.417 145.132 543.163 145.426 543.733 146.014C544.302 146.593 544.587 147.405 544.587 148.45V153H542.627V148.716C542.627 148.1 542.473 147.629 542.165 147.302C541.857 146.966 541.437 146.798 540.905 146.798C540.363 146.798 539.934 146.966 539.617 147.302C539.309 147.629 539.155 148.1 539.155 148.716V153H537.195V145.244H539.155V146.21C539.416 145.874 539.747 145.613 540.149 145.426C540.559 145.23 541.007 145.132 541.493 145.132ZM548.732 146.854V150.606C548.732 150.867 548.793 151.059 548.914 151.18C549.045 151.292 549.26 151.348 549.558 151.348H550.468V153H549.236C547.584 153 546.758 152.197 546.758 150.592V146.854H545.834V145.244H546.758V143.326H548.732V145.244H550.468V146.854H548.732ZM558.658 153.126C557.911 153.126 557.239 152.963 556.642 152.636C556.045 152.3 555.573 151.829 555.228 151.222C554.892 150.615 554.724 149.915 554.724 149.122C554.724 148.329 554.897 147.629 555.242 147.022C555.597 146.415 556.077 145.949 556.684 145.622C557.291 145.286 557.967 145.118 558.714 145.118C559.461 145.118 560.137 145.286 560.744 145.622C561.351 145.949 561.827 146.415 562.172 147.022C562.527 147.629 562.704 148.329 562.704 149.122C562.704 149.915 562.522 150.615 562.158 151.222C561.803 151.829 561.318 152.3 560.702 152.636C560.095 152.963 559.414 153.126 558.658 153.126ZM558.658 151.418C559.013 151.418 559.344 151.334 559.652 151.166C559.969 150.989 560.221 150.727 560.408 150.382C560.595 150.037 560.688 149.617 560.688 149.122C560.688 148.385 560.492 147.82 560.1 147.428C559.717 147.027 559.246 146.826 558.686 146.826C558.126 146.826 557.655 147.027 557.272 147.428C556.899 147.82 556.712 148.385 556.712 149.122C556.712 149.859 556.894 150.429 557.258 150.83C557.631 151.222 558.098 151.418 558.658 151.418ZM574.894 145.244L572.626 153H570.512L569.098 147.582L567.684 153H565.556L563.274 145.244H565.262L566.634 151.152L568.118 145.244H570.19L571.646 151.138L573.018 145.244H574.894ZM580.252 145.132C581.176 145.132 581.923 145.426 582.492 146.014C583.062 146.593 583.346 147.405 583.346 148.45V153H581.386V148.716C581.386 148.1 581.232 147.629 580.924 147.302C580.616 146.966 580.196 146.798 579.664 146.798C579.123 146.798 578.694 146.966 578.376 147.302C578.068 147.629 577.914 148.1 577.914 148.716V153H575.954V145.244H577.914V146.21C578.176 145.874 578.507 145.613 578.908 145.426C579.319 145.23 579.767 145.132 580.252 145.132ZM592.42 148.954C592.42 149.234 592.401 149.486 592.364 149.71H586.694C586.741 150.27 586.937 150.709 587.282 151.026C587.627 151.343 588.052 151.502 588.556 151.502C589.284 151.502 589.802 151.189 590.11 150.564H592.224C592 151.311 591.571 151.927 590.936 152.412C590.301 152.888 589.522 153.126 588.598 153.126C587.851 153.126 587.179 152.963 586.582 152.636C585.994 152.3 585.532 151.829 585.196 151.222C584.869 150.615 584.706 149.915 584.706 149.122C584.706 148.319 584.869 147.615 585.196 147.008C585.523 146.401 585.98 145.935 586.568 145.608C587.156 145.281 587.833 145.118 588.598 145.118C589.335 145.118 589.993 145.277 590.572 145.594C591.16 145.911 591.613 146.364 591.93 146.952C592.257 147.531 592.42 148.198 592.42 148.954ZM590.39 148.394C590.381 147.89 590.199 147.489 589.844 147.19C589.489 146.882 589.055 146.728 588.542 146.728C588.057 146.728 587.646 146.877 587.31 147.176C586.983 147.465 586.783 147.871 586.708 148.394H590.39ZM593.347 149.094C593.347 148.31 593.501 147.615 593.809 147.008C594.126 146.401 594.555 145.935 595.097 145.608C595.638 145.281 596.24 145.118 596.903 145.118C597.407 145.118 597.887 145.23 598.345 145.454C598.802 145.669 599.166 145.958 599.437 146.322V142.64H601.425V153H599.437V151.852C599.194 152.235 598.853 152.543 598.415 152.776C597.976 153.009 597.467 153.126 596.889 153.126C596.235 153.126 595.638 152.958 595.097 152.622C594.555 152.286 594.126 151.815 593.809 151.208C593.501 150.592 593.347 149.887 593.347 149.094ZM599.451 149.122C599.451 148.646 599.357 148.24 599.171 147.904C598.984 147.559 598.732 147.297 598.415 147.12C598.097 146.933 597.757 146.84 597.393 146.84C597.029 146.84 596.693 146.929 596.385 147.106C596.077 147.283 595.825 147.545 595.629 147.89C595.442 148.226 595.349 148.627 595.349 149.094C595.349 149.561 595.442 149.971 595.629 150.326C595.825 150.671 596.077 150.937 596.385 151.124C596.702 151.311 597.038 151.404 597.393 151.404C597.757 151.404 598.097 151.315 598.415 151.138C598.732 150.951 598.984 150.69 599.171 150.354C599.357 150.009 599.451 149.598 599.451 149.122ZM608.635 146.378C608.887 146.005 609.232 145.701 609.671 145.468C610.119 145.235 610.628 145.118 611.197 145.118C611.86 145.118 612.457 145.281 612.989 145.608C613.53 145.935 613.955 146.401 614.263 147.008C614.58 147.605 614.739 148.301 614.739 149.094C614.739 149.887 614.58 150.592 614.263 151.208C613.955 151.815 613.53 152.286 612.989 152.622C612.457 152.958 611.86 153.126 611.197 153.126C610.618 153.126 610.11 153.014 609.671 152.79C609.242 152.557 608.896 152.258 608.635 151.894V153H606.675V142.64H608.635V146.378ZM612.737 149.094C612.737 148.627 612.639 148.226 612.443 147.89C612.256 147.545 612.004 147.283 611.687 147.106C611.379 146.929 611.043 146.84 610.679 146.84C610.324 146.84 609.988 146.933 609.671 147.12C609.363 147.297 609.111 147.559 608.915 147.904C608.728 148.249 608.635 148.655 608.635 149.122C608.635 149.589 608.728 149.995 608.915 150.34C609.111 150.685 609.363 150.951 609.671 151.138C609.988 151.315 610.324 151.404 610.679 151.404C611.043 151.404 611.379 151.311 611.687 151.124C612.004 150.937 612.256 150.671 612.443 150.326C612.639 149.981 612.737 149.57 612.737 149.094ZM623.583 145.244L618.781 156.668H616.695L618.375 152.804L615.267 145.244H617.465L619.467 150.662L621.497 145.244H623.583ZM543.017 164.228V174H541.057V164.228H543.017ZM549.251 166.132C550.175 166.132 550.922 166.426 551.491 167.014C552.061 167.593 552.345 168.405 552.345 169.45V174H550.385V169.716C550.385 169.1 550.231 168.629 549.923 168.302C549.615 167.966 549.195 167.798 548.663 167.798C548.122 167.798 547.693 167.966 547.375 168.302C547.067 168.629 546.913 169.1 546.913 169.716V174H544.953V166.244H546.913V167.21C547.175 166.874 547.506 166.613 547.907 166.426C548.318 166.23 548.766 166.132 549.251 166.132ZM557.443 172.194L559.403 166.244H561.489L558.619 174H556.239L553.383 166.244H555.483L557.443 172.194ZM569.8 169.954C569.8 170.234 569.781 170.486 569.744 170.71H564.074C564.121 171.27 564.317 171.709 564.662 172.026C565.007 172.343 565.432 172.502 565.936 172.502C566.664 172.502 567.182 172.189 567.49 171.564H569.604C569.38 172.311 568.951 172.927 568.316 173.412C567.681 173.888 566.902 174.126 565.978 174.126C565.231 174.126 564.559 173.963 563.962 173.636C563.374 173.3 562.912 172.829 562.576 172.222C562.249 171.615 562.086 170.915 562.086 170.122C562.086 169.319 562.249 168.615 562.576 168.008C562.903 167.401 563.36 166.935 563.948 166.608C564.536 166.281 565.213 166.118 565.978 166.118C566.715 166.118 567.373 166.277 567.952 166.594C568.54 166.911 568.993 167.364 569.31 167.952C569.637 168.531 569.8 169.198 569.8 169.954ZM567.77 169.394C567.761 168.89 567.579 168.489 567.224 168.19C566.869 167.882 566.435 167.728 565.922 167.728C565.437 167.728 565.026 167.877 564.69 168.176C564.363 168.465 564.163 168.871 564.088 169.394H567.77ZM574.199 174.126C573.564 174.126 572.995 174.014 572.491 173.79C571.987 173.557 571.585 173.244 571.287 172.852C570.997 172.46 570.839 172.026 570.811 171.55H572.785C572.822 171.849 572.967 172.096 573.219 172.292C573.48 172.488 573.802 172.586 574.185 172.586C574.558 172.586 574.847 172.511 575.053 172.362C575.267 172.213 575.375 172.021 575.375 171.788C575.375 171.536 575.244 171.349 574.983 171.228C574.731 171.097 574.325 170.957 573.765 170.808C573.186 170.668 572.71 170.523 572.337 170.374C571.973 170.225 571.655 169.996 571.385 169.688C571.123 169.38 570.993 168.965 570.993 168.442C570.993 168.013 571.114 167.621 571.357 167.266C571.609 166.911 571.963 166.631 572.421 166.426C572.887 166.221 573.433 166.118 574.059 166.118C574.983 166.118 575.72 166.351 576.271 166.818C576.821 167.275 577.125 167.896 577.181 168.68H575.305C575.277 168.372 575.146 168.129 574.913 167.952C574.689 167.765 574.385 167.672 574.003 167.672C573.648 167.672 573.373 167.737 573.177 167.868C572.99 167.999 572.897 168.181 572.897 168.414C572.897 168.675 573.027 168.876 573.289 169.016C573.55 169.147 573.956 169.282 574.507 169.422C575.067 169.562 575.529 169.707 575.893 169.856C576.257 170.005 576.569 170.239 576.831 170.556C577.101 170.864 577.241 171.275 577.251 171.788C577.251 172.236 577.125 172.637 576.873 172.992C576.63 173.347 576.275 173.627 575.809 173.832C575.351 174.028 574.815 174.126 574.199 174.126ZM581.142 167.854V171.606C581.142 171.867 581.202 172.059 581.324 172.18C581.454 172.292 581.669 172.348 581.968 172.348H582.878V174H581.646C579.994 174 579.168 173.197 579.168 171.592V167.854H578.244V166.244H579.168V164.326H581.142V166.244H582.878V167.854H581.142ZM587.731 174.126C586.985 174.126 586.313 173.963 585.715 173.636C585.118 173.3 584.647 172.829 584.301 172.222C583.965 171.615 583.797 170.915 583.797 170.122C583.797 169.329 583.97 168.629 584.315 168.022C584.67 167.415 585.151 166.949 585.757 166.622C586.364 166.286 587.041 166.118 587.787 166.118C588.534 166.118 589.211 166.286 589.817 166.622C590.424 166.949 590.9 167.415 591.245 168.022C591.6 168.629 591.777 169.329 591.777 170.122C591.777 170.915 591.595 171.615 591.231 172.222C590.877 172.829 590.391 173.3 589.775 173.636C589.169 173.963 588.487 174.126 587.731 174.126ZM587.731 172.418C588.086 172.418 588.417 172.334 588.725 172.166C589.043 171.989 589.295 171.727 589.481 171.382C589.668 171.037 589.761 170.617 589.761 170.122C589.761 169.385 589.565 168.82 589.173 168.428C588.791 168.027 588.319 167.826 587.759 167.826C587.199 167.826 586.728 168.027 586.345 168.428C585.972 168.82 585.785 169.385 585.785 170.122C585.785 170.859 585.967 171.429 586.331 171.83C586.705 172.222 587.171 172.418 587.731 172.418ZM595.175 167.448C595.427 167.037 595.754 166.715 596.155 166.482C596.566 166.249 597.032 166.132 597.555 166.132V168.19H597.037C596.421 168.19 595.954 168.335 595.637 168.624C595.329 168.913 595.175 169.417 595.175 170.136V174H593.215V166.244H595.175V167.448Z" fill="#231F20"/>
<path d="M765.926 144.81V147.26H769.216V148.814H765.926V151.404H769.636V153H763.966V143.214H769.636V144.81H765.926ZM773.377 142.64V153H771.417V142.64H773.377ZM782.524 148.954C782.524 149.234 782.505 149.486 782.468 149.71H776.798C776.844 150.27 777.04 150.709 777.386 151.026C777.731 151.343 778.156 151.502 778.66 151.502C779.388 151.502 779.906 151.189 780.214 150.564H782.328C782.104 151.311 781.674 151.927 781.04 152.412C780.405 152.888 779.626 153.126 778.702 153.126C777.955 153.126 777.283 152.963 776.686 152.636C776.098 152.3 775.636 151.829 775.3 151.222C774.973 150.615 774.81 149.915 774.81 149.122C774.81 148.319 774.973 147.615 775.3 147.008C775.626 146.401 776.084 145.935 776.672 145.608C777.26 145.281 777.936 145.118 778.702 145.118C779.439 145.118 780.097 145.277 780.676 145.594C781.264 145.911 781.716 146.364 782.034 146.952C782.36 147.531 782.524 148.198 782.524 148.954ZM780.494 148.394C780.484 147.89 780.302 147.489 779.948 147.19C779.593 146.882 779.159 146.728 778.646 146.728C778.16 146.728 777.75 146.877 777.414 147.176C777.087 147.465 776.886 147.871 776.812 148.394H780.494ZM783.45 149.122C783.45 148.319 783.614 147.619 783.94 147.022C784.267 146.415 784.72 145.949 785.298 145.622C785.877 145.286 786.54 145.118 787.286 145.118C788.248 145.118 789.041 145.361 789.666 145.846C790.301 146.322 790.726 146.994 790.94 147.862H788.826C788.714 147.526 788.523 147.265 788.252 147.078C787.991 146.882 787.664 146.784 787.272 146.784C786.712 146.784 786.269 146.989 785.942 147.4C785.616 147.801 785.452 148.375 785.452 149.122C785.452 149.859 785.616 150.433 785.942 150.844C786.269 151.245 786.712 151.446 787.272 151.446C788.066 151.446 788.584 151.091 788.826 150.382H790.94C790.726 151.222 790.301 151.889 789.666 152.384C789.032 152.879 788.238 153.126 787.286 153.126C786.54 153.126 785.877 152.963 785.298 152.636C784.72 152.3 784.267 151.833 783.94 151.236C783.614 150.629 783.45 149.925 783.45 149.122ZM794.658 146.854V150.606C794.658 150.867 794.719 151.059 794.84 151.18C794.971 151.292 795.185 151.348 795.484 151.348H796.394V153H795.162C793.51 153 792.684 152.197 792.684 150.592V146.854H791.76V145.244H792.684V143.326H794.658V145.244H796.394V146.854H794.658ZM799.764 146.448C800.016 146.037 800.343 145.715 800.744 145.482C801.155 145.249 801.621 145.132 802.144 145.132V147.19H801.626C801.01 147.19 800.543 147.335 800.226 147.624C799.918 147.913 799.764 148.417 799.764 149.136V153H797.804V145.244H799.764V146.448ZM804.458 144.32C804.113 144.32 803.823 144.213 803.59 143.998C803.366 143.774 803.254 143.499 803.254 143.172C803.254 142.845 803.366 142.575 803.59 142.36C803.823 142.136 804.113 142.024 804.458 142.024C804.803 142.024 805.088 142.136 805.312 142.36C805.545 142.575 805.662 142.845 805.662 143.172C805.662 143.499 805.545 143.774 805.312 143.998C805.088 144.213 804.803 144.32 804.458 144.32ZM805.424 145.244V153H803.464V145.244H805.424ZM806.857 149.122C806.857 148.319 807.02 147.619 807.347 147.022C807.673 146.415 808.126 145.949 808.705 145.622C809.283 145.286 809.946 145.118 810.693 145.118C811.654 145.118 812.447 145.361 813.073 145.846C813.707 146.322 814.132 146.994 814.347 147.862H812.233C812.121 147.526 811.929 147.265 811.659 147.078C811.397 146.882 811.071 146.784 810.679 146.784C810.119 146.784 809.675 146.989 809.349 147.4C809.022 147.801 808.859 148.375 808.859 149.122C808.859 149.859 809.022 150.433 809.349 150.844C809.675 151.245 810.119 151.446 810.679 151.446C811.472 151.446 811.99 151.091 812.233 150.382H814.347C814.132 151.222 813.707 151.889 813.073 152.384C812.438 152.879 811.645 153.126 810.693 153.126C809.946 153.126 809.283 152.963 808.705 152.636C808.126 152.3 807.673 151.833 807.347 151.236C807.02 150.629 806.857 149.925 806.857 149.122ZM816.776 144.32C816.431 144.32 816.142 144.213 815.908 143.998C815.684 143.774 815.572 143.499 815.572 143.172C815.572 142.845 815.684 142.575 815.908 142.36C816.142 142.136 816.431 142.024 816.776 142.024C817.122 142.024 817.406 142.136 817.63 142.36C817.864 142.575 817.98 142.845 817.98 143.172C817.98 143.499 817.864 143.774 817.63 143.998C817.406 144.213 817.122 144.32 816.776 144.32ZM817.742 145.244V153H815.782V145.244H817.742ZM821.961 146.854V150.606C821.961 150.867 822.022 151.059 822.143 151.18C822.274 151.292 822.488 151.348 822.787 151.348H823.697V153H822.465C820.813 153 819.987 152.197 819.987 150.592V146.854H819.063V145.244H819.987V143.326H821.961V145.244H823.697V146.854H821.961ZM832.527 145.244L827.725 156.668H825.639L827.319 152.804L824.211 145.244H826.409L828.411 150.662L830.441 145.244H832.527Z" fill="#231F20"/>
<path d="M1006.34 153.098C1005.66 153.098 1005.04 152.981 1004.49 152.748C1003.95 152.515 1003.52 152.179 1003.2 151.74C1002.89 151.301 1002.72 150.783 1002.71 150.186H1004.81C1004.84 150.587 1004.98 150.905 1005.23 151.138C1005.5 151.371 1005.85 151.488 1006.3 151.488C1006.76 151.488 1007.11 151.381 1007.38 151.166C1007.64 150.942 1007.77 150.653 1007.77 150.298C1007.77 150.009 1007.68 149.771 1007.5 149.584C1007.32 149.397 1007.1 149.253 1006.83 149.15C1006.57 149.038 1006.2 148.917 1005.74 148.786C1005.1 148.599 1004.59 148.417 1004.18 148.24C1003.79 148.053 1003.45 147.778 1003.16 147.414C1002.88 147.041 1002.74 146.546 1002.74 145.93C1002.74 145.351 1002.89 144.847 1003.18 144.418C1003.47 143.989 1003.87 143.662 1004.39 143.438C1004.92 143.205 1005.51 143.088 1006.19 143.088C1007.19 143.088 1008.01 143.335 1008.64 143.83C1009.27 144.315 1009.62 144.997 1009.69 145.874H1007.53C1007.51 145.538 1007.37 145.263 1007.1 145.048C1006.83 144.824 1006.48 144.712 1006.05 144.712C1005.66 144.712 1005.36 144.81 1005.12 145.006C1004.9 145.202 1004.79 145.487 1004.79 145.86C1004.79 146.121 1004.87 146.341 1005.04 146.518C1005.22 146.686 1005.43 146.826 1005.68 146.938C1005.94 147.041 1006.31 147.162 1006.77 147.302C1007.41 147.489 1007.93 147.675 1008.33 147.862C1008.73 148.049 1009.07 148.329 1009.36 148.702C1009.65 149.075 1009.8 149.565 1009.8 150.172C1009.8 150.695 1009.66 151.18 1009.39 151.628C1009.12 152.076 1008.72 152.435 1008.2 152.706C1007.68 152.967 1007.06 153.098 1006.34 153.098ZM1010.99 149.094C1010.99 148.31 1011.15 147.615 1011.46 147.008C1011.77 146.401 1012.2 145.935 1012.73 145.608C1013.27 145.281 1013.87 145.118 1014.54 145.118C1015.11 145.118 1015.62 145.235 1016.05 145.468C1016.49 145.701 1016.84 145.995 1017.1 146.35V145.244H1019.07V153H1017.1V151.866C1016.85 152.23 1016.5 152.533 1016.05 152.776C1015.61 153.009 1015.1 153.126 1014.52 153.126C1013.87 153.126 1013.27 152.958 1012.73 152.622C1012.2 152.286 1011.77 151.815 1011.46 151.208C1011.15 150.592 1010.99 149.887 1010.99 149.094ZM1017.1 149.122C1017.1 148.646 1017 148.24 1016.82 147.904C1016.63 147.559 1016.38 147.297 1016.06 147.12C1015.74 146.933 1015.4 146.84 1015.04 146.84C1014.68 146.84 1014.34 146.929 1014.03 147.106C1013.72 147.283 1013.47 147.545 1013.28 147.89C1013.09 148.226 1013 148.627 1013 149.094C1013 149.561 1013.09 149.971 1013.28 150.326C1013.47 150.671 1013.72 150.937 1014.03 151.124C1014.35 151.311 1014.68 151.404 1015.04 151.404C1015.4 151.404 1015.74 151.315 1016.06 151.138C1016.38 150.951 1016.63 150.69 1016.82 150.354C1017 150.009 1017.1 149.598 1017.1 149.122ZM1024.22 151.194L1026.18 145.244H1028.27L1025.4 153H1023.02L1020.16 145.244H1022.26L1024.22 151.194ZM1030.36 144.32C1030.02 144.32 1029.73 144.213 1029.49 143.998C1029.27 143.774 1029.16 143.499 1029.16 143.172C1029.16 142.845 1029.27 142.575 1029.49 142.36C1029.73 142.136 1030.02 142.024 1030.36 142.024C1030.71 142.024 1030.99 142.136 1031.21 142.36C1031.45 142.575 1031.56 142.845 1031.56 143.172C1031.56 143.499 1031.45 143.774 1031.21 143.998C1030.99 144.213 1030.71 144.32 1030.36 144.32ZM1031.33 145.244V153H1029.37V145.244H1031.33ZM1037.56 145.132C1038.48 145.132 1039.23 145.426 1039.8 146.014C1040.37 146.593 1040.65 147.405 1040.65 148.45V153H1038.69V148.716C1038.69 148.1 1038.54 147.629 1038.23 147.302C1037.92 146.966 1037.5 146.798 1036.97 146.798C1036.43 146.798 1036 146.966 1035.68 147.302C1035.38 147.629 1035.22 148.1 1035.22 148.716V153H1033.26V145.244H1035.22V146.21C1035.48 145.874 1035.82 145.613 1036.22 145.426C1036.63 145.23 1037.08 145.132 1037.56 145.132ZM1045.56 145.118C1046.14 145.118 1046.64 145.235 1047.08 145.468C1047.52 145.692 1047.87 145.986 1048.12 146.35V145.244H1050.09V153.056C1050.09 153.775 1049.95 154.414 1049.66 154.974C1049.37 155.543 1048.94 155.991 1048.36 156.318C1047.78 156.654 1047.08 156.822 1046.26 156.822C1045.16 156.822 1044.25 156.565 1043.54 156.052C1042.84 155.539 1042.44 154.839 1042.35 153.952H1044.3C1044.4 154.307 1044.62 154.587 1044.95 154.792C1045.3 155.007 1045.72 155.114 1046.2 155.114C1046.77 155.114 1047.23 154.941 1047.59 154.596C1047.94 154.26 1048.12 153.747 1048.12 153.056V151.852C1047.87 152.216 1047.52 152.519 1047.07 152.762C1046.63 153.005 1046.13 153.126 1045.56 153.126C1044.9 153.126 1044.31 152.958 1043.76 152.622C1043.22 152.286 1042.79 151.815 1042.48 151.208C1042.17 150.592 1042.01 149.887 1042.01 149.094C1042.01 148.31 1042.17 147.615 1042.48 147.008C1042.79 146.401 1043.22 145.935 1043.75 145.608C1044.29 145.281 1044.89 145.118 1045.56 145.118ZM1048.12 149.122C1048.12 148.646 1048.03 148.24 1047.84 147.904C1047.65 147.559 1047.4 147.297 1047.08 147.12C1046.77 146.933 1046.42 146.84 1046.06 146.84C1045.7 146.84 1045.36 146.929 1045.05 147.106C1044.74 147.283 1044.49 147.545 1044.3 147.89C1044.11 148.226 1044.02 148.627 1044.02 149.094C1044.02 149.561 1044.11 149.971 1044.3 150.326C1044.49 150.671 1044.74 150.937 1045.05 151.124C1045.37 151.311 1045.71 151.404 1046.06 151.404C1046.42 151.404 1046.77 151.315 1047.08 151.138C1047.4 150.951 1047.65 150.69 1047.84 150.354C1048.03 150.009 1048.12 149.598 1048.12 149.122Z" fill="#231F20"/>
<path d="M1067 75.7003H1059.9" stroke="url(#paint0_linear_550_29)" stroke-miterlimit="10"/>
<path d="M1045.64 75.7003H55.2207" stroke="url(#paint1_linear_550_29)" stroke-miterlimit="10" stroke-dasharray="6.02 6.02"/>
<path d="M48.0984 75.7003H41" stroke="url(#paint2_linear_550_29)" stroke-miterlimit="10"/>
<path d="M309 150C350.421 150 384 116.421 384 75C384 33.5786 350.421 0 309 0C267.579 0 234 33.5786 234 75C234 116.421 267.579 150 309 150Z" fill="url(#paint3_linear_550_29)"/>
<path fill-rule="evenodd" clip-rule="evenodd" d="M286.442 67.0074C285.934 66.1375 285.196 65.4764 284.212 65.0415C283.228 64.6066 282.031 64.3978 280.588 64.3978C279.145 64.3978 277.784 64.6936 276.669 65.3025C275.554 65.894 274.636 66.7465 273.931 67.8251C273.226 68.9037 272.734 70.2084 272.488 71.7219C272.39 72.1742 272.341 72.6439 272.291 73.1137C272.259 73.5834 272.242 74.0705 272.242 74.5576C272.242 76.0016 272.505 77.1845 273.046 78.1239C273.587 79.0634 274.374 79.7593 275.407 80.2116C276.44 80.6639 277.702 80.89 279.195 80.89C280.228 80.89 281.179 80.7683 282.015 80.5073C282.851 80.2463 283.605 79.8637 284.245 79.3592C284.884 78.8546 285.409 78.2283 285.803 77.4803C286.213 76.7322 286.475 75.8797 286.623 74.9229H282.31C282.261 75.323 282.146 75.6883 281.966 76.0015C281.802 76.3146 281.589 76.593 281.326 76.8192C281.08 77.0453 280.769 77.2193 280.408 77.3237C280.047 77.428 279.637 77.4803 279.162 77.4803C278.555 77.4803 278.047 77.3759 277.653 77.1846C277.26 76.9932 276.965 76.68 276.784 76.2799C276.604 75.8798 276.522 75.3752 276.522 74.8011C276.522 74.6271 276.522 74.4358 276.555 74.2271C276.571 74.0183 276.604 73.8269 276.637 73.6355H286.819C286.967 72.8701 287.049 72.2438 287.098 71.7393C287.147 71.2348 287.164 70.7825 287.164 70.3998C287.164 69.0254 286.918 67.8946 286.409 67.0248L286.442 67.0074ZM282.818 70.4693C282.818 70.6259 282.786 70.765 282.753 70.9042H277.096C277.293 70.2431 277.538 69.6865 277.85 69.2342C278.162 68.7819 278.539 68.4165 279.014 68.1729C279.473 67.9294 280.031 67.8076 280.654 67.8076C281.097 67.8076 281.49 67.8946 281.818 68.0685C282.146 68.2425 282.408 68.4861 282.572 68.834C282.736 69.1645 282.835 69.5995 282.835 70.1214C282.835 70.2258 282.835 70.3475 282.835 70.4867L282.818 70.4693Z" fill="white"/>
<path fill-rule="evenodd" clip-rule="evenodd" d="M266.098 60.4714L267.373 61.7669L265.928 70.3047C265.894 70.5871 265.843 70.9027 265.792 71.2515C265.741 71.6003 265.69 71.9325 265.656 72.2814L265.52 72.3312C265.384 72.0821 265.248 71.7997 265.095 71.5007C264.942 71.2017 264.772 70.886 264.585 70.5871C264.415 70.2881 264.245 70.0057 264.092 69.7565L258.871 60.4714H254.467L251.066 80.1049H257.545L255.998 78.5269L257.341 70.5705C257.375 70.3048 257.426 69.9559 257.511 69.5241C257.579 69.0922 257.647 68.6935 257.681 68.3447L257.817 68.3114C258.004 68.6603 258.225 69.059 258.463 69.5074C258.701 69.9725 258.905 70.3379 259.075 70.6203L264.5 80.1049H268.887L272.271 60.4714H266.149H266.098Z" fill="white"/>
<path fill-rule="evenodd" clip-rule="evenodd" d="M305.237 65.1832C305.237 65.1832 295.337 77.0104 293.007 79.8988L293.891 80.89H287.174C287.174 80.89 297.796 68.3621 300.207 65.2002H300.223L305.237 65.1832Z" fill="white"/>
<path fill-rule="evenodd" clip-rule="evenodd" d="M294.62 65.1832H289.518L297.932 80.89H303.654L302.299 79.4389L294.62 65.1832Z" fill="white"/>
<path d="M361.008 87.958H327.238V90.314H361.008V87.958Z" fill="white"/>
<path fill-rule="evenodd" clip-rule="evenodd" d="M325.031 63.8271C324.605 63.0758 324.016 62.4581 323.262 61.9572C322.493 61.4563 321.608 61.0891 320.593 60.8386C319.578 60.5882 318.464 60.4714 317.253 60.4714C315.451 60.4714 313.83 60.7885 312.389 61.4397C310.932 62.0908 309.72 63.0425 308.721 64.2947C307.723 65.5468 307.002 67.0995 306.56 68.936C306.38 69.5705 306.249 70.255 306.151 70.973C306.052 71.7076 306.02 72.4589 306.02 73.2436C306.02 75.8147 306.707 77.718 308.083 78.9869C309.458 80.2558 311.407 80.8902 313.912 80.8902C314.829 80.8902 315.664 80.8067 316.434 80.623C317.204 80.4394 317.924 80.1723 318.595 79.805C319.283 79.4377 319.905 78.9869 320.511 78.4526L320.675 80.5563H323.475L325.244 69.7208H315.615L314.993 73.3437H319.971L319.938 73.494C319.856 74.1619 319.562 74.7462 319.07 75.2638C318.579 75.7646 317.99 76.1653 317.253 76.4491C316.532 76.7329 315.746 76.8832 314.895 76.8832C314.043 76.8832 313.29 76.733 312.7 76.4325C312.111 76.132 311.669 75.6978 311.374 75.1135C311.063 74.5291 310.916 73.8112 310.916 72.943C310.916 72.7928 310.916 72.6425 310.948 72.4755C310.965 72.3252 310.981 72.125 311.014 71.9079C311.047 71.6742 311.079 71.4071 311.128 71.0898C311.178 70.7726 311.243 70.3719 311.325 69.9044C311.456 69.0362 311.685 68.2849 312.013 67.6171C312.34 66.9493 312.766 66.3983 313.257 65.9141C313.765 65.4466 314.354 65.0961 315.026 64.8456C315.713 64.6119 316.467 64.4783 317.285 64.4783C317.793 64.4783 318.252 64.545 318.677 64.6619C319.103 64.7788 319.48 64.9625 319.824 65.1962C320.151 65.4299 320.413 65.7138 320.577 66.0644C320.741 66.415 320.839 66.7991 320.839 67.2498V67.5002C320.839 67.5837 320.839 67.6839 320.806 67.7674H325.538C325.571 67.5337 325.604 67.3166 325.62 67.0995C325.637 66.8825 325.653 66.6821 325.653 66.4651C325.653 65.4466 325.44 64.5617 325.014 63.8271H325.031Z" fill="white"/>
<path fill-rule="evenodd" clip-rule="evenodd" d="M342.943 67.6685C342.408 66.84 341.632 66.2104 340.598 65.7962C339.563 65.382 338.305 65.1832 336.788 65.1832C335.27 65.1832 333.857 65.4648 332.667 66.0447C331.494 66.608 330.529 67.4199 329.788 68.4471C329.046 69.4744 328.529 70.717 328.27 72.1584C328.167 72.5892 328.115 73.0366 328.063 73.484C328.029 73.9313 328.012 74.3952 328.012 74.8591C328.012 76.2343 328.288 77.3609 328.857 78.2556C329.426 79.1503 330.253 79.813 331.339 80.2438C332.426 80.6746 333.753 80.89 335.322 80.89C336.425 80.89 337.408 80.7741 338.288 80.5256C339.167 80.277 339.96 79.9125 340.632 79.432C341.305 78.9515 341.856 78.355 342.27 77.6426C342.701 76.9301 342.977 76.1183 343.132 75.2071H338.598C338.546 75.5881 338.425 75.9361 338.236 76.2343C338.063 76.5325 337.839 76.7976 337.563 77.013C337.305 77.2283 336.977 77.3941 336.598 77.4935C336.219 77.5929 335.788 77.6426 335.288 77.6426C334.65 77.6426 334.115 77.5432 333.701 77.3609C333.288 77.1787 332.977 76.8804 332.805 76.4993C332.615 76.1183 332.529 75.6378 332.529 75.0911C332.529 74.9254 332.529 74.7431 332.563 74.5443C332.563 74.3455 332.615 74.1633 332.65 73.981H343.356C343.512 73.252 343.598 72.6555 343.65 72.175C343.701 71.6945 343.719 71.2637 343.719 70.8992C343.719 69.5903 343.46 68.5135 342.925 67.685L342.943 67.6685ZM339.132 70.9656C339.132 71.1147 339.098 71.2472 339.063 71.3798H333.115C333.322 70.7502 333.581 70.2199 333.908 69.7892C334.236 69.3584 334.632 69.0105 335.132 68.7785C335.615 68.5466 336.201 68.4305 336.856 68.4305C337.322 68.4305 337.736 68.5134 338.081 68.6791C338.425 68.8448 338.701 69.0768 338.874 69.4081C339.046 69.7229 339.15 70.1371 339.15 70.6342C339.15 70.7336 339.15 70.8496 339.15 70.9821L339.132 70.9656Z" fill="white"/>
<path fill-rule="evenodd" clip-rule="evenodd" d="M360.509 66.9773C360.158 66.3849 359.674 65.9448 359.022 65.6401C358.387 65.3355 357.602 65.1832 356.683 65.1832C356.065 65.1832 355.446 65.2847 354.828 65.4878C354.21 65.6909 353.642 65.9786 353.107 66.3679C352.572 66.7403 352.105 67.2142 351.704 67.7558H351.52V65.5386H346.189L347.593 67.045L345.287 80.89H351.186L349.999 79.6375L351.236 72.2411C351.302 71.7333 351.453 71.2764 351.653 70.8701C351.871 70.4639 352.121 70.1085 352.405 69.8208C352.706 69.533 353.04 69.313 353.425 69.1606C353.809 69.0083 354.21 68.9406 354.611 68.9406C354.979 68.9406 355.279 69.0083 355.547 69.1268C355.797 69.2452 355.998 69.4484 356.131 69.7023C356.265 69.9562 356.332 70.2947 356.332 70.684C356.332 70.8194 356.332 70.9716 356.299 71.1409C356.265 71.3102 356.248 71.4795 356.232 71.6488L354.694 80.8731H360.61L359.407 79.6037L360.81 71.1409C360.86 70.7855 360.91 70.4639 360.944 70.1424C360.977 69.8208 360.994 69.516 360.994 69.2283C360.994 68.3143 360.827 67.5697 360.476 66.9773H360.509Z" fill="white"/>
<path d="M257.555 94.2409H252.986C250.743 94.2409 248.916 92.348 248.916 90.0248V85.6022C249.913 85.6022 250.727 86.4454 250.727 87.478V90.2313C250.727 91.5219 251.724 92.5544 252.97 92.5544H255.927C256.824 92.5544 257.555 93.3117 257.555 94.2409Z" fill="white"/>
<path d="M252.051 84.8169H253.574C255.338 84.8169 256.763 86.6777 256.763 88.9807V91.0996H254.209C253.024 91.0996 252.051 89.8467 252.051 88.2806V87.949L252.319 88.4096C252.784 89.2018 253.504 89.6624 254.266 89.6624H255.55C255.55 87.8384 254.421 86.3645 253.024 86.3645H252.051V84.8169Z" fill="white"/>
<path fill-rule="evenodd" clip-rule="evenodd" d="M363.526 54.974L361.993 61.168L367.93 61.3191L369.626 55.0076H363.526V54.974ZM367.603 62.0745H367.261L360.916 62.0409L362.661 55.4609L362.759 55.1083H362.417L348.422 55.0244L357.246 58.6669C358.453 59.1705 359.22 60.4294 359.154 61.8227V62.0409L353.266 62.0073L360.622 63.9377C361.878 64.2566 362.792 65.4149 362.89 66.8081L363.656 76.9635L367.506 62.4605L367.603 62.108V62.0745Z" fill="white"/>
<path d="M266.98 88.5987C266.98 88.4649 266.98 88.3479 266.947 88.2642C266.93 88.1806 266.897 88.1137 266.83 88.0635C266.779 88.0134 266.696 87.9799 266.595 87.9632C266.495 87.9465 266.361 87.9297 266.194 87.9297H265.391C265.04 87.9297 264.772 87.9966 264.622 88.1471C264.471 88.2977 264.404 88.5151 264.404 88.8161V92.0945C264.404 92.2283 264.337 92.2952 264.187 92.2952H263.049C262.899 92.2952 262.832 92.2283 262.832 92.0945V86.8592C262.832 86.7254 262.916 86.6585 263.049 86.6585H264.003C264.153 86.6585 264.22 86.7254 264.22 86.8592V87.6286C264.404 86.9763 264.923 86.6585 265.776 86.6585H266.947C267.499 86.6585 267.917 86.7756 268.168 87.0265C268.419 87.2774 268.552 87.662 268.552 88.1973V92.0945C268.552 92.2283 268.486 92.2952 268.335 92.2952H267.198C267.047 92.2952 266.98 92.2283 266.98 92.0945V88.5987Z" fill="white"/>
<path d="M274.6 92.2956C274.048 92.2956 273.63 92.1786 273.379 91.9277C273.128 91.6768 272.994 91.292 272.994 90.7568V88.1809C272.994 87.6456 273.128 87.261 273.379 87.0101C273.63 86.7592 274.031 86.6421 274.6 86.6421H277.36C277.895 86.6421 278.28 86.7592 278.514 86.9934C278.748 87.2275 278.865 87.5787 278.865 88.0805V89.7532C278.865 89.887 278.781 89.954 278.648 89.954H274.566V90.3554C274.566 90.5059 274.566 90.6062 274.6 90.7066C274.633 90.8069 274.65 90.8571 274.717 90.9073C274.767 90.9575 274.851 90.9909 274.951 91.0076C275.051 91.0244 275.185 91.0411 275.353 91.0411H276.958C277.092 91.0411 277.176 91.0244 277.243 90.9742C277.31 90.9241 277.343 90.8404 277.343 90.7233C277.343 90.5895 277.41 90.5226 277.56 90.5226H278.648C278.798 90.5226 278.865 90.5895 278.865 90.7233V90.8739C278.865 91.3757 278.748 91.7436 278.514 91.9778C278.28 92.1952 277.895 92.3123 277.36 92.3123H274.583L274.6 92.2956ZM274.583 88.9336H277.326V88.3147C277.326 88.1642 277.293 88.0638 277.209 88.0137C277.126 87.9635 277.025 87.93 276.875 87.93H275.353C275.185 87.93 275.051 87.9301 274.951 87.9635C274.851 87.9803 274.767 88.0137 274.717 88.0639C274.667 88.1141 274.617 88.181 274.6 88.2646C274.583 88.3482 274.566 88.4652 274.566 88.599V88.9503L274.583 88.9336Z" fill="white"/>
<path d="M286.324 87.9297C285.839 87.9297 285.504 88.0468 285.287 88.281C285.069 88.5152 284.969 88.8329 284.969 89.2343V92.0945C284.969 92.2283 284.902 92.2952 284.751 92.2952H283.614C283.463 92.2952 283.396 92.2283 283.396 92.0945V86.8592C283.396 86.7254 283.48 86.6585 283.614 86.6585H284.567C284.718 86.6585 284.785 86.7254 284.785 86.8592V87.7122C284.885 87.361 285.052 87.0933 285.32 86.9261C285.588 86.7588 285.956 86.6585 286.424 86.6585H286.809C286.959 86.6585 287.026 86.7254 287.026 86.8592V87.729C287.026 87.8628 286.959 87.9297 286.809 87.9297H286.324Z" fill="white"/>
<path d="M292.588 92.2956C292.036 92.2956 291.618 92.1786 291.367 91.9277C291.116 91.6768 290.982 91.292 290.982 90.7568V88.1809C290.982 87.6456 291.116 87.261 291.367 87.0101C291.618 86.7592 292.019 86.6421 292.588 86.6421H293.91C294.746 86.6421 295.264 86.9599 295.465 87.6122V86.8428C295.465 86.709 295.532 86.6421 295.683 86.6421H296.653C296.803 86.6421 296.87 86.709 296.87 86.8428V92.764C296.87 93.9014 296.285 94.47 295.097 94.47H292.605C292.07 94.47 291.702 94.353 291.467 94.1355C291.233 93.9181 291.116 93.5501 291.116 93.0483V92.9479C291.116 92.7974 291.183 92.7305 291.334 92.7305H292.421C292.571 92.7305 292.638 92.7974 292.638 92.9479V92.9981C292.638 93.1988 292.755 93.2992 292.99 93.2992H294.495C294.813 93.2992 295.03 93.249 295.131 93.1487C295.231 93.0483 295.281 92.8643 295.281 92.5967V91.5764C295.03 92.0447 294.545 92.2788 293.826 92.2788H292.588V92.2956ZM293.341 87.93C293.174 87.93 293.04 87.9301 292.939 87.9635C292.839 87.9803 292.755 88.0137 292.705 88.0639C292.655 88.1141 292.605 88.181 292.588 88.2646C292.571 88.3482 292.555 88.4652 292.555 88.599V90.3554C292.555 90.5059 292.555 90.6062 292.588 90.7066C292.622 90.8069 292.638 90.8571 292.705 90.9073C292.772 90.9575 292.839 90.9909 292.939 91.0076C293.04 91.0244 293.174 91.0411 293.341 91.0411H294.294C294.645 91.0411 294.896 90.9742 295.047 90.8237C295.197 90.6731 295.264 90.4558 295.264 90.1547V88.8332C295.264 88.5322 295.197 88.3148 295.047 88.1642C294.896 88.0137 294.645 87.9468 294.294 87.9468H293.341V87.93Z" fill="white"/>
<path d="M301.529 84.7016C301.529 84.5678 301.596 84.5009 301.747 84.5009H302.884C303.035 84.5009 303.102 84.5678 303.102 84.7016V85.588C303.102 85.7218 303.035 85.7887 302.884 85.7887H301.747C301.596 85.7887 301.529 85.7218 301.529 85.588V84.7016ZM301.529 86.8592C301.529 86.7254 301.596 86.6585 301.747 86.6585H302.884C303.035 86.6585 303.102 86.7254 303.102 86.8592V92.0946C303.102 92.2284 303.035 92.2953 302.884 92.2953H301.747C301.596 92.2953 301.529 92.2284 301.529 92.0946V86.8592Z" fill="white"/>
<path d="M309.242 92.2956C308.69 92.2956 308.272 92.1786 308.021 91.9277C307.771 91.6768 307.637 91.292 307.637 90.7568V88.1809C307.637 87.6456 307.771 87.261 308.021 87.0101C308.272 86.7592 308.674 86.6421 309.242 86.6421H312.002C312.538 86.6421 312.922 86.7592 313.156 86.9934C313.391 87.2275 313.508 87.5787 313.508 88.0805V89.7532C313.508 89.887 313.424 89.954 313.29 89.954H309.209V90.3554C309.209 90.5059 309.209 90.6062 309.242 90.7066C309.259 90.7902 309.293 90.8571 309.36 90.9073C309.41 90.9575 309.493 90.9909 309.594 91.0076C309.694 91.0244 309.828 91.0411 309.995 91.0411H311.601C311.735 91.0411 311.818 91.0244 311.885 90.9742C311.952 90.9241 311.986 90.8404 311.986 90.7233C311.986 90.5895 312.052 90.5226 312.203 90.5226H313.29C313.441 90.5226 313.508 90.5895 313.508 90.7233V90.8739C313.508 91.3757 313.391 91.7436 313.156 91.9778C312.922 92.1952 312.538 92.3123 312.002 92.3123H309.226L309.242 92.2956ZM309.226 88.9336H311.969V88.3147C311.969 88.1642 311.935 88.0638 311.852 88.0137C311.785 87.9635 311.668 87.93 311.517 87.93H309.995C309.828 87.93 309.694 87.9301 309.594 87.9635C309.493 87.997 309.41 88.0137 309.36 88.0639C309.309 88.1141 309.259 88.181 309.242 88.2646C309.226 88.3482 309.209 88.4652 309.209 88.599V88.9503L309.226 88.9336Z" fill="white"/>
<path d="M319.379 88.5652C319.379 88.8161 319.529 88.9331 319.814 88.9331H322.122C322.39 88.9331 322.607 88.9499 322.808 89.0001C323.008 89.0503 323.159 89.1171 323.276 89.2342C323.393 89.3513 323.477 89.4851 323.544 89.6691C323.594 89.8531 323.627 90.0873 323.627 90.3549V90.8567C323.627 91.3752 323.51 91.7431 323.293 91.9606C323.059 92.178 322.674 92.2784 322.139 92.2784H319.195C318.66 92.2784 318.275 92.1613 318.041 91.9438C317.807 91.7264 317.689 91.3585 317.689 90.8399V90.6727C317.689 90.5222 317.756 90.4553 317.907 90.4553H319.011C319.161 90.4553 319.228 90.5222 319.228 90.6727C319.228 90.7898 319.262 90.8734 319.312 90.9236C319.379 90.9737 319.462 90.9905 319.613 90.9905H321.587C321.737 90.9905 321.854 90.957 321.921 90.9068C321.988 90.8566 322.038 90.7563 322.038 90.6057V90.3549C322.038 90.0706 321.888 89.9368 321.587 89.9368H319.278C319.011 89.9368 318.793 89.92 318.609 89.8698C318.425 89.8196 318.275 89.7528 318.158 89.6357C318.041 89.5186 317.957 89.3848 317.89 89.2008C317.84 89.0168 317.807 88.7826 317.807 88.515V88.0467C317.807 87.5282 317.924 87.1601 318.158 86.9427C318.392 86.7252 318.76 86.6249 319.295 86.6249H321.988C322.523 86.6249 322.891 86.742 323.126 86.9594C323.36 87.1769 323.477 87.5449 323.477 88.0634V88.2306C323.477 88.3812 323.41 88.4481 323.259 88.4481H322.172C322.022 88.4481 321.955 88.3812 321.955 88.2306C321.955 88.1136 321.921 88.0299 321.871 87.9797C321.804 87.9295 321.721 87.9128 321.587 87.9128H319.847C319.697 87.9128 319.58 87.9463 319.513 87.9964C319.446 88.0466 319.412 88.147 319.412 88.2975V88.5484L319.379 88.5652Z" fill="white"/>
<path d="M569 118C593.301 118 613 98.3006 613 74C613 49.6995 593.301 30 569 30C544.699 30 525 49.6995 525 74C525 98.3006 544.699 118 569 118Z" fill="url(#paint4_linear_550_29)"/>
<path d="M595.783 85.484H542.855V87.6408H595.783V85.484ZM581.281 74.161H586.519L584.664 71.9616H580.082L581.281 74.161ZM575.386 74.161H579.996L578.811 71.9616H574.972L575.386 74.161ZM569.89 74.161H574.229L573.816 71.9616H569.904V74.161H569.89ZM564.423 74.161H568.748V71.9616H564.837L564.423 74.161ZM558.657 74.161H563.253L563.667 71.9616H559.827L558.657 74.161ZM552.119 74.161H557.372L558.557 71.9616H553.989L552.119 74.161ZM562.197 79.7374H555.645L553.161 84.3631H561.326L562.197 79.7374ZM568.748 79.7374H563.367L562.482 84.3631H568.748V79.7374ZM575.286 79.7374H569.89V84.3631H576.156L575.286 79.7374ZM582.994 79.7374H576.442L577.327 84.3631H585.492L582.994 79.7374ZM591.201 79.709C591.144 79.7232 591.087 79.7374 591.03 79.7374H584.278L586.762 84.3631H595.126L591.201 79.709ZM583.664 78.6022H590.273L587.476 75.2961H581.88L583.664 78.6022ZM576.228 78.6022H582.38L580.596 75.2961H575.6L576.228 78.6022ZM569.89 78.6022H575.072L574.444 75.2961H569.89V78.6022ZM563.581 78.6022H568.748V75.2961H564.209L563.581 78.6022ZM556.273 78.6022H562.425L563.053 75.2961H558.057L556.273 78.6022ZM548.365 78.6022H554.974L556.758 75.2961H551.163L548.365 78.6022ZM547.609 79.7374C547.552 79.7374 547.48 79.7232 547.437 79.709L543.498 84.3631H551.862L554.36 79.7374H547.609ZM566.893 96.9774H571.732V88.7901H566.893V96.9774ZM560.055 102.696H578.597C580.61 102.696 581.68 100.241 580.224 98.7936C579.811 98.3821 579.225 98.1125 578.597 98.1125H560.055C558.029 98.1125 556.958 100.567 558.428 102.015C558.842 102.426 559.413 102.696 560.055 102.696ZM573.444 53.6433C571.161 51.373 567.464 51.373 565.194 53.6433C562.91 55.9135 562.91 59.5886 565.194 61.8589C567.478 64.1291 571.175 64.1291 573.444 61.8589C575.728 59.5886 575.728 55.9135 573.444 53.6433ZM574.486 47.7263C574.858 47.0878 575.842 47.6554 575.471 48.2939L574.444 50.0817C574.072 50.7203 573.073 50.1527 573.459 49.5142L574.486 47.7263ZM578.84 51.6284C579.482 51.2595 580.053 52.2385 579.411 52.6074L577.612 53.6433C576.97 54.0122 576.399 53.0331 577.041 52.6642L578.84 51.6284ZM580.638 57.1764C581.395 57.1764 581.395 58.3115 580.638 58.3115H578.569C577.812 58.3115 577.812 57.1764 578.569 57.1764H580.638ZM558 58.3115C557.258 58.3115 557.258 57.1764 558 57.1764H560.07C560.812 57.1764 560.812 58.3115 560.07 58.3115H558ZM559.228 52.6074C558.585 52.2385 559.156 51.2595 559.799 51.6284L561.583 52.6642C562.239 53.0331 561.668 54.0264 561.012 53.6433L559.228 52.6074ZM563.167 48.2939C562.796 47.6554 563.781 47.0878 564.152 47.7263L565.18 49.5142C565.551 50.1527 564.566 50.7203 564.195 50.0817L563.167 48.2939ZM579.411 62.8805C580.053 63.2494 579.482 64.2427 578.84 63.8595L577.041 62.8237C576.399 62.4548 576.97 61.4757 577.612 61.8447L579.411 62.8805ZM575.471 67.2082C575.842 67.8609 574.858 68.4285 574.486 67.7758L573.444 66.0021C573.073 65.3494 574.058 64.7818 574.429 65.4346L575.471 67.2082ZM569.89 68.9961C569.89 69.7339 568.748 69.7339 568.748 68.9961V66.9386C568.748 66.2008 569.89 66.2008 569.89 66.9386V68.9961ZM564.152 67.7758C563.781 68.4285 562.782 67.8609 563.167 67.2082L564.209 65.4346C564.58 64.7818 565.565 65.3494 565.194 66.0021L564.152 67.7758ZM559.813 63.8595C559.156 64.2285 558.585 63.2494 559.242 62.8805L561.04 61.8589C561.697 61.4899 562.268 62.469 561.611 62.8379L559.813 63.8595ZM568.748 46.506C568.748 45.754 569.89 45.754 569.89 46.506V48.5635C569.89 49.3155 568.748 49.3155 568.748 48.5635V46.506Z" fill="white"/>
<path d="M798 118C822.301 118 842 98.3006 842 74C842 49.6995 822.301 30 798 30C773.699 30 754 49.6995 754 74C754 98.3006 773.699 118 798 118Z" fill="url(#paint5_linear_550_29)"/>
<path d="M807.376 55.1215L801.762 67.6113C801.613 67.9467 801.642 68.3356 801.842 68.6452C802.042 68.9529 802.384 69.1391 802.752 69.1391H810.307C810.739 69.1391 811.13 69.3953 811.301 69.7896C811.474 70.1859 811.395 70.6448 811.102 70.9618L789.613 94.0612C789.279 94.4187 788.747 94.509 788.313 94.2805C787.88 94.0519 787.653 93.5617 787.762 93.0844L791.462 76.6953C791.534 76.3746 791.457 76.0374 791.252 75.7793C791.046 75.5232 790.734 75.372 790.406 75.372H785.694C785.343 75.372 785.013 75.2043 784.81 74.9187C784.608 74.633 784.554 74.2681 784.669 73.9364L791.435 54.324C791.584 53.8872 791.997 53.5942 792.458 53.5942H806.388C806.757 53.5942 807.098 53.7803 807.299 54.0881C807.498 54.3977 807.528 54.7866 807.376 55.122L807.376 55.1215Z" fill="white"/>
<path d="M1027 121C1051.3 121 1071 101.3 1071 77C1071 52.6994 1051.3 33 1027 33C1002.7 33 983 52.6994 983 77C983 101.3 1002.7 121 1027 121Z" fill="url(#paint6_linear_550_29)"/>
<path d="M1005.25 80.1044C1006 80.1753 1006.7 79.7005 1006.92 78.9723C1007.35 77.3075 1008.08 75.7328 1009.08 74.3301C1008.55 72.8865 1007.9 71.4902 1007.14 70.1583C1006.79 69.5633 1006.81 68.8286 1007.16 68.2443C1007.52 67.6578 1008.17 67.3163 1008.86 67.3549C1010.79 67.4881 1012.61 68.2744 1014.03 69.5847C1015.06 68.9123 1016.16 68.341 1017.3 67.8791C1019.44 79.7175 1035.18 82.8499 1041.77 73.4169C1043.5 75.5264 1044.57 78.0892 1044.86 80.7959C1045.54 80.9055 1046.22 80.7186 1046.74 80.2847C1047.27 79.8529 1047.58 79.2149 1047.6 78.5339C1047.6 77.608 1048.35 76.8561 1049.27 76.8476C1050.2 76.8368 1050.96 77.5758 1050.98 78.4995C1050.96 80.087 1050.29 81.595 1049.12 82.6713C1047.95 83.7475 1046.4 84.2974 1044.81 84.1922C1044.08 89.365 1040.83 93.8397 1036.13 96.1296L1035.68 100.942V100.944C1035.62 101.425 1035.22 101.788 1034.73 101.788H1030.19C1029.02 101.805 1029.24 100.235 1029.11 99.4743C1028.81 97.9212 1026.85 98.8664 1025.75 98.6817V98.6795C1024.01 98.6817 1022.29 98.4883 1020.6 98.1059C1018.28 97.7515 1020.16 101.788 1018.23 101.788H1013.67C1013.19 101.781 1012.8 101.418 1012.75 100.944L1012.07 93.9017H1012.07C1010.66 92.7331 1009.46 91.3347 1008.52 89.7644C1008.21 89.1929 1007.6 88.8385 1006.95 88.8342H1005.23C1004.23 88.8342 1003.42 88.0287 1003.41 87.0276V81.9278C1003.41 81.4423 1003.6 80.9761 1003.95 80.6346C1004.29 80.293 1004.76 80.1022 1005.25 80.1044ZM1012.83 79.8165C1013.74 79.7864 1014.46 79.041 1014.46 78.1281C1014.46 77.2173 1013.74 76.4697 1012.83 76.4396C1011.92 76.4697 1011.19 77.2173 1011.19 78.1281C1011.19 79.0411 1011.92 79.7864 1012.83 79.8165Z" fill="white"/>
<path fill-rule="evenodd" clip-rule="evenodd" d="M1031.46 74.4493C1037.45 74.4493 1042.3 69.5956 1042.3 63.6087C1042.3 57.6218 1037.45 52.7681 1031.46 52.7681C1025.48 52.7681 1020.62 57.6218 1020.62 63.6087C1020.62 69.5956 1025.48 74.4493 1031.46 74.4493ZM1032.55 58.4267V57.1046H1030.38V58.4267C1028.83 58.7306 1027.81 59.7306 1027.81 61.4348C1027.81 63.4266 1028.84 64.0445 1031.28 64.5344L1031.69 64.6208C1032.96 64.9002 1033.23 65.1218 1033.23 65.7763C1033.23 66.6279 1032.68 66.9998 1031.46 66.9998C1030.25 66.9998 1029.7 66.6248 1029.7 65.7763H1027.81L1027.81 65.9876C1027.9 67.5669 1028.89 68.4988 1030.38 68.7904V70.1126H1032.55V68.7904C1034.1 68.4875 1035.12 67.4875 1035.12 65.7761C1035.12 63.7873 1034.09 63.1703 1031.65 62.6815L1031.24 62.5951C1029.97 62.3156 1029.7 62.092 1029.7 61.4345C1029.7 60.591 1030.25 60.217 1031.46 60.217C1032.68 60.217 1033.23 60.59 1033.23 61.4345H1035.12L1035.11 61.2241C1035.03 59.6459 1034.03 58.717 1032.55 58.4263L1032.55 58.4267Z" fill="white"/>
<path d="M49 118C73.3005 118 93 98.3006 93 74C93 49.6995 73.3005 30 49 30C24.6995 30 5 49.6995 5 74C5 98.3006 24.6995 118 49 118Z" fill="url(#paint7_linear_550_29)"/>
<path d="M42.051 75.1451C40.3929 75.1451 37.5023 76.4065 35.5756 77.3933C35.9078 78.0017 36.1139 78.6885 36.1139 79.4275V90.9642C37.2038 90.7744 38.3094 90.6 39.5404 90.553C40.5984 90.553 42.576 92.0523 43.8613 92.96C45.6928 94.2528 47.6656 95.6829 49.8051 95.6829C50.4492 95.6829 51.0961 95.471 51.948 95.153C56.63 93.4027 66.5056 87.8158 72.2584 84.4504C73.7141 83.6453 74.1923 81.7812 73.37 80.3569C72.5809 78.9902 70.9792 78.6574 69.4219 79.1885L58.6758 82.9092C58.7528 83.6084 58.6276 84.3332 58.2512 84.9853C57.3104 86.6148 55.2056 87.1781 53.576 86.2372L48.3827 83.2419C47.3091 82.6939 48.2346 81.1023 49.2418 81.7643L54.4285 84.7579C55.2625 85.2395 56.2854 84.9669 56.7669 84.1328C57.2485 83.2988 56.9743 82.2775 56.1401 81.796C52.321 79.591 45.5476 75.1451 42.051 75.1451ZM26.7033 76.8568C25.2627 76.8568 24.1309 78.0216 24.1309 79.4292V91.4055C24.1309 92.8074 25.2635 93.967 26.6866 93.9763H31.8382C33.4009 93.9763 34.4022 92.6486 34.4022 91.4038V79.4275C34.4022 77.9893 33.2389 76.8568 31.8398 76.8568H26.7033ZM28.4132 88.8397C28.8859 88.8397 29.2691 89.2229 29.2691 89.6955C29.2691 90.1682 28.8859 90.5514 28.4132 90.5514C27.9406 90.5514 27.5574 90.1682 27.5574 89.6955C27.5574 89.2229 27.9406 88.8397 28.4132 88.8397Z" fill="white"/>
<path fill-rule="evenodd" clip-rule="evenodd" d="M61.5549 75.2754C68.0701 75.2754 73.352 69.9934 73.352 63.4783C73.352 56.9631 68.0701 51.6812 61.5549 51.6812C55.0397 51.6812 49.7578 56.9631 49.7578 63.4783C49.7578 69.9934 55.0397 75.2754 61.5549 75.2754ZM62.735 57.839V56.4002H60.3749V57.839C58.6894 58.1697 57.5769 59.258 57.5769 61.1125C57.5769 63.2801 58.6961 63.9525 61.3548 64.4856L61.8016 64.5796C63.1807 64.8837 63.476 65.1248 63.476 65.8371C63.476 66.7638 62.8821 67.1686 61.555 67.1686C60.2312 67.1686 59.634 66.7605 59.634 65.8371H57.5769L57.5836 66.0671C57.672 67.7857 58.7592 68.7999 60.375 69.1172V70.556H62.735V69.1172C64.4227 68.7876 65.5331 67.6993 65.5331 65.8369C65.5331 63.6726 64.4161 63.0012 61.7574 62.4692L61.3095 62.3752C59.9303 62.0711 59.6339 61.8277 59.6339 61.1122C59.6339 60.1943 60.2334 59.7873 61.555 59.7873C62.8777 59.7873 63.476 60.1932 63.476 61.1122H65.5331L65.5264 60.8833C65.438 59.1658 64.3497 58.1549 62.735 57.8386L62.735 57.839Z" fill="white"/>
<path d="M157.37 63L169 75.7268L157 87" stroke="#4CBC94" stroke-width="4" stroke-miterlimit="10"/>
<path d="M449.37 63L461 75.7268L449 87" stroke="#4CBC94" stroke-width="4" stroke-miterlimit="10"/>
<path d="M676.37 63L688 75.7268L676 87" stroke="#4CBC94" stroke-width="4" stroke-miterlimit="10"/>
<path d="M902.37 63L914 75.7268L902 87" stroke="#4CBC94" stroke-width="4" stroke-miterlimit="10"/>
<defs>
<linearGradient id="paint0_linear_550_29" x1="-nan" y1="-nan" x2="-nan" y2="-nan" gradientUnits="userSpaceOnUse">
<stop stop-color="#5179BC"/>
<stop offset="1" stop-color="#4DBD95"/>
</linearGradient>
<linearGradient id="paint1_linear_550_29" x1="-nan" y1="-nan" x2="-nan" y2="-nan" gradientUnits="userSpaceOnUse">
<stop stop-color="#5179BC"/>
<stop offset="1" stop-color="#4DBD95"/>
</linearGradient>
<linearGradient id="paint2_linear_550_29" x1="-nan" y1="-nan" x2="-nan" y2="-nan" gradientUnits="userSpaceOnUse">
<stop stop-color="#5179BC"/>
<stop offset="1" stop-color="#4DBD95"/>
</linearGradient>
<linearGradient id="paint3_linear_550_29" x1="234" y1="75" x2="384" y2="75" gradientUnits="userSpaceOnUse">
<stop stop-color="#5179BC"/>
<stop offset="1" stop-color="#4DBD95"/>
</linearGradient>
<linearGradient id="paint4_linear_550_29" x1="525" y1="74" x2="612.986" y2="74" gradientUnits="userSpaceOnUse">
<stop stop-color="#5179BC"/>
<stop offset="1" stop-color="#4DBD95"/>
</linearGradient>
<linearGradient id="paint5_linear_550_29" x1="754" y1="74" x2="842" y2="74" gradientUnits="userSpaceOnUse">
<stop stop-color="#5179BC"/>
<stop offset="1" stop-color="#4DBD95"/>
</linearGradient>
<linearGradient id="paint6_linear_550_29" x1="983.014" y1="77" x2="1071" y2="77" gradientUnits="userSpaceOnUse">
<stop stop-color="#5179BC"/>
<stop offset="1" stop-color="#4DBD95"/>
</linearGradient>
<linearGradient id="paint7_linear_550_29" x1="5.01363" y1="74" x2="93" y2="74" gradientUnits="userSpaceOnUse">
<stop stop-color="#5179BC"/>
<stop offset="1" stop-color="#4DBD95"/>
</linearGradient>
</defs>
</svg>
