<svg width="1083" height="415" viewBox="0 0 1083 415" fill="none" xmlns="http://www.w3.org/2000/svg">
<path d="M34.926 48.81V51.26H38.216V52.814H34.926V55.404H38.636V57H32.966V47.214H38.636V48.81H34.926ZM51.0712 47.228V57H49.1112V50.644L46.4932 57H45.0092L42.3772 50.644V57H40.4172V47.228H42.6432L45.7512 54.494L48.8592 47.228H51.0712ZM54.969 47.228V57H53.009V47.228H54.969Z" fill="#231F20"/>
<path d="M22.34 408.098C21.6587 408.098 21.0427 407.981 20.492 407.748C19.9507 407.515 19.5213 407.179 19.204 406.74C18.8867 406.301 18.7233 405.783 18.714 405.186H20.814C20.842 405.587 20.982 405.905 21.234 406.138C21.4953 406.371 21.85 406.488 22.298 406.488C22.7553 406.488 23.1147 406.381 23.376 406.166C23.6373 405.942 23.768 405.653 23.768 405.298C23.768 405.009 23.6793 404.771 23.502 404.584C23.3247 404.397 23.1007 404.253 22.83 404.15C22.5687 404.038 22.2047 403.917 21.738 403.786C21.1033 403.599 20.5853 403.417 20.184 403.24C19.792 403.053 19.4513 402.778 19.162 402.414C18.882 402.041 18.742 401.546 18.742 400.93C18.742 400.351 18.8867 399.847 19.176 399.418C19.4653 398.989 19.8713 398.662 20.394 398.438C20.9167 398.205 21.514 398.088 22.186 398.088C23.194 398.088 24.0107 398.335 24.636 398.83C25.2707 399.315 25.6207 399.997 25.686 400.874H23.53C23.5113 400.538 23.3667 400.263 23.096 400.048C22.8347 399.824 22.4847 399.712 22.046 399.712C21.6633 399.712 21.3553 399.81 21.122 400.006C20.898 400.202 20.786 400.487 20.786 400.86C20.786 401.121 20.87 401.341 21.038 401.518C21.2153 401.686 21.43 401.826 21.682 401.938C21.9433 402.041 22.3073 402.162 22.774 402.302C23.4087 402.489 23.9267 402.675 24.328 402.862C24.7293 403.049 25.0747 403.329 25.364 403.702C25.6533 404.075 25.798 404.565 25.798 405.172C25.798 405.695 25.6627 406.18 25.392 406.628C25.1213 407.076 24.7247 407.435 24.202 407.706C23.6793 407.967 23.0587 408.098 22.34 408.098ZM26.9932 404.094C26.9932 403.31 27.1472 402.615 27.4552 402.008C27.7726 401.401 28.1973 400.935 28.7293 400.608C29.2706 400.281 29.8726 400.118 30.5353 400.118C31.1139 400.118 31.6179 400.235 32.0473 400.468C32.4859 400.701 32.8359 400.995 33.0973 401.35V400.244H35.0713V408H33.0973V406.866C32.8453 407.23 32.4953 407.533 32.0473 407.776C31.6086 408.009 31.0999 408.126 30.5213 408.126C29.8679 408.126 29.2706 407.958 28.7293 407.622C28.1973 407.286 27.7726 406.815 27.4552 406.208C27.1472 405.592 26.9932 404.887 26.9932 404.094ZM33.0973 404.122C33.0973 403.646 33.0039 403.24 32.8173 402.904C32.6306 402.559 32.3786 402.297 32.0613 402.12C31.7439 401.933 31.4033 401.84 31.0393 401.84C30.6753 401.84 30.3393 401.929 30.0312 402.106C29.7233 402.283 29.4713 402.545 29.2753 402.89C29.0886 403.226 28.9953 403.627 28.9953 404.094C28.9953 404.561 29.0886 404.971 29.2753 405.326C29.4713 405.671 29.7233 405.937 30.0312 406.124C30.3486 406.311 30.6846 406.404 31.0393 406.404C31.4033 406.404 31.7439 406.315 32.0613 406.138C32.3786 405.951 32.6306 405.69 32.8173 405.354C33.0039 405.009 33.0973 404.598 33.0973 404.122ZM40.2195 406.194L42.1795 400.244H44.2655L41.3955 408H39.0155L36.1595 400.244H38.2595L40.2195 406.194ZM46.3604 399.32C46.0151 399.32 45.7257 399.213 45.4924 398.998C45.2684 398.774 45.1564 398.499 45.1564 398.172C45.1564 397.845 45.2684 397.575 45.4924 397.36C45.7257 397.136 46.0151 397.024 46.3604 397.024C46.7057 397.024 46.9904 397.136 47.2144 397.36C47.4477 397.575 47.5644 397.845 47.5644 398.172C47.5644 398.499 47.4477 398.774 47.2144 398.998C46.9904 399.213 46.7057 399.32 46.3604 399.32ZM47.3264 400.244V408H45.3664V400.244H47.3264ZM53.5609 400.132C54.4849 400.132 55.2315 400.426 55.8009 401.014C56.3702 401.593 56.6549 402.405 56.6549 403.45V408H54.6949V403.716C54.6949 403.1 54.5409 402.629 54.2329 402.302C53.9249 401.966 53.5049 401.798 52.9729 401.798C52.4315 401.798 52.0022 401.966 51.6849 402.302C51.3769 402.629 51.2229 403.1 51.2229 403.716V408H49.2629V400.244H51.2229V401.21C51.4842 400.874 51.8155 400.613 52.2169 400.426C52.6275 400.23 53.0755 400.132 53.5609 400.132ZM61.5567 400.118C62.1354 400.118 62.6441 400.235 63.0827 400.468C63.5214 400.692 63.8667 400.986 64.1187 401.35V400.244H66.0927V408.056C66.0927 408.775 65.9481 409.414 65.6587 409.974C65.3694 410.543 64.9354 410.991 64.3567 411.318C63.7781 411.654 63.0781 411.822 62.2567 411.822C61.1554 411.822 60.2501 411.565 59.5407 411.052C58.8407 410.539 58.4441 409.839 58.3507 408.952H60.2967C60.3994 409.307 60.6187 409.587 60.9547 409.792C61.3001 410.007 61.7154 410.114 62.2007 410.114C62.7701 410.114 63.2321 409.941 63.5867 409.596C63.9414 409.26 64.1187 408.747 64.1187 408.056V406.852C63.8667 407.216 63.5167 407.519 63.0687 407.762C62.6301 408.005 62.1261 408.126 61.5567 408.126C60.9034 408.126 60.3061 407.958 59.7647 407.622C59.2234 407.286 58.7941 406.815 58.4767 406.208C58.1687 405.592 58.0147 404.887 58.0147 404.094C58.0147 403.31 58.1687 402.615 58.4767 402.008C58.7941 401.401 59.2187 400.935 59.7507 400.608C60.2921 400.281 60.8941 400.118 61.5567 400.118ZM64.1187 404.122C64.1187 403.646 64.0254 403.24 63.8387 402.904C63.6521 402.559 63.4001 402.297 63.0827 402.12C62.7654 401.933 62.4247 401.84 62.0607 401.84C61.6967 401.84 61.3607 401.929 61.0527 402.106C60.7447 402.283 60.4927 402.545 60.2967 402.89C60.1101 403.226 60.0167 403.627 60.0167 404.094C60.0167 404.561 60.1101 404.971 60.2967 405.326C60.4927 405.671 60.7447 405.937 61.0527 406.124C61.3701 406.311 61.7061 406.404 62.0607 406.404C62.4247 406.404 62.7654 406.315 63.0827 406.138C63.4001 405.951 63.6521 405.69 63.8387 405.354C64.0254 405.009 64.1187 404.598 64.1187 404.122Z" fill="#231F20"/>
<path d="M303.926 47.228V57H301.966V47.228H303.926ZM310.16 49.132C311.084 49.132 311.831 49.426 312.4 50.014C312.97 50.5927 313.254 51.4047 313.254 52.45V57H311.294V52.716C311.294 52.1 311.14 51.6287 310.832 51.302C310.524 50.966 310.104 50.798 309.572 50.798C309.031 50.798 308.602 50.966 308.284 51.302C307.976 51.6287 307.822 52.1 307.822 52.716V57H305.862V49.244H307.822V50.21C308.084 49.874 308.415 49.6127 308.816 49.426C309.227 49.23 309.675 49.132 310.16 49.132ZM318.352 55.194L320.312 49.244H322.398L319.528 57H317.148L314.292 49.244H316.392L318.352 55.194ZM330.709 52.954C330.709 53.234 330.691 53.486 330.653 53.71H324.983C325.03 54.27 325.226 54.7087 325.571 55.026C325.917 55.3433 326.341 55.502 326.845 55.502C327.573 55.502 328.091 55.1893 328.399 54.564H330.513C330.289 55.3107 329.86 55.9267 329.225 56.412C328.591 56.888 327.811 57.126 326.887 57.126C326.141 57.126 325.469 56.9627 324.871 56.636C324.283 56.3 323.821 55.8287 323.485 55.222C323.159 54.6153 322.995 53.9153 322.995 53.122C322.995 52.3193 323.159 51.6147 323.485 51.008C323.812 50.4013 324.269 49.9347 324.857 49.608C325.445 49.2813 326.122 49.118 326.887 49.118C327.625 49.118 328.283 49.2767 328.861 49.594C329.449 49.9113 329.902 50.364 330.219 50.952C330.546 51.5307 330.709 52.198 330.709 52.954ZM328.679 52.394C328.67 51.89 328.488 51.4887 328.133 51.19C327.779 50.882 327.345 50.728 326.831 50.728C326.346 50.728 325.935 50.8773 325.599 51.176C325.273 51.4653 325.072 51.8713 324.997 52.394H328.679ZM335.108 57.126C334.473 57.126 333.904 57.014 333.4 56.79C332.896 56.5567 332.494 56.244 332.196 55.852C331.906 55.46 331.748 55.026 331.72 54.55H333.694C333.731 54.8487 333.876 55.096 334.128 55.292C334.389 55.488 334.711 55.586 335.094 55.586C335.467 55.586 335.756 55.5113 335.962 55.362C336.176 55.2127 336.284 55.0213 336.284 54.788C336.284 54.536 336.153 54.3493 335.892 54.228C335.64 54.0973 335.234 53.9573 334.674 53.808C334.095 53.668 333.619 53.5233 333.246 53.374C332.882 53.2247 332.564 52.996 332.294 52.688C332.032 52.38 331.902 51.9647 331.902 51.442C331.902 51.0127 332.023 50.6207 332.266 50.266C332.518 49.9113 332.872 49.6313 333.33 49.426C333.796 49.2207 334.342 49.118 334.968 49.118C335.892 49.118 336.629 49.3513 337.18 49.818C337.73 50.2753 338.034 50.896 338.09 51.68H336.214C336.186 51.372 336.055 51.1293 335.822 50.952C335.598 50.7653 335.294 50.672 334.912 50.672C334.557 50.672 334.282 50.7373 334.086 50.868C333.899 50.9987 333.806 51.1807 333.806 51.414C333.806 51.6753 333.936 51.876 334.198 52.016C334.459 52.1467 334.865 52.282 335.416 52.422C335.976 52.562 336.438 52.7067 336.802 52.856C337.166 53.0053 337.478 53.2387 337.74 53.556C338.01 53.864 338.15 54.2747 338.16 54.788C338.16 55.236 338.034 55.6373 337.782 55.992C337.539 56.3467 337.184 56.6267 336.718 56.832C336.26 57.028 335.724 57.126 335.108 57.126ZM342.051 50.854V54.606C342.051 54.8673 342.111 55.0587 342.233 55.18C342.363 55.292 342.578 55.348 342.877 55.348H343.787V57H342.555C340.903 57 340.077 56.1973 340.077 54.592V50.854H339.153V49.244H340.077V47.326H342.051V49.244H343.787V50.854H342.051ZM348.64 57.126C347.894 57.126 347.222 56.9627 346.624 56.636C346.027 56.3 345.556 55.8287 345.21 55.222C344.874 54.6153 344.706 53.9153 344.706 53.122C344.706 52.3287 344.879 51.6287 345.224 51.022C345.579 50.4153 346.06 49.9487 346.666 49.622C347.273 49.286 347.95 49.118 348.696 49.118C349.443 49.118 350.12 49.286 350.726 49.622C351.333 49.9487 351.809 50.4153 352.154 51.022C352.509 51.6287 352.686 52.3287 352.686 53.122C352.686 53.9153 352.504 54.6153 352.14 55.222C351.786 55.8287 351.3 56.3 350.684 56.636C350.078 56.9627 349.396 57.126 348.64 57.126ZM348.64 55.418C348.995 55.418 349.326 55.334 349.634 55.166C349.952 54.9887 350.204 54.7273 350.39 54.382C350.577 54.0367 350.67 53.6167 350.67 53.122C350.67 52.3847 350.474 51.82 350.082 51.428C349.7 51.0267 349.228 50.826 348.668 50.826C348.108 50.826 347.637 51.0267 347.254 51.428C346.881 51.82 346.694 52.3847 346.694 53.122C346.694 53.8593 346.876 54.4287 347.24 54.83C347.614 55.222 348.08 55.418 348.64 55.418ZM356.084 50.448C356.336 50.0373 356.663 49.7153 357.064 49.482C357.475 49.2487 357.942 49.132 358.464 49.132V51.19H357.946C357.33 51.19 356.864 51.3347 356.546 51.624C356.238 51.9133 356.084 52.4173 356.084 53.136V57H354.124V49.244H356.084V50.448ZM365.034 43.742L361.254 59.534H359.336L363.116 43.742H365.034ZM372.137 51.988C372.688 52.0907 373.14 52.366 373.495 52.814C373.85 53.262 374.027 53.7753 374.027 54.354C374.027 54.8767 373.896 55.3387 373.635 55.74C373.383 56.132 373.014 56.44 372.529 56.664C372.044 56.888 371.47 57 370.807 57H366.593V47.228H370.625C371.288 47.228 371.857 47.3353 372.333 47.55C372.818 47.7647 373.182 48.0633 373.425 48.446C373.677 48.8287 373.803 49.2627 373.803 49.748C373.803 50.3173 373.649 50.7933 373.341 51.176C373.042 51.5587 372.641 51.8293 372.137 51.988ZM368.553 51.26H370.345C370.812 51.26 371.171 51.1573 371.423 50.952C371.675 50.7373 371.801 50.434 371.801 50.042C371.801 49.65 371.675 49.3467 371.423 49.132C371.171 48.9173 370.812 48.81 370.345 48.81H368.553V51.26ZM370.527 55.404C371.003 55.404 371.372 55.292 371.633 55.068C371.904 54.844 372.039 54.5267 372.039 54.116C372.039 53.696 371.899 53.3693 371.619 53.136C371.339 52.8933 370.961 52.772 370.485 52.772H368.553V55.404H370.527ZM375.085 53.094C375.085 52.31 375.239 51.6147 375.547 51.008C375.864 50.4013 376.289 49.9347 376.821 49.608C377.362 49.2813 377.964 49.118 378.627 49.118C379.206 49.118 379.71 49.2347 380.139 49.468C380.578 49.7013 380.928 49.9953 381.189 50.35V49.244H383.163V57H381.189V55.866C380.937 56.23 380.587 56.5333 380.139 56.776C379.7 57.0093 379.192 57.126 378.613 57.126C377.96 57.126 377.362 56.958 376.821 56.622C376.289 56.286 375.864 55.8147 375.547 55.208C375.239 54.592 375.085 53.8873 375.085 53.094ZM381.189 53.122C381.189 52.646 381.096 52.24 380.909 51.904C380.722 51.5587 380.47 51.2973 380.153 51.12C379.836 50.9333 379.495 50.84 379.131 50.84C378.767 50.84 378.431 50.9287 378.123 51.106C377.815 51.2833 377.563 51.5447 377.367 51.89C377.18 52.226 377.087 52.6273 377.087 53.094C377.087 53.5607 377.18 53.9713 377.367 54.326C377.563 54.6713 377.815 54.9373 378.123 55.124C378.44 55.3107 378.776 55.404 379.131 55.404C379.495 55.404 379.836 55.3153 380.153 55.138C380.47 54.9513 380.722 54.69 380.909 54.354C381.096 54.0087 381.189 53.598 381.189 53.122ZM389.375 49.132C390.299 49.132 391.046 49.426 391.615 50.014C392.185 50.5927 392.469 51.4047 392.469 52.45V57H390.509V52.716C390.509 52.1 390.355 51.6287 390.047 51.302C389.739 50.966 389.319 50.798 388.787 50.798C388.246 50.798 387.817 50.966 387.499 51.302C387.191 51.6287 387.037 52.1 387.037 52.716V57H385.077V49.244H387.037V50.21C387.299 49.874 387.63 49.6127 388.031 49.426C388.442 49.23 388.89 49.132 389.375 49.132ZM398.925 57L396.293 53.696V57H394.333V46.64H396.293V52.534L398.897 49.244H401.445L398.029 53.136L401.473 57H398.925Z" fill="#231F20"/>
<path d="M313.49 403.1C313.49 402.139 313.705 401.28 314.134 400.524C314.573 399.759 315.165 399.166 315.912 398.746C316.668 398.317 317.513 398.102 318.446 398.102C319.538 398.102 320.495 398.382 321.316 398.942C322.137 399.502 322.711 400.277 323.038 401.266H320.784C320.56 400.799 320.243 400.449 319.832 400.216C319.431 399.983 318.964 399.866 318.432 399.866C317.863 399.866 317.354 400.001 316.906 400.272C316.467 400.533 316.122 400.907 315.87 401.392C315.627 401.877 315.506 402.447 315.506 403.1C315.506 403.744 315.627 404.313 315.87 404.808C316.122 405.293 316.467 405.671 316.906 405.942C317.354 406.203 317.863 406.334 318.432 406.334C318.964 406.334 319.431 406.217 319.832 405.984C320.243 405.741 320.56 405.387 320.784 404.92H323.038C322.711 405.919 322.137 406.698 321.316 407.258C320.504 407.809 319.547 408.084 318.446 408.084C317.513 408.084 316.668 407.874 315.912 407.454C315.165 407.025 314.573 406.432 314.134 405.676C313.705 404.92 313.49 404.061 313.49 403.1ZM332.034 400.244V408H330.06V407.02C329.808 407.356 329.477 407.622 329.066 407.818C328.665 408.005 328.226 408.098 327.75 408.098C327.143 408.098 326.607 407.972 326.14 407.72C325.673 407.459 325.305 407.081 325.034 406.586C324.773 406.082 324.642 405.485 324.642 404.794V400.244H326.602V404.514C326.602 405.13 326.756 405.606 327.064 405.942C327.372 406.269 327.792 406.432 328.324 406.432C328.865 406.432 329.29 406.269 329.598 405.942C329.906 405.606 330.06 405.13 330.06 404.514V400.244H332.034ZM336.936 408.126C336.301 408.126 335.732 408.014 335.228 407.79C334.724 407.557 334.323 407.244 334.024 406.852C333.735 406.46 333.576 406.026 333.548 405.55H335.522C335.559 405.849 335.704 406.096 335.956 406.292C336.217 406.488 336.539 406.586 336.922 406.586C337.295 406.586 337.585 406.511 337.79 406.362C338.005 406.213 338.112 406.021 338.112 405.788C338.112 405.536 337.981 405.349 337.72 405.228C337.468 405.097 337.062 404.957 336.502 404.808C335.923 404.668 335.447 404.523 335.074 404.374C334.71 404.225 334.393 403.996 334.122 403.688C333.861 403.38 333.73 402.965 333.73 402.442C333.73 402.013 333.851 401.621 334.094 401.266C334.346 400.911 334.701 400.631 335.158 400.426C335.625 400.221 336.171 400.118 336.796 400.118C337.72 400.118 338.457 400.351 339.008 400.818C339.559 401.275 339.862 401.896 339.918 402.68H338.042C338.014 402.372 337.883 402.129 337.65 401.952C337.426 401.765 337.123 401.672 336.74 401.672C336.385 401.672 336.11 401.737 335.914 401.868C335.727 401.999 335.634 402.181 335.634 402.414C335.634 402.675 335.765 402.876 336.026 403.016C336.287 403.147 336.693 403.282 337.244 403.422C337.804 403.562 338.266 403.707 338.63 403.856C338.994 404.005 339.307 404.239 339.568 404.556C339.839 404.864 339.979 405.275 339.988 405.788C339.988 406.236 339.862 406.637 339.61 406.992C339.367 407.347 339.013 407.627 338.546 407.832C338.089 408.028 337.552 408.126 336.936 408.126ZM343.879 401.854V405.606C343.879 405.867 343.94 406.059 344.061 406.18C344.192 406.292 344.406 406.348 344.705 406.348H345.615V408H344.383C342.731 408 341.905 407.197 341.905 405.592V401.854H340.981V400.244H341.905V398.326H343.879V400.244H345.615V401.854H343.879ZM350.469 408.126C349.722 408.126 349.05 407.963 348.453 407.636C347.855 407.3 347.384 406.829 347.039 406.222C346.703 405.615 346.535 404.915 346.535 404.122C346.535 403.329 346.707 402.629 347.053 402.022C347.407 401.415 347.888 400.949 348.495 400.622C349.101 400.286 349.778 400.118 350.525 400.118C351.271 400.118 351.948 400.286 352.555 400.622C353.161 400.949 353.637 401.415 353.983 402.022C354.337 402.629 354.515 403.329 354.515 404.122C354.515 404.915 354.333 405.615 353.969 406.222C353.614 406.829 353.129 407.3 352.513 407.636C351.906 407.963 351.225 408.126 350.469 408.126ZM350.469 406.418C350.823 406.418 351.155 406.334 351.463 406.166C351.78 405.989 352.032 405.727 352.219 405.382C352.405 405.037 352.499 404.617 352.499 404.122C352.499 403.385 352.303 402.82 351.911 402.428C351.528 402.027 351.057 401.826 350.497 401.826C349.937 401.826 349.465 402.027 349.083 402.428C348.709 402.82 348.523 403.385 348.523 404.122C348.523 404.859 348.705 405.429 349.069 405.83C349.442 406.222 349.909 406.418 350.469 406.418ZM365.584 400.132C366.536 400.132 367.302 400.426 367.88 401.014C368.468 401.593 368.762 402.405 368.762 403.45V408H366.802V403.716C366.802 403.109 366.648 402.647 366.34 402.33C366.032 402.003 365.612 401.84 365.08 401.84C364.548 401.84 364.124 402.003 363.806 402.33C363.498 402.647 363.344 403.109 363.344 403.716V408H361.384V403.716C361.384 403.109 361.23 402.647 360.922 402.33C360.614 402.003 360.194 401.84 359.662 401.84C359.121 401.84 358.692 402.003 358.374 402.33C358.066 402.647 357.912 403.109 357.912 403.716V408H355.952V400.244H357.912V401.182C358.164 400.855 358.486 400.599 358.878 400.412C359.28 400.225 359.718 400.132 360.194 400.132C360.801 400.132 361.342 400.263 361.818 400.524C362.294 400.776 362.663 401.14 362.924 401.616C363.176 401.168 363.54 400.809 364.016 400.538C364.502 400.267 365.024 400.132 365.584 400.132ZM377.832 403.954C377.832 404.234 377.814 404.486 377.776 404.71H372.106C372.153 405.27 372.349 405.709 372.694 406.026C373.04 406.343 373.464 406.502 373.968 406.502C374.696 406.502 375.214 406.189 375.522 405.564H377.636C377.412 406.311 376.983 406.927 376.348 407.412C375.714 407.888 374.934 408.126 374.01 408.126C373.264 408.126 372.592 407.963 371.994 407.636C371.406 407.3 370.944 406.829 370.608 406.222C370.282 405.615 370.118 404.915 370.118 404.122C370.118 403.319 370.282 402.615 370.608 402.008C370.935 401.401 371.392 400.935 371.98 400.608C372.568 400.281 373.245 400.118 374.01 400.118C374.748 400.118 375.406 400.277 375.984 400.594C376.572 400.911 377.025 401.364 377.342 401.952C377.669 402.531 377.832 403.198 377.832 403.954ZM375.802 403.394C375.793 402.89 375.611 402.489 375.256 402.19C374.902 401.882 374.468 401.728 373.954 401.728C373.469 401.728 373.058 401.877 372.722 402.176C372.396 402.465 372.195 402.871 372.12 403.394H375.802ZM381.223 401.448C381.475 401.037 381.802 400.715 382.203 400.482C382.614 400.249 383.08 400.132 383.603 400.132V402.19H383.085C382.469 402.19 382.002 402.335 381.685 402.624C381.377 402.913 381.223 403.417 381.223 404.136V408H379.263V400.244H381.223V401.448Z" fill="#231F20"/>
<path d="M972.418 8.252C972.418 8.77467 972.292 9.26467 972.04 9.722C971.798 10.1793 971.41 10.548 970.878 10.828C970.356 11.108 969.693 11.248 968.89 11.248H967.252V15H965.292V5.228H968.89C969.646 5.228 970.29 5.35867 970.822 5.62C971.354 5.88133 971.751 6.24067 972.012 6.698C972.283 7.15533 972.418 7.67333 972.418 8.252ZM968.806 9.666C969.348 9.666 969.749 9.54467 970.01 9.302C970.272 9.05 970.402 8.7 970.402 8.252C970.402 7.3 969.87 6.824 968.806 6.824H967.252V9.666H968.806ZM975.77 4.64V15H973.81V4.64H975.77ZM977.202 11.094C977.202 10.31 977.356 9.61467 977.664 9.008C977.982 8.40133 978.406 7.93467 978.938 7.608C979.48 7.28133 980.082 7.118 980.744 7.118C981.323 7.118 981.827 7.23467 982.256 7.468C982.695 7.70133 983.045 7.99533 983.306 8.35V7.244H985.28V15H983.306V13.866C983.054 14.23 982.704 14.5333 982.256 14.776C981.818 15.0093 981.309 15.126 980.73 15.126C980.077 15.126 979.48 14.958 978.938 14.622C978.406 14.286 977.982 13.8147 977.664 13.208C977.356 12.592 977.202 11.8873 977.202 11.094ZM983.306 11.122C983.306 10.646 983.213 10.24 983.026 9.904C982.84 9.55867 982.588 9.29733 982.27 9.12C981.953 8.93333 981.612 8.84 981.248 8.84C980.884 8.84 980.548 8.92867 980.24 9.106C979.932 9.28333 979.68 9.54467 979.484 9.89C979.298 10.226 979.204 10.6273 979.204 11.094C979.204 11.5607 979.298 11.9713 979.484 12.326C979.68 12.6713 979.932 12.9373 980.24 13.124C980.558 13.3107 980.894 13.404 981.248 13.404C981.612 13.404 981.953 13.3153 982.27 13.138C982.588 12.9513 982.84 12.69 983.026 12.354C983.213 12.0087 983.306 11.598 983.306 11.122ZM991.493 7.132C992.417 7.132 993.163 7.426 993.733 8.014C994.302 8.59267 994.587 9.40467 994.587 10.45V15H992.627V10.716C992.627 10.1 992.473 9.62867 992.165 9.302C991.857 8.966 991.437 8.798 990.905 8.798C990.363 8.798 989.934 8.966 989.617 9.302C989.309 9.62867 989.155 10.1 989.155 10.716V15H987.195V7.244H989.155V8.21C989.416 7.874 989.747 7.61267 990.149 7.426C990.559 7.23 991.007 7.132 991.493 7.132ZM998.732 8.854V12.606C998.732 12.8673 998.793 13.0587 998.914 13.18C999.045 13.292 999.26 13.348 999.558 13.348H1000.47V15H999.236C997.584 15 996.758 14.1973 996.758 12.592V8.854H995.834V7.244H996.758V5.326H998.732V7.244H1000.47V8.854H998.732ZM1008.66 15.126C1007.91 15.126 1007.24 14.9627 1006.64 14.636C1006.04 14.3 1005.57 13.8287 1005.23 13.222C1004.89 12.6153 1004.72 11.9153 1004.72 11.122C1004.72 10.3287 1004.9 9.62867 1005.24 9.022C1005.6 8.41533 1006.08 7.94867 1006.68 7.622C1007.29 7.286 1007.97 7.118 1008.71 7.118C1009.46 7.118 1010.14 7.286 1010.74 7.622C1011.35 7.94867 1011.83 8.41533 1012.17 9.022C1012.53 9.62867 1012.7 10.3287 1012.7 11.122C1012.7 11.9153 1012.52 12.6153 1012.16 13.222C1011.8 13.8287 1011.32 14.3 1010.7 14.636C1010.1 14.9627 1009.41 15.126 1008.66 15.126ZM1008.66 13.418C1009.01 13.418 1009.34 13.334 1009.65 13.166C1009.97 12.9887 1010.22 12.7273 1010.41 12.382C1010.59 12.0367 1010.69 11.6167 1010.69 11.122C1010.69 10.3847 1010.49 9.82 1010.1 9.428C1009.72 9.02667 1009.25 8.826 1008.69 8.826C1008.13 8.826 1007.65 9.02667 1007.27 9.428C1006.9 9.82 1006.71 10.3847 1006.71 11.122C1006.71 11.8593 1006.89 12.4287 1007.26 12.83C1007.63 13.222 1008.1 13.418 1008.66 13.418ZM1024.89 7.244L1022.63 15H1020.51L1019.1 9.582L1017.68 15H1015.56L1013.27 7.244H1015.26L1016.63 13.152L1018.12 7.244H1020.19L1021.65 13.138L1023.02 7.244H1024.89ZM1030.25 7.132C1031.18 7.132 1031.92 7.426 1032.49 8.014C1033.06 8.59267 1033.35 9.40467 1033.35 10.45V15H1031.39V10.716C1031.39 10.1 1031.23 9.62867 1030.92 9.302C1030.62 8.966 1030.2 8.798 1029.66 8.798C1029.12 8.798 1028.69 8.966 1028.38 9.302C1028.07 9.62867 1027.91 10.1 1027.91 10.716V15H1025.95V7.244H1027.91V8.21C1028.18 7.874 1028.51 7.61267 1028.91 7.426C1029.32 7.23 1029.77 7.132 1030.25 7.132ZM1042.42 10.954C1042.42 11.234 1042.4 11.486 1042.36 11.71H1036.69C1036.74 12.27 1036.94 12.7087 1037.28 13.026C1037.63 13.3433 1038.05 13.502 1038.56 13.502C1039.28 13.502 1039.8 13.1893 1040.11 12.564H1042.22C1042 13.3107 1041.57 13.9267 1040.94 14.412C1040.3 14.888 1039.52 15.126 1038.6 15.126C1037.85 15.126 1037.18 14.9627 1036.58 14.636C1035.99 14.3 1035.53 13.8287 1035.2 13.222C1034.87 12.6153 1034.71 11.9153 1034.71 11.122C1034.71 10.3193 1034.87 9.61467 1035.2 9.008C1035.52 8.40133 1035.98 7.93467 1036.57 7.608C1037.16 7.28133 1037.83 7.118 1038.6 7.118C1039.34 7.118 1039.99 7.27667 1040.57 7.594C1041.16 7.91133 1041.61 8.364 1041.93 8.952C1042.26 9.53067 1042.42 10.198 1042.42 10.954ZM1040.39 10.394C1040.38 9.89 1040.2 9.48867 1039.84 9.19C1039.49 8.882 1039.06 8.728 1038.54 8.728C1038.06 8.728 1037.65 8.87733 1037.31 9.176C1036.98 9.46533 1036.78 9.87133 1036.71 10.394H1040.39ZM1043.35 11.094C1043.35 10.31 1043.5 9.61467 1043.81 9.008C1044.13 8.40133 1044.56 7.93467 1045.1 7.608C1045.64 7.28133 1046.24 7.118 1046.9 7.118C1047.41 7.118 1047.89 7.23 1048.34 7.454C1048.8 7.66867 1049.17 7.958 1049.44 8.322V4.64H1051.42V15H1049.44V13.852C1049.19 14.2347 1048.85 14.5427 1048.41 14.776C1047.98 15.0093 1047.47 15.126 1046.89 15.126C1046.24 15.126 1045.64 14.958 1045.1 14.622C1044.56 14.286 1044.13 13.8147 1043.81 13.208C1043.5 12.592 1043.35 11.8873 1043.35 11.094ZM1049.45 11.122C1049.45 10.646 1049.36 10.24 1049.17 9.904C1048.98 9.55867 1048.73 9.29733 1048.41 9.12C1048.1 8.93333 1047.76 8.84 1047.39 8.84C1047.03 8.84 1046.69 8.92867 1046.38 9.106C1046.08 9.28333 1045.82 9.54467 1045.63 9.89C1045.44 10.226 1045.35 10.6273 1045.35 11.094C1045.35 11.5607 1045.44 11.9713 1045.63 12.326C1045.82 12.6713 1046.08 12.9373 1046.38 13.124C1046.7 13.3107 1047.04 13.404 1047.39 13.404C1047.76 13.404 1048.1 13.3153 1048.41 13.138C1048.73 12.9513 1048.98 12.69 1049.17 12.354C1049.36 12.0087 1049.45 11.598 1049.45 11.122ZM1058.63 8.378C1058.89 8.00467 1059.23 7.70133 1059.67 7.468C1060.12 7.23467 1060.63 7.118 1061.2 7.118C1061.86 7.118 1062.46 7.28133 1062.99 7.608C1063.53 7.93467 1063.95 8.40133 1064.26 9.008C1064.58 9.60533 1064.74 10.3007 1064.74 11.094C1064.74 11.8873 1064.58 12.592 1064.26 13.208C1063.95 13.8147 1063.53 14.286 1062.99 14.622C1062.46 14.958 1061.86 15.126 1061.2 15.126C1060.62 15.126 1060.11 15.014 1059.67 14.79C1059.24 14.5567 1058.9 14.258 1058.63 13.894V15H1056.67V4.64H1058.63V8.378ZM1062.74 11.094C1062.74 10.6273 1062.64 10.226 1062.44 9.89C1062.26 9.54467 1062 9.28333 1061.69 9.106C1061.38 8.92867 1061.04 8.84 1060.68 8.84C1060.32 8.84 1059.99 8.93333 1059.67 9.12C1059.36 9.29733 1059.11 9.55867 1058.91 9.904C1058.73 10.2493 1058.63 10.6553 1058.63 11.122C1058.63 11.5887 1058.73 11.9947 1058.91 12.34C1059.11 12.6853 1059.36 12.9513 1059.67 13.138C1059.99 13.3153 1060.32 13.404 1060.68 13.404C1061.04 13.404 1061.38 13.3107 1061.69 13.124C1062 12.9373 1062.26 12.6713 1062.44 12.326C1062.64 11.9807 1062.74 11.57 1062.74 11.094ZM1073.58 7.244L1068.78 18.668H1066.7L1068.38 14.804L1065.27 7.244H1067.47L1069.47 12.662L1071.5 7.244H1073.58ZM968.494 27.32C968.149 27.32 967.86 27.2127 967.626 26.998C967.402 26.774 967.29 26.4987 967.29 26.172C967.29 25.8453 967.402 25.5747 967.626 25.36C967.86 25.136 968.149 25.024 968.494 25.024C968.84 25.024 969.124 25.136 969.348 25.36C969.582 25.5747 969.698 25.8453 969.698 26.172C969.698 26.4987 969.582 26.774 969.348 26.998C969.124 27.2127 968.84 27.32 968.494 27.32ZM969.46 28.244V36H967.5V28.244H969.46ZM975.695 28.132C976.619 28.132 977.365 28.426 977.935 29.014C978.504 29.5927 978.789 30.4047 978.789 31.45V36H976.829V31.716C976.829 31.1 976.675 30.6287 976.367 30.302C976.059 29.966 975.639 29.798 975.107 29.798C974.565 29.798 974.136 29.966 973.819 30.302C973.511 30.6287 973.357 31.1 973.357 31.716V36H971.397V28.244H973.357V29.21C973.618 28.874 973.949 28.6127 974.351 28.426C974.761 28.23 975.209 28.132 975.695 28.132ZM983.887 34.194L985.847 28.244H987.933L985.063 36H982.683L979.827 28.244H981.927L983.887 34.194ZM996.243 31.954C996.243 32.234 996.225 32.486 996.187 32.71H990.517C990.564 33.27 990.76 33.7087 991.105 34.026C991.451 34.3433 991.875 34.502 992.379 34.502C993.107 34.502 993.625 34.1893 993.933 33.564H996.047C995.823 34.3107 995.394 34.9267 994.759 35.412C994.125 35.888 993.345 36.126 992.421 36.126C991.675 36.126 991.003 35.9627 990.405 35.636C989.817 35.3 989.355 34.8287 989.019 34.222C988.693 33.6153 988.529 32.9153 988.529 32.122C988.529 31.3193 988.693 30.6147 989.019 30.008C989.346 29.4013 989.803 28.9347 990.391 28.608C990.979 28.2813 991.656 28.118 992.421 28.118C993.159 28.118 993.817 28.2767 994.395 28.594C994.983 28.9113 995.436 29.364 995.753 29.952C996.08 30.5307 996.243 31.198 996.243 31.954ZM994.213 31.394C994.204 30.89 994.022 30.4887 993.667 30.19C993.313 29.882 992.879 29.728 992.365 29.728C991.88 29.728 991.469 29.8773 991.133 30.176C990.807 30.4653 990.606 30.8713 990.531 31.394H994.213ZM1000.64 36.126C1000.01 36.126 999.438 36.014 998.934 35.79C998.43 35.5567 998.029 35.244 997.73 34.852C997.441 34.46 997.282 34.026 997.254 33.55H999.228C999.265 33.8487 999.41 34.096 999.662 34.292C999.923 34.488 1000.25 34.586 1000.63 34.586C1001 34.586 1001.29 34.5113 1001.5 34.362C1001.71 34.2127 1001.82 34.0213 1001.82 33.788C1001.82 33.536 1001.69 33.3493 1001.43 33.228C1001.17 33.0973 1000.77 32.9573 1000.21 32.808C999.629 32.668 999.153 32.5233 998.78 32.374C998.416 32.2247 998.099 31.996 997.828 31.688C997.567 31.38 997.436 30.9647 997.436 30.442C997.436 30.0127 997.557 29.6207 997.8 29.266C998.052 28.9113 998.407 28.6313 998.864 28.426C999.331 28.2207 999.877 28.118 1000.5 28.118C1001.43 28.118 1002.16 28.3513 1002.71 28.818C1003.26 29.2753 1003.57 29.896 1003.62 30.68H1001.75C1001.72 30.372 1001.59 30.1293 1001.36 29.952C1001.13 29.7653 1000.83 29.672 1000.45 29.672C1000.09 29.672 999.816 29.7373 999.62 29.868C999.433 29.9987 999.34 30.1807 999.34 30.414C999.34 30.6753 999.471 30.876 999.732 31.016C999.993 31.1467 1000.4 31.282 1000.95 31.422C1001.51 31.562 1001.97 31.7067 1002.34 31.856C1002.7 32.0053 1003.01 32.2387 1003.27 32.556C1003.54 32.864 1003.68 33.2747 1003.69 33.788C1003.69 34.236 1003.57 34.6373 1003.32 34.992C1003.07 35.3467 1002.72 35.6267 1002.25 35.832C1001.79 36.028 1001.26 36.126 1000.64 36.126ZM1007.58 29.854V33.606C1007.58 33.8673 1007.65 34.0587 1007.77 34.18C1007.9 34.292 1008.11 34.348 1008.41 34.348H1009.32V36H1008.09C1006.44 36 1005.61 35.1973 1005.61 33.592V29.854H1004.69V28.244H1005.61V26.326H1007.58V28.244H1009.32V29.854H1007.58ZM1014.17 36.126C1013.43 36.126 1012.76 35.9627 1012.16 35.636C1011.56 35.3 1011.09 34.8287 1010.74 34.222C1010.41 33.6153 1010.24 32.9153 1010.24 32.122C1010.24 31.3287 1010.41 30.6287 1010.76 30.022C1011.11 29.4153 1011.59 28.9487 1012.2 28.622C1012.81 28.286 1013.48 28.118 1014.23 28.118C1014.98 28.118 1015.65 28.286 1016.26 28.622C1016.87 28.9487 1017.34 29.4153 1017.69 30.022C1018.04 30.6287 1018.22 31.3287 1018.22 32.122C1018.22 32.9153 1018.04 33.6153 1017.67 34.222C1017.32 34.8287 1016.83 35.3 1016.22 35.636C1015.61 35.9627 1014.93 36.126 1014.17 36.126ZM1014.17 34.418C1014.53 34.418 1014.86 34.334 1015.17 34.166C1015.49 33.9887 1015.74 33.7273 1015.92 33.382C1016.11 33.0367 1016.2 32.6167 1016.2 32.122C1016.2 31.3847 1016.01 30.82 1015.62 30.428C1015.23 30.0267 1014.76 29.826 1014.2 29.826C1013.64 29.826 1013.17 30.0267 1012.79 30.428C1012.42 30.82 1012.23 31.3847 1012.23 32.122C1012.23 32.8593 1012.41 33.4287 1012.77 33.83C1013.15 34.222 1013.61 34.418 1014.17 34.418ZM1021.62 29.448C1021.87 29.0373 1022.2 28.7153 1022.6 28.482C1023.01 28.2487 1023.48 28.132 1024 28.132V30.19H1023.48C1022.86 30.19 1022.4 30.3347 1022.08 30.624C1021.77 30.9133 1021.62 31.4173 1021.62 32.136V36H1019.66V28.244H1021.62V29.448ZM1030.94 29.854V33.606C1030.94 33.8673 1031 34.0587 1031.12 34.18C1031.25 34.292 1031.46 34.348 1031.76 34.348H1032.67V36H1031.44C1029.79 36 1028.96 35.1973 1028.96 33.592V29.854H1028.04V28.244H1028.96V26.326H1030.94V28.244H1032.67V29.854H1030.94ZM1035.08 27.32C1034.73 27.32 1034.44 27.2127 1034.21 26.998C1033.98 26.774 1033.87 26.4987 1033.87 26.172C1033.87 25.8453 1033.98 25.5747 1034.21 25.36C1034.44 25.136 1034.73 25.024 1035.08 25.024C1035.42 25.024 1035.71 25.136 1035.93 25.36C1036.16 25.5747 1036.28 25.8453 1036.28 26.172C1036.28 26.4987 1036.16 26.774 1035.93 26.998C1035.71 27.2127 1035.42 27.32 1035.08 27.32ZM1036.04 28.244V36H1034.08V28.244H1036.04ZM1039.94 25.64V36H1037.98V25.64H1039.94ZM1043.84 25.64V36H1041.88V25.64H1043.84ZM1051.39 29.854V33.606C1051.39 33.8673 1051.45 34.0587 1051.57 34.18C1051.7 34.292 1051.92 34.348 1052.22 34.348H1053.13V36H1051.89C1050.24 36 1049.42 35.1973 1049.42 33.592V29.854H1048.49V28.244H1049.42V26.326H1051.39V28.244H1053.13V29.854H1051.39ZM1058.9 28.132C1059.49 28.132 1060.01 28.2627 1060.47 28.524C1060.93 28.776 1061.28 29.154 1061.54 29.658C1061.8 30.1527 1061.93 30.75 1061.93 31.45V36H1059.97V31.716C1059.97 31.1 1059.81 30.6287 1059.51 30.302C1059.2 29.966 1058.78 29.798 1058.25 29.798C1057.7 29.798 1057.27 29.966 1056.96 30.302C1056.65 30.6287 1056.5 31.1 1056.5 31.716V36H1054.54V25.64H1056.5V29.21C1056.75 28.874 1057.08 28.6127 1057.5 28.426C1057.92 28.23 1058.39 28.132 1058.9 28.132ZM1071 31.954C1071 32.234 1070.98 32.486 1070.95 32.71H1065.28C1065.32 33.27 1065.52 33.7087 1065.86 34.026C1066.21 34.3433 1066.63 34.502 1067.14 34.502C1067.87 34.502 1068.38 34.1893 1068.69 33.564H1070.81C1070.58 34.3107 1070.15 34.9267 1069.52 35.412C1068.88 35.888 1068.1 36.126 1067.18 36.126C1066.43 36.126 1065.76 35.9627 1065.16 35.636C1064.58 35.3 1064.11 34.8287 1063.78 34.222C1063.45 33.6153 1063.29 32.9153 1063.29 32.122C1063.29 31.3193 1063.45 30.6147 1063.78 30.008C1064.1 29.4013 1064.56 28.9347 1065.15 28.608C1065.74 28.2813 1066.41 28.118 1067.18 28.118C1067.92 28.118 1068.57 28.2767 1069.15 28.594C1069.74 28.9113 1070.19 29.364 1070.51 29.952C1070.84 30.5307 1071 31.198 1071 31.954ZM1068.97 31.394C1068.96 30.89 1068.78 30.4887 1068.43 30.19C1068.07 29.882 1067.64 29.728 1067.12 29.728C1066.64 29.728 1066.23 29.8773 1065.89 30.176C1065.56 30.4653 1065.36 30.8713 1065.29 31.394H1068.97ZM965.694 50.364C965.946 50.0093 966.291 49.7153 966.73 49.482C967.178 49.2393 967.686 49.118 968.256 49.118C968.918 49.118 969.516 49.2813 970.048 49.608C970.589 49.9347 971.014 50.4013 971.322 51.008C971.639 51.6053 971.798 52.3007 971.798 53.094C971.798 53.8873 971.639 54.592 971.322 55.208C971.014 55.8147 970.589 56.286 970.048 56.622C969.516 56.958 968.918 57.126 968.256 57.126C967.686 57.126 967.182 57.0093 966.744 56.776C966.314 56.5427 965.964 56.2487 965.694 55.894V60.696H963.734V49.244H965.694V50.364ZM969.796 53.094C969.796 52.6273 969.698 52.226 969.502 51.89C969.315 51.5447 969.063 51.2833 968.746 51.106C968.438 50.9287 968.102 50.84 967.738 50.84C967.383 50.84 967.047 50.9333 966.73 51.12C966.422 51.2973 966.17 51.5587 965.974 51.904C965.787 52.2493 965.694 52.6553 965.694 53.122C965.694 53.5887 965.787 53.9947 965.974 54.34C966.17 54.6853 966.422 54.9513 966.73 55.138C967.047 55.3153 967.383 55.404 967.738 55.404C968.102 55.404 968.438 55.3107 968.746 55.124C969.063 54.9373 969.315 54.6713 969.502 54.326C969.698 53.9807 969.796 53.57 969.796 53.094ZM972.718 53.094C972.718 52.31 972.872 51.6147 973.18 51.008C973.497 50.4013 973.922 49.9347 974.454 49.608C974.995 49.2813 975.597 49.118 976.26 49.118C976.839 49.118 977.343 49.2347 977.772 49.468C978.211 49.7013 978.561 49.9953 978.822 50.35V49.244H980.796V57H978.822V55.866C978.57 56.23 978.22 56.5333 977.772 56.776C977.333 57.0093 976.825 57.126 976.246 57.126C975.593 57.126 974.995 56.958 974.454 56.622C973.922 56.286 973.497 55.8147 973.18 55.208C972.872 54.592 972.718 53.8873 972.718 53.094ZM978.822 53.122C978.822 52.646 978.729 52.24 978.542 51.904C978.355 51.5587 978.103 51.2973 977.786 51.12C977.469 50.9333 977.128 50.84 976.764 50.84C976.4 50.84 976.064 50.9287 975.756 51.106C975.448 51.2833 975.196 51.5447 975 51.89C974.813 52.226 974.72 52.6273 974.72 53.094C974.72 53.5607 974.813 53.9713 975 54.326C975.196 54.6713 975.448 54.9373 975.756 55.124C976.073 55.3107 976.409 55.404 976.764 55.404C977.128 55.404 977.469 55.3153 977.786 55.138C978.103 54.9513 978.355 54.69 978.542 54.354C978.729 54.0087 978.822 53.598 978.822 53.122ZM990.13 49.244L985.328 60.668H983.242L984.922 56.804L981.814 49.244H984.012L986.014 54.662L988.044 49.244H990.13ZM993.147 50.378C993.399 50.0047 993.744 49.7013 994.183 49.468C994.631 49.2347 995.139 49.118 995.709 49.118C996.371 49.118 996.969 49.2813 997.501 49.608C998.042 49.9347 998.467 50.4013 998.775 51.008C999.092 51.6053 999.251 52.3007 999.251 53.094C999.251 53.8873 999.092 54.592 998.775 55.208C998.467 55.8147 998.042 56.286 997.501 56.622C996.969 56.958 996.371 57.126 995.709 57.126C995.13 57.126 994.621 57.014 994.183 56.79C993.753 56.5567 993.408 56.258 993.147 55.894V57H991.187V46.64H993.147V50.378ZM997.249 53.094C997.249 52.6273 997.151 52.226 996.955 51.89C996.768 51.5447 996.516 51.2833 996.199 51.106C995.891 50.9287 995.555 50.84 995.191 50.84C994.836 50.84 994.5 50.9333 994.183 51.12C993.875 51.2973 993.623 51.5587 993.427 51.904C993.24 52.2493 993.147 52.6553 993.147 53.122C993.147 53.5887 993.24 53.9947 993.427 54.34C993.623 54.6853 993.875 54.9513 994.183 55.138C994.5 55.3153 994.836 55.404 995.191 55.404C995.555 55.404 995.891 55.3107 996.199 55.124C996.516 54.9373 996.768 54.6713 996.955 54.326C997.151 53.9807 997.249 53.57 997.249 53.094ZM1000.17 53.094C1000.17 52.31 1000.32 51.6147 1000.63 51.008C1000.95 50.4013 1001.37 49.9347 1001.91 49.608C1002.45 49.2813 1003.05 49.118 1003.71 49.118C1004.29 49.118 1004.8 49.2347 1005.22 49.468C1005.66 49.7013 1006.01 49.9953 1006.27 50.35V49.244H1008.25V57H1006.27V55.866C1006.02 56.23 1005.67 56.5333 1005.22 56.776C1004.79 57.0093 1004.28 57.126 1003.7 57.126C1003.05 57.126 1002.45 56.958 1001.91 56.622C1001.37 56.286 1000.95 55.8147 1000.63 55.208C1000.32 54.592 1000.17 53.8873 1000.17 53.094ZM1006.27 53.122C1006.27 52.646 1006.18 52.24 1005.99 51.904C1005.81 51.5587 1005.56 51.2973 1005.24 51.12C1004.92 50.9333 1004.58 50.84 1004.22 50.84C1003.85 50.84 1003.52 50.9287 1003.21 51.106C1002.9 51.2833 1002.65 51.5447 1002.45 51.89C1002.27 52.226 1002.17 52.6273 1002.17 53.094C1002.17 53.5607 1002.27 53.9713 1002.45 54.326C1002.65 54.6713 1002.9 54.9373 1003.21 55.124C1003.53 55.3107 1003.86 55.404 1004.22 55.404C1004.58 55.404 1004.92 55.3153 1005.24 55.138C1005.56 54.9513 1005.81 54.69 1005.99 54.354C1006.18 54.0087 1006.27 53.598 1006.27 53.122ZM1009.66 53.122C1009.66 52.3193 1009.82 51.6193 1010.15 51.022C1010.48 50.4153 1010.93 49.9487 1011.51 49.622C1012.09 49.286 1012.75 49.118 1013.5 49.118C1014.46 49.118 1015.25 49.3607 1015.88 49.846C1016.51 50.322 1016.93 50.994 1017.15 51.862H1015.04C1014.92 51.526 1014.73 51.2647 1014.46 51.078C1014.2 50.882 1013.87 50.784 1013.48 50.784C1012.92 50.784 1012.48 50.9893 1012.15 51.4C1011.82 51.8013 1011.66 52.3753 1011.66 53.122C1011.66 53.8593 1011.82 54.4333 1012.15 54.844C1012.48 55.2453 1012.92 55.446 1013.48 55.446C1014.27 55.446 1014.79 55.0913 1015.04 54.382H1017.15C1016.93 55.222 1016.51 55.8893 1015.88 56.384C1015.24 56.8787 1014.45 57.126 1013.5 57.126C1012.75 57.126 1012.09 56.9627 1011.51 56.636C1010.93 56.3 1010.48 55.8333 1010.15 55.236C1009.82 54.6293 1009.66 53.9247 1009.66 53.122ZM1023.18 57L1020.55 53.696V57H1018.59V46.64H1020.55V52.534L1023.15 49.244H1025.7L1022.28 53.136L1025.73 57H1023.18ZM1032.06 50.364C1032.31 50.0093 1032.65 49.7153 1033.09 49.482C1033.54 49.2393 1034.05 49.118 1034.62 49.118C1035.28 49.118 1035.88 49.2813 1036.41 49.608C1036.95 49.9347 1037.38 50.4013 1037.68 51.008C1038 51.6053 1038.16 52.3007 1038.16 53.094C1038.16 53.8873 1038 54.592 1037.68 55.208C1037.38 55.8147 1036.95 56.286 1036.41 56.622C1035.88 56.958 1035.28 57.126 1034.62 57.126C1034.05 57.126 1033.55 57.0093 1033.11 56.776C1032.68 56.5427 1032.33 56.2487 1032.06 55.894V60.696H1030.1V49.244H1032.06V50.364ZM1036.16 53.094C1036.16 52.6273 1036.06 52.226 1035.86 51.89C1035.68 51.5447 1035.43 51.2833 1035.11 51.106C1034.8 50.9287 1034.46 50.84 1034.1 50.84C1033.75 50.84 1033.41 50.9333 1033.09 51.12C1032.78 51.2973 1032.53 51.5587 1032.34 51.904C1032.15 52.2493 1032.06 52.6553 1032.06 53.122C1032.06 53.5887 1032.15 53.9947 1032.34 54.34C1032.53 54.6853 1032.78 54.9513 1033.09 55.138C1033.41 55.3153 1033.75 55.404 1034.1 55.404C1034.46 55.404 1034.8 55.3107 1035.11 55.124C1035.43 54.9373 1035.68 54.6713 1035.86 54.326C1036.06 53.9807 1036.16 53.57 1036.16 53.094ZM1046.8 52.954C1046.8 53.234 1046.78 53.486 1046.74 53.71H1041.07C1041.12 54.27 1041.31 54.7087 1041.66 55.026C1042 55.3433 1042.43 55.502 1042.93 55.502C1043.66 55.502 1044.18 55.1893 1044.49 54.564H1046.6C1046.38 55.3107 1045.95 55.9267 1045.31 56.412C1044.68 56.888 1043.9 57.126 1042.97 57.126C1042.23 57.126 1041.55 56.9627 1040.96 56.636C1040.37 56.3 1039.91 55.8287 1039.57 55.222C1039.24 54.6153 1039.08 53.9153 1039.08 53.122C1039.08 52.3193 1039.24 51.6147 1039.57 51.008C1039.9 50.4013 1040.36 49.9347 1040.94 49.608C1041.53 49.2813 1042.21 49.118 1042.97 49.118C1043.71 49.118 1044.37 49.2767 1044.95 49.594C1045.54 49.9113 1045.99 50.364 1046.31 50.952C1046.63 51.5307 1046.8 52.198 1046.8 52.954ZM1044.77 52.394C1044.76 51.89 1044.57 51.4887 1044.22 51.19C1043.86 50.882 1043.43 50.728 1042.92 50.728C1042.43 50.728 1042.02 50.8773 1041.69 51.176C1041.36 51.4653 1041.16 51.8713 1041.08 52.394H1044.77ZM1050.19 50.448C1050.44 50.0373 1050.76 49.7153 1051.17 49.482C1051.58 49.2487 1052.04 49.132 1052.57 49.132V51.19H1052.05C1051.43 51.19 1050.97 51.3347 1050.65 51.624C1050.34 51.9133 1050.19 52.4173 1050.19 53.136V57H1048.23V49.244H1050.19V50.448ZM1054.88 48.32C1054.53 48.32 1054.25 48.2127 1054.01 47.998C1053.79 47.774 1053.68 47.4987 1053.68 47.172C1053.68 46.8453 1053.79 46.5747 1054.01 46.36C1054.25 46.136 1054.53 46.024 1054.88 46.024C1055.23 46.024 1055.51 46.136 1055.73 46.36C1055.97 46.5747 1056.08 46.8453 1056.08 47.172C1056.08 47.4987 1055.97 47.774 1055.73 47.998C1055.51 48.2127 1055.23 48.32 1054.88 48.32ZM1055.85 49.244V57H1053.89V49.244H1055.85ZM1061.23 57.126C1060.48 57.126 1059.81 56.9627 1059.21 56.636C1058.61 56.3 1058.14 55.8287 1057.8 55.222C1057.46 54.6153 1057.29 53.9153 1057.29 53.122C1057.29 52.3287 1057.47 51.6287 1057.81 51.022C1058.17 50.4153 1058.65 49.9487 1059.25 49.622C1059.86 49.286 1060.54 49.118 1061.28 49.118C1062.03 49.118 1062.71 49.286 1063.31 49.622C1063.92 49.9487 1064.4 50.4153 1064.74 51.022C1065.1 51.6287 1065.27 52.3287 1065.27 53.122C1065.27 53.9153 1065.09 54.6153 1064.73 55.222C1064.37 55.8287 1063.89 56.3 1063.27 56.636C1062.66 56.9627 1061.98 57.126 1061.23 57.126ZM1061.23 55.418C1061.58 55.418 1061.91 55.334 1062.22 55.166C1062.54 54.9887 1062.79 54.7273 1062.98 54.382C1063.16 54.0367 1063.26 53.6167 1063.26 53.122C1063.26 52.3847 1063.06 51.82 1062.67 51.428C1062.29 51.0267 1061.81 50.826 1061.25 50.826C1060.69 50.826 1060.22 51.0267 1059.84 51.428C1059.47 51.82 1059.28 52.3847 1059.28 53.122C1059.28 53.8593 1059.46 54.4287 1059.83 54.83C1060.2 55.222 1060.67 55.418 1061.23 55.418ZM1066.21 53.094C1066.21 52.31 1066.36 51.6147 1066.67 51.008C1066.99 50.4013 1067.41 49.9347 1067.96 49.608C1068.5 49.2813 1069.1 49.118 1069.76 49.118C1070.27 49.118 1070.75 49.23 1071.2 49.454C1071.66 49.6687 1072.03 49.958 1072.3 50.322V46.64H1074.28V57H1072.3V55.852C1072.05 56.2347 1071.71 56.5427 1071.27 56.776C1070.84 57.0093 1070.33 57.126 1069.75 57.126C1069.09 57.126 1068.5 56.958 1067.96 56.622C1067.41 56.286 1066.99 55.8147 1066.67 55.208C1066.36 54.592 1066.21 53.8873 1066.21 53.094ZM1072.31 53.122C1072.31 52.646 1072.22 52.24 1072.03 51.904C1071.84 51.5587 1071.59 51.2973 1071.27 51.12C1070.96 50.9333 1070.62 50.84 1070.25 50.84C1069.89 50.84 1069.55 50.9287 1069.24 51.106C1068.94 51.2833 1068.68 51.5447 1068.49 51.89C1068.3 52.226 1068.21 52.6273 1068.21 53.094C1068.21 53.5607 1068.3 53.9713 1068.49 54.326C1068.68 54.6713 1068.94 54.9373 1069.24 55.124C1069.56 55.3107 1069.9 55.404 1070.25 55.404C1070.62 55.404 1070.96 55.3153 1071.27 55.138C1071.59 54.9513 1071.84 54.69 1072.03 54.354C1072.22 54.0087 1072.31 53.598 1072.31 53.122Z" fill="#231F20"/>
<path d="M986.926 399.81V402.26H990.216V403.814H986.926V406.404H990.636V408H984.966V398.214H990.636V399.81H986.926ZM994.377 397.64V408H992.417V397.64H994.377ZM1003.52 403.954C1003.52 404.234 1003.5 404.486 1003.47 404.71H997.798C997.844 405.27 998.04 405.709 998.386 406.026C998.731 406.343 999.156 406.502 999.66 406.502C1000.39 406.502 1000.91 406.189 1001.21 405.564H1003.33C1003.1 406.311 1002.67 406.927 1002.04 407.412C1001.4 407.888 1000.63 408.126 999.702 408.126C998.955 408.126 998.283 407.963 997.686 407.636C997.098 407.3 996.636 406.829 996.3 406.222C995.973 405.615 995.81 404.915 995.81 404.122C995.81 403.319 995.973 402.615 996.3 402.008C996.626 401.401 997.084 400.935 997.672 400.608C998.26 400.281 998.936 400.118 999.702 400.118C1000.44 400.118 1001.1 400.277 1001.68 400.594C1002.26 400.911 1002.72 401.364 1003.03 401.952C1003.36 402.531 1003.52 403.198 1003.52 403.954ZM1001.49 403.394C1001.48 402.89 1001.3 402.489 1000.95 402.19C1000.59 401.882 1000.16 401.728 999.646 401.728C999.16 401.728 998.75 401.877 998.414 402.176C998.087 402.465 997.886 402.871 997.812 403.394H1001.49ZM1004.45 404.122C1004.45 403.319 1004.61 402.619 1004.94 402.022C1005.27 401.415 1005.72 400.949 1006.3 400.622C1006.88 400.286 1007.54 400.118 1008.29 400.118C1009.25 400.118 1010.04 400.361 1010.67 400.846C1011.3 401.322 1011.73 401.994 1011.94 402.862H1009.83C1009.71 402.526 1009.52 402.265 1009.25 402.078C1008.99 401.882 1008.66 401.784 1008.27 401.784C1007.71 401.784 1007.27 401.989 1006.94 402.4C1006.62 402.801 1006.45 403.375 1006.45 404.122C1006.45 404.859 1006.62 405.433 1006.94 405.844C1007.27 406.245 1007.71 406.446 1008.27 406.446C1009.07 406.446 1009.58 406.091 1009.83 405.382H1011.94C1011.73 406.222 1011.3 406.889 1010.67 407.384C1010.03 407.879 1009.24 408.126 1008.29 408.126C1007.54 408.126 1006.88 407.963 1006.3 407.636C1005.72 407.3 1005.27 406.833 1004.94 406.236C1004.61 405.629 1004.45 404.925 1004.45 404.122ZM1015.66 401.854V405.606C1015.66 405.867 1015.72 406.059 1015.84 406.18C1015.97 406.292 1016.19 406.348 1016.48 406.348H1017.39V408H1016.16C1014.51 408 1013.68 407.197 1013.68 405.592V401.854H1012.76V400.244H1013.68V398.326H1015.66V400.244H1017.39V401.854H1015.66ZM1020.76 401.448C1021.02 401.037 1021.34 400.715 1021.74 400.482C1022.15 400.249 1022.62 400.132 1023.14 400.132V402.19H1022.63C1022.01 402.19 1021.54 402.335 1021.23 402.624C1020.92 402.913 1020.76 403.417 1020.76 404.136V408H1018.8V400.244H1020.76V401.448ZM1025.46 399.32C1025.11 399.32 1024.82 399.213 1024.59 398.998C1024.37 398.774 1024.25 398.499 1024.25 398.172C1024.25 397.845 1024.37 397.575 1024.59 397.36C1024.82 397.136 1025.11 397.024 1025.46 397.024C1025.8 397.024 1026.09 397.136 1026.31 397.36C1026.55 397.575 1026.66 397.845 1026.66 398.172C1026.66 398.499 1026.55 398.774 1026.31 398.998C1026.09 399.213 1025.8 399.32 1025.46 399.32ZM1026.42 400.244V408H1024.46V400.244H1026.42ZM1027.86 404.122C1027.86 403.319 1028.02 402.619 1028.35 402.022C1028.67 401.415 1029.13 400.949 1029.7 400.622C1030.28 400.286 1030.95 400.118 1031.69 400.118C1032.65 400.118 1033.45 400.361 1034.07 400.846C1034.71 401.322 1035.13 401.994 1035.35 402.862H1033.23C1033.12 402.526 1032.93 402.265 1032.66 402.078C1032.4 401.882 1032.07 401.784 1031.68 401.784C1031.12 401.784 1030.68 401.989 1030.35 402.4C1030.02 402.801 1029.86 403.375 1029.86 404.122C1029.86 404.859 1030.02 405.433 1030.35 405.844C1030.68 406.245 1031.12 406.446 1031.68 406.446C1032.47 406.446 1032.99 406.091 1033.23 405.382H1035.35C1035.13 406.222 1034.71 406.889 1034.07 407.384C1033.44 407.879 1032.64 408.126 1031.69 408.126C1030.95 408.126 1030.28 407.963 1029.7 407.636C1029.13 407.3 1028.67 406.833 1028.35 406.236C1028.02 405.629 1027.86 404.925 1027.86 404.122ZM1037.78 399.32C1037.43 399.32 1037.14 399.213 1036.91 398.998C1036.68 398.774 1036.57 398.499 1036.57 398.172C1036.57 397.845 1036.68 397.575 1036.91 397.36C1037.14 397.136 1037.43 397.024 1037.78 397.024C1038.12 397.024 1038.41 397.136 1038.63 397.36C1038.86 397.575 1038.98 397.845 1038.98 398.172C1038.98 398.499 1038.86 398.774 1038.63 398.998C1038.41 399.213 1038.12 399.32 1037.78 399.32ZM1038.74 400.244V408H1036.78V400.244H1038.74ZM1042.96 401.854V405.606C1042.96 405.867 1043.02 406.059 1043.14 406.18C1043.27 406.292 1043.49 406.348 1043.79 406.348H1044.7V408H1043.46C1041.81 408 1040.99 407.197 1040.99 405.592V401.854H1040.06V400.244H1040.99V398.326H1042.96V400.244H1044.7V401.854H1042.96ZM1053.53 400.244L1048.72 411.668H1046.64L1048.32 407.804L1045.21 400.244H1047.41L1049.41 405.662L1051.44 400.244H1053.53Z" fill="#231F20"/>
<path d="M43.5723 132.808L43.5723 140.596" stroke="url(#paint0_linear_572_36)" stroke-miterlimit="10"/>
<path d="M43.5723 155.936L43.5723 332.338" stroke="url(#paint1_linear_572_36)" stroke-miterlimit="10" stroke-dasharray="5.91 5.91"/>
<path d="M43.5723 340.021L43.5723 347.809" stroke="url(#paint2_linear_572_36)" stroke-miterlimit="10"/>
<path d="M340.001 98.605L329.781 98.605" stroke="url(#paint3_linear_572_36)" stroke-miterlimit="10"/>
<path d="M258 124H83" stroke="url(#paint4_linear_572_36)" stroke-miterlimit="10" stroke-dasharray="5.91 5.91"/>
<path d="M68.0613 98.3025L57.8418 98.3025" stroke="url(#paint5_linear_572_36)" stroke-miterlimit="10"/>
<path d="M1018.69 336.787L1018.69 129.207" stroke="url(#paint6_linear_572_36)" stroke-miterlimit="10" stroke-dasharray="5.91 5.91"/>
<path d="M997 120.163L997 111" stroke="url(#paint7_linear_572_36)" stroke-miterlimit="10"/>
<path d="M994.001 329.263L985.334 329.263" stroke="url(#paint8_linear_572_36)" stroke-miterlimit="10"/>
<path d="M968.318 329.263L91.1914 329.263" stroke="url(#paint9_linear_572_36)" stroke-miterlimit="10" stroke-dasharray="5.9 5.9"/>
<path d="M82.6692 329.263L74.002 329.263" stroke="url(#paint10_linear_572_36)" stroke-miterlimit="10"/>
<path d="M326.625 119.384L337.98 123.029" stroke="url(#paint11_linear_572_36)" stroke-miterlimit="10"/>
<path d="M360.344 130.226L617.373 212.823" stroke="url(#paint12_linear_572_36)" stroke-miterlimit="10" stroke-dasharray="5.91 5.91"/>
<path d="M628.557 216.421L639.912 220.066" stroke="url(#paint13_linear_572_36)" stroke-miterlimit="10"/>
<path d="M1054 107L1028.22 115.121" stroke="url(#paint14_linear_572_36)" stroke-miterlimit="10"/>
<path d="M977.249 131.136L391.362 314.883" stroke="url(#paint15_linear_572_36)" stroke-miterlimit="10" stroke-dasharray="5.91 5.91"/>
<path d="M365.876 322.891L339.997 331" stroke="url(#paint16_linear_572_36)" stroke-miterlimit="10"/>
<path d="M683 303C724.421 303 758 269.421 758 228C758 186.579 724.421 153 683 153C641.579 153 608 186.579 608 228C608 269.421 641.579 303 683 303Z" fill="url(#paint17_linear_572_36)"/>
<path fill-rule="evenodd" clip-rule="evenodd" d="M660.46 221.578C659.951 220.708 659.214 220.047 658.23 219.612C657.246 219.177 656.049 218.969 654.606 218.969C653.163 218.969 651.802 219.264 650.687 219.873C649.572 220.465 648.654 221.317 647.949 222.396C647.244 223.474 646.752 224.779 646.506 226.293C646.407 226.745 646.358 227.215 646.309 227.684C646.276 228.154 646.26 228.641 646.26 229.128C646.26 230.572 646.522 231.755 647.063 232.695C647.604 233.634 648.391 234.33 649.424 234.782C650.457 235.235 651.72 235.461 653.212 235.461C654.245 235.461 655.196 235.339 656.033 235.078C656.869 234.817 657.623 234.434 658.263 233.93C658.902 233.425 659.427 232.799 659.82 232.051C660.23 231.303 660.493 230.451 660.64 229.494H656.328C656.278 229.894 656.164 230.259 655.983 230.572C655.819 230.885 655.606 231.164 655.344 231.39C655.098 231.616 654.786 231.79 654.426 231.894C654.065 231.999 653.655 232.051 653.179 232.051C652.573 232.051 652.064 231.947 651.671 231.755C651.277 231.564 650.982 231.251 650.802 230.851C650.621 230.451 650.539 229.946 650.539 229.372C650.539 229.198 650.539 229.007 650.572 228.798C650.589 228.589 650.621 228.398 650.654 228.206H660.837C660.984 227.441 661.066 226.815 661.116 226.31C661.165 225.806 661.181 225.353 661.181 224.971C661.181 223.596 660.935 222.465 660.427 221.596L660.46 221.578ZM656.836 225.04C656.836 225.197 656.803 225.336 656.77 225.475H651.113C651.31 224.814 651.556 224.257 651.868 223.805C652.179 223.353 652.556 222.987 653.032 222.744C653.491 222.5 654.048 222.378 654.672 222.378C655.114 222.378 655.508 222.465 655.836 222.639C656.164 222.813 656.426 223.057 656.59 223.405C656.754 223.735 656.852 224.17 656.852 224.692C656.852 224.797 656.852 224.918 656.852 225.058L656.836 225.04Z" fill="white"/>
<path fill-rule="evenodd" clip-rule="evenodd" d="M640.086 215.042L641.362 216.337L639.916 224.875C639.882 225.158 639.831 225.473 639.78 225.822C639.729 226.171 639.678 226.503 639.644 226.852L639.508 226.902C639.372 226.653 639.236 226.37 639.083 226.071C638.93 225.772 638.76 225.457 638.573 225.158C638.403 224.859 638.233 224.576 638.08 224.327L632.86 215.042H628.456L625.055 234.675H631.533L629.986 233.097L631.329 225.141C631.363 224.875 631.414 224.526 631.499 224.095C631.567 223.663 631.635 223.264 631.669 222.915L631.805 222.882C631.992 223.231 632.213 223.629 632.451 224.078C632.69 224.543 632.894 224.908 633.064 225.191L638.488 234.675H642.875L646.259 215.042H640.137H640.086Z" fill="white"/>
<path fill-rule="evenodd" clip-rule="evenodd" d="M679.244 219.754C679.244 219.754 669.345 231.581 667.015 234.469L667.899 235.461H661.182C661.182 235.461 671.804 222.933 674.215 219.771H674.231L679.244 219.754Z" fill="white"/>
<path fill-rule="evenodd" clip-rule="evenodd" d="M668.639 219.754H663.537L671.952 235.461H677.673L676.318 234.01L668.639 219.754Z" fill="white"/>
<path d="M735.002 242.529H701.232V244.885H735.002V242.529Z" fill="white"/>
<path fill-rule="evenodd" clip-rule="evenodd" d="M699.041 218.398C698.615 217.646 698.025 217.029 697.272 216.528C696.502 216.027 695.618 215.66 694.603 215.409C693.588 215.159 692.474 215.042 691.262 215.042C689.461 215.042 687.84 215.359 686.399 216.01C684.942 216.661 683.73 217.613 682.731 218.865C681.732 220.117 681.012 221.67 680.57 223.507C680.39 224.141 680.259 224.826 680.16 225.543C680.062 226.278 680.029 227.029 680.029 227.814C680.029 230.385 680.717 232.289 682.093 233.557C683.468 234.826 685.417 235.461 687.922 235.461C688.839 235.461 689.674 235.377 690.444 235.194C691.213 235.01 691.934 234.743 692.605 234.375C693.293 234.008 693.915 233.557 694.521 233.023L694.685 235.127H697.485L699.253 224.291H689.625L689.003 227.914H693.981L693.948 228.065C693.866 228.732 693.571 229.317 693.08 229.834C692.589 230.335 691.999 230.736 691.262 231.02C690.542 231.303 689.756 231.454 688.904 231.454C688.053 231.454 687.3 231.304 686.71 231.003C686.121 230.702 685.679 230.268 685.384 229.684C685.073 229.1 684.925 228.382 684.925 227.514C684.925 227.363 684.925 227.213 684.958 227.046C684.975 226.896 684.991 226.695 685.024 226.478C685.056 226.245 685.089 225.978 685.138 225.66C685.187 225.343 685.253 224.942 685.335 224.475C685.466 223.607 685.695 222.855 686.023 222.188C686.35 221.52 686.776 220.969 687.267 220.485C687.775 220.017 688.364 219.667 689.036 219.416C689.723 219.182 690.477 219.049 691.295 219.049C691.803 219.049 692.261 219.116 692.687 219.232C693.113 219.349 693.489 219.533 693.833 219.767C694.161 220 694.423 220.284 694.587 220.635C694.75 220.986 694.849 221.37 694.849 221.82V222.071C694.849 222.154 694.849 222.254 694.816 222.338H699.548C699.581 222.104 699.614 221.887 699.63 221.67C699.646 221.453 699.663 221.253 699.663 221.036C699.663 220.017 699.45 219.132 699.024 218.398H699.041Z" fill="white"/>
<path fill-rule="evenodd" clip-rule="evenodd" d="M716.949 222.239C716.414 221.411 715.638 220.781 714.604 220.367C713.569 219.953 712.311 219.754 710.793 219.754C709.276 219.754 707.862 220.036 706.673 220.615C705.5 221.179 704.535 221.991 703.793 223.018C703.052 224.045 702.535 225.288 702.276 226.729C702.173 227.16 702.121 227.607 702.069 228.055C702.035 228.502 702.018 228.966 702.018 229.43C702.018 230.805 702.293 231.932 702.862 232.826C703.431 233.721 704.259 234.384 705.345 234.815C706.431 235.245 707.759 235.461 709.328 235.461C710.431 235.461 711.414 235.345 712.293 235.096C713.173 234.848 713.966 234.483 714.638 234.003C715.311 233.522 715.862 232.926 716.276 232.213C716.707 231.501 716.983 230.689 717.138 229.778H712.604C712.552 230.159 712.431 230.507 712.242 230.805C712.069 231.103 711.845 231.368 711.569 231.584C711.311 231.799 710.983 231.965 710.604 232.064C710.224 232.164 709.793 232.213 709.293 232.213C708.655 232.213 708.121 232.114 707.707 231.932C707.293 231.749 706.983 231.451 706.811 231.07C706.621 230.689 706.535 230.209 706.535 229.662C706.535 229.496 706.535 229.314 706.569 229.115C706.569 228.916 706.621 228.734 706.655 228.552H717.362C717.518 227.823 717.604 227.226 717.655 226.746C717.707 226.265 717.724 225.834 717.724 225.47C717.724 224.161 717.466 223.084 716.931 222.256L716.949 222.239ZM713.138 225.536C713.138 225.685 713.104 225.818 713.069 225.95H707.121C707.328 225.321 707.587 224.791 707.914 224.36C708.242 223.929 708.638 223.581 709.138 223.349C709.621 223.117 710.207 223.001 710.862 223.001C711.328 223.001 711.742 223.084 712.086 223.25C712.431 223.415 712.707 223.647 712.88 223.979C713.052 224.294 713.155 224.708 713.155 225.205C713.155 225.304 713.155 225.42 713.155 225.553L713.138 225.536Z" fill="white"/>
<path fill-rule="evenodd" clip-rule="evenodd" d="M734.519 221.548C734.168 220.956 733.684 220.515 733.032 220.211C732.397 219.906 731.612 219.754 730.693 219.754C730.074 219.754 729.456 219.855 728.838 220.059C728.22 220.262 727.652 220.549 727.117 220.939C726.582 221.311 726.114 221.785 725.713 222.327H725.529V220.109H720.199L721.603 221.616L719.297 235.461H725.195L724.009 234.208L725.245 226.812C725.312 226.304 725.463 225.847 725.663 225.441C725.88 225.035 726.131 224.679 726.415 224.391C726.716 224.104 727.05 223.884 727.434 223.731C727.819 223.579 728.22 223.511 728.621 223.511C728.988 223.511 729.289 223.579 729.556 223.697C729.807 223.816 730.008 224.019 730.141 224.273C730.275 224.527 730.342 224.865 730.342 225.255C730.342 225.39 730.342 225.542 730.308 225.712C730.275 225.881 730.258 226.05 730.241 226.219L728.704 235.444H734.619L733.416 234.174L734.82 225.712C734.87 225.356 734.92 225.035 734.954 224.713C734.987 224.391 735.004 224.087 735.004 223.799C735.004 222.885 734.837 222.14 734.486 221.548H734.519Z" fill="white"/>
<path d="M631.561 248.811H626.992C624.749 248.811 622.922 246.919 622.922 244.595V240.173C623.919 240.173 624.733 241.016 624.733 242.049V244.802C624.733 246.092 625.729 247.125 626.975 247.125H629.933C630.83 247.125 631.561 247.882 631.561 248.811Z" fill="white"/>
<path d="M626.062 239.387H627.586C629.35 239.387 630.775 241.248 630.775 243.551V245.67H628.221C627.036 245.67 626.062 244.417 626.062 242.851V242.52L626.331 242.98C626.796 243.772 627.516 244.233 628.277 244.233H629.561C629.561 242.409 628.433 240.935 627.036 240.935H626.062V239.387Z" fill="white"/>
<path fill-rule="evenodd" clip-rule="evenodd" d="M737.541 209.545L736.008 215.739L741.945 215.89L743.642 209.578H737.541V209.545ZM741.619 216.645H741.277L734.932 216.611L736.677 210.031L736.775 209.679H736.432L722.438 209.595L731.262 213.237C732.469 213.741 733.235 215 733.17 216.393V216.611L727.282 216.578L734.638 218.508C735.894 218.827 736.807 219.985 736.905 221.379L737.672 231.534L741.521 217.031L741.619 216.679V216.645Z" fill="white"/>
<path d="M640.966 243.169C640.966 243.036 640.966 242.919 640.933 242.835C640.916 242.751 640.883 242.684 640.816 242.634C640.766 242.584 640.682 242.551 640.582 242.534C640.481 242.517 640.348 242.5 640.18 242.5H639.377C639.026 242.5 638.759 242.567 638.608 242.718C638.458 242.868 638.391 243.086 638.391 243.387V246.665C638.391 246.799 638.324 246.866 638.173 246.866H637.036C636.885 246.866 636.818 246.799 636.818 246.665V241.43C636.818 241.296 636.902 241.229 637.036 241.229H637.989C638.14 241.229 638.207 241.296 638.207 241.43V242.199C638.391 241.547 638.909 241.229 639.762 241.229H640.933C641.485 241.229 641.903 241.346 642.154 241.597C642.405 241.848 642.539 242.233 642.539 242.768V246.665C642.539 246.799 642.472 246.866 642.321 246.866H641.184C641.033 246.866 640.966 246.799 640.966 246.665V243.169Z" fill="white"/>
<path d="M648.594 246.866C648.042 246.866 647.624 246.749 647.373 246.498C647.122 246.247 646.988 245.862 646.988 245.327V242.751C646.988 242.216 647.122 241.831 647.373 241.581C647.624 241.33 648.025 241.213 648.594 241.213H651.354C651.889 241.213 652.274 241.33 652.508 241.564C652.742 241.798 652.859 242.149 652.859 242.651V244.324C652.859 244.457 652.776 244.524 652.642 244.524H648.561V244.926C648.561 245.076 648.561 245.177 648.594 245.277C648.627 245.377 648.644 245.428 648.711 245.478C648.761 245.528 648.845 245.561 648.945 245.578C649.046 245.595 649.179 245.612 649.347 245.612H650.952C651.086 245.612 651.17 245.595 651.237 245.545C651.304 245.495 651.337 245.411 651.337 245.294C651.337 245.16 651.404 245.093 651.555 245.093H652.642C652.792 245.093 652.859 245.16 652.859 245.294V245.444C652.859 245.946 652.742 246.314 652.508 246.548C652.274 246.766 651.889 246.883 651.354 246.883H648.577L648.594 246.866ZM648.577 243.504H651.32V242.885C651.32 242.735 651.287 242.634 651.203 242.584C651.12 242.534 651.019 242.5 650.869 242.5H649.347C649.179 242.5 649.046 242.501 648.945 242.534C648.845 242.551 648.761 242.584 648.711 242.634C648.661 242.685 648.611 242.751 648.594 242.835C648.577 242.919 648.561 243.036 648.561 243.169V243.521L648.577 243.504Z" fill="white"/>
<path d="M660.335 242.5C659.85 242.5 659.516 242.618 659.298 242.852C659.081 243.086 658.98 243.404 658.98 243.805V246.665C658.98 246.799 658.914 246.866 658.763 246.866H657.626C657.475 246.866 657.408 246.799 657.408 246.665V241.43C657.408 241.296 657.492 241.229 657.626 241.229H658.579C658.73 241.229 658.797 241.296 658.797 241.43V242.283C658.897 241.932 659.064 241.664 659.332 241.497C659.599 241.33 659.967 241.229 660.436 241.229H660.82C660.971 241.229 661.038 241.296 661.038 241.43V242.3C661.038 242.434 660.971 242.5 660.82 242.5H660.335Z" fill="white"/>
<path d="M666.574 246.866C666.022 246.866 665.604 246.749 665.353 246.498C665.103 246.247 664.969 245.862 664.969 245.327V242.751C664.969 242.216 665.103 241.831 665.353 241.581C665.604 241.33 666.006 241.213 666.574 241.213H667.896C668.732 241.213 669.251 241.53 669.451 242.183V241.413C669.451 241.279 669.518 241.213 669.669 241.213H670.639C670.789 241.213 670.856 241.279 670.856 241.413V247.334C670.856 248.472 670.271 249.04 669.083 249.04H666.591C666.056 249.04 665.688 248.923 665.454 248.706C665.22 248.489 665.103 248.121 665.103 247.619V247.518C665.103 247.368 665.169 247.301 665.32 247.301H666.407C666.558 247.301 666.625 247.368 666.625 247.518V247.569C666.625 247.769 666.742 247.87 666.976 247.87H668.481C668.799 247.87 669.016 247.819 669.117 247.719C669.217 247.619 669.267 247.435 669.267 247.167V246.147C669.017 246.615 668.531 246.849 667.812 246.849H666.574V246.866ZM667.327 242.5C667.16 242.5 667.026 242.501 666.926 242.534C666.825 242.551 666.742 242.584 666.692 242.634C666.641 242.685 666.591 242.751 666.574 242.835C666.558 242.919 666.541 243.036 666.541 243.169V244.926C666.541 245.076 666.541 245.177 666.574 245.277C666.608 245.377 666.625 245.428 666.692 245.478C666.758 245.528 666.825 245.561 666.926 245.578C667.026 245.595 667.16 245.612 667.327 245.612H668.281C668.632 245.612 668.883 245.545 669.033 245.394C669.184 245.244 669.251 245.026 669.251 244.725V243.404C669.251 243.103 669.184 242.885 669.033 242.735C668.883 242.584 668.632 242.517 668.281 242.517H667.327V242.5Z" fill="white"/>
<path d="M675.523 239.272C675.523 239.139 675.59 239.072 675.741 239.072H676.878C677.029 239.072 677.096 239.139 677.096 239.272V240.159C677.096 240.293 677.029 240.36 676.878 240.36H675.741C675.59 240.36 675.523 240.293 675.523 240.159V239.272ZM675.523 241.43C675.523 241.296 675.59 241.229 675.741 241.229H676.878C677.029 241.229 677.096 241.296 677.096 241.43V246.665C677.096 246.799 677.029 246.866 676.878 246.866H675.741C675.59 246.866 675.523 246.799 675.523 246.665V241.43Z" fill="white"/>
<path d="M683.233 246.866C682.681 246.866 682.263 246.749 682.012 246.498C681.761 246.247 681.627 245.862 681.627 245.327V242.751C681.627 242.216 681.761 241.831 682.012 241.581C682.263 241.33 682.664 241.213 683.233 241.213H685.993C686.528 241.213 686.912 241.33 687.147 241.564C687.381 241.798 687.498 242.149 687.498 242.651V244.324C687.498 244.457 687.414 244.524 687.28 244.524H683.199V244.926C683.199 245.076 683.199 245.177 683.233 245.277C683.249 245.361 683.283 245.428 683.35 245.478C683.4 245.528 683.484 245.561 683.584 245.578C683.684 245.595 683.818 245.612 683.985 245.612H685.591C685.725 245.612 685.809 245.595 685.875 245.545C685.942 245.495 685.976 245.411 685.976 245.294C685.976 245.16 686.043 245.093 686.193 245.093H687.28C687.431 245.093 687.498 245.16 687.498 245.294V245.444C687.498 245.946 687.381 246.314 687.147 246.548C686.912 246.766 686.528 246.883 685.993 246.883H683.216L683.233 246.866ZM683.216 243.504H685.959V242.885C685.959 242.735 685.926 242.634 685.842 242.584C685.775 242.534 685.658 242.5 685.507 242.5H683.985C683.818 242.5 683.684 242.501 683.584 242.534C683.484 242.567 683.4 242.584 683.35 242.634C683.3 242.685 683.249 242.751 683.233 242.835C683.216 242.919 683.199 243.036 683.199 243.169V243.521L683.216 243.504Z" fill="white"/>
<path d="M693.389 243.136C693.389 243.387 693.539 243.504 693.823 243.504H696.132C696.399 243.504 696.617 243.521 696.818 243.571C697.018 243.621 697.169 243.688 697.286 243.805C697.403 243.922 697.487 244.056 697.553 244.24C697.604 244.424 697.637 244.658 697.637 244.926V245.428C697.637 245.946 697.52 246.314 697.303 246.531C697.068 246.749 696.684 246.849 696.148 246.849H693.205C692.669 246.849 692.285 246.732 692.051 246.515C691.816 246.297 691.699 245.929 691.699 245.411V245.244C691.699 245.093 691.766 245.026 691.917 245.026H693.021C693.171 245.026 693.238 245.093 693.238 245.244C693.238 245.361 693.271 245.444 693.322 245.494C693.389 245.545 693.472 245.561 693.623 245.561H695.596C695.747 245.561 695.864 245.528 695.931 245.478C695.998 245.428 696.048 245.327 696.048 245.177V244.926C696.048 244.641 695.898 244.508 695.596 244.508H693.288C693.021 244.508 692.803 244.491 692.619 244.441C692.435 244.391 692.285 244.324 692.168 244.207C692.05 244.09 691.967 243.956 691.9 243.772C691.85 243.588 691.816 243.354 691.816 243.086V242.618C691.816 242.099 691.933 241.731 692.168 241.514C692.402 241.296 692.77 241.196 693.305 241.196H695.998C696.533 241.196 696.901 241.313 697.135 241.53C697.369 241.748 697.487 242.116 697.487 242.634V242.802C697.487 242.952 697.42 243.019 697.269 243.019H696.182C696.031 243.019 695.964 242.952 695.964 242.802C695.964 242.684 695.931 242.601 695.881 242.551C695.814 242.5 695.73 242.484 695.596 242.484H693.857C693.706 242.484 693.589 242.517 693.522 242.567C693.456 242.618 693.422 242.718 693.422 242.868V243.119L693.389 243.136Z" fill="white"/>
<path d="M1019 373C1043.3 373 1063 353.301 1063 329C1063 304.699 1043.3 285 1019 285C994.699 285 975 304.699 975 329C975 353.301 994.699 373 1019 373Z" fill="url(#paint18_linear_572_36)"/>
<path d="M1028.38 310.122L1022.76 322.611C1022.61 322.947 1022.64 323.336 1022.84 323.645C1023.04 323.953 1023.38 324.139 1023.75 324.139H1031.31C1031.74 324.139 1032.13 324.395 1032.3 324.79C1032.47 325.186 1032.4 325.645 1032.1 325.962L1010.61 349.061C1010.28 349.419 1009.75 349.509 1009.31 349.28C1008.88 349.052 1008.65 348.562 1008.76 348.084L1012.46 331.695C1012.53 331.375 1012.46 331.037 1012.25 330.779C1012.05 330.523 1011.73 330.372 1011.41 330.372H1006.69C1006.34 330.372 1006.01 330.204 1005.81 329.919C1005.61 329.633 1005.55 329.268 1005.67 328.936L1012.43 309.324C1012.58 308.887 1013 308.594 1013.46 308.594H1027.39C1027.76 308.594 1028.1 308.78 1028.3 309.088C1028.5 309.398 1028.53 309.787 1028.38 310.122L1028.38 310.122Z" fill="white"/>
<path d="M44 171C68.3005 171 88 151.301 88 127C88 102.699 68.3005 83 44 83C19.6995 83 0 102.699 0 127C0 151.301 19.6995 171 44 171Z" fill="url(#paint19_linear_572_36)"/>
<path d="M30.3518 126.486C37.2534 126.486 42.8482 124.621 42.8482 122.321C42.8482 120.02 37.2534 118.155 30.3518 118.155C23.4503 118.155 17.8555 120.02 17.8555 122.321C17.8555 124.621 23.4503 126.486 30.3518 126.486Z" fill="white"/>
<path d="M30.3518 133.15C37.2537 133.15 42.8482 131.286 42.8482 128.985V126.486C42.8482 125.565 42.7736 125.629 42.0935 126.248C40.3442 127.846 35.7478 128.985 30.3524 128.985C24.9565 128.985 20.36 127.847 18.6107 126.248C17.9301 125.629 17.8555 125.564 17.8555 126.486V128.985C17.8555 131.286 23.45 133.15 30.3518 133.15Z" fill="white"/>
<path d="M30.3518 139.815C37.2537 139.815 42.8482 137.951 42.8482 135.65V133.15C42.8482 132.23 42.7736 132.293 42.0935 132.913C40.3442 134.511 35.7478 135.65 30.3524 135.65C24.9565 135.65 20.36 134.511 18.6107 132.913C17.9301 132.293 17.8555 132.23 17.8555 133.15V135.65C17.8555 137.951 23.45 139.815 30.3518 139.815Z" fill="white"/>
<path d="M30.3518 146.48C37.2537 146.48 42.8482 144.615 42.8482 142.315V139.816C42.8482 138.895 42.7736 138.958 42.0935 139.578C40.3442 141.176 35.7478 142.315 30.3524 142.315C24.9565 142.315 20.36 141.177 18.6107 139.578C17.9301 138.958 17.8555 138.895 17.8555 139.815V142.314C17.8555 144.615 23.45 146.48 30.3518 146.48Z" fill="white"/>
<path d="M30.3518 153.145C37.2537 153.145 42.8482 151.28 42.8482 148.979V146.48C42.8482 145.559 42.7736 145.623 42.0935 146.243C40.3442 147.84 35.7478 148.98 30.3524 148.98C24.9565 148.98 20.36 147.841 18.6107 146.243C17.9301 145.623 17.8555 145.559 17.8555 146.48V148.979C17.8555 151.28 23.45 153.145 30.3518 153.145Z" fill="white"/>
<path d="M57.01 139.815C63.9116 139.815 69.5064 137.95 69.5064 135.65C69.5064 133.349 63.9116 131.484 57.01 131.484C50.1085 131.484 44.5137 133.349 44.5137 135.65C44.5137 137.95 50.1085 139.815 57.01 139.815Z" fill="white"/>
<path d="M68.7531 139.578C67.0038 141.175 62.4073 142.315 57.0114 142.315C51.6161 142.315 47.019 141.176 45.2703 139.578C44.5902 138.958 44.5156 138.895 44.5156 139.815V142.314C44.5156 144.615 50.1095 146.48 57.012 146.48C63.9144 146.48 69.5078 144.615 69.5078 142.315V139.816C69.5078 138.895 69.4332 138.958 68.7531 139.578Z" fill="white"/>
<path d="M68.7531 146.243C67.0038 147.84 62.4073 148.98 57.0114 148.98C51.6161 148.98 47.019 147.841 45.2703 146.243C44.5902 145.623 44.5156 145.559 44.5156 146.48V148.979C44.5156 151.28 50.1095 153.145 57.012 153.145C63.9144 153.145 69.5078 151.28 69.5078 148.979V146.48C69.5078 145.559 69.4332 145.623 68.7531 146.243Z" fill="white"/>
<path d="M58.4833 128.152V124.821C62.2338 124.165 64.2953 121.684 64.2953 118.776C64.2953 115.838 62.7251 114.038 58.846 112.666C56.0637 111.621 54.9165 110.934 54.9165 109.858C54.9165 108.942 55.6046 108.026 57.7263 108.026C60.0857 108.026 61.5859 108.778 62.4387 109.137L63.3794 105.444C62.3084 104.921 60.8346 104.469 58.6429 104.366V101.493H55.4422V104.597C51.947 105.282 49.9182 107.537 49.9182 110.413C49.9182 113.581 52.3115 115.214 55.8003 116.391C58.2216 117.208 59.2633 117.99 59.2633 119.232C59.2633 120.542 57.9909 121.261 56.1308 121.261C54.0039 121.261 52.079 120.571 50.7045 119.824L49.7266 123.643C50.9633 124.364 53.0914 124.949 55.2797 125.047V128.151L58.4833 128.152Z" fill="white"/>
<path d="M44 373C68.3005 373 88 353.301 88 329C88 304.699 68.3005 285 44 285C19.6995 285 0 304.699 0 329C0 353.301 19.6995 373 44 373Z" fill="url(#paint20_linear_572_36)"/>
<path d="M22.2461 332.104C23.0022 332.175 23.7025 331.7 23.9195 330.972C24.3513 329.307 25.0838 327.733 26.0806 326.33C25.5521 324.886 24.9034 323.49 24.1387 322.158C23.795 321.563 23.8057 320.829 24.1644 320.244C24.5232 319.658 25.1741 319.316 25.8615 319.355C27.7863 319.488 29.6101 320.274 31.0279 321.585C32.0633 320.912 33.161 320.341 34.3038 319.879C36.4391 331.717 52.1833 334.85 58.7737 325.417C60.4965 327.526 61.5685 330.089 61.8649 332.796C62.5352 332.905 63.2204 332.719 63.7446 332.285C64.2688 331.853 64.5802 331.215 64.5996 330.534C64.6017 329.608 65.3472 328.856 66.273 328.848C67.1968 328.837 67.9572 329.576 67.9766 330.499C67.9572 332.087 67.287 333.595 66.1205 334.671C64.9541 335.747 63.3967 336.297 61.8134 336.192C61.0831 341.365 57.8307 345.84 53.1327 348.13L52.6773 352.941V352.944C52.6236 353.425 52.2155 353.788 51.7321 353.788H47.1887C46.0244 353.805 46.2435 352.235 46.1082 351.474C45.8053 349.921 43.8461 350.866 42.7484 350.682V350.679C41.0149 350.682 39.2877 350.488 37.5971 350.106C35.2835 349.751 37.1589 353.788 35.2319 353.788H30.6735C30.1944 353.781 29.797 353.418 29.7454 352.944L29.0709 345.902H29.0688C27.6617 344.733 26.463 343.335 25.5221 341.764C25.2063 341.193 24.6048 340.838 23.9518 340.834H22.2289C21.23 340.834 20.4159 340.029 20.4051 339.028V333.928C20.4073 333.442 20.6028 332.976 20.9486 332.635C21.2923 332.293 21.7606 332.102 22.2461 332.104ZM29.8291 331.816C30.7399 331.786 31.4639 331.041 31.4639 330.128C31.4639 329.217 30.74 328.47 29.8291 328.44C28.9183 328.47 28.1943 329.217 28.1943 330.128C28.1943 331.041 28.9183 331.786 29.8291 331.816Z" fill="white"/>
<path fill-rule="evenodd" clip-rule="evenodd" d="M48.4656 326.449C54.4525 326.449 59.3062 321.596 59.3062 315.609C59.3062 309.622 54.4525 304.768 48.4656 304.768C42.4786 304.768 37.625 309.622 37.625 315.609C37.625 321.596 42.4786 326.449 48.4656 326.449ZM49.55 310.427V309.105H47.3812V310.427C45.8324 310.731 44.8101 311.731 44.8101 313.435C44.8101 315.427 45.8385 316.044 48.2817 316.534L48.6923 316.621C49.9596 316.9 50.2309 317.122 50.2309 317.776C50.2309 318.628 49.6852 319 48.4657 319C47.2492 319 46.7004 318.625 46.7004 317.776H44.8101L44.8162 317.988C44.8975 319.567 45.8965 320.499 47.3813 320.79V322.113H49.55V320.79C51.1008 320.487 52.1212 319.487 52.1212 317.776C52.1212 315.787 51.0947 315.17 48.6516 314.681L48.24 314.595C46.9727 314.316 46.7004 314.092 46.7004 313.434C46.7004 312.591 47.2512 312.217 48.4656 312.217C49.6811 312.217 50.2309 312.59 50.2309 313.434H52.1212L52.1151 313.224C52.0338 311.646 51.0338 310.717 49.55 310.426L49.55 310.427Z" fill="white"/>
<path d="M348 171C372.301 171 392 151.301 392 127C392 102.699 372.301 83 348 83C323.699 83 304 102.699 304 127C304 151.301 323.699 171 348 171Z" fill="url(#paint21_linear_572_36)"/>
<path d="M341.051 128.145C339.393 128.145 336.502 129.407 334.576 130.393C334.908 131.002 335.114 131.689 335.114 132.428V143.964C336.204 143.774 337.309 143.6 338.54 143.553C339.598 143.553 341.576 145.052 342.861 145.96C344.693 147.253 346.666 148.683 348.805 148.683C349.449 148.683 350.096 148.471 350.948 148.153C355.63 146.403 365.506 140.816 371.258 137.45C372.714 136.645 373.192 134.781 372.37 133.357C371.581 131.99 369.979 131.657 368.422 132.188L357.676 135.909C357.753 136.608 357.628 137.333 357.251 137.985C356.31 139.615 354.206 140.178 352.576 139.237L347.383 136.242C346.309 135.694 347.235 134.102 348.242 134.764L353.428 137.758C354.263 138.239 355.285 137.967 355.767 137.133C356.248 136.299 355.974 135.278 355.14 134.796C351.321 132.591 344.548 128.145 341.051 128.145ZM325.703 129.857C324.263 129.857 323.131 131.022 323.131 132.429V144.405C323.131 145.807 324.263 146.967 325.687 146.976H330.838C332.401 146.976 333.402 145.649 333.402 144.404V132.428C333.402 130.989 332.239 129.857 330.84 129.857H325.703ZM327.413 141.84C327.886 141.84 328.269 142.223 328.269 142.696C328.269 143.168 327.886 143.551 327.413 143.551C326.941 143.551 326.557 143.168 326.557 142.696C326.557 142.223 326.941 141.84 327.413 141.84Z" fill="white"/>
<path fill-rule="evenodd" clip-rule="evenodd" d="M360.555 128.275C367.07 128.275 372.352 122.993 372.352 116.478C372.352 109.963 367.07 104.681 360.555 104.681C354.04 104.681 348.758 109.963 348.758 116.478C348.758 122.993 354.04 128.275 360.555 128.275ZM361.735 110.839V109.4H359.375V110.839C357.689 111.17 356.577 112.258 356.577 114.112C356.577 116.28 357.696 116.952 360.355 117.486L360.802 117.58C362.181 117.884 362.476 118.125 362.476 118.837C362.476 119.764 361.882 120.169 360.555 120.169C359.231 120.169 358.634 119.761 358.634 118.837H356.577L356.584 119.067C356.672 120.786 357.759 121.8 359.375 122.117V123.556H361.735V122.117C363.423 121.788 364.533 120.699 364.533 118.837C364.533 116.673 363.416 116.001 360.757 115.469L360.309 115.375C358.93 115.071 358.634 114.828 358.634 114.112C358.634 113.194 359.233 112.787 360.555 112.787C361.878 112.787 362.476 113.193 362.476 114.112H364.533L364.526 113.883C364.438 112.166 363.35 111.155 361.735 110.839L361.735 110.839Z" fill="white"/>
<path d="M348 79C374.51 79 396 100.49 396 127C396 153.51 374.51 175 348 175C321.49 175 300 153.51 300 127C300 100.49 321.49 79 348 79Z" stroke="#4CBC94" stroke-width="2"/>
<path d="M348 281C374.51 281 396 302.49 396 329C396 355.51 374.51 377 348 377C321.49 377 300 355.51 300 329C300 302.49 321.49 281 348 281Z" stroke="#4CBC94" stroke-width="2"/>
<path d="M348 373C372.301 373 392 353.301 392 329C392 304.699 372.301 285 348 285C323.699 285 304 304.699 304 329C304 353.301 323.699 373 348 373Z" fill="url(#paint22_linear_572_36)"/>
<path d="M339.7 328.481C344.871 328.481 349.064 324.289 349.064 319.117C349.064 313.946 344.871 309.753 339.7 309.753C334.528 309.753 330.336 313.946 330.336 319.117C330.336 324.289 334.528 328.481 339.7 328.481Z" fill="white"/>
<path d="M348.528 319.117C348.512 322.764 346.203 326.151 342.753 327.409C341.001 328.046 339.074 328.126 337.274 327.616C335.544 327.128 334.01 326.103 332.863 324.723C330.496 321.872 330.225 317.695 332.136 314.542C334.042 311.394 337.832 309.716 341.447 310.459C345.056 311.203 347.859 314.159 348.427 317.79C348.501 318.225 348.528 318.671 348.528 319.117C348.533 319.802 349.595 319.802 349.59 319.117C349.579 317.079 348.958 315.051 347.764 313.395C346.59 311.76 344.961 310.512 343.071 309.817C339.201 308.394 334.679 309.631 332.072 312.816C330.777 314.403 329.991 316.33 329.832 318.374C329.673 320.407 330.166 322.488 331.223 324.229C332.242 325.912 333.776 327.297 335.57 328.11C337.476 328.97 339.605 329.219 341.659 328.81C345.635 328.025 348.846 324.691 349.457 320.689C349.537 320.168 349.584 319.643 349.584 319.117C349.595 318.433 348.533 318.433 348.528 319.117Z" fill="white"/>
<path d="M360.876 329.585C364.737 329.585 367.867 326.455 367.867 322.594C367.867 318.733 364.737 315.603 360.876 315.603C357.015 315.603 353.885 318.733 353.885 322.594C353.885 326.455 357.015 329.585 360.876 329.585Z" fill="white"/>
<path d="M367.333 322.594C367.317 325.259 365.635 327.743 363.108 328.656C360.533 329.585 357.64 328.794 355.883 326.698C354.148 324.622 353.946 321.559 355.342 319.25C356.722 316.962 359.482 315.72 362.115 316.251C364.769 316.782 366.824 318.931 367.259 321.602C367.317 321.931 367.333 322.265 367.333 322.594C367.339 323.279 368.4 323.279 368.395 322.594C368.379 319.441 366.383 316.606 363.426 315.518C360.502 314.446 357.067 315.38 355.092 317.79C353.091 320.232 352.789 323.751 354.429 326.469C356.069 329.187 359.297 330.583 362.397 329.957C365.396 329.357 367.832 326.825 368.294 323.794C368.353 323.396 368.39 322.992 368.395 322.589C368.4 321.909 367.339 321.909 367.333 322.594Z" fill="white"/>
<path d="M355.742 342.373V346.2C355.742 347.416 354.733 348.398 353.518 348.398H325.877C324.662 348.398 323.68 347.416 323.68 346.2V342.373C323.68 336.475 328.462 331.677 334.36 331.677H345.04C347.472 331.677 349.722 332.494 351.522 333.864C354.075 335.817 355.742 338.901 355.742 342.373Z" fill="white"/>
<path d="M355.186 342.373C355.186 343.536 355.186 344.698 355.186 345.861C355.186 346.02 355.196 346.184 355.18 346.349C355.143 346.795 354.915 347.214 354.57 347.501C354.246 347.766 353.848 347.872 353.434 347.872C351.932 347.878 350.429 347.872 348.927 347.872C346.055 347.872 343.184 347.872 340.306 347.872C337.35 347.872 334.393 347.872 331.436 347.872C329.684 347.872 327.927 347.872 326.176 347.872C326.075 347.872 325.979 347.872 325.878 347.872C325.05 347.862 324.328 347.257 324.217 346.423C324.153 345.956 324.206 345.452 324.206 344.985C324.206 344.263 324.206 343.536 324.206 342.814C324.206 342.171 324.212 341.534 324.307 340.897C324.461 339.889 324.758 338.891 325.204 337.972C326.091 336.157 327.497 334.623 329.239 333.604C330.805 332.685 332.588 332.224 334.398 332.224C335.295 332.224 336.192 332.224 337.084 332.224C339.664 332.224 342.239 332.224 344.819 332.224C346.761 332.224 348.635 332.685 350.302 333.705C352.266 334.899 353.811 336.778 354.581 338.949C354.989 340.048 355.18 341.2 355.186 342.373C355.191 343.058 356.253 343.058 356.247 342.373C356.237 339.825 355.371 337.373 353.79 335.377C352.192 333.354 349.856 331.916 347.329 331.401C346.13 331.157 344.935 331.162 343.725 331.162C342.281 331.162 340.843 331.162 339.399 331.162C338.029 331.162 336.654 331.162 335.285 331.162C334.069 331.162 332.864 331.194 331.67 331.486C327.391 332.526 323.994 336.178 323.299 340.542C323.07 341.97 323.145 343.44 323.145 344.884C323.145 345.394 323.107 345.914 323.155 346.423C323.261 347.596 324.127 348.637 325.3 348.87C325.778 348.966 326.282 348.934 326.765 348.934C327.646 348.934 328.533 348.934 329.414 348.934C332.232 348.934 335.046 348.934 337.865 348.934C340.959 348.934 344.054 348.934 347.149 348.934C349.102 348.934 351.061 348.934 353.015 348.934C353.169 348.934 353.322 348.934 353.476 348.934C354.241 348.929 354.995 348.632 355.515 348.058C356.083 347.437 356.242 346.689 356.242 345.877C356.242 345.165 356.242 344.454 356.242 343.743C356.242 343.286 356.242 342.83 356.242 342.373C356.247 341.688 355.186 341.688 355.186 342.373Z" fill="white"/>
<path d="M372.834 339.581V343.169C372.834 343.844 372.32 344.417 371.661 344.47H358.183V342.065C358.183 338.222 356.405 334.793 353.629 332.558C354.521 332.192 355.492 331.995 356.517 331.995H365.238C369.432 331.995 372.834 335.387 372.834 339.581Z" fill="white"/>
<path d="M372.304 339.581C372.304 340.77 372.341 341.97 372.304 343.164C372.288 343.631 371.938 343.923 371.492 343.923C371.104 343.923 370.717 343.923 370.329 343.923C367.203 343.923 364.076 343.923 360.944 343.923C360.021 343.923 359.102 343.923 358.179 343.923C358.354 344.098 358.534 344.279 358.709 344.454C358.709 343.313 358.763 342.15 358.662 341.014C358.471 338.806 357.722 336.651 356.448 334.83C355.758 333.837 354.935 332.945 353.996 332.181C353.916 332.478 353.842 332.77 353.762 333.068C354.665 332.701 355.604 332.521 356.575 332.521C356.931 332.521 357.292 332.521 357.648 332.521C359.039 332.521 360.424 332.521 361.815 332.521C362.898 332.521 363.981 332.521 365.069 332.521C366.672 332.521 368.206 332.977 369.496 333.949C371.264 335.265 372.293 337.383 372.304 339.581C372.309 340.266 373.371 340.266 373.366 339.581C373.355 337.389 372.469 335.26 370.887 333.736C369.374 332.277 367.335 331.459 365.233 331.454C362.855 331.443 360.472 331.454 358.094 331.454C357.611 331.454 357.133 331.454 356.65 331.454C355.567 331.454 354.5 331.634 353.491 332.038C353.162 332.17 352.913 332.643 353.258 332.924C354.834 334.204 356.103 335.865 356.841 337.765C357.218 338.737 357.483 339.761 357.589 340.802C357.658 341.449 357.653 342.097 357.653 342.75C357.653 343.318 357.653 343.886 357.653 344.454C357.653 344.741 357.897 344.985 358.184 344.985C358.959 344.985 359.729 344.985 360.504 344.985C362.17 344.985 363.837 344.985 365.504 344.985C367.054 344.985 368.609 344.985 370.16 344.985C370.589 344.985 371.014 344.985 371.444 344.985C372.124 344.985 372.761 344.698 373.116 344.093C373.472 343.488 373.366 342.681 373.366 342.001C373.366 341.248 373.366 340.489 373.366 339.735C373.366 339.687 373.366 339.634 373.366 339.586C373.366 338.896 372.304 338.896 372.304 339.581Z" fill="white"/>
<path d="M1018 171C1042.3 171 1062 151.301 1062 127C1062 102.699 1042.3 83 1018 83C993.699 83 974 102.699 974 127C974 151.301 993.699 171 1018 171Z" fill="url(#paint23_linear_572_36)"/>
<path d="M1044.78 138.484H991.855V140.641H1044.78V138.484ZM1030.28 127.161H1035.52L1033.66 124.962H1029.08L1030.28 127.161ZM1024.39 127.161H1029L1027.81 124.962H1023.97L1024.39 127.161ZM1018.89 127.161H1023.23L1022.82 124.962H1018.9V127.161H1018.89ZM1013.42 127.161H1017.75V124.962H1013.84L1013.42 127.161ZM1007.66 127.161H1012.25L1012.67 124.962H1008.83L1007.66 127.161ZM1001.12 127.161H1006.37L1007.56 124.962H1002.99L1001.12 127.161ZM1011.2 132.737H1004.64L1002.16 137.363H1010.33L1011.2 132.737ZM1017.75 132.737H1012.37L1011.48 137.363H1017.75V132.737ZM1024.29 132.737H1018.89V137.363H1025.16L1024.29 132.737ZM1031.99 132.737H1025.44L1026.33 137.363H1034.49L1031.99 132.737ZM1040.2 132.709C1040.14 132.723 1040.09 132.737 1040.03 132.737H1033.28L1035.76 137.363H1044.13L1040.2 132.709ZM1032.66 131.602H1039.27L1036.48 128.296H1030.88L1032.66 131.602ZM1025.23 131.602H1031.38L1029.6 128.296H1024.6L1025.23 131.602ZM1018.89 131.602H1024.07L1023.44 128.296H1018.89V131.602ZM1012.58 131.602H1017.75V128.296H1013.21L1012.58 131.602ZM1005.27 131.602H1011.42L1012.05 128.296H1007.06L1005.27 131.602ZM997.365 131.602H1003.97L1005.76 128.296H1000.16L997.365 131.602ZM996.609 132.737C996.552 132.737 996.48 132.723 996.437 132.709L992.498 137.363H1000.86L1003.36 132.737H996.609ZM1015.89 149.977H1020.73V141.79H1015.89V149.977ZM1009.06 155.696H1027.6C1029.61 155.696 1030.68 153.241 1029.22 151.794C1028.81 151.382 1028.23 151.112 1027.6 151.112H1009.06C1007.03 151.112 1005.96 153.567 1007.43 155.015C1007.84 155.426 1008.41 155.696 1009.06 155.696ZM1022.44 106.643C1020.16 104.373 1016.46 104.373 1014.19 106.643C1011.91 108.914 1011.91 112.589 1014.19 114.859C1016.48 117.129 1020.17 117.129 1022.44 114.859C1024.73 112.589 1024.73 108.914 1022.44 106.643ZM1023.49 100.726C1023.86 100.088 1024.84 100.655 1024.47 101.294L1023.44 103.082C1023.07 103.72 1022.07 103.153 1022.46 102.514L1023.49 100.726ZM1027.84 104.628C1028.48 104.259 1029.05 105.239 1028.41 105.607L1026.61 106.643C1025.97 107.012 1025.4 106.033 1026.04 105.664L1027.84 104.628ZM1029.64 110.176C1030.39 110.176 1030.39 111.312 1029.64 111.312H1027.57C1026.81 111.312 1026.81 110.176 1027.57 110.176H1029.64ZM1007 111.312C1006.26 111.312 1006.26 110.176 1007 110.176H1009.07C1009.81 110.176 1009.81 111.312 1009.07 111.312H1007ZM1008.23 105.607C1007.59 105.239 1008.16 104.259 1008.8 104.628L1010.58 105.664C1011.24 106.033 1010.67 107.026 1010.01 106.643L1008.23 105.607ZM1012.17 101.294C1011.8 100.655 1012.78 100.088 1013.15 100.726L1014.18 102.514C1014.55 103.153 1013.57 103.72 1013.19 103.082L1012.17 101.294ZM1028.41 115.88C1029.05 116.249 1028.48 117.243 1027.84 116.86L1026.04 115.824C1025.4 115.455 1025.97 114.476 1026.61 114.845L1028.41 115.88ZM1024.47 120.208C1024.84 120.861 1023.86 121.428 1023.49 120.776L1022.44 119.002C1022.07 118.349 1023.06 117.782 1023.43 118.435L1024.47 120.208ZM1018.89 121.996C1018.89 122.734 1017.75 122.734 1017.75 121.996V119.939C1017.75 119.201 1018.89 119.201 1018.89 119.939V121.996ZM1013.15 120.776C1012.78 121.428 1011.78 120.861 1012.17 120.208L1013.21 118.435C1013.58 117.782 1014.57 118.349 1014.19 119.002L1013.15 120.776ZM1008.81 116.86C1008.16 117.228 1007.59 116.249 1008.24 115.88L1010.04 114.859C1010.7 114.49 1011.27 115.469 1010.61 115.838L1008.81 116.86ZM1017.75 99.506C1017.75 98.754 1018.89 98.754 1018.89 99.506V101.563C1018.89 102.316 1017.75 102.316 1017.75 101.563V99.506Z" fill="white"/>
<path d="M165.216 117L172 124.424L165 131" stroke="#4CBC94" stroke-width="2" stroke-miterlimit="10"/>
<path d="M497.812 167.055L502.457 175.975L494.001 180.529" stroke="#4CBC94" stroke-width="2" stroke-miterlimit="10"/>
<path d="M860.166 160.212L869.185 164.661L865.055 173.332" stroke="#4CBC94" stroke-width="2" stroke-miterlimit="10"/>
<path d="M500.363 272.466L508.327 278.607L502.568 286.293" stroke="#4CBC94" stroke-width="2" stroke-miterlimit="10"/>
<path d="M686.784 337L680 329.576L687 323" stroke="#4CBC94" stroke-width="2" stroke-miterlimit="10"/>
<path d="M1026 224.216L1018.58 231L1012 224" stroke="#4CBC94" stroke-width="2" stroke-miterlimit="10"/>
<path d="M36 229.784L43.424 223L50 230" stroke="#4CBC94" stroke-width="2" stroke-miterlimit="10"/>
<path d="M201.784 337L195 329.576L202 323" stroke="#4CBC94" stroke-width="2" stroke-miterlimit="10"/>
<circle cx="256.5" cy="123.5" r="4.5" fill="#4CBC94"/>
<defs>
<linearGradient id="paint0_linear_572_36" x1="-nan" y1="-nan" x2="-nan" y2="-nan" gradientUnits="userSpaceOnUse">
<stop stop-color="#5179BC"/>
<stop offset="1" stop-color="#4DBD95"/>
</linearGradient>
<linearGradient id="paint1_linear_572_36" x1="-nan" y1="-nan" x2="-nan" y2="-nan" gradientUnits="userSpaceOnUse">
<stop stop-color="#5179BC"/>
<stop offset="1" stop-color="#4DBD95"/>
</linearGradient>
<linearGradient id="paint2_linear_572_36" x1="-nan" y1="-nan" x2="-nan" y2="-nan" gradientUnits="userSpaceOnUse">
<stop stop-color="#5179BC"/>
<stop offset="1" stop-color="#4DBD95"/>
</linearGradient>
<linearGradient id="paint3_linear_572_36" x1="-nan" y1="-nan" x2="-nan" y2="-nan" gradientUnits="userSpaceOnUse">
<stop stop-color="#5179BC"/>
<stop offset="1" stop-color="#4DBD95"/>
</linearGradient>
<linearGradient id="paint4_linear_572_36" x1="-nan" y1="-nan" x2="-nan" y2="-nan" gradientUnits="userSpaceOnUse">
<stop stop-color="#5179BC"/>
<stop offset="1" stop-color="#4DBD95"/>
</linearGradient>
<linearGradient id="paint5_linear_572_36" x1="-nan" y1="-nan" x2="-nan" y2="-nan" gradientUnits="userSpaceOnUse">
<stop stop-color="#5179BC"/>
<stop offset="1" stop-color="#4DBD95"/>
</linearGradient>
<linearGradient id="paint6_linear_572_36" x1="-nan" y1="-nan" x2="-nan" y2="-nan" gradientUnits="userSpaceOnUse">
<stop stop-color="#5179BC"/>
<stop offset="1" stop-color="#4DBD95"/>
</linearGradient>
<linearGradient id="paint7_linear_572_36" x1="-nan" y1="-nan" x2="-nan" y2="-nan" gradientUnits="userSpaceOnUse">
<stop stop-color="#5179BC"/>
<stop offset="1" stop-color="#4DBD95"/>
</linearGradient>
<linearGradient id="paint8_linear_572_36" x1="-nan" y1="-nan" x2="-nan" y2="-nan" gradientUnits="userSpaceOnUse">
<stop stop-color="#5179BC"/>
<stop offset="1" stop-color="#4DBD95"/>
</linearGradient>
<linearGradient id="paint9_linear_572_36" x1="-nan" y1="-nan" x2="-nan" y2="-nan" gradientUnits="userSpaceOnUse">
<stop stop-color="#5179BC"/>
<stop offset="1" stop-color="#4DBD95"/>
</linearGradient>
<linearGradient id="paint10_linear_572_36" x1="-nan" y1="-nan" x2="-nan" y2="-nan" gradientUnits="userSpaceOnUse">
<stop stop-color="#5179BC"/>
<stop offset="1" stop-color="#4DBD95"/>
</linearGradient>
<linearGradient id="paint11_linear_572_36" x1="331.381" y1="122.674" x2="332.394" y2="119.504" gradientUnits="userSpaceOnUse">
<stop stop-color="#5179BC"/>
<stop offset="1" stop-color="#4DBD95"/>
</linearGradient>
<linearGradient id="paint12_linear_572_36" x1="487.913" y1="172.963" x2="488.931" y2="169.821" gradientUnits="userSpaceOnUse">
<stop stop-color="#5179BC"/>
<stop offset="1" stop-color="#4DBD95"/>
</linearGradient>
<linearGradient id="paint13_linear_572_36" x1="633.31" y1="219.68" x2="634.323" y2="216.51" gradientUnits="userSpaceOnUse">
<stop stop-color="#5179BC"/>
<stop offset="1" stop-color="#4DBD95"/>
</linearGradient>
<linearGradient id="paint14_linear_572_36" x1="1043.11" y1="114.618" x2="1040.77" y2="107.097" gradientUnits="userSpaceOnUse">
<stop stop-color="#5179BC"/>
<stop offset="1" stop-color="#4DBD95"/>
</linearGradient>
<linearGradient id="paint15_linear_572_36" x1="686.271" y1="226.487" x2="683.912" y2="219.035" gradientUnits="userSpaceOnUse">
<stop stop-color="#5179BC"/>
<stop offset="1" stop-color="#4DBD95"/>
</linearGradient>
<linearGradient id="paint16_linear_572_36" x1="354.902" y1="330.423" x2="352.557" y2="322.902" gradientUnits="userSpaceOnUse">
<stop stop-color="#5179BC"/>
<stop offset="1" stop-color="#4DBD95"/>
</linearGradient>
<linearGradient id="paint17_linear_572_36" x1="607.983" y1="228" x2="758" y2="228" gradientUnits="userSpaceOnUse">
<stop stop-color="#5179BC"/>
<stop offset="1" stop-color="#4DBD95"/>
</linearGradient>
<linearGradient id="paint18_linear_572_36" x1="975.014" y1="329" x2="1063" y2="329" gradientUnits="userSpaceOnUse">
<stop stop-color="#5179BC"/>
<stop offset="1" stop-color="#4DBD95"/>
</linearGradient>
<linearGradient id="paint19_linear_572_36" x1="0.013635" y1="127" x2="88" y2="127" gradientUnits="userSpaceOnUse">
<stop stop-color="#5179BC"/>
<stop offset="1" stop-color="#4DBD95"/>
</linearGradient>
<linearGradient id="paint20_linear_572_36" x1="0.013635" y1="329" x2="88" y2="329" gradientUnits="userSpaceOnUse">
<stop stop-color="#5179BC"/>
<stop offset="1" stop-color="#4DBD95"/>
</linearGradient>
<linearGradient id="paint21_linear_572_36" x1="304.014" y1="127" x2="392" y2="127" gradientUnits="userSpaceOnUse">
<stop stop-color="#5179BC"/>
<stop offset="1" stop-color="#4DBD95"/>
</linearGradient>
<linearGradient id="paint22_linear_572_36" x1="304.014" y1="329" x2="392" y2="329" gradientUnits="userSpaceOnUse">
<stop stop-color="#5179BC"/>
<stop offset="1" stop-color="#4DBD95"/>
</linearGradient>
<linearGradient id="paint23_linear_572_36" x1="974.014" y1="127" x2="1062" y2="127" gradientUnits="userSpaceOnUse">
<stop stop-color="#5179BC"/>
<stop offset="1" stop-color="#4DBD95"/>
</linearGradient>
</defs>
</svg>
