<svg width="74" height="74" viewBox="0 0 74 74" fill="none" xmlns="http://www.w3.org/2000/svg">
<path d="M48.9437 13.7203L42.0264 29.328C41.8424 29.7472 41.8788 30.2331 42.1241 30.62C42.3717 31.0046 42.7919 31.2372 43.2463 31.2372H52.5553C53.0869 31.2372 53.5684 31.5573 53.7797 32.0502C53.9932 32.5453 53.8956 33.1188 53.5344 33.5149L27.057 62.381C26.6458 62.8277 25.9893 62.9406 25.4555 62.655C24.9217 62.3694 24.6423 61.7569 24.7763 61.1603L29.3353 40.6798C29.4239 40.279 29.3285 39.8576 29.0764 39.5352C28.8219 39.2151 28.438 39.0262 28.0337 39.0262H22.2275C21.7959 39.0262 21.3893 38.8166 21.1394 38.4597C20.8895 38.1027 20.8237 37.6467 20.9645 37.2322L29.3012 12.7237C29.4852 12.1778 29.9941 11.8116 30.562 11.8116H47.7263C48.1806 11.8116 48.6008 12.0442 48.8485 12.4289C49.0938 12.8158 49.1301 13.3017 48.9439 13.7209L48.9437 13.7203Z" fill="url(#paint0_linear_574_24)"/>
<defs>
<linearGradient id="paint0_linear_574_24" x1="37.3916" y1="11.8116" x2="37.3916" y2="62.8116" gradientUnits="userSpaceOnUse">
<stop stop-color="#4CBC94"/>
<stop offset="1" stop-color="#5179BC"/>
</linearGradient>
</defs>
</svg>
