<svg width="74" height="74" viewBox="0 0 74 74" fill="none" xmlns="http://www.w3.org/2000/svg">
<path d="M13.1466 49.9599L16.2093 47.9181C12.1857 40.9518 11.9455 32.5441 15.4887 25.3977L19.6925 25.1574C15.6689 31.5232 15.4887 39.4504 19.152 45.9363L22.0346 44.0146L22.6952 54.6442L13.1466 49.9599ZM60.95 22.0947L51.4013 17.3504L52.0619 27.98L54.9445 26.0583C58.6078 32.5441 58.4277 40.5314 54.404 46.8371L58.6078 46.5969C62.151 39.4504 61.8508 31.0428 57.8872 24.0765L60.95 22.0947ZM29.001 21.0137L27.0792 18.1311C33.5651 14.4677 41.5523 14.6479 47.8581 18.6716L47.6179 14.4677C40.4714 10.9245 32.0637 11.2248 25.0974 15.1884L23.0556 12.1256L18.3112 21.6743L29.001 21.0137ZM26.1784 53.3831L26.4186 57.5869C29.7216 59.2684 33.3849 60.1092 36.9882 60.1092C41.0719 60.1092 45.2157 59.0282 48.9391 56.9263L50.9208 59.929L55.6652 50.3803L45.0355 51.0409L46.9573 53.9235C40.5314 57.5268 32.5442 57.3467 26.1784 53.3831Z" fill="url(#paint0_linear_574_8)"/>
<path d="M27.6877 39.8831C28.0975 40.9046 27.7075 42.1776 26.5592 43.7476C27.3234 44.7692 28.2301 45.6759 29.2536 46.4401C30.8611 45.2641 32.1439 44.8959 33.1594 45.3294C34.175 45.765 34.8006 46.941 35.0975 48.8614V48.8634C36.3586 49.0455 37.6414 49.0455 38.9025 48.8634C39.2073 46.8955 39.8567 45.7294 40.8841 45.3136C41.9056 44.9038 43.1786 45.2938 44.7485 46.4421L44.7465 46.4402C45.2592 46.06 45.7422 45.6443 46.1917 45.1929C46.641 44.7415 47.0587 44.2584 47.4408 43.7476C46.2688 42.14 45.8966 40.8572 46.3322 39.8415C46.7638 38.8259 47.9397 38.2003 49.8619 37.9033V37.9014C50.046 36.6402 50.046 35.3593 49.8619 34.0982C47.8941 33.7933 46.7281 33.1439 46.3143 32.1164C45.9026 31.0948 46.2926 29.8219 47.4388 28.2519H47.4408C46.6786 27.2283 45.77 26.3216 44.7465 25.5593C43.139 26.7353 41.8601 27.1036 40.8406 26.668C39.825 26.2364 39.2014 25.0604 38.9025 23.1381C37.6415 22.954 36.3586 22.954 35.0976 23.1381C34.7927 25.106 34.1473 26.2721 33.1159 26.6839C32.0944 27.0957 30.8215 26.7057 29.2516 25.5593H29.2536C28.2281 26.3216 27.3214 27.2283 26.5592 28.2519C27.7352 29.8595 28.1034 31.1384 27.6698 32.158C27.2343 33.1736 26.0584 33.7972 24.1381 34.0962V34.0981C23.954 35.3593 23.954 36.6402 24.1381 37.9013C26.1039 38.2082 27.272 38.8535 27.6877 39.8831ZM31.845 30.8453C33.4485 29.2397 35.7073 28.4716 37.9564 28.7665C40.2053 29.0595 42.189 30.384 43.3254 32.348C44.4598 34.3119 44.6182 36.6936 43.751 38.7882C42.884 40.8848 41.0904 42.4587 38.8989 43.0467C36.7074 43.6347 34.3694 43.1695 32.568 41.7875C30.7685 40.4076 29.7133 38.2675 29.7133 36.0006C29.7113 34.0664 30.479 32.2114 31.845 30.8453ZM32.8566 40.1446C30.8789 38.1668 30.576 35.0702 32.1281 32.7459C33.6821 30.4217 36.6615 29.5189 39.243 30.588C41.8245 31.659 43.2914 34.403 42.747 37.1453C42.2006 39.8873 39.7953 41.8611 36.9999 41.8611C35.4459 41.8631 33.9533 41.2453 32.8566 40.1446Z" fill="url(#paint1_linear_574_8)"/>
<defs>
<linearGradient id="paint0_linear_574_8" x1="37.0378" y1="12" x2="37.0378" y2="60.1092" gradientUnits="userSpaceOnUse">
<stop stop-color="#5078BB"/>
<stop offset="1" stop-color="#4CBC94"/>
</linearGradient>
<linearGradient id="paint1_linear_574_8" x1="37" y1="23" x2="37" y2="49" gradientUnits="userSpaceOnUse">
<stop stop-color="#5078BB"/>
<stop offset="1" stop-color="#4CBC94"/>
</linearGradient>
</defs>
</svg>
