<svg width="51" height="61" viewBox="0 0 51 61" fill="none" xmlns="http://www.w3.org/2000/svg">
<path d="M11.9239 5.7766C10.222 4.07369 7.46705 4.07369 5.77579 5.7766C4.0739 7.47952 4.0739 10.2361 5.77579 11.939C7.47768 13.6419 10.2326 13.6419 11.9239 11.939C13.6258 10.2361 13.6258 7.47952 11.9239 5.7766ZM12.7004 1.33838C12.9769 0.85944 13.7109 1.28517 13.4343 1.76411L12.6685 3.10516C12.3919 3.5841 11.6473 3.15837 11.9345 2.67943L12.7004 1.33838ZM15.9446 4.26527C16.4233 3.98855 16.8487 4.72293 16.3701 4.99965L15.0298 5.7766C14.5512 6.05333 14.1257 5.31895 14.6044 5.04222L15.9446 4.26527ZM17.2848 8.42677C17.8486 8.42677 17.8486 9.27822 17.2848 9.27822H15.7425C15.1787 9.27822 15.1787 8.42677 15.7425 8.42677H17.2848ZM0.414836 9.27822C-0.138279 9.27822 -0.138279 8.42677 0.414836 8.42677H1.95717C2.51029 8.42677 2.51029 9.27822 1.95717 9.27822H0.414836ZM1.3296 4.99965C0.850944 4.72293 1.27642 3.98855 1.75507 4.26527L3.08468 5.04222C3.57397 5.31895 3.1485 6.06397 2.6592 5.7766L1.3296 4.99965ZM4.26536 1.76411C3.98881 1.28517 4.72275 0.85944 4.9993 1.33838L5.76516 2.67943C6.04171 3.15837 5.30777 3.5841 5.03122 3.10516L4.26536 1.76411ZM16.3701 12.7053C16.8487 12.9821 16.4233 13.7271 15.9446 13.4397L14.6044 12.6628C14.1257 12.386 14.5512 11.6517 15.0298 11.9284L16.3701 12.7053ZM13.4343 15.9515C13.7109 16.4411 12.9769 16.8668 12.7004 16.3772L11.9239 15.0468C11.6473 14.5573 12.3813 14.1315 12.6578 14.6211L13.4343 15.9515ZM9.27531 17.2926C9.27531 17.846 8.42436 17.846 8.42436 17.2926V15.7493C8.42436 15.1959 9.27531 15.1959 9.27531 15.7493V17.2926ZM4.9993 16.3772C4.72275 16.8668 3.97817 16.4411 4.26536 15.9515L5.04185 14.6211C5.31841 14.1315 6.05235 14.5573 5.77579 15.0468L4.9993 16.3772ZM1.76571 13.4397C1.27642 13.7164 0.850945 12.9821 1.34024 12.7053L2.68048 11.939C3.16977 11.6623 3.59525 12.3967 3.10595 12.6734L1.76571 13.4397ZM8.42436 0.423068C8.42436 -0.141023 9.27531 -0.141023 9.27531 0.423068V1.96633C9.27531 2.53042 8.42436 2.53042 8.42436 1.96633V0.423068Z" fill="url(#paint0_linear_522_21)"/>
<path fill-rule="evenodd" clip-rule="evenodd" d="M39.3071 48.8395H31.3692L33.201 41.8663H41.6701L40.0581 48.1984C40.0218 48.3734 39.9282 48.5313 39.7923 48.6474C39.6563 48.7635 39.4856 48.831 39.3071 48.8395ZM29.7572 48.8395H19.4501L21.1659 41.8663H31.5829L29.7572 48.8395ZM17.8442 48.8395H10.3276C10.1139 48.8395 9.90016 48.6258 9.68645 48.5159C9.60178 48.324 9.5641 48.1147 9.57654 47.9053L11.0786 41.8969H19.56L17.8442 48.8395ZM11.5061 40.2543L13.228 33.5987H21.691L19.9752 40.2543H11.5061ZM23.3152 33.5987H33.7261L32.0103 40.2543H21.63L23.3152 33.5987ZM35.3381 33.5987H43.8134L42.0975 40.2543H33.6223L35.3381 33.5987ZM13.6554 32.0966L15.2674 25.441H23.7427L22.1368 32.0966H13.6554ZM25.4646 25.441H35.7655L34.0497 32.0966H23.7427L25.4646 25.441ZM37.3775 25.441H45.8528L44.2469 32.0966H35.6617L37.3775 25.441ZM15.6948 23.829L17.4168 17.2832H25.892L24.1762 23.829H15.6948ZM27.504 17.2832H37.8843L36.193 23.829H25.892L27.504 17.2832ZM39.5208 17.2832H48.0021L46.2863 23.829H37.805L39.5208 17.2832ZM17.7343 15.6773L19.2486 9.98648C19.2807 9.80888 19.3728 9.64769 19.5095 9.52987C19.6462 9.41205 19.8192 9.34475 19.9996 9.33923H27.9375L26.3194 15.6773H17.7343ZM29.5434 9.33923H39.9238L38.2324 15.6773H27.9314L29.5434 9.33923ZM41.5602 9.33923H48.9669C49.0929 9.33701 49.2175 9.36528 49.3302 9.42162C49.4429 9.47797 49.5403 9.56074 49.6141 9.66286C49.6819 9.75462 49.7266 9.86127 49.7447 9.97387C49.7627 10.0865 49.7536 10.2018 49.7179 10.3101L48.3258 15.6773H39.8444L41.5602 9.33923Z" fill="url(#paint1_linear_522_21)"/>
<path fill-rule="evenodd" clip-rule="evenodd" d="M40.7031 54.5304V49.9447C41.1445 49.5945 41.4474 49.099 41.558 48.5465L47.2488 26.3325L47.1389 54.5609L40.7031 54.5304Z" fill="url(#paint2_linear_522_21)"/>
<path fill-rule="evenodd" clip-rule="evenodd" d="M50.2544 60.325H37.6941C37.5958 60.3259 37.4984 60.307 37.4076 60.2694C37.3167 60.2318 37.2344 60.1763 37.1655 60.1062C37.0965 60.0361 37.0424 59.9529 37.0063 59.8615C36.9702 59.77 36.9528 59.6723 36.9553 59.574V58.1757C36.9633 57.6125 37.1914 57.0748 37.5908 56.6777C37.9902 56.2805 38.5292 56.0555 39.0924 56.0508H48.8622C49.4259 56.0539 49.9658 56.2785 50.3656 56.6759C50.7653 57.0734 50.9929 57.612 50.9993 58.1757V59.574C51.0018 59.6728 50.9843 59.7711 50.9478 59.8629C50.9113 59.9547 50.8566 60.0383 50.787 60.1084C50.7174 60.1786 50.6344 60.2339 50.5428 60.2712C50.4513 60.3084 50.3532 60.3267 50.2544 60.325Z" fill="url(#paint3_linear_522_21)"/>
<defs>
<linearGradient id="paint0_linear_522_21" x1="8.84975" y1="0" x2="8.84975" y2="42.5702" gradientUnits="userSpaceOnUse">
<stop stop-color="#5078BB"/>
<stop offset="1" stop-color="#4CBC94"/>
</linearGradient>
<linearGradient id="paint1_linear_522_21" x1="29.6639" y1="9.33911" x2="29.6639" y2="48.8395" gradientUnits="userSpaceOnUse">
<stop stop-color="#5078BB"/>
<stop offset="1" stop-color="#4CBC94"/>
</linearGradient>
<linearGradient id="paint2_linear_522_21" x1="43.976" y1="26.3325" x2="43.976" y2="54.5609" gradientUnits="userSpaceOnUse">
<stop stop-color="#5078BB"/>
<stop offset="1" stop-color="#4CBC94"/>
</linearGradient>
<linearGradient id="paint3_linear_522_21" x1="43.9773" y1="56.0508" x2="43.9773" y2="60.3251" gradientUnits="userSpaceOnUse">
<stop stop-color="#5078BB"/>
<stop offset="1" stop-color="#4CBC94"/>
</linearGradient>
</defs>
</svg>
